<svg width="65" height="42" viewBox="0 0 65 42" fill="none" xmlns="http://www.w3.org/2000/svg">
<mask id="path-1-outside-1_13_1075" maskUnits="userSpaceOnUse" x="-1" y="-1.52441" width="67" height="44" fill="black">
<rect fill="white" x="-1" y="-1.52441" width="67" height="44"/>
<path d="M17.288 41.0516C11.8267 41.0516 7.73067 39.1743 5 35.4196C2.312 31.6223 0.968 26.7369 0.968 20.7636C0.968 16.5823 1.736 12.9343 3.272 9.81958C4.808 6.66225 6.89867 4.25158 9.544 2.58759C12.1893 0.923584 15.0907 0.0915833 18.248 0.0915833C23.7947 0.0915833 27.848 1.88358 30.408 5.46758C32.968 9.00892 34.248 13.8729 34.248 20.0596C34.248 24.1983 33.5013 27.8676 32.008 31.0676C30.5573 34.2249 28.5307 36.6783 25.928 38.4276C23.368 40.1769 20.488 41.0516 17.288 41.0516ZM17.544 37.7876C23.9013 37.7876 27.08 32.0916 27.08 20.6996C27.08 15.1529 26.3547 10.8863 24.904 7.89959C23.496 4.91292 21.1067 3.41958 17.736 3.41958C14.4507 3.41958 12.0187 4.84892 10.44 7.70758C8.86133 10.5236 8.072 14.5769 8.072 19.8676C8.072 25.2863 8.81867 29.6383 10.312 32.9236C11.848 36.1663 14.2587 37.7876 17.544 37.7876ZM50.157 7.45158C49.261 7.79292 47.853 8.19825 45.933 8.66759C44.013 9.13692 42.4557 9.45692 41.261 9.62758L40.621 6.04358C42.797 5.57425 45.0157 4.78492 47.277 3.67558C49.581 2.56625 51.501 1.35025 53.037 0.0275841H53.101L57.005 0.667583V36.7636L64.941 37.3396V40.4756H41.901V37.3396L50.157 36.7636V7.45158Z"/>
</mask>
<path d="M5 35.4196L4.18373 35.9974L4.19126 36.0078L5 35.4196ZM3.272 9.81958L4.16888 10.2619L4.17124 10.257L3.272 9.81958ZM9.544 2.58759L10.0765 3.43405H10.0765L9.544 2.58759ZM30.408 5.46758L29.5943 6.04883L29.5976 6.05343L30.408 5.46758ZM32.008 31.0676L31.1018 30.6447L31.0993 30.6501L32.008 31.0676ZM25.928 38.4276L25.3701 37.5976L25.3638 37.6019L25.928 38.4276ZM24.904 7.89959L23.9994 8.32603L24.0045 8.33649L24.904 7.89959ZM10.44 7.70758L11.3123 8.1966L11.3154 8.19101L10.44 7.70758ZM10.312 32.9236L9.40163 33.3374L9.40489 33.3446L9.40826 33.3517L10.312 32.9236ZM17.288 40.0516C12.0824 40.0516 8.31641 38.2795 5.80874 34.8314L4.19126 36.0078C7.14492 40.069 11.5709 42.0516 17.288 42.0516V40.0516ZM5.81621 34.8418C3.27774 31.2557 1.968 26.5887 1.968 20.7636H-0.0319998C-0.0319998 26.8852 1.34626 31.9888 4.1838 35.9973L5.81621 34.8418ZM1.968 20.7636C1.968 16.7047 2.71318 13.2137 4.16887 10.2619L2.37513 9.37729C0.758824 12.6548 -0.0319998 16.4598 -0.0319998 20.7636H1.968ZM4.17124 10.257C5.63592 7.2463 7.6081 4.98672 10.0765 3.43405L9.01155 1.74113C6.18924 3.51645 3.98008 6.0782 2.37277 9.38212L4.17124 10.257ZM10.0765 3.43405C12.5606 1.87145 15.277 1.09158 18.248 1.09158V-0.908417C14.9043 -0.908417 11.8181 -0.0242805 9.01155 1.74113L10.0765 3.43405ZM18.248 1.09158C23.5652 1.09158 27.2704 2.79545 29.5943 6.04882L31.2217 4.88634C28.4256 0.97172 24.0241 -0.908417 18.248 -0.908417V1.09158ZM29.5976 6.05343C31.9926 9.36656 33.248 13.9986 33.248 20.0596H35.248C35.248 13.7472 33.9434 8.65128 31.2184 4.88174L29.5976 6.05343ZM33.248 20.0596C33.248 24.0771 32.5236 27.598 31.1018 30.6447L32.9142 31.4905C34.4791 28.1372 35.248 24.3194 35.248 20.0596H33.248ZM31.0993 30.6501C29.7169 33.6589 27.804 35.9618 25.3702 37.5976L26.4858 39.2575C29.2573 37.3948 31.3978 34.791 32.9167 31.4851L31.0993 30.6501ZM25.3638 37.6019C22.9756 39.2339 20.2935 40.0516 17.288 40.0516V42.0516C20.6825 42.0516 23.7604 41.12 26.4922 39.2532L25.3638 37.6019ZM17.544 38.7876C19.2873 38.7876 20.8604 38.3954 22.2288 37.5781C23.5959 36.7615 24.7041 35.5532 25.5692 34.0029C27.2826 30.9326 28.08 26.4558 28.08 20.6996H26.08C26.08 26.3354 25.2881 30.4026 23.8228 33.0283C23.0986 34.326 22.2201 35.2536 21.2032 35.8611C20.1876 36.4677 18.9794 36.7876 17.544 36.7876V38.7876ZM28.08 20.6996C28.08 15.0903 27.3504 10.6476 25.8035 7.46268L24.0045 8.33649C25.3589 11.125 26.08 15.2155 26.08 20.6996H28.08ZM25.8085 7.47317C25.037 5.83667 23.9697 4.55639 22.586 3.69159C21.2036 2.82759 19.5716 2.41958 17.736 2.41958V4.41958C19.271 4.41958 20.5191 4.75824 21.526 5.38758C22.5317 6.01611 23.363 6.97583 23.9995 8.326L25.8085 7.47317ZM17.736 2.41958C15.9448 2.41958 14.3346 2.81058 12.9413 3.62945C11.5477 4.44851 10.4268 5.66292 9.56461 7.22416L11.3154 8.19101C12.0319 6.89358 12.9163 5.96399 13.9547 5.35371C14.9934 4.74325 16.2418 4.41958 17.736 4.41958V2.41958ZM9.56772 7.21858C7.86793 10.2506 7.072 14.5031 7.072 19.8676H9.072C9.072 14.6507 9.85474 10.7965 11.3123 8.19659L9.56772 7.21858ZM7.072 19.8676C7.072 25.3639 7.82719 29.8736 9.40163 33.3374L11.2224 32.5098C9.81014 29.4029 9.072 25.2086 9.072 19.8676H7.072ZM9.40826 33.3517C10.2353 35.0976 11.3279 36.4692 12.7139 37.4014C14.1052 38.3371 15.7294 38.7876 17.544 38.7876V36.7876C16.0732 36.7876 14.8495 36.4274 13.8301 35.7418C12.8054 35.0526 11.9247 33.9923 11.2157 32.4955L9.40826 33.3517ZM50.157 7.45158H51.157V6.00052L49.801 6.5171L50.157 7.45158ZM45.933 8.66759L46.1705 9.63898L45.933 8.66759ZM41.261 9.62758L40.2766 9.80338L40.4463 10.7541L41.4024 10.6175L41.261 9.62758ZM40.621 6.04358L40.4102 5.06606L39.467 5.2695L39.6366 6.21937L40.621 6.04358ZM47.277 3.67558L46.8432 2.77456L46.8366 2.77779L47.277 3.67558ZM53.037 0.0275841V-0.972416H52.6658L52.3845 -0.730185L53.037 0.0275841ZM53.101 0.0275841L53.2628 -0.959244L53.1824 -0.972416H53.101V0.0275841ZM57.005 0.667583H58.005V-0.181831L57.1668 -0.319244L57.005 0.667583ZM57.005 36.7636H56.005V37.6936L56.9326 37.761L57.005 36.7636ZM64.941 37.3396H65.941V36.4095L65.0134 36.3422L64.941 37.3396ZM64.941 40.4756V41.4756H65.941V40.4756H64.941ZM41.901 40.4756H40.901V41.4756H41.901V40.4756ZM41.901 37.3396L41.8314 36.342L40.901 36.4069V37.3396H41.901ZM50.157 36.7636L50.2266 37.7612L51.157 37.6963V36.7636H50.157ZM49.801 6.5171C48.966 6.83521 47.6081 7.22866 45.6955 7.69619L46.1705 9.63898C48.0979 9.16784 49.556 8.75063 50.513 8.38607L49.801 6.5171ZM45.6955 7.69619C43.79 8.16198 42.2682 8.47355 41.1196 8.63763L41.4024 10.6175C42.6431 10.4403 44.236 10.1119 46.1705 9.63898L45.6955 7.69619ZM42.2454 9.45179L41.6054 5.86779L39.6366 6.21937L40.2766 9.80338L42.2454 9.45179ZM40.8318 7.0211C43.0969 6.53255 45.3925 5.71391 47.7174 4.57337L46.8366 2.77779C44.6389 3.85592 42.4971 4.61595 40.4102 5.06606L40.8318 7.0211ZM47.7108 4.57658C50.0741 3.43869 52.0726 2.17774 53.6895 0.785353L52.3845 -0.730185C50.9294 0.522768 49.0879 1.69381 46.8432 2.77458L47.7108 4.57658ZM53.037 1.02758H53.101V-0.972416H53.037V1.02758ZM52.9392 1.01441L56.8432 1.65441L57.1668 -0.319244L53.2628 -0.959244L52.9392 1.01441ZM56.005 0.667583V36.7636H58.005V0.667583H56.005ZM56.9326 37.761L64.8686 38.337L65.0134 36.3422L57.0774 35.7662L56.9326 37.761ZM63.941 37.3396V40.4756H65.941V37.3396H63.941ZM64.941 39.4756H41.901V41.4756H64.941V39.4756ZM42.901 40.4756V37.3396H40.901V40.4756H42.901ZM41.9706 38.3372L50.2266 37.7612L50.0874 35.766L41.8314 36.342L41.9706 38.3372ZM51.157 36.7636V7.45158H49.157V36.7636H51.157Z" fill="#020E35" mask="url(#path-1-outside-1_13_1075)"/>
</svg>
