<svg width="75" height="42" viewBox="0 0 75 42" fill="none" xmlns="http://www.w3.org/2000/svg">
<mask id="path-1-outside-1_13_1080" maskUnits="userSpaceOnUse" x="-1" y="-1.52441" width="77" height="44" fill="black">
<rect fill="white" x="-1" y="-1.52441" width="77" height="44"/>
<path d="M17.288 41.0516C11.8267 41.0516 7.73067 39.1743 5 35.4196C2.312 31.6223 0.968 26.7369 0.968 20.7636C0.968 16.5823 1.736 12.9343 3.272 9.81958C4.808 6.66225 6.89867 4.25158 9.544 2.58759C12.1893 0.923584 15.0907 0.0915833 18.248 0.0915833C23.7947 0.0915833 27.848 1.88358 30.408 5.46758C32.968 9.00892 34.248 13.8729 34.248 20.0596C34.248 24.1983 33.5013 27.8676 32.008 31.0676C30.5573 34.2249 28.5307 36.6783 25.928 38.4276C23.368 40.1769 20.488 41.0516 17.288 41.0516ZM17.544 37.7876C23.9013 37.7876 27.08 32.0916 27.08 20.6996C27.08 15.1529 26.3547 10.8863 24.904 7.89959C23.496 4.91292 21.1067 3.41958 17.736 3.41958C14.4507 3.41958 12.0187 4.84892 10.44 7.70758C8.86133 10.5236 8.072 14.5769 8.072 19.8676C8.072 25.2863 8.81867 29.6383 10.312 32.9236C11.848 36.1663 14.2587 37.7876 17.544 37.7876ZM41.133 37.7876C45.0583 35.5689 48.6637 33.0303 51.949 30.1716C55.2343 27.2703 57.837 24.2836 59.757 21.2116C61.7197 18.1396 62.701 15.2383 62.701 12.5076C62.701 10.1609 61.997 8.30492 60.589 6.93958C59.181 5.53158 57.1757 4.82758 54.573 4.82758C52.141 4.82758 50.0503 5.31825 48.301 6.29958C46.5517 7.23825 44.9303 8.41158 43.437 9.81958L41.389 6.93958C42.8823 5.19025 45.0157 3.61158 47.789 2.20358C50.5623 0.752917 53.5277 0.0275841 56.685 0.0275841C59.6717 0.0275841 62.189 0.582251 64.237 1.69159C66.285 2.75825 67.7997 4.16625 68.781 5.91558C69.7623 7.66492 70.253 9.58492 70.253 11.6756C70.253 15.8996 68.2263 20.2516 64.173 24.7316C60.1197 29.1689 55.0423 33.1583 48.941 36.6996L68.781 35.2276L71.021 29.7236L74.285 30.3636L72.621 40.4756H42.093L41.133 37.7876Z"/>
</mask>
<path d="M5 35.4196L4.18373 35.9974L4.19126 36.0078L5 35.4196ZM3.272 9.81958L4.16888 10.2619L4.17124 10.257L3.272 9.81958ZM9.544 2.58759L10.0765 3.43405H10.0765L9.544 2.58759ZM30.408 5.46758L29.5943 6.04883L29.5976 6.05343L30.408 5.46758ZM32.008 31.0676L31.1018 30.6447L31.0993 30.6501L32.008 31.0676ZM25.928 38.4276L25.3701 37.5976L25.3638 37.6019L25.928 38.4276ZM24.904 7.89959L23.9994 8.32603L24.0045 8.33649L24.904 7.89959ZM10.44 7.70758L11.3123 8.1966L11.3154 8.19101L10.44 7.70758ZM10.312 32.9236L9.40163 33.3374L9.40489 33.3446L9.40826 33.3517L10.312 32.9236ZM17.288 40.0516C12.0824 40.0516 8.31641 38.2795 5.80874 34.8314L4.19126 36.0078C7.14492 40.069 11.5709 42.0516 17.288 42.0516V40.0516ZM5.81621 34.8418C3.27774 31.2557 1.968 26.5887 1.968 20.7636H-0.0319998C-0.0319998 26.8852 1.34626 31.9888 4.1838 35.9973L5.81621 34.8418ZM1.968 20.7636C1.968 16.7047 2.71318 13.2137 4.16887 10.2619L2.37513 9.37729C0.758824 12.6548 -0.0319998 16.4598 -0.0319998 20.7636H1.968ZM4.17124 10.257C5.63592 7.2463 7.6081 4.98672 10.0765 3.43405L9.01155 1.74113C6.18924 3.51645 3.98008 6.0782 2.37277 9.38212L4.17124 10.257ZM10.0765 3.43405C12.5606 1.87145 15.277 1.09158 18.248 1.09158V-0.908417C14.9043 -0.908417 11.8181 -0.0242805 9.01155 1.74113L10.0765 3.43405ZM18.248 1.09158C23.5652 1.09158 27.2704 2.79545 29.5943 6.04882L31.2217 4.88634C28.4256 0.97172 24.0241 -0.908417 18.248 -0.908417V1.09158ZM29.5976 6.05343C31.9926 9.36656 33.248 13.9986 33.248 20.0596H35.248C35.248 13.7472 33.9434 8.65128 31.2184 4.88174L29.5976 6.05343ZM33.248 20.0596C33.248 24.0771 32.5236 27.598 31.1018 30.6447L32.9142 31.4905C34.4791 28.1372 35.248 24.3194 35.248 20.0596H33.248ZM31.0993 30.6501C29.7169 33.6589 27.804 35.9618 25.3702 37.5976L26.4858 39.2575C29.2573 37.3948 31.3978 34.791 32.9167 31.4851L31.0993 30.6501ZM25.3638 37.6019C22.9756 39.2339 20.2935 40.0516 17.288 40.0516V42.0516C20.6825 42.0516 23.7604 41.12 26.4922 39.2532L25.3638 37.6019ZM17.544 38.7876C19.2873 38.7876 20.8604 38.3954 22.2288 37.5781C23.5959 36.7615 24.7041 35.5532 25.5692 34.0029C27.2826 30.9326 28.08 26.4558 28.08 20.6996H26.08C26.08 26.3354 25.2881 30.4026 23.8228 33.0283C23.0986 34.326 22.2201 35.2536 21.2032 35.8611C20.1876 36.4677 18.9794 36.7876 17.544 36.7876V38.7876ZM28.08 20.6996C28.08 15.0903 27.3504 10.6476 25.8035 7.46268L24.0045 8.33649C25.3589 11.125 26.08 15.2155 26.08 20.6996H28.08ZM25.8085 7.47317C25.037 5.83667 23.9697 4.55639 22.586 3.69159C21.2036 2.82759 19.5716 2.41958 17.736 2.41958V4.41958C19.271 4.41958 20.5191 4.75824 21.526 5.38758C22.5317 6.01611 23.363 6.97583 23.9995 8.326L25.8085 7.47317ZM17.736 2.41958C15.9448 2.41958 14.3346 2.81058 12.9413 3.62945C11.5477 4.44851 10.4268 5.66292 9.56461 7.22416L11.3154 8.19101C12.0319 6.89358 12.9163 5.96399 13.9547 5.35371C14.9934 4.74325 16.2418 4.41958 17.736 4.41958V2.41958ZM9.56772 7.21858C7.86793 10.2506 7.072 14.5031 7.072 19.8676H9.072C9.072 14.6507 9.85474 10.7965 11.3123 8.19659L9.56772 7.21858ZM7.072 19.8676C7.072 25.3639 7.82719 29.8736 9.40163 33.3374L11.2224 32.5098C9.81014 29.4029 9.072 25.2086 9.072 19.8676H7.072ZM9.40826 33.3517C10.2353 35.0976 11.3279 36.4692 12.7139 37.4014C14.1052 38.3371 15.7294 38.7876 17.544 38.7876V36.7876C16.0732 36.7876 14.8495 36.4274 13.8301 35.7418C12.8054 35.0526 11.9247 33.9923 11.2157 32.4955L9.40826 33.3517ZM41.133 37.7876L40.6409 36.917L39.9081 37.3312L40.1913 38.1239L41.133 37.7876ZM51.949 30.1716L52.6054 30.926L52.6109 30.9211L51.949 30.1716ZM59.757 21.2116L58.9143 20.6732L58.909 20.6816L59.757 21.2116ZM60.589 6.93958L59.8819 7.64669L59.8873 7.65213L59.8929 7.65748L60.589 6.93958ZM48.301 6.29958L48.7738 7.18074L48.7821 7.17631L48.7903 7.17173L48.301 6.29958ZM43.437 9.81958L42.622 10.3991L43.2875 11.3349L44.123 10.5472L43.437 9.81958ZM41.389 6.93958L40.6284 6.29032L40.1221 6.8835L40.574 7.51911L41.389 6.93958ZM47.789 2.20358L48.2417 3.09532L48.2525 3.08968L47.789 2.20358ZM64.237 1.69159L63.7607 2.57088L63.7679 2.57475L63.7751 2.5785L64.237 1.69159ZM64.173 24.7316L64.9113 25.406L64.9145 25.4025L64.173 24.7316ZM48.941 36.6996L48.439 35.8347L49.015 37.6968L48.941 36.6996ZM68.781 35.2276L68.855 36.2248L69.4735 36.179L69.7072 35.6045L68.781 35.2276ZM71.021 29.7236L71.2134 28.7423L70.4052 28.5838L70.0948 29.3466L71.021 29.7236ZM74.285 30.3636L75.2717 30.526L75.4292 29.5689L74.4774 29.3823L74.285 30.3636ZM72.621 40.4756V41.4756H73.4699L73.6077 40.638L72.621 40.4756ZM42.093 40.4756L41.1513 40.8119L41.3883 41.4756H42.093V40.4756ZM41.6251 38.6581C45.6069 36.4076 49.2676 33.8303 52.6054 30.926L51.2926 29.4172C48.0597 32.2302 44.5098 34.7303 40.6409 36.917L41.6251 38.6581ZM52.6109 30.9211C55.9539 27.9689 58.6245 24.9104 60.605 21.7416L58.909 20.6816C57.0495 23.6568 54.5147 26.5716 51.2871 29.422L52.6109 30.9211ZM60.5997 21.75C62.6315 18.5697 63.701 15.4831 63.701 12.5076H61.701C61.701 14.9935 60.8078 17.7094 58.9143 20.6732L60.5997 21.75ZM63.701 12.5076C63.701 9.9476 62.9249 7.81179 61.2851 6.22168L59.8929 7.65748C61.0691 8.79804 61.701 10.3742 61.701 12.5076H63.701ZM61.2961 6.23248C59.6481 4.5845 57.3562 3.82758 54.573 3.82758V5.82758C56.9952 5.82758 58.7139 6.47867 59.8819 7.64669L61.2961 6.23248ZM54.573 3.82758C52.0059 3.82758 49.7392 4.34617 47.8117 5.42744L48.7903 7.17173C50.3614 6.29033 52.2761 5.82758 54.573 5.82758V3.82758ZM47.8282 5.41842C45.9987 6.40007 44.3061 7.6257 42.751 9.092L44.123 10.5472C45.5545 9.19747 47.1046 8.07643 48.7738 7.18074L47.8282 5.41842ZM44.252 9.24006L42.204 6.36006L40.574 7.51911L42.622 10.3991L44.252 9.24006ZM42.1496 7.58885C43.5328 5.96844 45.547 4.46333 48.2417 3.09525L47.3363 1.31192C44.4843 2.75984 42.2318 4.41206 40.6284 6.29032L42.1496 7.58885ZM48.2525 3.08968C50.8815 1.71452 53.6876 1.02758 56.685 1.02758V-0.972416C53.3677 -0.972416 50.2432 -0.208685 47.3255 1.31748L48.2525 3.08968ZM56.685 1.02758C59.5511 1.02758 61.8945 1.56002 63.7607 2.57088L64.7133 0.812294C62.4835 -0.395517 59.7922 -0.972416 56.685 -0.972416V1.02758ZM63.7751 2.5785C65.6773 3.56926 67.0364 4.84966 67.9089 6.40483L69.6531 5.42633C68.5629 3.48285 66.8927 1.94724 64.6989 0.80467L63.7751 2.5785ZM67.9089 6.40483C68.8027 7.99829 69.253 9.74872 69.253 11.6756H71.253C71.253 9.42111 70.7219 7.33154 69.6531 5.42633L67.9089 6.40483ZM69.253 11.6756C69.253 15.563 67.3895 19.6861 63.4315 24.0607L64.9145 25.4025C69.0632 20.8171 71.253 16.2362 71.253 11.6756H69.253ZM63.4347 24.0571C59.4607 28.4076 54.4672 32.3358 48.439 35.8347L49.443 37.5645C55.6174 33.9807 60.7786 29.9302 64.9113 25.406L63.4347 24.0571ZM49.015 37.6968L68.855 36.2248L68.707 34.2303L48.867 35.7023L49.015 37.6968ZM69.7072 35.6045L71.9472 30.1005L70.0948 29.3466L67.8548 34.8506L69.7072 35.6045ZM70.8286 30.7049L74.0926 31.3449L74.4774 29.3823L71.2134 28.7423L70.8286 30.7049ZM73.2983 30.2012L71.6343 40.3132L73.6077 40.638L75.2717 30.526L73.2983 30.2012ZM72.621 39.4756H42.093V41.4756H72.621V39.4756ZM43.0347 40.1392L42.0747 37.4512L40.1913 38.1239L41.1513 40.8119L43.0347 40.1392Z" fill="#020E35" mask="url(#path-1-outside-1_13_1080)"/>
</svg>
