<svg width="71" height="51" viewBox="0 0 71 51" fill="none" xmlns="http://www.w3.org/2000/svg">
<mask id="path-1-outside-1_13_1085" maskUnits="userSpaceOnUse" x="-1" y="-1.52441" width="73" height="54" fill="black">
<rect fill="white" x="-1" y="-1.52441" width="73" height="54"/>
<path d="M17.288 41.0516C11.8267 41.0516 7.73067 39.1743 5 35.4196C2.312 31.6223 0.968 26.7369 0.968 20.7636C0.968 16.5823 1.736 12.9343 3.272 9.81958C4.808 6.66225 6.89867 4.25158 9.544 2.58759C12.1893 0.923584 15.0907 0.0915833 18.248 0.0915833C23.7947 0.0915833 27.848 1.88358 30.408 5.46758C32.968 9.00892 34.248 13.8729 34.248 20.0596C34.248 24.1983 33.5013 27.8676 32.008 31.0676C30.5573 34.2249 28.5307 36.6783 25.928 38.4276C23.368 40.1769 20.488 41.0516 17.288 41.0516ZM17.544 37.7876C23.9013 37.7876 27.08 32.0916 27.08 20.6996C27.08 15.1529 26.3547 10.8863 24.904 7.89959C23.496 4.91292 21.1067 3.41958 17.736 3.41958C14.4507 3.41958 12.0187 4.84892 10.44 7.70758C8.86133 10.5236 8.072 14.5769 8.072 19.8676C8.072 25.2863 8.81867 29.6383 10.312 32.9236C11.848 36.1663 14.2587 37.7876 17.544 37.7876ZM48.173 50.7796C47.1917 50.7796 46.1037 50.6943 44.909 50.5236C43.7143 50.3956 42.7117 50.2249 41.901 50.0116V46.3636C43.309 46.7903 44.9943 47.0036 46.957 47.0036C50.3277 47.0036 53.229 46.4703 55.661 45.4036C58.1357 44.3369 60.013 42.8863 61.293 41.0516C62.6157 39.2169 63.277 37.2116 63.277 35.0356C63.277 32.1343 62.381 29.8943 60.589 28.3156C58.8397 26.6943 56.1303 25.8623 52.461 25.8196L50.477 26.3316C49.069 26.7583 48.3863 26.9503 48.429 26.9076L47.341 23.5156C49.133 23.1743 50.8183 22.6623 52.397 21.9796C55.0423 20.8703 57.1757 19.3983 58.797 17.5636C60.4183 15.6863 61.229 13.7023 61.229 11.6116C61.229 9.17958 60.5037 7.40892 59.053 6.29958C57.645 5.14758 55.8317 4.57158 53.613 4.57158C51.693 4.57158 49.837 4.91292 48.045 5.59558C46.2957 6.27825 44.781 7.11025 43.501 8.09158L41.773 5.21159C42.9677 4.01692 44.8663 2.86492 47.469 1.75558C50.1143 0.603584 52.8023 0.0275841 55.533 0.0275841C59.4157 0.0275841 62.5517 0.880918 64.941 2.58759C67.3303 4.25158 68.525 6.81158 68.525 10.2676C68.525 13.2969 67.3303 16.0489 64.941 18.5236C62.5517 20.9983 59.7143 22.8116 56.429 23.9636C56.8557 23.9209 57.453 23.8996 58.221 23.8996C60.7383 23.8996 62.957 24.3689 64.877 25.3076C66.797 26.2463 68.269 27.5263 69.293 29.1476C70.3597 30.7263 70.893 32.5183 70.893 34.5236C70.893 37.6383 69.9543 40.4329 68.077 42.9076C66.1997 45.3823 63.533 47.3023 60.077 48.6676C56.6637 50.0756 52.6957 50.7796 48.173 50.7796Z"/>
</mask>
<path d="M5 35.4196L4.18373 35.9974L4.19126 36.0078L5 35.4196ZM3.272 9.81958L4.16888 10.2619L4.17124 10.257L3.272 9.81958ZM9.544 2.58759L10.0765 3.43405H10.0765L9.544 2.58759ZM30.408 5.46758L29.5943 6.04883L29.5976 6.05343L30.408 5.46758ZM32.008 31.0676L31.1018 30.6447L31.0993 30.6501L32.008 31.0676ZM25.928 38.4276L25.3701 37.5976L25.3638 37.6019L25.928 38.4276ZM24.904 7.89959L23.9994 8.32603L24.0045 8.33649L24.904 7.89959ZM10.44 7.70758L11.3123 8.1966L11.3154 8.19101L10.44 7.70758ZM10.312 32.9236L9.40163 33.3374L9.40489 33.3446L9.40826 33.3517L10.312 32.9236ZM17.288 40.0516C12.0824 40.0516 8.31641 38.2795 5.80874 34.8314L4.19126 36.0078C7.14492 40.069 11.5709 42.0516 17.288 42.0516V40.0516ZM5.81621 34.8418C3.27774 31.2557 1.968 26.5887 1.968 20.7636H-0.0319998C-0.0319998 26.8852 1.34626 31.9888 4.1838 35.9973L5.81621 34.8418ZM1.968 20.7636C1.968 16.7047 2.71318 13.2137 4.16887 10.2619L2.37513 9.37729C0.758824 12.6548 -0.0319998 16.4598 -0.0319998 20.7636H1.968ZM4.17124 10.257C5.63592 7.2463 7.6081 4.98672 10.0765 3.43405L9.01155 1.74113C6.18924 3.51645 3.98008 6.0782 2.37277 9.38212L4.17124 10.257ZM10.0765 3.43405C12.5606 1.87145 15.277 1.09158 18.248 1.09158V-0.908417C14.9043 -0.908417 11.8181 -0.0242805 9.01155 1.74113L10.0765 3.43405ZM18.248 1.09158C23.5652 1.09158 27.2704 2.79545 29.5943 6.04882L31.2217 4.88634C28.4256 0.97172 24.0241 -0.908417 18.248 -0.908417V1.09158ZM29.5976 6.05343C31.9926 9.36656 33.248 13.9986 33.248 20.0596H35.248C35.248 13.7472 33.9434 8.65128 31.2184 4.88174L29.5976 6.05343ZM33.248 20.0596C33.248 24.0771 32.5236 27.598 31.1018 30.6447L32.9142 31.4905C34.4791 28.1372 35.248 24.3194 35.248 20.0596H33.248ZM31.0993 30.6501C29.7169 33.6589 27.804 35.9618 25.3702 37.5976L26.4858 39.2575C29.2573 37.3948 31.3978 34.791 32.9167 31.4851L31.0993 30.6501ZM25.3638 37.6019C22.9756 39.2339 20.2935 40.0516 17.288 40.0516V42.0516C20.6825 42.0516 23.7604 41.12 26.4922 39.2532L25.3638 37.6019ZM17.544 38.7876C19.2873 38.7876 20.8604 38.3954 22.2288 37.5781C23.5959 36.7615 24.7041 35.5532 25.5692 34.0029C27.2826 30.9326 28.08 26.4558 28.08 20.6996H26.08C26.08 26.3354 25.2881 30.4026 23.8228 33.0283C23.0986 34.326 22.2201 35.2536 21.2032 35.8611C20.1876 36.4677 18.9794 36.7876 17.544 36.7876V38.7876ZM28.08 20.6996C28.08 15.0903 27.3504 10.6476 25.8035 7.46268L24.0045 8.33649C25.3589 11.125 26.08 15.2155 26.08 20.6996H28.08ZM25.8085 7.47317C25.037 5.83667 23.9697 4.55639 22.586 3.69159C21.2036 2.82759 19.5716 2.41958 17.736 2.41958V4.41958C19.271 4.41958 20.5191 4.75824 21.526 5.38758C22.5317 6.01611 23.363 6.97583 23.9995 8.326L25.8085 7.47317ZM17.736 2.41958C15.9448 2.41958 14.3346 2.81058 12.9413 3.62945C11.5477 4.44851 10.4268 5.66292 9.56461 7.22416L11.3154 8.19101C12.0319 6.89358 12.9163 5.96399 13.9547 5.35371C14.9934 4.74325 16.2418 4.41958 17.736 4.41958V2.41958ZM9.56772 7.21858C7.86793 10.2506 7.072 14.5031 7.072 19.8676H9.072C9.072 14.6507 9.85474 10.7965 11.3123 8.19659L9.56772 7.21858ZM7.072 19.8676C7.072 25.3639 7.82719 29.8736 9.40163 33.3374L11.2224 32.5098C9.81014 29.4029 9.072 25.2086 9.072 19.8676H7.072ZM9.40826 33.3517C10.2353 35.0976 11.3279 36.4692 12.7139 37.4014C14.1052 38.3371 15.7294 38.7876 17.544 38.7876V36.7876C16.0732 36.7876 14.8495 36.4274 13.8301 35.7418C12.8054 35.0526 11.9247 33.9923 11.2157 32.4955L9.40826 33.3517ZM44.909 50.5236L45.0504 49.5336L45.033 49.5312L45.0155 49.5293L44.909 50.5236ZM41.901 50.0116H40.901V50.7825L41.6465 50.9787L41.901 50.0116ZM41.901 46.3636L42.191 45.4066L40.901 45.0157V46.3636H41.901ZM55.661 45.4036L55.2652 44.4852L55.2593 44.4878L55.661 45.4036ZM61.293 41.0516L60.4818 40.4668L60.4773 40.4731L60.4729 40.4794L61.293 41.0516ZM60.589 28.3156L59.9092 29.049L59.9185 29.0576L59.928 29.0659L60.589 28.3156ZM52.461 25.8196L52.4726 24.8197L52.3398 24.8181L52.2111 24.8513L52.461 25.8196ZM50.477 26.3316L50.2271 25.3633L50.2069 25.3685L50.187 25.3746L50.477 26.3316ZM48.429 26.9076L49.1361 27.6147L49.5676 27.1832L49.3812 26.6022L48.429 26.9076ZM47.341 23.5156L47.1539 22.5332L46.0436 22.7447L46.3888 23.821L47.341 23.5156ZM52.397 21.9796L52.0103 21.0573L52.0001 21.0617L52.397 21.9796ZM58.797 17.5636L59.5464 18.2258L59.5538 18.2172L58.797 17.5636ZM59.053 6.29958L58.4198 7.07354L58.4325 7.08395L58.4456 7.09394L59.053 6.29958ZM48.045 5.59558L47.689 4.66107L47.6815 4.66401L48.045 5.59558ZM43.501 8.09158L42.6435 8.60608L43.2201 9.56703L44.1094 8.88519L43.501 8.09158ZM41.773 5.21159L41.0659 4.50448L40.5138 5.05657L40.9155 5.72608L41.773 5.21159ZM47.469 1.75558L47.8611 2.67554L47.8683 2.67242L47.469 1.75558ZM64.941 2.58759L64.3597 3.40138L64.3695 3.40819L64.941 2.58759ZM64.941 18.5236L65.6604 19.2182L64.941 18.5236ZM56.429 23.9636L56.0981 23.0199L56.5285 24.9586L56.429 23.9636ZM64.877 25.3076L65.3162 24.4092L64.877 25.3076ZM69.293 29.1476L68.4475 29.6816L68.4558 29.6946L68.4644 29.7074L69.293 29.1476ZM68.077 42.9076L68.8737 43.512L68.077 42.9076ZM60.077 48.6676L59.7096 47.7375L59.7026 47.7403L59.6957 47.7431L60.077 48.6676ZM48.173 49.7796C47.2483 49.7796 46.2084 49.6991 45.0504 49.5336L44.7676 51.5135C45.9989 51.6894 47.1351 51.7796 48.173 51.7796V49.7796ZM45.0155 49.5293C43.8514 49.4045 42.9018 49.2409 42.1555 49.0445L41.6465 50.9787C42.5216 51.2089 43.5773 51.3866 44.8025 51.5179L45.0155 49.5293ZM42.901 50.0116V46.3636H40.901V50.0116H42.901ZM41.611 47.3206C43.1384 47.7835 44.9267 48.0036 46.957 48.0036V46.0036C45.062 46.0036 43.4796 45.797 42.191 45.4066L41.611 47.3206ZM46.957 48.0036C50.43 48.0036 53.4748 47.4544 56.0627 46.3194L55.2593 44.4878C52.9832 45.4861 50.2253 46.0036 46.957 46.0036V48.0036ZM56.0568 46.3219C58.6672 45.1968 60.7067 43.6397 62.1131 41.6238L60.4729 40.4794C59.3193 42.1328 57.6041 43.4771 55.2652 44.4853L56.0568 46.3219ZM62.1042 41.6364C63.5444 39.6386 64.277 37.4302 64.277 35.0356H62.277C62.277 36.993 61.6869 38.7952 60.4818 40.4668L62.1042 41.6364ZM64.277 35.0356C64.277 31.9142 63.3033 29.374 61.25 27.5652L59.928 29.0659C61.4587 30.4145 62.277 32.3543 62.277 35.0356H64.277ZM61.2688 27.5822C59.2611 25.7214 56.2612 24.8637 52.4726 24.8197L52.4494 26.8195C55.9994 26.8608 58.4182 27.6671 59.9092 29.049L61.2688 27.5822ZM52.2111 24.8513L50.2271 25.3633L50.7269 27.2999L52.7109 26.7879L52.2111 24.8513ZM50.187 25.3746C49.4841 25.5875 48.9694 25.7398 48.6383 25.8329C48.4695 25.8804 48.3624 25.9085 48.3058 25.9217C48.2668 25.9308 48.2874 25.9244 48.3324 25.9192C48.3468 25.9175 48.3792 25.9141 48.4218 25.9135C48.4465 25.9131 48.5589 25.9109 48.6971 25.9493C48.7613 25.9671 49.3586 26.1435 49.4226 26.8161C49.4489 27.0919 49.3556 27.2999 49.2978 27.402C49.2377 27.5081 49.1715 27.5793 49.1361 27.6147L47.7219 26.2005C47.6852 26.2372 47.6179 26.3096 47.5573 26.4168C47.4989 26.52 47.4053 26.7291 47.4316 27.0057C47.4958 27.68 48.0947 27.8577 48.1619 27.8764C48.3031 27.9156 48.4199 27.9137 48.4504 27.9133C48.4989 27.9126 48.5385 27.9087 48.5616 27.906C48.6413 27.8968 48.7192 27.879 48.7602 27.8694C48.8636 27.8453 49.0072 27.8068 49.1797 27.7582C49.5312 27.6594 50.0619 27.5023 50.767 27.2886L50.187 25.3746ZM49.3812 26.6022L48.2932 23.2102L46.3888 23.821L47.4768 27.213L49.3812 26.6022ZM47.5281 24.4979C49.3879 24.1437 51.1439 23.6109 52.7939 22.8974L52.0001 21.0617C50.4927 21.7136 48.8781 22.2048 47.1539 22.5332L47.5281 24.4979ZM52.7837 22.9018C55.5443 21.7441 57.8095 20.1911 59.5463 18.2258L58.0477 16.9014C56.5418 18.6054 54.5404 19.9964 52.0103 21.0574L52.7837 22.9018ZM59.5538 18.2172C61.3013 16.1938 62.229 13.9854 62.229 11.6116H60.229C60.229 13.4191 59.5354 15.1787 58.0402 16.91L59.5538 18.2172ZM62.229 11.6116C62.229 8.97982 61.4355 6.86262 59.6604 5.50523L58.4456 7.09394C59.5718 7.95522 60.229 9.37934 60.229 11.6116H62.229ZM59.6862 5.52563C58.0628 4.19737 56.0101 3.57158 53.613 3.57158V5.57158C55.6533 5.57158 57.2272 6.09779 58.4198 7.07354L59.6862 5.52563ZM53.613 3.57158C51.5715 3.57158 49.5948 3.93506 47.689 4.6611L48.401 6.53007C50.0792 5.89077 51.8145 5.57158 53.613 5.57158V3.57158ZM47.6815 4.66401C45.8584 5.37543 44.2584 6.25086 42.8926 7.29798L44.1094 8.88519C45.3036 7.96964 46.7329 7.18107 48.4085 6.52716L47.6815 4.66401ZM44.3585 7.57709L42.6305 4.69709L40.9155 5.72608L42.6435 8.60608L44.3585 7.57709ZM42.4801 5.91869C43.5434 4.85539 45.3075 3.76394 47.8611 2.67551L47.0769 0.835661C44.4252 1.96589 42.3919 3.17845 41.0659 4.50448L42.4801 5.91869ZM47.8683 2.67242C50.3949 1.57211 52.9474 1.02758 55.533 1.02758V-0.972416C52.6572 -0.972416 49.8338 -0.364944 47.0697 0.838751L47.8683 2.67242ZM55.533 1.02758C59.2738 1.02758 62.1871 1.84945 64.3598 3.40132L65.5222 1.77385C62.9162 -0.0876122 59.5576 -0.972416 55.533 -0.972416V1.02758ZM64.3695 3.40819C66.4377 4.84852 67.525 7.0688 67.525 10.2676H69.525C69.525 6.55436 68.223 3.65465 65.5125 1.76698L64.3695 3.40819ZM67.525 10.2676C67.525 13.0021 66.4573 15.5134 64.2216 17.829L65.6604 19.2182C68.2033 16.5844 69.525 13.5917 69.525 10.2676H67.525ZM64.2216 17.829C61.9419 20.1901 59.2381 21.9189 56.0981 23.0199L56.7599 24.9073C60.1905 23.7043 63.1614 21.8064 65.6604 19.2182L64.2216 17.829ZM56.5285 24.9586C56.906 24.9209 57.4647 24.8996 58.221 24.8996V22.8996C57.4413 22.8996 56.8053 22.921 56.3295 22.9685L56.5285 24.9586ZM58.221 24.8996C60.613 24.8996 62.6768 25.3451 64.4378 26.206L65.3162 24.4092C63.2372 23.3928 60.8637 22.8996 58.221 22.8996V24.8996ZM64.4378 26.206C66.2108 27.0728 67.5336 28.2345 68.4475 29.6816L70.1385 28.6136C69.0044 26.818 67.3832 25.4197 65.3162 24.4092L64.4378 26.206ZM68.4644 29.7074C69.4133 31.1118 69.893 32.7067 69.893 34.5236H71.893C71.893 32.3298 71.306 30.3407 70.1216 28.5877L68.4644 29.7074ZM69.893 34.5236C69.893 37.4206 69.0253 40.0029 67.2803 42.3032L68.8737 43.512C70.8833 40.8629 71.893 37.8559 71.893 34.5236H69.893ZM67.2803 42.3032C65.5336 44.6057 63.029 46.4262 59.7096 47.7375L60.4444 49.5976C64.037 48.1784 66.8658 46.1588 68.8737 43.512L67.2803 42.3032ZM59.6957 47.7431C56.4272 49.0914 52.5934 49.7796 48.173 49.7796V51.7796C52.7979 51.7796 56.9002 51.0598 60.4583 49.592L59.6957 47.7431Z" fill="#020E35" mask="url(#path-1-outside-1_13_1085)"/>
</svg>
