<svg width="79" height="55" viewBox="0 0 79 55" fill="none" xmlns="http://www.w3.org/2000/svg">
<mask id="path-1-outside-1_13_1059" maskUnits="userSpaceOnUse" x="-1" y="-0.524414" width="81" height="57" fill="black">
<rect fill="white" x="-1" y="-0.524414" width="81" height="57"/>
<path d="M17.288 45.0516C11.8267 45.0516 7.73067 43.1743 5 39.4196C2.312 35.6223 0.968 30.7369 0.968 24.7636C0.968 20.5823 1.736 16.9343 3.272 13.8196C4.808 10.6623 6.89867 8.25158 9.544 6.58759C12.1893 4.92358 15.0907 4.09158 18.248 4.09158C23.7947 4.09158 27.848 5.88358 30.408 9.46758C32.968 13.0089 34.248 17.8729 34.248 24.0596C34.248 28.1983 33.5013 31.8676 32.008 35.0676C30.5573 38.2249 28.5307 40.6783 25.928 42.4276C23.368 44.1769 20.488 45.0516 17.288 45.0516ZM17.544 41.7876C23.9013 41.7876 27.08 36.0916 27.08 24.6996C27.08 19.1529 26.3547 14.8863 24.904 11.8996C23.496 8.91292 21.1067 7.41958 17.736 7.41958C14.4507 7.41958 12.0187 8.84892 10.44 11.7076C8.86133 14.5236 8.072 18.5769 8.072 23.8676C8.072 29.2863 8.81867 33.6383 10.312 36.9236C11.848 40.1663 14.2587 41.7876 17.544 41.7876ZM63.405 44.4756H42.157L40.493 41.5956C43.0103 36.8169 46.1037 30.5023 49.773 22.6516C53.4423 14.7583 56.7277 7.52625 59.629 0.955585H61.293L66.413 3.70758L49.133 36.9876L46.573 40.8916L63.405 39.9956L63.661 27.5156L69.101 27.0676V39.6756L78.125 39.2276V44.4756H69.101V54.7796H63.405V44.4756Z"/>
</mask>
<path d="M5 39.4196L4.18373 39.9974L4.19126 40.0078L5 39.4196ZM3.272 13.8196L4.16888 14.2619L4.17124 14.257L3.272 13.8196ZM9.544 6.58759L10.0765 7.43405H10.0765L9.544 6.58759ZM30.408 9.46758L29.5943 10.0488L29.5976 10.0534L30.408 9.46758ZM32.008 35.0676L31.1018 34.6447L31.0993 34.6501L32.008 35.0676ZM25.928 42.4276L25.3701 41.5976L25.3638 41.6019L25.928 42.4276ZM24.904 11.8996L23.9994 12.326L24.0045 12.3365L24.904 11.8996ZM10.44 11.7076L11.3123 12.1966L11.3154 12.191L10.44 11.7076ZM10.312 36.9236L9.40163 37.3374L9.40489 37.3446L9.40826 37.3517L10.312 36.9236ZM17.288 44.0516C12.0824 44.0516 8.31641 42.2795 5.80874 38.8314L4.19126 40.0078C7.14492 44.069 11.5709 46.0516 17.288 46.0516V44.0516ZM5.81621 38.8418C3.27774 35.2557 1.968 30.5887 1.968 24.7636H-0.0319998C-0.0319998 30.8852 1.34626 35.9888 4.1838 39.9973L5.81621 38.8418ZM1.968 24.7636C1.968 20.7047 2.71318 17.2137 4.16887 14.2619L2.37513 13.3773C0.758824 16.6548 -0.0319998 20.4598 -0.0319998 24.7636H1.968ZM4.17124 14.257C5.63592 11.2463 7.6081 8.98672 10.0765 7.43405L9.01155 5.74113C6.18924 7.51645 3.98008 10.0782 2.37277 13.3821L4.17124 14.257ZM10.0765 7.43405C12.5606 5.87145 15.277 5.09158 18.248 5.09158V3.09158C14.9043 3.09158 11.8181 3.97572 9.01155 5.74113L10.0765 7.43405ZM18.248 5.09158C23.5652 5.09158 27.2704 6.79545 29.5943 10.0488L31.2217 8.88634C28.4256 4.97172 24.0241 3.09158 18.248 3.09158V5.09158ZM29.5976 10.0534C31.9926 13.3666 33.248 17.9986 33.248 24.0596H35.248C35.248 17.7472 33.9434 12.6513 31.2184 8.88174L29.5976 10.0534ZM33.248 24.0596C33.248 28.0771 32.5236 31.598 31.1018 34.6447L32.9142 35.4905C34.4791 32.1372 35.248 28.3194 35.248 24.0596H33.248ZM31.0993 34.6501C29.7169 37.6589 27.804 39.9618 25.3702 41.5976L26.4858 43.2575C29.2573 41.3948 31.3978 38.791 32.9167 35.4851L31.0993 34.6501ZM25.3638 41.6019C22.9756 43.2339 20.2935 44.0516 17.288 44.0516V46.0516C20.6825 46.0516 23.7604 45.12 26.4922 43.2532L25.3638 41.6019ZM17.544 42.7876C19.2873 42.7876 20.8604 42.3954 22.2288 41.5781C23.5959 40.7615 24.7041 39.5532 25.5692 38.0029C27.2826 34.9326 28.08 30.4558 28.08 24.6996H26.08C26.08 30.3354 25.2881 34.4026 23.8228 37.0283C23.0986 38.326 22.2201 39.2536 21.2032 39.8611C20.1876 40.4677 18.9794 40.7876 17.544 40.7876V42.7876ZM28.08 24.6996C28.08 19.0903 27.3504 14.6476 25.8035 11.4627L24.0045 12.3365C25.3589 15.125 26.08 19.2155 26.08 24.6996H28.08ZM25.8085 11.4732C25.037 9.83667 23.9697 8.55639 22.586 7.69159C21.2036 6.82759 19.5716 6.41958 17.736 6.41958V8.41958C19.271 8.41958 20.5191 8.75824 21.526 9.38758C22.5317 10.0161 23.363 10.9758 23.9995 12.326L25.8085 11.4732ZM17.736 6.41958C15.9448 6.41958 14.3346 6.81058 12.9413 7.62945C11.5477 8.44851 10.4268 9.66292 9.56461 11.2242L11.3154 12.191C12.0319 10.8936 12.9163 9.96399 13.9547 9.35371C14.9934 8.74325 16.2418 8.41958 17.736 8.41958V6.41958ZM9.56772 11.2186C7.86793 14.2506 7.072 18.5031 7.072 23.8676H9.072C9.072 18.6507 9.85474 14.7965 11.3123 12.1966L9.56772 11.2186ZM7.072 23.8676C7.072 29.3639 7.82719 33.8736 9.40163 37.3374L11.2224 36.5098C9.81014 33.4029 9.072 29.2086 9.072 23.8676H7.072ZM9.40826 37.3517C10.2353 39.0976 11.3279 40.4692 12.7139 41.4014C14.1052 42.3371 15.7294 42.7876 17.544 42.7876V40.7876C16.0732 40.7876 14.8495 40.4274 13.8301 39.7418C12.8054 39.0526 11.9247 37.9923 11.2157 36.4955L9.40826 37.3517ZM63.405 44.4756H64.405V43.4756H63.405V44.4756ZM42.157 44.4756L41.2911 44.9759L41.5799 45.4756H42.157V44.4756ZM40.493 41.5956L39.6083 41.1295L39.351 41.6179L39.6271 42.0959L40.493 41.5956ZM49.773 22.6516L50.6789 23.075L50.6798 23.0731L49.773 22.6516ZM59.629 0.955585V-0.0444145H58.9774L58.7142 0.551653L59.629 0.955585ZM61.293 0.955585L61.7664 0.0747614L61.5447 -0.0444145H61.293V0.955585ZM66.413 3.70758L67.3005 4.1684L67.7548 3.29349L66.8864 2.82676L66.413 3.70758ZM49.133 36.9876L49.9692 37.5359L49.9971 37.4935L50.0205 37.4484L49.133 36.9876ZM46.573 40.8916L45.7368 40.3432L44.6535 41.9952L46.6262 41.8902L46.573 40.8916ZM63.405 39.9956L63.4582 40.9942L64.3857 40.9448L64.4048 40.0161L63.405 39.9956ZM63.661 27.5156L63.5789 26.519L62.6797 26.593L62.6612 27.4951L63.661 27.5156ZM69.101 27.0676H70.101V25.9818L69.0189 26.071L69.101 27.0676ZM69.101 39.6756H68.101V40.7265L69.1506 40.6744L69.101 39.6756ZM78.125 39.2276H79.125V38.1767L78.0754 38.2288L78.125 39.2276ZM78.125 44.4756V45.4756H79.125V44.4756H78.125ZM69.101 44.4756V43.4756H68.101V44.4756H69.101ZM69.101 54.7796V55.7796H70.101V54.7796H69.101ZM63.405 54.7796H62.405V55.7796H63.405V54.7796ZM63.405 43.4756H42.157V45.4756H63.405V43.4756ZM43.0229 43.9753L41.3589 41.0953L39.6271 42.0959L41.2911 44.9759L43.0229 43.9753ZM41.3777 42.0617C43.9055 37.2632 47.0064 30.9326 50.6789 23.075L48.8671 22.2282C45.201 30.0719 42.1152 36.3707 39.6083 41.1295L41.3777 42.0617ZM50.6798 23.0731C54.3513 15.1751 57.6394 7.93715 60.5438 1.35952L58.7142 0.551653C55.816 7.11535 52.5334 14.3414 48.8662 22.23L50.6798 23.0731ZM59.629 1.95559H61.293V-0.0444145H59.629V1.95559ZM60.8196 1.83641L65.9396 4.58841L66.8864 2.82676L61.7664 0.0747614L60.8196 1.83641ZM65.5255 3.24677L48.2455 36.5268L50.0205 37.4484L67.3005 4.1684L65.5255 3.24677ZM48.2968 36.4392L45.7368 40.3432L47.4092 41.4399L49.9692 37.5359L48.2968 36.4392ZM46.6262 41.8902L63.4582 40.9942L63.3518 38.997L46.5198 39.893L46.6262 41.8902ZM64.4048 40.0161L64.6608 27.5361L62.6612 27.4951L62.4052 39.9751L64.4048 40.0161ZM63.7431 28.5122L69.1831 28.0642L69.0189 26.071L63.5789 26.519L63.7431 28.5122ZM68.101 27.0676V39.6756H70.101V27.0676H68.101ZM69.1506 40.6744L78.1746 40.2264L78.0754 38.2288L69.0514 38.6768L69.1506 40.6744ZM77.125 39.2276V44.4756H79.125V39.2276H77.125ZM78.125 43.4756H69.101V45.4756H78.125V43.4756ZM68.101 44.4756V54.7796H70.101V44.4756H68.101ZM69.101 53.7796H63.405V55.7796H69.101V53.7796ZM64.405 54.7796V44.4756H62.405V54.7796H64.405Z" fill="#020E35" mask="url(#path-1-outside-1_13_1059)"/>
</svg>
