<svg width="72" height="52" viewBox="0 0 72 52" fill="none" xmlns="http://www.w3.org/2000/svg">
<mask id="path-1-outside-1_13_1064" maskUnits="userSpaceOnUse" x="-1" y="-1.52441" width="74" height="55" fill="black">
<rect fill="white" x="-1" y="-1.52441" width="74" height="55"/>
<path d="M17.288 42.0516C11.8267 42.0516 7.73067 40.1743 5 36.4196C2.312 32.6223 0.968 27.7369 0.968 21.7636C0.968 17.5823 1.736 13.9343 3.272 10.8196C4.808 7.66225 6.89867 5.25158 9.544 3.58759C12.1893 1.92358 15.0907 1.09158 18.248 1.09158C23.7947 1.09158 27.848 2.88358 30.408 6.46758C32.968 10.0089 34.248 14.8729 34.248 21.0596C34.248 25.1983 33.5013 28.8676 32.008 32.0676C30.5573 35.2249 28.5307 37.6783 25.928 39.4276C23.368 41.1769 20.488 42.0516 17.288 42.0516ZM17.544 38.7876C23.9013 38.7876 27.08 33.0916 27.08 21.6996C27.08 16.1529 26.3547 11.8863 24.904 8.89959C23.496 5.91292 21.1067 4.41958 17.736 4.41958C14.4507 4.41958 12.0187 5.84892 10.44 8.70758C8.86133 11.5236 8.072 15.5769 8.072 20.8676C8.072 26.2863 8.81867 30.6383 10.312 33.9236C11.848 37.1663 14.2587 38.7876 17.544 38.7876ZM44.141 48.2596C45.3357 48.3876 46.6157 48.4516 47.981 48.4516C51.0103 48.4516 53.7837 47.8329 56.301 46.5956C58.8183 45.3583 60.8023 43.6516 62.253 41.4756C63.7037 39.2996 64.429 36.8249 64.429 34.0516C64.429 27.1823 61.2503 23.7476 54.893 23.7476C53.485 23.7476 51.9063 23.9609 50.157 24.3876C48.4503 24.7716 46.957 25.2409 45.677 25.7956L43.949 24.5796L47.085 1.53959H65.325L65.965 0.323586H69.933L68.781 6.91558H51.821L48.877 21.8276C50.029 21.2303 51.501 20.6969 53.293 20.2276C55.085 19.7583 56.877 19.5236 58.669 19.5236C62.765 19.5236 65.9863 20.6756 68.333 22.9796C70.6797 25.2836 71.853 28.6329 71.853 33.0276C71.853 36.3983 70.8717 39.5129 68.909 42.3716C66.989 45.2303 64.2583 47.5129 60.717 49.2196C57.1757 50.9263 53.1437 51.7796 48.621 51.7796C46.7863 51.7796 45.293 51.6303 44.141 51.3316V48.2596Z"/>
</mask>
<path d="M5 36.4196L4.18373 36.9974L4.19126 37.0078L5 36.4196ZM3.272 10.8196L4.16888 11.2619L4.17124 11.257L3.272 10.8196ZM9.544 3.58759L10.0765 4.43405H10.0765L9.544 3.58759ZM30.408 6.46758L29.5943 7.04883L29.5976 7.05343L30.408 6.46758ZM32.008 32.0676L31.1018 31.6447L31.0993 31.6501L32.008 32.0676ZM25.928 39.4276L25.3701 38.5976L25.3638 38.6019L25.928 39.4276ZM24.904 8.89959L23.9994 9.32603L24.0045 9.33649L24.904 8.89959ZM10.44 8.70758L11.3123 9.1966L11.3154 9.19101L10.44 8.70758ZM10.312 33.9236L9.40163 34.3374L9.40489 34.3446L9.40826 34.3517L10.312 33.9236ZM17.288 41.0516C12.0824 41.0516 8.31641 39.2795 5.80874 35.8314L4.19126 37.0078C7.14492 41.069 11.5709 43.0516 17.288 43.0516V41.0516ZM5.81621 35.8418C3.27774 32.2557 1.968 27.5887 1.968 21.7636H-0.0319998C-0.0319998 27.8852 1.34626 32.9888 4.1838 36.9973L5.81621 35.8418ZM1.968 21.7636C1.968 17.7047 2.71318 14.2137 4.16887 11.2619L2.37513 10.3773C0.758824 13.6548 -0.0319998 17.4598 -0.0319998 21.7636H1.968ZM4.17124 11.257C5.63592 8.2463 7.6081 5.98672 10.0765 4.43405L9.01155 2.74113C6.18924 4.51645 3.98008 7.0782 2.37277 10.3821L4.17124 11.257ZM10.0765 4.43405C12.5606 2.87145 15.277 2.09158 18.248 2.09158V0.0915833C14.9043 0.0915833 11.8181 0.975719 9.01155 2.74113L10.0765 4.43405ZM18.248 2.09158C23.5652 2.09158 27.2704 3.79545 29.5943 7.04882L31.2217 5.88634C28.4256 1.97172 24.0241 0.0915833 18.248 0.0915833V2.09158ZM29.5976 7.05343C31.9926 10.3666 33.248 14.9986 33.248 21.0596H35.248C35.248 14.7472 33.9434 9.65128 31.2184 5.88174L29.5976 7.05343ZM33.248 21.0596C33.248 25.0771 32.5236 28.598 31.1018 31.6447L32.9142 32.4905C34.4791 29.1372 35.248 25.3194 35.248 21.0596H33.248ZM31.0993 31.6501C29.7169 34.6589 27.804 36.9618 25.3702 38.5976L26.4858 40.2575C29.2573 38.3948 31.3978 35.791 32.9167 32.4851L31.0993 31.6501ZM25.3638 38.6019C22.9756 40.2339 20.2935 41.0516 17.288 41.0516V43.0516C20.6825 43.0516 23.7604 42.12 26.4922 40.2532L25.3638 38.6019ZM17.544 39.7876C19.2873 39.7876 20.8604 39.3954 22.2288 38.5781C23.5959 37.7615 24.7041 36.5532 25.5692 35.0029C27.2826 31.9326 28.08 27.4558 28.08 21.6996H26.08C26.08 27.3354 25.2881 31.4026 23.8228 34.0283C23.0986 35.326 22.2201 36.2536 21.2032 36.8611C20.1876 37.4677 18.9794 37.7876 17.544 37.7876V39.7876ZM28.08 21.6996C28.08 16.0903 27.3504 11.6476 25.8035 8.46268L24.0045 9.33649C25.3589 12.125 26.08 16.2155 26.08 21.6996H28.08ZM25.8085 8.47317C25.037 6.83667 23.9697 5.55639 22.586 4.69159C21.2036 3.82759 19.5716 3.41958 17.736 3.41958V5.41958C19.271 5.41958 20.5191 5.75824 21.526 6.38758C22.5317 7.01611 23.363 7.97583 23.9995 9.326L25.8085 8.47317ZM17.736 3.41958C15.9448 3.41958 14.3346 3.81058 12.9413 4.62945C11.5477 5.44851 10.4268 6.66292 9.56461 8.22416L11.3154 9.19101C12.0319 7.89358 12.9163 6.96399 13.9547 6.35371C14.9934 5.74325 16.2418 5.41958 17.736 5.41958V3.41958ZM9.56772 8.21858C7.86793 11.2506 7.072 15.5031 7.072 20.8676H9.072C9.072 15.6507 9.85474 11.7965 11.3123 9.19659L9.56772 8.21858ZM7.072 20.8676C7.072 26.3639 7.82719 30.8736 9.40163 34.3374L11.2224 33.5098C9.81014 30.4029 9.072 26.2086 9.072 20.8676H7.072ZM9.40826 34.3517C10.2353 36.0976 11.3279 37.4692 12.7139 38.4014C14.1052 39.3371 15.7294 39.7876 17.544 39.7876V37.7876C16.0732 37.7876 14.8495 37.4274 13.8301 36.7418C12.8054 36.0526 11.9247 34.9923 11.2157 33.4955L9.40826 34.3517ZM44.141 48.2596L44.2475 47.2653L43.141 47.1467V48.2596H44.141ZM56.301 46.5956L55.8599 45.6981L56.301 46.5956ZM62.253 41.4756L61.421 40.9209L62.253 41.4756ZM50.157 24.3876L50.3765 25.3632L50.3853 25.3612L50.394 25.3591L50.157 24.3876ZM45.677 25.7956L45.1015 26.6134L45.5601 26.9361L46.0746 26.7131L45.677 25.7956ZM43.949 24.5796L42.9581 24.4447L42.8761 25.0474L43.3735 25.3974L43.949 24.5796ZM47.085 1.53959V0.539585H46.2119L46.0941 1.40472L47.085 1.53959ZM65.325 1.53959V2.53959H65.9287L66.2099 2.00533L65.325 1.53959ZM65.965 0.323586V-0.676414H65.3613L65.0801 -0.142162L65.965 0.323586ZM69.933 0.323586L70.9181 0.495733L71.1229 -0.676414H69.933V0.323586ZM68.781 6.91558V7.91558H69.6214L69.7661 7.08773L68.781 6.91558ZM51.821 6.91558V5.91558H50.9991L50.8399 6.7219L51.821 6.91558ZM48.877 21.8276L47.8959 21.6339L47.4937 23.6713L49.3373 22.7153L48.877 21.8276ZM53.293 20.2276L53.5464 21.195L53.293 20.2276ZM68.333 22.9796L67.6324 23.6931L68.333 22.9796ZM68.909 42.3716L68.0846 41.8055L68.0789 41.814L68.909 42.3716ZM44.141 51.3316H43.141V52.1054L43.89 52.2996L44.141 51.3316ZM44.0345 49.2539C45.2689 49.3862 46.5848 49.4516 47.981 49.4516V47.4516C46.6466 47.4516 45.4024 47.389 44.2475 47.2653L44.0345 49.2539ZM47.981 49.4516C51.1508 49.4516 54.0768 48.8031 56.7421 47.493L55.8599 45.6981C53.4906 46.8627 50.8699 47.4516 47.981 47.4516V49.4516ZM56.7421 47.493C59.4058 46.1838 61.5295 44.3636 63.0851 42.0303L61.421 40.9209C60.0752 42.9395 58.2309 44.5327 55.8599 45.6981L56.7421 47.493ZM63.0851 42.0303C64.652 39.6799 65.429 37.0098 65.429 34.0516H63.429C63.429 36.6401 62.7553 38.9193 61.421 40.9209L63.0851 42.0303ZM65.429 34.0516C65.429 30.4812 64.6045 27.617 62.7789 25.6444C60.9398 23.6571 58.2465 22.7476 54.893 22.7476V24.7476C57.8968 24.7476 59.9715 25.5554 61.3111 27.0028C62.6641 28.4648 63.429 30.7527 63.429 34.0516H65.429ZM54.893 22.7476C53.3866 22.7476 51.7266 22.9754 49.92 23.4161L50.394 25.3591C52.0861 24.9464 53.5834 24.7476 54.893 24.7476V22.7476ZM49.9375 23.412C48.1844 23.8064 46.6291 24.2932 45.2794 24.878L46.0746 26.7131C47.2849 26.1887 48.7163 25.7368 50.3765 25.3632L49.9375 23.412ZM46.2525 24.9778L44.5245 23.7618L43.3735 25.3974L45.1015 26.6134L46.2525 24.9778ZM44.9399 24.7145L48.0759 1.67445L46.0941 1.40472L42.9581 24.4447L44.9399 24.7145ZM47.085 2.53959H65.325V0.539585H47.085V2.53959ZM66.2099 2.00533L66.8499 0.789333L65.0801 -0.142162L64.4401 1.07384L66.2099 2.00533ZM65.965 1.32359H69.933V-0.676414H65.965V1.32359ZM68.9479 0.151438L67.7959 6.74344L69.7661 7.08773L70.9181 0.495733L68.9479 0.151438ZM68.781 5.91558H51.821V7.91558H68.781V5.91558ZM50.8399 6.7219L47.8959 21.6339L49.8581 22.0213L52.8021 7.10927L50.8399 6.7219ZM49.3373 22.7153C50.4022 22.1632 51.7983 21.6528 53.5464 21.195L53.0396 19.2602C51.2037 19.7411 49.6558 20.2973 48.4167 20.9398L49.3373 22.7153ZM53.5464 21.195C55.2584 20.7466 56.9653 20.5236 58.669 20.5236V18.5236C56.7887 18.5236 54.9116 18.77 53.0396 19.2602L53.5464 21.195ZM58.669 20.5236C62.5708 20.5236 65.5161 21.6153 67.6324 23.6931L69.0336 22.266C66.4566 19.7358 62.9592 18.5236 58.669 18.5236V20.5236ZM67.6324 23.6931C69.7298 25.7524 70.853 28.8079 70.853 33.0276H72.853C72.853 28.458 71.6295 24.8147 69.0336 22.266L67.6324 23.6931ZM70.853 33.0276C70.853 36.1901 69.9364 39.1084 68.0846 41.8056L69.7334 42.9376C71.8069 39.9174 72.853 36.6064 72.853 33.0276H70.853ZM68.0789 41.814C66.2714 44.5052 63.6871 46.6781 60.2829 48.3187L61.1511 50.1204C64.8296 48.3477 67.7066 45.9553 69.7391 42.9291L68.0789 41.814ZM60.2829 48.3187C56.8959 49.951 53.016 50.7796 48.621 50.7796V52.7796C53.2714 52.7796 57.4554 51.9015 61.1511 50.1204L60.2829 48.3187ZM48.621 50.7796C46.8306 50.7796 45.4304 50.6328 44.392 50.3636L43.89 52.2996C45.1556 52.6277 46.7421 52.7796 48.621 52.7796V50.7796ZM45.141 51.3316V48.2596H43.141V51.3316H45.141Z" fill="#020E35" mask="url(#path-1-outside-1_13_1064)"/>
</svg>
