<svg width="77" height="52" viewBox="0 0 77 52" fill="none" xmlns="http://www.w3.org/2000/svg">
<mask id="path-1-outside-1_13_1069" maskUnits="userSpaceOnUse" x="-1" y="-1.52441" width="79" height="54" fill="black">
<rect fill="white" x="-1" y="-1.52441" width="79" height="54"/>
<path d="M17.288 51.0516C11.8267 51.0516 7.73067 49.1743 5 45.4196C2.312 41.6223 0.968 36.7369 0.968 30.7636C0.968 26.5823 1.736 22.9343 3.272 19.8196C4.808 16.6623 6.89867 14.2516 9.544 12.5876C12.1893 10.9236 15.0907 10.0916 18.248 10.0916C23.7947 10.0916 27.848 11.8836 30.408 15.4676C32.968 19.0089 34.248 23.8729 34.248 30.0596C34.248 34.1983 33.5013 37.8676 32.008 41.0676C30.5573 44.2249 28.5307 46.6783 25.928 48.4276C23.368 50.1769 20.488 51.0516 17.288 51.0516ZM17.544 47.7876C23.9013 47.7876 27.08 42.0916 27.08 30.6996C27.08 25.1529 26.3547 20.8863 24.904 17.8996C23.496 14.9129 21.1067 13.4196 17.736 13.4196C14.4507 13.4196 12.0187 14.8489 10.44 17.7076C8.86133 20.5236 8.072 24.5769 8.072 29.8676C8.072 35.2863 8.81867 39.6383 10.312 42.9236C11.848 46.1663 14.2587 47.7876 17.544 47.7876ZM59.565 51.1796C56.109 51.1796 53.1223 50.3263 50.605 48.6196C48.1303 46.8703 46.2317 44.5236 44.909 41.5796C43.629 38.5929 42.989 35.2863 42.989 31.6596C42.989 26.2836 44.2903 21.3343 46.893 16.8116C49.4957 12.2463 52.8237 8.51292 56.877 5.61158C60.973 2.66758 65.1543 0.854251 69.421 0.171585L70.893 2.92358C65.901 4.50225 61.6983 7.14758 58.285 10.8596C54.8717 14.5289 52.5463 18.7103 51.309 23.4036C52.3757 22.1663 53.8477 21.1209 55.725 20.2676C57.6023 19.3716 59.7783 18.9236 62.253 18.9236C66.6903 18.9236 70.0823 20.2249 72.429 22.8276C74.8183 25.4303 76.013 29.0356 76.013 33.6436C76.013 36.7583 75.3517 39.6596 74.029 42.3476C72.749 44.9929 70.8503 47.1263 68.333 48.7476C65.8583 50.3689 62.9357 51.1796 59.565 51.1796ZM60.333 22.8916C58.029 22.8916 55.981 23.4249 54.189 24.4916C52.397 25.5156 51.1597 26.6249 50.477 27.8196C50.3917 28.8436 50.349 29.6756 50.349 30.3156C50.221 35.4783 50.9037 39.7023 52.397 42.9876C53.8903 46.2729 56.4077 47.9156 59.949 47.9156C61.9117 47.9156 63.5757 47.3183 64.941 46.1236C66.3063 44.8863 67.309 43.2863 67.949 41.3236C68.6317 39.3609 68.973 37.2916 68.973 35.1156C68.973 30.8916 68.1837 27.7983 66.605 25.8356C65.069 23.8729 62.9783 22.8916 60.333 22.8916Z"/>
</mask>
<path d="M5 45.4196L4.18373 45.9974L4.19126 46.0078L5 45.4196ZM3.272 19.8196L4.16888 20.2619L4.17124 20.257L3.272 19.8196ZM9.544 12.5876L10.0765 13.434H10.0765L9.544 12.5876ZM30.408 15.4676L29.5943 16.0488L29.5976 16.0534L30.408 15.4676ZM32.008 41.0676L31.1018 40.6447L31.0993 40.6501L32.008 41.0676ZM25.928 48.4276L25.3701 47.5976L25.3638 47.6019L25.928 48.4276ZM24.904 17.8996L23.9994 18.326L24.0045 18.3365L24.904 17.8996ZM10.44 17.7076L11.3123 18.1966L11.3154 18.191L10.44 17.7076ZM10.312 42.9236L9.40163 43.3374L9.40489 43.3446L9.40826 43.3517L10.312 42.9236ZM17.288 50.0516C12.0824 50.0516 8.31641 48.2795 5.80874 44.8314L4.19126 46.0078C7.14492 50.069 11.5709 52.0516 17.288 52.0516V50.0516ZM5.81621 44.8418C3.27774 41.2557 1.968 36.5887 1.968 30.7636H-0.0319998C-0.0319998 36.8852 1.34626 41.9888 4.1838 45.9973L5.81621 44.8418ZM1.968 30.7636C1.968 26.7047 2.71318 23.2137 4.16887 20.2619L2.37513 19.3773C0.758824 22.6548 -0.0319998 26.4598 -0.0319998 30.7636H1.968ZM4.17124 20.257C5.63592 17.2463 7.6081 14.9867 10.0765 13.434L9.01155 11.7411C6.18924 13.5164 3.98008 16.0782 2.37277 19.3821L4.17124 20.257ZM10.0765 13.434C12.5606 11.8714 15.277 11.0916 18.248 11.0916V9.09158C14.9043 9.09158 11.8181 9.97572 9.01155 11.7411L10.0765 13.434ZM18.248 11.0916C23.5652 11.0916 27.2704 12.7954 29.5943 16.0488L31.2217 14.8863C28.4256 10.9717 24.0241 9.09158 18.248 9.09158V11.0916ZM29.5976 16.0534C31.9926 19.3666 33.248 23.9986 33.248 30.0596H35.248C35.248 23.7472 33.9434 18.6513 31.2184 14.8817L29.5976 16.0534ZM33.248 30.0596C33.248 34.0771 32.5236 37.598 31.1018 40.6447L32.9142 41.4905C34.4791 38.1372 35.248 34.3194 35.248 30.0596H33.248ZM31.0993 40.6501C29.7169 43.6589 27.804 45.9618 25.3702 47.5976L26.4858 49.2575C29.2573 47.3948 31.3978 44.791 32.9167 41.4851L31.0993 40.6501ZM25.3638 47.6019C22.9756 49.2339 20.2935 50.0516 17.288 50.0516V52.0516C20.6825 52.0516 23.7604 51.12 26.4922 49.2532L25.3638 47.6019ZM17.544 48.7876C19.2873 48.7876 20.8604 48.3954 22.2288 47.5781C23.5959 46.7615 24.7041 45.5532 25.5692 44.0029C27.2826 40.9326 28.08 36.4558 28.08 30.6996H26.08C26.08 36.3354 25.2881 40.4026 23.8228 43.0283C23.0986 44.326 22.2201 45.2536 21.2032 45.8611C20.1876 46.4677 18.9794 46.7876 17.544 46.7876V48.7876ZM28.08 30.6996C28.08 25.0903 27.3504 20.6476 25.8035 17.4627L24.0045 18.3365C25.3589 21.125 26.08 25.2155 26.08 30.6996H28.08ZM25.8085 17.4732C25.037 15.8367 23.9697 14.5564 22.586 13.6916C21.2036 12.8276 19.5716 12.4196 17.736 12.4196V14.4196C19.271 14.4196 20.5191 14.7582 21.526 15.3876C22.5317 16.0161 23.363 16.9758 23.9995 18.326L25.8085 17.4732ZM17.736 12.4196C15.9448 12.4196 14.3346 12.8106 12.9413 13.6295C11.5477 14.4485 10.4268 15.6629 9.56461 17.2242L11.3154 18.191C12.0319 16.8936 12.9163 15.964 13.9547 15.3537C14.9934 14.7433 16.2418 14.4196 17.736 14.4196V12.4196ZM9.56772 17.2186C7.86793 20.2506 7.072 24.5031 7.072 29.8676H9.072C9.072 24.6507 9.85474 20.7965 11.3123 18.1966L9.56772 17.2186ZM7.072 29.8676C7.072 35.3639 7.82719 39.8736 9.40163 43.3374L11.2224 42.5098C9.81014 39.4029 9.072 35.2086 9.072 29.8676H7.072ZM9.40826 43.3517C10.2353 45.0976 11.3279 46.4692 12.7139 47.4014C14.1052 48.3371 15.7294 48.7876 17.544 48.7876V46.7876C16.0732 46.7876 14.8495 46.4274 13.8301 45.7418C12.8054 45.0526 11.9247 43.9923 11.2157 42.4955L9.40826 43.3517ZM50.605 48.6196L50.0278 49.4362L50.0357 49.4418L50.0438 49.4473L50.605 48.6196ZM44.909 41.5796L43.9899 41.9735L43.9933 41.9815L43.9968 41.9894L44.909 41.5796ZM46.893 16.8116L47.7597 17.3104L47.7617 17.3068L46.893 16.8116ZM56.877 5.61158L57.459 6.42474L57.4606 6.4236L56.877 5.61158ZM69.421 0.171585L70.3028 -0.300067L69.9667 -0.928442L69.263 -0.815856L69.421 0.171585ZM70.893 2.92358L71.1945 3.87704L72.3428 3.51391L71.7748 2.45193L70.893 2.92358ZM58.285 10.8596L59.0172 11.5407L59.0211 11.5365L58.285 10.8596ZM51.309 23.4036L50.342 23.1487L52.0664 24.0565L51.309 23.4036ZM55.725 20.2676L56.1388 21.1779L56.1473 21.1741L56.1557 21.1701L55.725 20.2676ZM72.429 22.8276L71.6863 23.4972L71.6923 23.5039L72.429 22.8276ZM74.029 42.3476L73.1317 41.9061L73.1288 41.912L74.029 42.3476ZM68.333 48.7476L67.7915 47.9068L67.785 47.9111L68.333 48.7476ZM54.189 24.4916L54.6851 25.3598L54.6929 25.3554L54.7005 25.3509L54.189 24.4916ZM50.477 27.8196L49.6088 27.3234L49.4989 27.5158L49.4805 27.7365L50.477 27.8196ZM50.349 30.3156L51.3487 30.3404L51.349 30.328V30.3156H50.349ZM52.397 42.9876L51.4866 43.4014L52.397 42.9876ZM64.941 46.1236L65.5995 46.8762L65.6061 46.8704L65.6125 46.8646L64.941 46.1236ZM67.949 41.3236L67.0045 40.9951L67.0013 41.0043L66.9983 41.0136L67.949 41.3236ZM66.605 25.8356L65.8174 26.4519L65.8258 26.4623L66.605 25.8356ZM59.565 50.1796C56.2809 50.1796 53.496 49.3714 51.1662 47.7919L50.0438 49.4473C52.7487 51.2811 55.9371 52.1796 59.565 52.1796V50.1796ZM51.1822 47.803C48.8631 46.1636 47.0755 43.9617 45.8212 41.1698L43.9968 41.9894C45.3878 45.0855 47.3975 47.5769 50.0278 49.4362L51.1822 47.803ZM45.8281 41.1857C44.6074 38.3372 43.989 35.1666 43.989 31.6596H41.989C41.989 35.4059 42.6506 38.8487 43.9899 41.9735L45.8281 41.1857ZM43.989 31.6596C43.989 26.4531 45.2471 21.6766 47.7597 17.3104L46.0263 16.3128C43.3336 20.9919 41.989 26.1141 41.989 31.6596H43.989ZM47.7617 17.3068C50.2969 12.86 53.5294 9.23751 57.459 6.42474L56.295 4.79843C52.1179 7.78833 48.6945 11.6325 46.0243 16.3163L47.7617 17.3068ZM57.4606 6.4236C61.4514 3.55521 65.4897 1.81331 69.579 1.15903L69.263 -0.815856C64.819 -0.104814 60.4946 1.77995 56.2934 4.79957L57.4606 6.4236ZM68.5392 0.643237L70.0112 3.39524L71.7748 2.45193L70.3028 -0.300067L68.5392 0.643237ZM70.5915 1.97012C65.4396 3.59935 61.0851 6.33711 57.5489 10.1827L59.0211 11.5365C62.3116 7.95806 66.3624 5.40515 71.1945 3.87704L70.5915 1.97012ZM57.5528 10.1785C54.0311 13.9643 51.6227 18.2908 50.342 23.1487L52.276 23.6585C53.4699 19.1297 55.7122 15.0935 59.0172 11.5407L57.5528 10.1785ZM52.0664 24.0565C53.0171 22.9537 54.3598 21.9866 56.1388 21.1779L55.3112 19.3572C53.3355 20.2552 51.7342 21.3788 50.5516 22.7506L52.0664 24.0565ZM56.1557 21.1701C57.8754 20.3493 59.8994 19.9236 62.253 19.9236V17.9236C59.6572 17.9236 57.3293 18.3939 55.2943 19.3651L56.1557 21.1701ZM62.253 19.9236C66.4878 19.9236 69.5773 21.1581 71.6863 23.4972L73.1717 22.1579C70.5874 19.2917 66.8929 17.9236 62.253 17.9236V19.9236ZM71.6923 23.5039C73.8659 25.8715 75.013 29.2077 75.013 33.6436H77.013C77.013 28.8635 75.7708 24.989 73.1657 22.1513L71.6923 23.5039ZM75.013 33.6436C75.013 36.6114 74.3841 39.361 73.1317 41.9061L74.9263 42.7891C76.3192 39.9582 77.013 36.9051 77.013 33.6436H75.013ZM73.1288 41.912C71.9305 44.3886 70.1574 46.3831 67.7915 47.9069L68.8745 49.5883C71.5433 47.8694 73.5675 45.5972 74.9292 42.7831L73.1288 41.912ZM67.785 47.9111C65.495 49.4114 62.7689 50.1796 59.565 50.1796V52.1796C63.1025 52.1796 66.2216 51.3264 68.881 49.584L67.785 47.9111ZM60.333 21.8916C57.8684 21.8916 55.6401 22.4641 53.6775 23.6323L54.7005 25.3509C56.3219 24.3857 58.1896 23.8916 60.333 23.8916V21.8916ZM53.6929 23.6233C51.8177 24.6949 50.4136 25.9149 49.6088 27.3234L51.3452 28.3157C51.9057 27.3349 52.9763 26.3363 54.6851 25.3598L53.6929 23.6233ZM49.4805 27.7365C49.394 28.7738 49.349 29.6365 49.349 30.3156H51.349C51.349 29.7147 51.3893 28.9134 51.4735 27.9026L49.4805 27.7365ZM49.3493 30.2908C49.2191 35.544 49.9098 39.9323 51.4866 43.4014L53.3074 42.5738C51.8976 39.4722 51.2229 35.4125 51.3487 30.3404L49.3493 30.2908ZM51.4866 43.4014C52.296 45.1819 53.4114 46.5767 54.8585 47.5211C56.3069 48.4662 58.0195 48.9156 59.949 48.9156V46.9156C58.3372 46.9156 57.0205 46.5437 55.9515 45.8461C54.8813 45.1478 53.9914 44.0786 53.3074 42.5738L51.4866 43.4014ZM59.949 48.9156C62.1324 48.9156 64.0364 48.2439 65.5995 46.8762L64.2825 45.371C63.115 46.3926 61.6909 46.9156 59.949 46.9156V48.9156ZM65.6125 46.8646C67.1218 45.4968 68.2124 43.7414 68.8997 41.6336L66.9983 41.0136C66.4056 42.8311 65.4908 44.2757 64.2695 45.3826L65.6125 46.8646ZM68.8935 41.6521C69.6146 39.5789 69.973 37.3981 69.973 35.1156H67.973C67.973 37.1851 67.6487 39.1429 67.0045 40.9951L68.8935 41.6521ZM69.973 35.1156C69.973 30.8049 69.1745 27.4345 67.3842 25.2088L65.8258 26.4623C67.1929 28.162 67.973 30.9783 67.973 35.1156H69.973ZM67.3925 25.2193C65.6539 22.9977 63.264 21.8916 60.333 21.8916V23.8916C62.6926 23.8916 64.4841 24.7481 65.8175 26.4519L67.3925 25.2193Z" fill="#020E35" mask="url(#path-1-outside-1_13_1069)"/>
</svg>
