<svg id="Layer_1" data-name="Layer 1" xmlns="http://www.w3.org/2000/svg" xmlns:xlink="http://www.w3.org/1999/xlink" viewBox="0 0 103.52 150.89"><defs><style>.cls-1,.cls-10,.cls-5,.cls-6{fill:none;}.cls-1{clip-rule:evenodd;}.cls-2{fill:#f89d58;}.cls-10,.cls-11,.cls-2,.cls-3,.cls-7,.cls-8,.cls-9{fill-rule:evenodd;}.cls-3{fill:#59c7d6;}.cls-4{clip-path:url(#clip-path);}.cls-5{stroke:#36bdc7;}.cls-10,.cls-5,.cls-6{stroke-linecap:round;stroke-linejoin:round;}.cls-5,.cls-6{stroke-width:2.4px;}.cls-6{stroke:#fff;}.cls-11,.cls-6{opacity:0.5;}.cls-7{fill:#fccbbb;}.cls-8{fill:#010101;opacity:0.1;}.cls-9{fill:#1f2126;}.cls-10{stroke:#e4b6a7;stroke-width:1.44px;}.cls-11{fill:#ee4784;}</style><clipPath id="clip-path" transform="translate(-246.1 -348.48)"><path class="cls-1" d="M297.86,434.23a52,52,0,0,1,51.76,46.65H246.1A52,52,0,0,1,297.86,434.23Z"/></clipPath></defs><path class="cls-2" d="M255.13,449c-10.24-16.16.77-28,1.23-39,.36-8.56-14-29.85,10.39-51.82,17.23-15.56,43.14-9.68,47.39-1.35,7.05-4,25.4,3.32,31.05,19.3,7,19.72-2.95,27.18-2.58,41.52.26,9.84,9.69,19.87,1.62,33.23C333.14,469.26,270,472.49,255.13,449Z" transform="translate(-246.1 -348.48)"/><path class="cls-3" d="M297.86,434.23a52,52,0,0,1,51.76,46.65H246.1A52,52,0,0,1,297.86,434.23Z" transform="translate(-246.1 -348.48)"/><g class="cls-4"><line class="cls-5" x1="34.92" y1="130.3" x2="27.74" y2="134.92"/><line class="cls-5" x1="40.97" y1="115.28" x2="33.8" y2="119.89"/><line class="cls-5" x1="70.63" y1="117.71" x2="63.45" y2="122.32"/><line class="cls-5" x1="28.05" y1="111.79" x2="20.88" y2="116.4"/><line class="cls-5" x1="29.38" y1="97.07" x2="22.21" y2="101.69"/><line class="cls-6" x1="73.69" y1="103.64" x2="66.51" y2="108.25"/><line class="cls-5" x1="90.96" y1="98.25" x2="83.78" y2="102.86"/><line class="cls-6" x1="87.63" y1="120.93" x2="80.71" y2="115.95"/><line class="cls-5" x1="53.34" y1="133.53" x2="46.42" y2="128.56"/><line class="cls-5" x1="57.86" y1="104.65" x2="50.93" y2="99.67"/><line class="cls-6" x1="26.3" y1="127.29" x2="19.38" y2="122.31"/><line class="cls-6" x1="16.99" y1="104.95" x2="10.06" y2="99.98"/><line class="cls-6" x1="31.6" y1="149.69" x2="24.67" y2="144.71"/><line class="cls-6" x1="54.57" y1="122.9" x2="47.65" y2="117.93"/><line class="cls-6" x1="41.77" y1="106.94" x2="34.84" y2="101.97"/><line class="cls-5" x1="76.27" y1="135.65" x2="69.35" y2="130.68"/></g><path class="cls-7" d="M287.75,400.6H308v35.75a10.14,10.14,0,0,1-10.11,10.11h0a10.14,10.14,0,0,1-10.11-10.11Z" transform="translate(-246.1 -348.48)"/><path class="cls-8" d="M287.75,398.45H308v26.11a31.77,31.77,0,0,1-20.22,11Z" transform="translate(-246.1 -348.48)"/><path class="cls-7" d="M273.7,405.17c-10.32-16.41-1.48-48.1,24.3-48.79s34.8,31.89,24.8,48.56C306.84,431.52,290.17,431.37,273.7,405.17Z" transform="translate(-246.1 -348.48)"/><path class="cls-9" d="M308.27,391.8a1.84,1.84,0,1,0-1.8-1.84A1.83,1.83,0,0,0,308.27,391.8Z" transform="translate(-246.1 -348.48)"/><path class="cls-9" d="M288,391.8a1.84,1.84,0,1,0-1.8-1.84A1.83,1.83,0,0,0,288,391.8Z" transform="translate(-246.1 -348.48)"/><path class="cls-2" d="M312.8,363.72c-2.61,5.17,10.11,31.47,24.95,27.56S317.06,355.31,312.8,363.72Z" transform="translate(-246.1 -348.48)"/><path class="cls-7" d="M325.73,400.26c2.9,0,5.26-3.25,5.26-7.24s-2.36-7.23-5.26-7.23-5.26,3.25-5.26,7.23S322.83,400.26,325.73,400.26Z" transform="translate(-246.1 -348.48)"/><path class="cls-7" d="M270.57,400.26c2.9,0,5.26-3.25,5.26-7.24s-2.36-7.23-5.26-7.23-5.26,3.25-5.26,7.23S267.67,400.26,270.57,400.26Z" transform="translate(-246.1 -348.48)"/><path class="cls-10" d="M298.81,390.26c2.81,5.34,6.29,10.8-.23,11.92" transform="translate(-246.1 -348.48)"/><path class="cls-2" d="M313.41,383.3c1.15.3.8,1.72-.34,1.35-2.26-.74-5.28-.34-8.6.75-1.49.5-1.78-1.82-.26-2.19A17.5,17.5,0,0,1,313.41,383.3Z" transform="translate(-246.1 -348.48)"/><path class="cls-2" d="M282.89,383.3c-1.16.3-.81,1.72.33,1.35,2.27-.74,5.28-.34,8.61.75,1.49.5,1.78-1.82.25-2.19A17.47,17.47,0,0,0,282.89,383.3Z" transform="translate(-246.1 -348.48)"/><path class="cls-10" d="M268.86,389.14c2.35-1,4.68,1.07,4.17,5.77" transform="translate(-246.1 -348.48)"/><path class="cls-10" d="M269.46,396.8c-.57-2.15,1.14-3.91,3.52-3.3" transform="translate(-246.1 -348.48)"/><path class="cls-10" d="M327,389.14c-2.35-1-4.68,1.07-4.17,5.77" transform="translate(-246.1 -348.48)"/><path class="cls-10" d="M326.4,396.8c.57-2.15-1.14-3.91-3.52-3.3" transform="translate(-246.1 -348.48)"/><path class="cls-11" d="M290.15,407.43a16.65,16.65,0,0,1,6.45,0,6.17,6.17,0,0,0,1.53.48,11.67,11.67,0,0,0,1.83-.46,20.43,20.43,0,0,1,6.19,0C304.11,414.46,293.15,415.08,290.15,407.43Z" transform="translate(-246.1 -348.48)"/><path class="cls-11" d="M306.11,407.51c-2.29,7-13.16,7.51-16-.08A18.48,18.48,0,0,0,306.11,407.51Z" transform="translate(-246.1 -348.48)"/><path class="cls-2" d="M321.25,368.2c-22.48,15.67-47.78-1.58-49.91,45.8-15.31-21.72-4.73-45,10.31-54.19C301.32,347.83,317.06,358,321.25,368.2Z" transform="translate(-246.1 -348.48)"/><path class="cls-7" d="M297.86,434.23a51.8,51.8,0,0,1,34,12.67,219,219,0,0,1-68.06,0A51.8,51.8,0,0,1,297.86,434.23Z" transform="translate(-246.1 -348.48)"/><path class="cls-7" d="M338,453.15a51.88,51.88,0,0,1,11.62,27.73H326.38A51.8,51.8,0,0,1,338,453.15Z" transform="translate(-246.1 -348.48)"/><path class="cls-7" d="M269.34,480.88H246.1a51.8,51.8,0,0,1,11.62-27.73A51.8,51.8,0,0,1,269.34,480.88Z" transform="translate(-246.1 -348.48)"/></svg>