<svg id="Layer_1" data-name="Layer 1" xmlns="http://www.w3.org/2000/svg" xmlns:xlink="http://www.w3.org/1999/xlink" viewBox="0 0 103.52 145.91"><defs><style>.cls-1,.cls-11,.cls-13,.cls-2,.cls-3{fill:none;}.cls-1,.cls-14{opacity:0.25;}.cls-1,.cls-2,.cls-3{clip-rule:evenodd;}.cls-16,.cls-2{opacity:0.3;}.cls-4{fill:#9d71b1;}.cls-10,.cls-12,.cls-13,.cls-14,.cls-18,.cls-4,.cls-5,.cls-6,.cls-7,.cls-8,.cls-9{fill-rule:evenodd;}.cls-5{fill:#f16892;}.cls-6{fill:#e0527c;}.cls-7{fill:#fccbbb;}.cls-8{fill:#010101;opacity:0.1;}.cls-9{fill:#fff;}.cls-10{fill:#a982bb;}.cls-11{stroke:#fff;stroke-miterlimit:22.93;stroke-width:0.96px;}.cls-12{fill:#1f2126;}.cls-13{stroke:#e4b6a7;stroke-linecap:round;stroke-linejoin:round;stroke-width:1.44px;}.cls-14,.cls-16{fill:#ef4a89;}.cls-15{clip-path:url(#clip-path);}.cls-17{clip-path:url(#clip-path-2);}.cls-18{fill:#d9b496;}.cls-19{clip-path:url(#clip-path-3);}</style><clipPath id="clip-path" transform="translate(-245.74 -350.53)"><path class="cls-1" d="M307.6,423.29c-2.71,10.69-16.56,11.66-20.2,0C290.25,424.59,303.56,425.21,307.6,423.29Z"/></clipPath><clipPath id="clip-path-2" transform="translate(-245.74 -350.53)"><path class="cls-2" d="M307.6,423.29c-2.71,10.69-16.56,11.66-20.2,0C290.25,424.59,303.56,425.21,307.6,423.29Z"/></clipPath><clipPath id="clip-path-3" transform="translate(-245.74 -350.53)"><path class="cls-3" d="M288.82,423.72a145.7,145.7,0,0,1,17.36,0C303.72,429.52,291.73,430,288.82,423.72Z"/></clipPath></defs><path class="cls-4" d="M276.56,362.86c-8.66,12.22-16.65,66.18,9.26,80.26,9.13,4.95,26.44,6,41.17-7.48-11.64-1.24-13.53-16.68-10-21.74,11.53-16.56,11.57-38.39,1.08-52.75C306.66,345.56,287.34,348,276.56,362.86Z" transform="translate(-245.74 -350.53)"/><path class="cls-5" d="M297.5,449.79a52,52,0,0,1,51.76,46.65H245.74A52,52,0,0,1,297.5,449.79Z" transform="translate(-245.74 -350.53)"/><path class="cls-6" d="M297.5,449.79a51.83,51.83,0,0,1,32.79,11.63c-6.57,6.38-18.79,10.67-32.79,10.67s-26.22-4.29-32.79-10.67A51.83,51.83,0,0,1,297.5,449.79Z" transform="translate(-245.74 -350.53)"/><path class="cls-7" d="M297.5,449.79a51.71,51.71,0,0,1,29.41,9.11c-5.67,5.36-16.71,9-29.41,9s-23.74-3.63-29.41-9A51.71,51.71,0,0,1,297.5,449.79Z" transform="translate(-245.74 -350.53)"/><path class="cls-7" d="M287.39,416.17h20.22v35.75A10.14,10.14,0,0,1,297.5,462h0a10.14,10.14,0,0,1-10.11-10.11Z" transform="translate(-245.74 -350.53)"/><path class="cls-8" d="M287.39,414.32h20.22v25.9a31.82,31.82,0,0,1-20.22,10.87Z" transform="translate(-245.74 -350.53)"/><path class="cls-7" d="M269.86,420.94c-6.94-20.61-1.67-53.92,27.47-54.69s34.65,33.65,28,54.43C316.69,447.93,279,448,269.86,420.94Z" transform="translate(-245.74 -350.53)"/><path class="cls-9" d="M297.5,378.82c8.17,0,14.83-4,14.83-9s-6.66-9-14.83-9-14.83,4-14.83,9S289.33,378.82,297.5,378.82Z" transform="translate(-245.74 -350.53)"/><path class="cls-10" d="M328.58,395.94a61.2,61.2,0,0,0-12.1-3.56,42.87,42.87,0,0,0-5.9-13.71,40,40,0,0,1,3,12.92,70.87,70.87,0,0,0-31.68,0,39.94,39.94,0,0,1,3-12.87A42.88,42.88,0,0,0,279,392.31c-4,1.38-8.3,3-12.72,4.92,1-18.05,10.54-30.76,29.9-32.11S328.64,377.9,328.58,395.94Z" transform="translate(-245.74 -350.53)"/><path class="cls-10" d="M318,383.57c2.4,15.57,5.63,21,11.16,22.32C330.61,393.09,323.62,384,318,383.57Z" transform="translate(-245.74 -350.53)"/><path class="cls-10" d="M277.3,383.88c-2.08,12.75-5.79,20.7-11.32,22C264.48,393.09,271.63,384.3,277.3,383.88Z" transform="translate(-245.74 -350.53)"/><line class="cls-11" x1="21.53" y1="49.56" x2="29.45" y2="54.05"/><path class="cls-7" d="M266.32,415.43c3.28,0,5.95-3.64,5.95-8.11s-2.67-8.11-5.95-8.11-5.95,3.64-5.95,8.11S263.05,415.43,266.32,415.43Z" transform="translate(-245.74 -350.53)"/><line class="cls-11" x1="82.26" y1="49.56" x2="74.33" y2="54.05"/><path class="cls-7" d="M328.68,415.43c3.27,0,5.95-3.64,5.95-8.11s-2.68-8.11-5.95-8.11-5.95,3.64-5.95,8.11S325.4,415.43,328.68,415.43Z" transform="translate(-245.74 -350.53)"/><path class="cls-12" d="M308.94,406a2.07,2.07,0,1,0-2-2.06A2.05,2.05,0,0,0,308.94,406Z" transform="translate(-245.74 -350.53)"/><path class="cls-12" d="M286.06,406a2.07,2.07,0,1,0-2-2.06A2.06,2.06,0,0,0,286.06,406Z" transform="translate(-245.74 -350.53)"/><path class="cls-13" d="M297.88,404.23c3.18,6,7.11,12.1-.26,13.36" transform="translate(-245.74 -350.53)"/><path class="cls-10" d="M314.75,394.82c1.31.34.91,1.93-.38,1.51-2.55-.82-6-.37-9.72.85-1.69.55-2-2-.29-2.46A19.89,19.89,0,0,1,314.75,394.82Z" transform="translate(-245.74 -350.53)"/><path class="cls-10" d="M280.25,394.82c-1.31.34-.91,1.93.38,1.51,2.55-.82,6-.37,9.72.85,1.69.55,2-2,.29-2.46A19.89,19.89,0,0,0,280.25,394.82Z" transform="translate(-245.74 -350.53)"/><path class="cls-13" d="M265,402.94c2.65-1.16,5.28,1.2,4.71,6.47" transform="translate(-245.74 -350.53)"/><path class="cls-13" d="M265.71,411.53c-.64-2.41,1.29-4.38,4-3.7" transform="translate(-245.74 -350.53)"/><path class="cls-13" d="M330.76,402.94c-2.66-1.16-5.29,1.2-4.72,6.47" transform="translate(-245.74 -350.53)"/><path class="cls-13" d="M330.08,411.53c.64-2.41-1.29-4.38-4-3.7" transform="translate(-245.74 -350.53)"/><path class="cls-14" d="M287.4,423.29a40.8,40.8,0,0,1,8.16-1.08c.72,0,1.34.33,2.06.34s1.5-.33,2.18-.3a50.3,50.3,0,0,1,7.8,1C304.89,434,291,435,287.4,423.29Z" transform="translate(-245.74 -350.53)"/><g class="cls-15"><rect class="cls-16" x="41.66" y="72.77" width="20.2" height="8.38"/></g><g class="cls-17"><path class="cls-18" d="M288.82,423.72a145.7,145.7,0,0,1,17.36,0C303.72,429.52,291.73,430,288.82,423.72Z" transform="translate(-245.74 -350.53)"/><g class="cls-19"><path class="cls-9" d="M290.59,423.6c3.72-.23,10.05-.15,13.82,0C302.52,426.71,293.12,427,290.59,423.6Z" transform="translate(-245.74 -350.53)"/></g></g><path class="cls-9" d="M310.86,401.09a16.16,16.16,0,0,0-2,.12,10.17,10.17,0,0,0-5,1.83,4.87,4.87,0,0,0-1.95,4,5.41,5.41,0,0,0,.05.79,8.79,8.79,0,0,0,2.87,5.71,9.06,9.06,0,0,0,6.1,2.09,8.12,8.12,0,0,0,5.82-2,10.41,10.41,0,0,0,2.81-5.78,6.39,6.39,0,0,0,.14-1.26,4.36,4.36,0,0,0-1.56-3.43,8.73,8.73,0,0,0-4-1.76,17.26,17.26,0,0,0-3.26-.3Zm-17.19,3.63a6,6,0,0,1,1.39-.69,7.47,7.47,0,0,1,4.88,0,6,6,0,0,1,1.39.69,6.06,6.06,0,0,1,1.92-2.47,11.11,11.11,0,0,1,5.48-2,16.47,16.47,0,0,1,2.13-.13,17.74,17.74,0,0,1,3.46.32,9.7,9.7,0,0,1,4.5,2,5.29,5.29,0,0,1,1.91,4.18,7,7,0,0,1-.16,1.46,11.36,11.36,0,0,1-3.11,6.31,9.11,9.11,0,0,1-6.52,2.26,10.14,10.14,0,0,1-6.77-2.34,9.8,9.8,0,0,1-3.21-6.35,7.19,7.19,0,0,1-.06-.91,6.41,6.41,0,0,1,.12-1.26,4.84,4.84,0,0,0-1.42-.77,6.48,6.48,0,0,0-4.2,0,4.71,4.71,0,0,0-1.42.77,6.41,6.41,0,0,1,.12,1.26,7.19,7.19,0,0,1-.06.91,9.8,9.8,0,0,1-3.21,6.35,10.14,10.14,0,0,1-6.77,2.34,9.11,9.11,0,0,1-6.52-2.26,11.36,11.36,0,0,1-3.11-6.31,7,7,0,0,1-.16-1.46,5.29,5.29,0,0,1,1.91-4.18,9.7,9.7,0,0,1,4.5-2,17.77,17.77,0,0,1,3.47-.32,16.42,16.42,0,0,1,2.12.13,11.11,11.11,0,0,1,5.48,2,6.06,6.06,0,0,1,1.92,2.47Zm-7.53-3.51a16.12,16.12,0,0,0-2-.12,17.29,17.29,0,0,0-3.27.3,8.73,8.73,0,0,0-4,1.76,4.36,4.36,0,0,0-1.56,3.43,6.39,6.39,0,0,0,.14,1.26,10.41,10.41,0,0,0,2.81,5.78,8.12,8.12,0,0,0,5.82,2,9.06,9.06,0,0,0,6.1-2.09A8.83,8.83,0,0,0,293,407.8a5.32,5.32,0,0,0,.05-.79,4.84,4.84,0,0,0-1.95-4A10.17,10.17,0,0,0,286.14,401.21Z" transform="translate(-245.74 -350.53)"/><path class="cls-6" d="M337.64,468.72a51.84,51.84,0,0,1,11.62,27.72H326A51.77,51.77,0,0,1,337.64,468.72Z" transform="translate(-245.74 -350.53)"/><path class="cls-6" d="M269,496.44H245.74a51.84,51.84,0,0,1,11.62-27.72A51.77,51.77,0,0,1,269,496.44Z" transform="translate(-245.74 -350.53)"/></svg>