<svg id="Layer_1" data-name="Layer 1" xmlns="http://www.w3.org/2000/svg" viewBox="0 0 103.52 133.16"><defs><style>.cls-1,.cls-2,.cls-7{fill:#214080;}.cls-1,.cls-10,.cls-11,.cls-3,.cls-4,.cls-5,.cls-6,.cls-7,.cls-8,.cls-9{fill-rule:evenodd;}.cls-3{fill:#a982bb;}.cls-4{fill:#fff;}.cls-5{fill:#fccbbb;}.cls-6{fill:#010101;opacity:0.1;}.cls-7{opacity:0.2;}.cls-8{fill:#1f2126;}.cls-9{fill:none;stroke:#e4b6a7;stroke-linecap:round;stroke-linejoin:round;stroke-width:1.44px;}.cls-10{fill:#d9a796;}.cls-11{fill:#c3a1cc;}</style></defs><path class="cls-1" d="M288.62,417.78c9.3-6,19.69-6.4,23.21-.94s-1.18,14.74-10.48,20.73-19.7,6.41-23.21.94S279.31,423.77,288.62,417.78Z" transform="translate(-245.74 -360.41)"/><ellipse class="cls-2" cx="300.03" cy="427.68" rx="11.76" ry="20.03" transform="translate(-467.71 88.21) rotate(-57.25)"/><path class="cls-1" d="M274.05,406c9.3-6,19.69-6.41,23.21-.94s-1.18,14.74-10.48,20.73-19.7,6.41-23.21.94S264.74,412,274.05,406Z" transform="translate(-245.74 -360.41)"/><path class="cls-1" d="M264.14,387.93c9.31-6,19.7-6.4,23.22-.94s-1.18,14.75-10.49,20.73-19.69,6.41-23.21.95S254.84,393.92,264.14,387.93Z" transform="translate(-245.74 -360.41)"/><path class="cls-1" d="M319.55,404.77c-9.31-6-19.7-6.41-23.21-.95s1.18,14.75,10.48,20.74,19.69,6.4,23.21.94S328.85,410.75,319.55,404.77Z" transform="translate(-245.74 -360.41)"/><path class="cls-1" d="M329,387.93c-9.31-6-19.7-6.4-23.21-.94s1.17,14.75,10.48,20.73,19.69,6.41,23.21.95S338.33,393.92,329,387.93Z" transform="translate(-245.74 -360.41)"/><path class="cls-3" d="M297.5,446.93a52,52,0,0,1,51.76,46.65H245.74A52,52,0,0,1,297.5,446.93Z" transform="translate(-245.74 -360.41)"/><polygon class="cls-4" points="49.1 133.16 54.42 133.16 61.87 87.5 41.65 87.5 49.1 133.16"/><path class="cls-5" d="M287.39,413.3h20.22v35.75a10.14,10.14,0,0,1-10.11,10.11h0a10.14,10.14,0,0,1-10.11-10.11Z" transform="translate(-245.74 -360.41)"/><path class="cls-6" d="M287.39,411.15h20.22v26.12a31.8,31.8,0,0,1-20.22,11Z" transform="translate(-245.74 -360.41)"/><path class="cls-5" d="M270.24,419.08c-6.82-20.41-1.64-53.4,27-54.17s34,33.33,27.54,53.91C316.24,445.81,279.2,445.9,270.24,419.08Z" transform="translate(-245.74 -360.41)"/><path class="cls-7" d="M274.75,396.64c-1.07,4.69-1,14.33,1.19,21.16,1.65,5.05,3.93,4.72,4,1.5.05-3,2.67-4.66,4.21-5.09,3.39-1,10.8,1.6,13.24,1.6s10.8-2.3,14.19-1.35a5.09,5.09,0,0,1,3.73,5.2c-.25,5.1,2,3.33,3.68-.85,3.08-8,3.18-20,1-25.38,1.63-4.1,4.78-.69,6.11-2.7a58.21,58.21,0,0,1-1.35,28.09c-8.52,27-45.56,27.08-54.52.26a56.06,56.06,0,0,1-1.57-28.28c1.32,2,4.47,1.79,6.08,5.84Zm18.1,33.91c3.32-4.33,5.71-4.33,9,0,7.45,9.73,15.65-13.42,7.25-13.42-3.56,0-8.56,1.31-11.29,1.41-3.53.14-8.19-1.29-12.23-1.29C277.42,417.25,285.17,440.59,292.85,430.55Z" transform="translate(-245.74 -360.41)"/><path class="cls-1" d="M311.38,370.81c-9.49,7.74,10.87,36.33,20.36,28.6S320.86,363.08,311.38,370.81Z" transform="translate(-245.74 -360.41)"/><path class="cls-1" d="M299.38,364.8C309.81,381,267,411.31,257.82,397.06,248.22,382.13,288.85,348.42,299.38,364.8Z" transform="translate(-245.74 -360.41)"/><path class="cls-1" d="M315.24,366.6c7.33,11.41-22.38,30.45-29.72,19S307.9,355.19,315.24,366.6Z" transform="translate(-245.74 -360.41)"/><path class="cls-5" d="M266.76,413.63c3.22,0,5.85-3.61,5.85-8s-2.63-8-5.85-8-5.84,3.61-5.84,8S263.55,413.63,266.76,413.63Z" transform="translate(-245.74 -360.41)"/><path class="cls-5" d="M328,413.63c3.22,0,5.84-3.61,5.84-8s-2.62-8-5.84-8-5.84,3.61-5.84,8S324.79,413.63,328,413.63Z" transform="translate(-245.74 -360.41)"/><path class="cls-8" d="M308.62,404.23a2,2,0,1,0-2-2A2,2,0,0,0,308.62,404.23Z" transform="translate(-245.74 -360.41)"/><path class="cls-8" d="M286.15,404.23a2,2,0,1,0-2-2A2,2,0,0,0,286.15,404.23Z" transform="translate(-245.74 -360.41)"/><path class="cls-9" d="M298.13,399.61c3.11,5.92,7,12-.27,13.23" transform="translate(-245.74 -360.41)"/><path class="cls-1" d="M314,396.2a1,1,0,0,1-.23,2,41.5,41.5,0,0,0-9.7.33,1.23,1.23,0,1,1-.28-2.44A44.14,44.14,0,0,1,314,396.2Z" transform="translate(-245.74 -360.41)"/><path class="cls-1" d="M280.78,396.2a1,1,0,0,0,.23,2,41.41,41.41,0,0,1,9.69.33,1.23,1.23,0,1,0,.28-2.44A44,44,0,0,0,280.78,396.2Z" transform="translate(-245.74 -360.41)"/><path class="cls-9" d="M264.87,401.25c2.61-1.14,5.19,1.19,4.63,6.41" transform="translate(-245.74 -360.41)"/><path class="cls-9" d="M265.53,409.76c-.63-2.39,1.27-4.34,3.91-3.67" transform="translate(-245.74 -360.41)"/><path class="cls-9" d="M329.42,401.25c-2.61-1.14-5.19,1.19-4.63,6.41" transform="translate(-245.74 -360.41)"/><path class="cls-9" d="M328.75,409.76c.64-2.39-1.26-4.34-3.91-3.67" transform="translate(-245.74 -360.41)"/><path class="cls-10" d="M289.15,420.11c4.61,1.32,12.3,1.37,16.47,0C303.41,423.36,292.12,423.65,289.15,420.11Z" transform="translate(-245.74 -360.41)"/><path class="cls-10" d="M292.37,423.64a14.56,14.56,0,0,0,10,0C301.06,426.58,294.17,426.85,292.37,423.64Z" transform="translate(-245.74 -360.41)"/><path class="cls-11" d="M279.92,450l-8.85,11.7,12.5,2.63-10.37,6.54,21.64,22.74-7.45-45.67A52.23,52.23,0,0,0,279.92,450Z" transform="translate(-245.74 -360.41)"/><path class="cls-11" d="M315.08,450l8.85,11.7-12.5,2.63,10.37,6.54-21.64,22.74,7.45-45.67A52.23,52.23,0,0,1,315.08,450Z" transform="translate(-245.74 -360.41)"/><path class="cls-11" d="M337.64,465.85a51.88,51.88,0,0,1,11.62,27.73H326A51.8,51.8,0,0,1,337.64,465.85Z" transform="translate(-245.74 -360.41)"/><path class="cls-11" d="M269,493.58H245.74a51.88,51.88,0,0,1,11.62-27.73A51.8,51.8,0,0,1,269,493.58Z" transform="translate(-245.74 -360.41)"/></svg>