<svg id="Layer_1" data-name="Layer 1" xmlns="http://www.w3.org/2000/svg" viewBox="0 0 103.52 129.48"><defs><style>.cls-1{fill:#143d82;}.cls-1,.cls-2,.cls-3,.cls-4,.cls-5,.cls-6,.cls-7,.cls-8{fill-rule:evenodd;}.cls-2{fill:#a982bd;}.cls-3{fill:#fff;}.cls-4{fill:#ffccba;}.cls-5{opacity:0.1;}.cls-6{fill:#1f2126;}.cls-7{fill:none;stroke:#e5b7a7;stroke-linecap:round;stroke-linejoin:round;stroke-width:1.44px;}.cls-8{fill:#ed4784;opacity:0.5;}</style></defs><path class="cls-1" d="M959.69,473.18c31.45,0,45,38.94,45,75.62-.05,61-88.91,61.3-89.16-3.94C915.41,510.07,930.59,473.22,959.69,473.18Z" transform="translate(-908.62 -473.18)"/><path class="cls-2" d="M960.38,556a52,52,0,0,1,51.76,46.65H908.62A52.05,52.05,0,0,1,960.38,556Z" transform="translate(-908.62 -473.18)"/><path class="cls-3" d="M988.28,564.12c1.68,10.78-22.61,17.54-27.9,4.13-1.7-4.33.7-8.78,4.69-12A51.75,51.75,0,0,1,988.28,564.12Z" transform="translate(-908.62 -473.18)"/><path class="cls-3" d="M932.49,564.12c-1.68,10.78,22.61,17.54,27.89,4.13,1.71-4.33-.69-8.78-4.68-12A51.75,51.75,0,0,0,932.49,564.12Z" transform="translate(-908.62 -473.18)"/><path class="cls-4" d="M950.27,522.39H970.5v35.75a10.14,10.14,0,0,1-10.12,10.11h0a10.14,10.14,0,0,1-10.11-10.11Z" transform="translate(-908.62 -473.18)"/><path class="cls-5" d="M950.27,520.24H970.5v26.11a31.73,31.73,0,0,1-20.23,11Z" transform="translate(-908.62 -473.18)"/><path class="cls-4" d="M933.83,529.21c-10.8-18-1.61-52.17,26.35-52.91s37.32,34.33,26.9,52.66c-6.27,11-15.68,20-27.05,19.83C949.05,548.61,940.57,540.47,933.83,529.21Z" transform="translate(-908.62 -473.18)"/><path class="cls-6" d="M971.32,514.71a2,2,0,1,0-2-2A2,2,0,0,0,971.32,514.71Z" transform="translate(-908.62 -473.18)"/><path class="cls-6" d="M949.37,514.71a2,2,0,1,0-2-2A2,2,0,0,0,949.37,514.71Z" transform="translate(-908.62 -473.18)"/><path class="cls-1" d="M970.88,479.59c-4.21,4.66,10.1,27.85,21.17,31.71C999.13,503.73,977.73,472,970.88,479.59Z" transform="translate(-908.62 -473.18)"/><path class="cls-4" d="M990.26,523.88c3.14,0,5.71-3.53,5.71-7.85s-2.57-7.85-5.71-7.85-5.71,3.53-5.71,7.85S987.11,523.88,990.26,523.88Z" transform="translate(-908.62 -473.18)"/><path class="cls-7" d="M929.34,511.82c2.54-1.12,5.07,1.16,4.52,6.26" transform="translate(-908.62 -473.18)"/><path class="cls-7" d="M930,520.13c-.61-2.33,1.24-4.24,3.83-3.58" transform="translate(-908.62 -473.18)"/><path class="cls-4" d="M930.43,523.88c3.15,0,5.71-3.53,5.71-7.85s-2.56-7.85-5.71-7.85-5.71,3.53-5.71,7.85S927.29,523.88,930.43,523.88Z" transform="translate(-908.62 -473.18)"/><path class="cls-1" d="M977.88,479.39c.84,4.2-30.94,38.22-54.35,40.93C925.4,469.85,969.85,470.2,977.88,479.39Z" transform="translate(-908.62 -473.18)"/><path class="cls-1" d="M974.7,477.64c2.76,8.63,2.78,23.34-18.77,32.61C969.64,497.35,972,488.94,974.7,477.64Z" transform="translate(-908.62 -473.18)"/><path class="cls-7" d="M961.14,513c3,5,6.81,10.05-.26,11.09" transform="translate(-908.62 -473.18)"/><path class="cls-1" d="M976.89,507.07c1.26.33.88,1.86-.36,1.46-2.45-.8-5.72-.36-9.33.82-1.62.54-1.93-2-.28-2.38A18.94,18.94,0,0,1,976.89,507.07Z" transform="translate(-908.62 -473.18)"/><path class="cls-1" d="M943.8,507.07c-1.26.33-.88,1.86.36,1.46,2.45-.8,5.73-.36,9.33.82,1.62.54,1.93-2,.28-2.38A18.94,18.94,0,0,0,943.8,507.07Z" transform="translate(-908.62 -473.18)"/><path class="cls-7" d="M992.39,511.82c-2.55-1.12-5.07,1.16-4.52,6.26" transform="translate(-908.62 -473.18)"/><path class="cls-7" d="M991.74,520.13c.62-2.33-1.24-4.24-3.82-3.58" transform="translate(-908.62 -473.18)"/><path class="cls-8" d="M952,530.27a35.47,35.47,0,0,1,6.93-1.25c.6,0,1.11.26,1.71.27s1.25-.26,1.81-.24a39.72,39.72,0,0,1,6.34,1.22C966.49,538.6,955,539.36,952,530.27Z" transform="translate(-908.62 -473.18)"/><path class="cls-8" d="M968.71,530.4c-2.34,8.2-13.75,8.91-16.76-.13,3,1.51,6.25,1.13,8.25,1.07S966,531.93,968.71,530.4Z" transform="translate(-908.62 -473.18)"/><path class="cls-4" d="M1000.52,574.94a51.69,51.69,0,0,1,11.62,27.72H988.9A51.84,51.84,0,0,1,1000.52,574.94Z" transform="translate(-908.62 -473.18)"/><path class="cls-4" d="M931.87,602.66H908.62a51.84,51.84,0,0,1,11.62-27.72A51.78,51.78,0,0,1,931.87,602.66Z" transform="translate(-908.62 -473.18)"/><path class="cls-4" d="M960.38,556a51.84,51.84,0,0,1,24.5,6.12,52.08,52.08,0,0,1-49,0A51.83,51.83,0,0,1,960.38,556Z" transform="translate(-908.62 -473.18)"/></svg>