<svg id="Layer_1" data-name="Layer 1" xmlns="http://www.w3.org/2000/svg" viewBox="0 0 103.52 145.91"><defs><style>.cls-1{fill:#3bd8e3;}.cls-1,.cls-10,.cls-2,.cls-3,.cls-5,.cls-6,.cls-7,.cls-8,.cls-9{fill-rule:evenodd;}.cls-2{fill:#ffccba;}.cls-3{opacity:0.1;}.cls-4,.cls-5{fill:#332826;}.cls-6{fill:#1f2126;}.cls-7{fill:none;stroke:#e5b7a7;stroke-linecap:round;stroke-linejoin:round;stroke-width:1.44px;}.cls-8{fill:#4d3a37;}.cls-9{fill:#d9a796;}.cls-10{fill:#32bdc7;}</style></defs><path class="cls-1" d="M960.38,566.28a52,52,0,0,1,51.76,46.65H908.62A52,52,0,0,1,960.38,566.28Z" transform="translate(-908.62 -467.02)"/><path class="cls-2" d="M950.27,532.65H970.5V568.4a10.14,10.14,0,0,1-10.12,10.11h0a10.14,10.14,0,0,1-10.11-10.11Z" transform="translate(-908.62 -467.02)"/><path class="cls-3" d="M950.27,530.5H970.5v26.12a31.78,31.78,0,0,1-20.23,11Z" transform="translate(-908.62 -467.02)"/><circle class="cls-4" cx="49.15" cy="13.65" r="12.88"/><circle class="cls-4" cx="938.08" cy="496.46" r="12.88" transform="translate(-976.03 -310.34) rotate(-9.22)"/><circle class="cls-4" cx="937.27" cy="511.04" r="12.88" transform="translate(-802.17 714.38) rotate(-67.5)"/><path class="cls-5" d="M975.42,500.35a12.89,12.89,0,1,0-12.88-12.88A12.91,12.91,0,0,0,975.42,500.35Z" transform="translate(-908.62 -467.02)"/><circle class="cls-4" cx="73.5" cy="45.11" r="12.88"/><path class="cls-5" d="M940,492.78a12.88,12.88,0,1,0-12.89-12.88A12.91,12.91,0,0,0,940,492.78Z" transform="translate(-908.62 -467.02)"/><circle class="cls-4" cx="980.86" cy="498.29" r="12.88" transform="translate(-996.87 -228.33) rotate(-13.28)"/><path class="cls-2" d="M932.94,536.67c-6.89-20.63-1.66-54,27.27-54.75s34.41,33.69,27.84,54.49C979.44,563.7,942,563.78,932.94,536.67Z" transform="translate(-908.62 -467.02)"/><path class="cls-5" d="M979.67,493a26.35,26.35,0,0,1-16.42-1.56c.68,6-5.66,11.49-10.77,11.14-2.66,11.35-14.55,18.16-24.27,14.8-1.3-8.21,5-32.93,21-36.87,31.13-7.64,49.51,30.54,42.92,35C987.8,518.44,981.37,502,979.67,493Z" transform="translate(-908.62 -467.02)"/><path class="cls-2" d="M991.34,531.16c3.25,0,5.9-3.65,5.9-8.12s-2.65-8.12-5.9-8.12-5.91,3.65-5.91,8.12S988.08,531.16,991.34,531.16Z" transform="translate(-908.62 -467.02)"/><path class="cls-2" d="M929.43,531.16c3.25,0,5.91-3.65,5.91-8.12s-2.66-8.12-5.91-8.12-5.9,3.65-5.9,8.12S926.18,531.16,929.43,531.16Z" transform="translate(-908.62 -467.02)"/><path class="cls-6" d="M971.74,521.67a2.07,2.07,0,1,0-2-2.07A2.05,2.05,0,0,0,971.74,521.67Z" transform="translate(-908.62 -467.02)"/><path class="cls-6" d="M949,521.67a2.07,2.07,0,1,0-2-2.07A2.05,2.05,0,0,0,949,521.67Z" transform="translate(-908.62 -467.02)"/><path class="cls-7" d="M961.2,523.06c3.15,5.22,7,10.57-.26,11.66" transform="translate(-908.62 -467.02)"/><path class="cls-8" d="M977.17,513.55a1,1,0,0,1-.23,2,41.81,41.81,0,0,0-9.8.33,1.24,1.24,0,1,1-.28-2.46A44.45,44.45,0,0,1,977.17,513.55Z" transform="translate(-908.62 -467.02)"/><path class="cls-8" d="M943.59,513.55a1,1,0,0,0,.24,2,41.71,41.71,0,0,1,9.79.33,1.24,1.24,0,1,0,.29-2.46A44.54,44.54,0,0,0,943.59,513.55Z" transform="translate(-908.62 -467.02)"/><path class="cls-2" d="M991.34,531.16c3.25,0,5.9-3.65,5.9-8.12s-2.65-8.12-5.9-8.12-5.91,3.65-5.91,8.12S988.08,531.16,991.34,531.16Z" transform="translate(-908.62 -467.02)"/><path class="cls-7" d="M928.3,518.66c2.63-1.16,5.24,1.2,4.68,6.47" transform="translate(-908.62 -467.02)"/><path class="cls-7" d="M929,527.26c-.64-2.42,1.28-4.39,3.95-3.71" transform="translate(-908.62 -467.02)"/><path class="cls-7" d="M992.87,527.26c.64-2.42-1.28-4.39-4-3.71" transform="translate(-908.62 -467.02)"/><path class="cls-7" d="M993.55,518.66c-2.64-1.16-5.25,1.2-4.68,6.47" transform="translate(-908.62 -467.02)"/><path class="cls-9" d="M948.8,538.32c6.17,3.63,17,3.63,23.16,0C968.86,544.41,953,545,948.8,538.32Z" transform="translate(-908.62 -467.02)"/><path class="cls-9" d="M955.31,544.09a14.64,14.64,0,0,0,10.15,0C964.1,547.07,957.14,547.34,955.31,544.09Z" transform="translate(-908.62 -467.02)"/><path class="cls-10" d="M1000.52,585.2a51.72,51.72,0,0,1,11.62,27.73H988.9A51.88,51.88,0,0,1,1000.52,585.2Z" transform="translate(-908.62 -467.02)"/><path class="cls-10" d="M931.87,612.93H908.62a51.88,51.88,0,0,1,11.62-27.73A51.81,51.81,0,0,1,931.87,612.93Z" transform="translate(-908.62 -467.02)"/></svg>