<svg id="Layer_1" data-name="Layer 1" xmlns="http://www.w3.org/2000/svg" viewBox="0 0 109.2 123.26"><defs><style>.cls-1{fill:#010101;}</style></defs><path class="cls-1" d="M294,473.31h0v0h0Z" transform="translate(-242.68 -359.37)"/><path class="cls-1" d="M350.62,468.17c-2-4.32-4.63-8.07-9.39-9.76-.72-.26-1.4-.67-2.1-1l-10-4.59-6.07-2.77c-.63-1.05-1-1.87-1.57-2.6a10.2,10.2,0,0,0-1.82-2.05,52,52,0,0,0-7.4-5.27c-.49-.27-.94-.59-1.51-.95q0-3.49,0-7a6.46,6.46,0,0,1,.18-1l2.73.4a11.54,11.54,0,0,0,4.82-.22,2,2,0,0,0,1.53-1.56,10.49,10.49,0,0,0,.2-1.25,24.46,24.46,0,0,0-.09-7.67c.46.42.75.56.8.76a13.77,13.77,0,0,1,.51,2.68c.07,1.48,0,3,0,4.44,0,.3.06.6.12,1.12.78-.56,1.33-1,1.92-1.35a2.23,2.23,0,0,0,1.07-2.13,26.36,26.36,0,0,0-.65-6.51c-.35-1.37-.67-2.74-1-4.12-.11-.52-.14-1.06-.25-2,1.38,1.67,1.55,3.44,2.46,4.85,1.16,1.81.91,4,1.58,6.27,1.56-1.8,3.21-3.08,5.49-2.59,3.33-2.9,5.18-8.8,4.73-14.95a2.18,2.18,0,0,1,.94,2c.06,1,0,2,0,3a10.7,10.7,0,0,1-1,4.73c-.48,1-1,2-1.53,3.1.13.17.16.25.22.28s.26.16.38.14c2.9-.53,5.45-1.69,6.63-4.59a16.75,16.75,0,0,0,1-4.51,21,21,0,0,0-.09-3.8c-.24-3.2-.84-6.31-3-8.86a35.79,35.79,0,0,0-2.51-2.57c-1.11-1.08-2.29-2.1-3.37-3.21-1.91-2-3.72-4-5.68-6a13.43,13.43,0,0,1-3.36-5.31c-.86-2.53-1.67-5.08-2.51-7.62-.2-.6-.43-1.2-.68-1.78a19.3,19.3,0,0,0-4.75-6.16,23.41,23.41,0,0,0-16.39-6.81c-3.86,0-7.59.61-10.86,2.89-.46.32-1,.52-1.48.82a2.76,2.76,0,0,1-2.2.28c-6.71-1.4-15.51.79-19.81,9.21q-4.33,8.48-8.47,17.05a42.51,42.51,0,0,1-5.11,8.25,44,44,0,0,1-5.3,5.45,16.45,16.45,0,0,0-5.29,10.1,6.72,6.72,0,0,0,.55,4.13c.37.76.66,1.56,1,2.34a9,9,0,0,1,.28,5.41c-.15.69-.39,1.35-.54,2a8.25,8.25,0,0,0-.1,1.29l5,2.24a1.76,1.76,0,0,0,.3-.41,3,3,0,0,0,.15-.61,12.62,12.62,0,0,0-.82-6,15.44,15.44,0,0,1,2.66-15.69c1.54-1.92,3.17-3.78,4-6.39.23,1.4.26,1.41-.08,2-.65,1.09-1.3,2.18-2,3.26-.86,1.37-1.83,2.68-2.6,4.1a14.56,14.56,0,0,0-1,12.06c.19.53.42,1.05.58,1.59.6,2.14,1,4.27-.11,6.39a1.94,1.94,0,0,0-.07.75,10.18,10.18,0,0,0,8.95,3c2.26-.22,2.7-.65,3.11-3a6.65,6.65,0,0,0,.13-1.26A23,23,0,0,0,260.9,422a4.62,4.62,0,0,1-.11-1c.34.27.55.35.63.5a12.48,12.48,0,0,1,.69,1.54c1.28,3.38,1,6.91.79,10.57l1.67-.34a15.55,15.55,0,0,0,.59-2.68,24.37,24.37,0,0,0-.35-6.32,4.47,4.47,0,0,1,.16-1.14,14.6,14.6,0,0,1,1,9.86,2.3,2.3,0,0,0,2.18,0c1-2.07,0-4.33.46-6.82,1.24,2.54.66,4.89.84,7.12,1.33.72,2.63,1.42,3.92,2.14a9.49,9.49,0,0,0,3.82,1.17,5.91,5.91,0,0,0,4.22-1,9.82,9.82,0,0,1,2.46-1.19,4.21,4.21,0,0,1,1.45,0v5.16c-1.42.88-2.82,1.7-4.16,2.61s-2.61,1.93-3.92,2.89a14.07,14.07,0,0,0-2.79,2.87c-.94,1.22-1.12,2.7-1.58,4.18A117.4,117.4,0,0,1,257.92,458c-1.34.4-2.66.9-4,1.41a3,3,0,0,0-1.4.9,24.28,24.28,0,0,1-3,3.26c-2.66,2.9-4,6.41-5.13,10.09a7.49,7.49,0,0,0-.11,1.67,39.1,39.1,0,0,0,5.14,1.65,63.66,63.66,0,0,1,7.92,2.21,72.12,72.12,0,0,0,14.25,3,50.93,50.93,0,0,0,6.76.44c4-.07,7.9-.2,11.85-.24a50.43,50.43,0,0,0,9.25-.9,6.16,6.16,0,0,1,1.05-.14c3-.09,5.92-.27,8.88-.23a155.73,155.73,0,0,0,18.83-.66c3.85-.43,7.72-.68,11.53-1.44a53.33,53.33,0,0,0,9.3-2.75,4.36,4.36,0,0,0,2.44-5.72C351.17,469.77,351,468.93,350.62,468.17Zm-32.17-59.3c.24-1.38.39-2.78.62-4.38a4.22,4.22,0,0,1,.8.7c.58.88,1.1,1.81,1.69,2.68.16.25.47.39.95.76,0-.56.09-.87,0-1.05A41.12,41.12,0,0,0,320.2,404a3.62,3.62,0,0,1-.87-2.71,24.68,24.68,0,0,0,0-2.72,2.6,2.6,0,0,1,2.86-.34,4.25,4.25,0,0,1,2.24,1.84c1.74,3.36,1.81,8.64-1.94,11.55a7.5,7.5,0,0,1-4.95,1.71C317.89,411.75,318.21,410.32,318.45,408.87Zm-16.26-44.21c-1.27.08-2.31.12-3.35.24s-1.75.75-3,.75a6.86,6.86,0,0,1,4.05-1.61C300.8,363.9,301,364,302.19,364.66Zm-6.37-.56-1,.29-.12,0,.1-.05,1-.27.09,0,.81-.47.09.16-.9.31Zm-3.18-1a7.63,7.63,0,0,1,4.67-1.38c-.32.77-.95.65-1.39.84s-.94.29-1.39.49-1,.51-1.49.78l-1.33.74A1.49,1.49,0,0,1,292.64,363.11Zm-10,.86a4.21,4.21,0,0,1,3.47,1.06c-1.25-.15-2.2-.33-3.15-.36s-1.93.07-3.09.12C280.72,363.72,281.75,364,282.65,364Zm-2.45,1.93a4.37,4.37,0,0,1,4.47.08l-6.26,1.36C278.6,366.3,279.54,366.24,280.2,365.9Zm-8.86,49.66c-3.46-1-6.4-3.3-6.58-8.22a14.55,14.55,0,0,1,.38-3.54,4.24,4.24,0,0,1,2.54-2.93,2.35,2.35,0,0,1,2.59.15c.15,1.16.37,2.47.43,3.79a3.48,3.48,0,0,1-.58,1.53c-.61,1.19-1.29,2.33-1.88,3.53-.14.3,0,.72,0,1.44,1.49-1.33,1.54-3.15,2.86-4.33.74,1.31.73,2.79,1.18,4.12s.87,2.81,1.33,4.33A3.1,3.1,0,0,1,271.34,415.56Zm8,7.67c-3.17-4.09-4.73-8.78-6.12-13.59a61.54,61.54,0,0,1-2-9.5c-.3-2.42-.43-4.78.91-7,.81-1.33.69-2.85.72-4.25a3.84,3.84,0,0,1,2.21-1.32,2.26,2.26,0,0,0,1.61-1.79c.52-1.82,1.07-3.65,1.65-5.46a10.06,10.06,0,0,1,1.89-3.49,14.55,14.55,0,0,1-1,4.33c-.41,1.48-.86,3-1.27,4.35.34.47.61.22.81.09a10,10,0,0,1,5.17-1.65c1.48-.06,1.89-.4,2.24-2a17.74,17.74,0,0,0,.2-2.53c0-.49.05-1,.13-1.47a16.37,16.37,0,0,1,.48-1.6c.28,2.51-.8,4.74.68,6.66.84-.27.78-.89.77-1.43-.06-2.25-.15-4.51-.23-6.95a17.23,17.23,0,0,1,1.56,7.33c1.79,1,2.55,1.15,4.92.87a28.86,28.86,0,0,0,.07-4.56,31.21,31.21,0,0,0-.34-4.42c-.22-1.5-.59-3-.93-4.69a3.33,3.33,0,0,1,1.28,2.24,44.71,44.71,0,0,1,1.34,8.76c0,.7.12,1.4.19,2.12.8.19,1.29-.17,1.94-.73a18.1,18.1,0,0,0,.13-3.17,17,17,0,0,0-1.29-5.54,2.82,2.82,0,0,1,0-1.27l0-.08-.31,0,.36-.08v.13a20.82,20.82,0,0,1,2.41,6.62c.21.8.31,1.64.49,2.64l1.84-.5c.08-.24.23-.45.2-.62-.23-1.1-.48-2.19-.76-3.28-.15-.6-.37-1.19-.56-1.78l-.06,0,.09-.11,0,.07v0c.54-.18.71.27.83.61.54,1.52,1,3.05,1.58,4.74a14.56,14.56,0,0,0,2.12.2,11.46,11.46,0,0,1,4.9,1,5.2,5.2,0,0,0,1.21.34.91.91,0,0,0,1.05-1.3c-.25-.57-.62-1.1-.93-1.65s-.67-1.2-1-1.81l-.07,0v-.13l0-.06s0-.06,0-.08v.14l.06.08v0a.67.67,0,0,1,.82.34,31.42,31.42,0,0,1,1.69,2.91,11.55,11.55,0,0,1,.63,2,17.86,17.86,0,0,0,2.77,5.66,9.85,9.85,0,0,1,1.86,4.85,47.62,47.62,0,0,1-.41,12.22c-.44,3.08-1.06,6.11-1.8,9.12a24.88,24.88,0,0,1-2.84,6.8,26.73,26.73,0,0,1-4.16,5.84,29.4,29.4,0,0,1-6.09,4.53,13.36,13.36,0,0,1-5.24,1.51,16.19,16.19,0,0,1-10.34-2.21A28.69,28.69,0,0,1,279.33,423.23Zm17.94,33.84a26.54,26.54,0,0,1-5.83-2.4,18.7,18.7,0,0,1-5.78-6.09,9.49,9.49,0,0,0,.85-1.53,6.53,6.53,0,0,0,.25-1.66c.09-1.25.16-2.5.24-3.85a10.69,10.69,0,0,1,1.4.08,9.17,9.17,0,0,0,4.39-.18,56.17,56.17,0,0,0,5.42-1.76,20,20,0,0,0,8.74-7.1c.75-1,1.47-2,2.51-3.27,0,.7.07,1,.07,1.32,0,1.62,0,3.24,0,4.86a95.42,95.42,0,0,0,.77,11.58,2.8,2.8,0,0,1-.4,2,16.79,16.79,0,0,1-8.81,6.87,3.36,3.36,0,0,0-1.29.66A2.21,2.21,0,0,1,297.27,457.07ZM301,473.12c-2-2.56-2.69-8.56-1.49-12.51C301.23,463.07,301.82,467.83,301,473.12ZM293.32,476c-.44,1.4-1,2.78-1.5,4.3a.93.93,0,0,1-.41.18c-3.94.14-7.89.33-11.83.36-2.32,0-4.65-.17-7-.35a68.73,68.73,0,0,1-14.7-2.84,42,42,0,0,0-8-2,25,25,0,0,1-3.77-1c.1-.48.16-.88.27-1.26a26.07,26.07,0,0,1,4.55-9,11.4,11.4,0,0,1,6.16-4.2,96.38,96.38,0,0,0,14.45-5.36c.31-.14.64-.25,1.11-.43.15.51.3.95.41,1.41a11.55,11.55,0,0,0,5.23,7.39,6.43,6.43,0,0,0,2.12.91,11.67,11.67,0,0,0,8-.93,42.09,42.09,0,0,0,7.27-4.68c.54-.45.56-.43,1.64-.13a12.12,12.12,0,0,1-.7,1,53.32,53.32,0,0,0-6.87,9.87,21,21,0,0,0-1.55,3.7,7.52,7.52,0,0,0-.26,2.71c.17,1.87,1.53,2.45,2.92,1.23a22.52,22.52,0,0,0,2.16-2.58c.28-.32.24-1,.87-.95v0l0-.06c-.06-.34-.08-.66.35-.77l0-.07.09-.37,0,.42-.1,0c-.11.26-.22.51-.34.77l0,.1h-.06c-.1.43-.18.87-.28,1.3A12.17,12.17,0,0,1,293.32,476Zm3.18-13.76-.05.1-.05.06a50.84,50.84,0,0,1-5.09,11.69,2.93,2.93,0,0,1-1.52,1.5,3.35,3.35,0,0,1,.11-2.5,32.25,32.25,0,0,1,1.46-3.29,34.8,34.8,0,0,1,5-7.4l0-.09Zm-2.4,18.13c-.09-.31-.25-.53-.19-.67.73-2.11,1.49-4.2,2.32-6.49a19.1,19.1,0,0,1,1.27,6.8Zm54.29-5.85a37.55,37.55,0,0,1-8.67,2.62c-4.78,1-9.64,1.18-14.47,1.72-6.33.7-12.69.25-19,.62-1.62.1-3.24.21-4.85.33a2.89,2.89,0,0,1-2.12-.25c-.18-1.27-.35-2.58-.54-3.89s-.79-2.42-.48-3.85c1,1,1.13,2.71,2.65,3.08a1.82,1.82,0,0,0,1.29-1.81c.44-4.09.61-8.17-.9-12.12a4.21,4.21,0,0,1-.55-2.29,1.74,1.74,0,0,1,.57.18A36.87,36.87,0,0,0,308,462.9a10.15,10.15,0,0,0,14.28-5.22,8.51,8.51,0,0,0,.93-4.3,3.49,3.49,0,0,1,.13-.81,2.34,2.34,0,0,1,.69.05c2.5,1.14,5,2.32,7.47,3.46,3.91,1.78,7.83,3.52,11.73,5.31a4.72,4.72,0,0,1,1.33,1,23.36,23.36,0,0,1,5.25,9.31C350.26,473.15,349.88,473.79,348.39,474.49Z" transform="translate(-242.68 -359.37)"/><path class="cls-1" d="M286.24,399.59c.15-.7.3-1.41.45-2.08h2.68c-1.19-1.28-2.7-1.41-4.09-1.73A15.06,15.06,0,0,0,274.7,397c.94,0,1.87-.16,2.8-.25s1.95-.11,3.15-.18c-.13,1-.22,1.73-.31,2.43-.64.5-1.58.07-2,.77.08.16.11.28.15.28,2.78.26,5.56.52,8.34.76a12.09,12.09,0,0,0,1.39-.07Z" transform="translate(-242.68 -359.37)"/><path class="cls-1" d="M308.73,395.73v.09l-.06-.13h.06a4.43,4.43,0,0,1,.35-2.43l3.95-.58a7.17,7.17,0,0,0-4.41-.64,16.46,16.46,0,0,0-7.16,2.93,5.3,5.3,0,0,0-1.09,1c-.15.19-.08.55-.14,1l2.49-1.43.32,2.13-1.44,1.25c.29.08.44.18.55.14,2.75-.84,5.49-1.69,8.24-2.56.13,0,.21-.28.42-.58l-2.08-.24Z" transform="translate(-242.68 -359.37)"/><path class="cls-1" d="M308.73,395.73v0h-.06Z" transform="translate(-242.68 -359.37)"/><path class="cls-1" d="M301.35,387.23a4.56,4.56,0,0,0,.59-.2,24.77,24.77,0,0,1,11.23-1.22,6.38,6.38,0,0,0,1.31-.18,7.57,7.57,0,0,0-1.14-.94,12,12,0,0,0-7.39-1.07c-1.38.25-2.74.65-4.09,1a4.37,4.37,0,0,0-1.33.62,1,1,0,0,0-.38,1.29A1.09,1.09,0,0,0,301.35,387.23Z" transform="translate(-242.68 -359.37)"/><path class="cls-1" d="M294.57,412.69c.1,0,.18-.12.39-.27-.31-.15-.55-.26-.78-.39-2.07-1.12-2.28-1.54-1.92-3.85,0-.21.08-.41.12-.62.28-1.37.6-2.74.83-4.12a25.66,25.66,0,0,0-1-11.86,5.59,5.59,0,0,0-.56-1l-.25.08c.07.4.11.8.2,1.18a25.79,25.79,0,0,1,.33,11.69c-.33,1.58-.77,3.13-1.06,4.72C290.2,411.8,291.7,412.85,294.57,412.69Z" transform="translate(-242.68 -359.37)"/><path class="cls-1" d="M283.24,389.66c1.47.06,2.94.27,4.41.38.82.07,1.3-.2,1.34-.7a1.17,1.17,0,0,0-.75-1.15,3,3,0,0,0-.58-.24c-4.54-1.35-8.71-.92-12.55,2.83a10.24,10.24,0,0,0,1.69-.27A15.85,15.85,0,0,1,283.24,389.66Z" transform="translate(-242.68 -359.37)"/><path class="cls-1" d="M296.1,421.33a9,9,0,0,0,5.52-3.65,2.88,2.88,0,0,0,.36-.75.61.61,0,0,0-.53-.76,2.52,2.52,0,0,0-.82.09,34.21,34.21,0,0,1-9.38,1.36c-.55,0-1.1.09-1.73.14,0,.4-.06.57,0,.67A6.74,6.74,0,0,0,296.1,421.33Zm4.33-3.86a5.74,5.74,0,0,1-.59.8,9.42,9.42,0,0,1-3.5,1.87,4.52,4.52,0,0,1-4.85-1.49Z" transform="translate(-242.68 -359.37)"/><path class="cls-1" d="M295.93,424.2c1.29.06,1.44-.1,1.89-1.15h-4.38C294,424.53,295.08,424.17,295.93,424.2Z" transform="translate(-242.68 -359.37)"/><path class="cls-1" d="M312.06,401.54a.61.61,0,0,0,.74.71c.26-.09.46-.38.82-.7-.4-.29-.66-.63-.89-.61A1,1,0,0,0,312.06,401.54Z" transform="translate(-242.68 -359.37)"/></svg>