<svg id="Layer_1" data-name="Layer 1" xmlns="http://www.w3.org/2000/svg" viewBox="0 0 108.54 123.7"><defs><style>.cls-1{fill:#010101;}</style></defs><path class="cls-1" d="M282.43,482.86c2.25-.05,4.51-.16,6.76-.37,4.84-.46,9.67-1,14.52-1.5,2.52-.24,5.06-.38,7.6-.5,3.38-.17,6.76-.31,10.15-.4,2,0,4.09-.07,6.13.07,3.23.21,6.47.5,9.69.86a37.37,37.37,0,0,0,11.56-.56,6.53,6.53,0,0,0,1.78-.64,2,2,0,0,0,1-2.48,18.82,18.82,0,0,0-.69-2.44,28,28,0,0,0-6-9.36,13.73,13.73,0,0,0-4.84-3.32c-3-1.23-5.93-2.57-8.87-3.86a13.1,13.1,0,0,0-7.39-9.25c-1.28-.59-2.52-1.27-3.76-1.92-1.56-.83-3.14-1.61-4.64-2.53s-3-2-4.53-3.05a36.69,36.69,0,0,1,.22-8.45,10.68,10.68,0,0,0,4-3.58,15.19,15.19,0,0,0,2.83-7.42c.13-1.11.34-2.2.5-3.27a25.63,25.63,0,0,0,2.8-.61,9.09,9.09,0,0,0,6.19-6.93c.72-3.07.36-5.89-2.18-8.12-.2-.18-.37-.4-.6-.65.08-.7.13-1.4.23-2.09a39.39,39.39,0,0,0,.26-12.21c-.62-3.88-1.67-7.58-5-10A37.19,37.19,0,0,0,320,374a23.64,23.64,0,0,0-3.11-8,11.73,11.73,0,0,0-7.32-5.67c-1.1-.27-2.19-.58-3.3-.76a18.25,18.25,0,0,0-9.38.68c-.59.22-1.23.32-1.83.53-1.52.53-3.05,1.07-4.55,1.66s-2.95,1.37-4.49,1.84c-2.29.7-4.63,1.23-7,1.76a12.54,12.54,0,0,0-6.82,4,10.83,10.83,0,0,0-3,8.51c.05.63.08,1.25.11,1.81-2.37,2.06-3.11,3-3.55,5.42a12.57,12.57,0,0,0-.13,4.61,47.37,47.37,0,0,0,2.94,10.35,14.45,14.45,0,0,1,.53,1.8,23.51,23.51,0,0,0-1.95,1.39,6.75,6.75,0,0,0-2.18,5.51,9.55,9.55,0,0,0,8.11,9.64l1.27.21c.17,1.05.37,2,.47,3a15.43,15.43,0,0,0,3.54,8.45,9.48,9.48,0,0,0,3.26,2.64c.88.42,1.69,1,2.54,1.46,0,1.26,0,2.38,0,3.5a17.89,17.89,0,0,1-.15,3.41c-1.3.87-2.45,1.69-3.65,2.43-1.5.92-3,1.82-4.56,2.65-1.93,1-3.91,2-5.84,3a10.4,10.4,0,0,0-3.4,2.82,12.52,12.52,0,0,0-2.81,5.82c-3.31,1.44-6.42,2.76-9.5,4.15a11.07,11.07,0,0,0-2.71,1.62,25.83,25.83,0,0,0-6.46,8.28,18.85,18.85,0,0,0-1.84,4.94,1.83,1.83,0,0,0,1,2.3,9.63,9.63,0,0,0,4.22,1.26l6.51.76c1.4.17,2.79.45,4.19.52C266.91,482.58,274.66,483,282.43,482.86Zm30-35.26c-.74-.33-.55.55-1,.62-.19-1.5-.83-2.94-.43-4.63a3.39,3.39,0,0,1,.8.33c3.38,3,7.47,4.79,11.45,6.73a12.67,12.67,0,0,1,6,6.54,2.23,2.23,0,0,1-.56,2.85,13.82,13.82,0,0,1-6.68,3.48,66.94,66.94,0,0,1-13,1.65,38.53,38.53,0,0,0-7.1,1.07c-.25.05-.5.08-1.2.18a11.61,11.61,0,0,1,1.74-1.5c2.25-1.17,4.52-2.33,7.14-2.45a24.31,24.31,0,0,0,8.41-1.92,14.58,14.58,0,0,0,3.27-1.89,5.35,5.35,0,0,0,2-5.81c-.07.24-.15.48-.21.73a7.87,7.87,0,0,1-4.52,5.29,25.78,25.78,0,0,1-8.93,2.46,17.71,17.71,0,0,0-7.44,2.8,6.64,6.64,0,0,0-2.46,3c-.29-.38-.56-.58-.55-.76a6.19,6.19,0,0,1,1.91-4.33c2.28-2.11,4.61-4.16,6.92-6.23a16.25,16.25,0,0,0,4.24-5.48A3.54,3.54,0,0,0,312.39,447.6Zm-3.59-1.49a9.39,9.39,0,0,0,1.2,5.34,26.25,26.25,0,0,1-3.54,3.61c-1.95,1.62-3.79,3.37-5.69,5.06a11.49,11.49,0,0,0-2.77,4.2c-.16.37-.3.75-.54,1.35-.25-.69-.39-1.16-.59-1.6a11.35,11.35,0,0,0-2.72-4c-2-1.77-4-3.54-6-5.34-1.09-1-2.11-2.06-3.22-3.15,1.35-2.28,1.17-4.77,1.37-7.32l.9.12a20,20,0,0,0,12-2.6c1-.54,1.95-1.14,2.94-1.67a23,23,0,0,0,6.26-4.64,2.81,2.81,0,0,1,.57-.37,2.45,2.45,0,0,1,.11.63A73.17,73.17,0,0,0,308.8,446.11Zm14.57-55.41c.74,1.76.26,8.69-.65,11.23l-.81-.26A56.14,56.14,0,0,0,323.37,390.7Zm-.84,22.49c.16-.33.46-.67.39-.87a15,15,0,0,0-1.18-2.45,24.81,24.81,0,0,0-1.66-2.1,16.55,16.55,0,0,1,.37-4.62,4.63,4.63,0,0,1,5.53,2.73c1.74,4.54-1.66,11-7.16,11.05a61.7,61.7,0,0,1,.91-7.27C321.16,410.5,320.94,412.45,322.53,413.19Zm-47.1-33.33c2.46-2.51,5.13-4.7,8.77-5.1a18.32,18.32,0,0,1,9.71,1.47c2.37,1.08,4.75,2.15,7.11,3.24a9.67,9.67,0,0,0,4.94.85c.27,0,.54,0,1.24,0-.49.4-.64.63-.82.66a9.93,9.93,0,0,1-5.61-.35c-2.35-.95-4.71-1.88-7-2.87a17.8,17.8,0,0,0-9.31-1.4,13.58,13.58,0,0,0-7.32,3.05c-.46.4-1,.75-1.67,1.31C275.42,380.11,275.37,379.92,275.43,379.86ZM273.9,417.3a7.67,7.67,0,0,1-1.37-.13,8.69,8.69,0,0,1-6-10c.48-2.51,2.51-3.92,5.62-3.94a15.1,15.1,0,0,1,.62,4.91c-1.24,1.42-2.56,2.8-2.86,4.78,0,.15.19.33.29.51,1.06,0,1.14-.9,1.5-1.54s.7-1.19,1.09-1.85A21,21,0,0,1,273.9,417.3Zm6.79,13.53a12.78,12.78,0,0,1-4.15-7.88c-.8-5.29-1.66-10.58-2.46-15.87a62.16,62.16,0,0,1-.65-11.57,20.79,20.79,0,0,1,3.08-10c.32-.54.67-1.08,1-1.63a7.58,7.58,0,0,1,3.94-3.36c1.37-.54,2.79-1,4.2-1.42a12.1,12.1,0,0,1,6.67-.06,68.93,68.93,0,0,1,9.6,3.22,19.17,19.17,0,0,0,8.93,1.13,11.37,11.37,0,0,0,4.39-1.44l1.32-.7a21.61,21.61,0,0,0,.49,3.59,18,18,0,0,0,1.6,3.2c1.29,2.36,1.1,4.9,1,7.44-.1,1.89-.17,3.8-.35,5.69-.25,2.59-.56,5.18-.91,7.76-.62,4.47-1.33,8.92-1.93,13.38a14.49,14.49,0,0,1-2.62,6.61,13.38,13.38,0,0,1-4.67,3.87A26.07,26.07,0,0,1,298,435.68a36.75,36.75,0,0,1-9.24-.85A17.06,17.06,0,0,1,280.69,430.83ZM266,456.76a11.77,11.77,0,0,1,5.86-6.11c1.93-.86,3.83-1.8,5.67-2.84,1.47-.82,2.84-1.83,4.23-2.78a27,27,0,0,1,2.34-1.64,16.92,16.92,0,0,1-.14,5.87c-1-.29-.39-1.35-1.17-1.8a2.06,2.06,0,0,0-.32.6,6,6,0,0,0,1.57,4.46,22.18,22.18,0,0,0,3.79,4c2.18,1.79,4.22,3.75,6.26,5.69a6.5,6.5,0,0,1,1.82,4.16c0,.16-.16.35-.26.52l0,0-.16,0a2.09,2.09,0,0,1-.3-.11l-.06-.06A7.7,7.7,0,0,0,290.9,463a19.63,19.63,0,0,0-6-1.79,34.15,34.15,0,0,1-6.35-1.53c-3.4-1.07-6-3-6.77-7.07a5.29,5.29,0,0,0,1,5.05,8.76,8.76,0,0,0,3.37,2.5,22.56,22.56,0,0,0,8.34,2.18,19.2,19.2,0,0,1,7.26,2.06,4.47,4.47,0,0,1,2.31,2l-1.22-.3c-3.84-1.09-7.83-.87-11.74-1.36-2.93-.36-5.86-.82-8.74-1.47a12.64,12.64,0,0,1-5.58-2.9C265.24,459.13,265.13,458.52,266,456.76Zm-13.5,23.13c-1.11-.17-2.25-.19-3.37-.28a9.1,9.1,0,0,1-4.25-1.11,15.56,15.56,0,0,1,2.45-6.54,44.42,44.42,0,0,1,3.64-4.93,11.7,11.7,0,0,1,4.6-3.28c2.85-1.22,5.62-2.61,8.53-4a13.41,13.41,0,0,0,6.74,4.84,17.27,17.27,0,0,0,2.24.62,65.75,65.75,0,0,0,13.85,1.54A43.08,43.08,0,0,1,295,467.9c-1,2-1.92,3.84-2.76,5.76a6.57,6.57,0,0,0-.5,2.44,1.25,1.25,0,0,0,2.06,1.09,5.84,5.84,0,0,0,1.59-1.66c.69-1.14,1.23-2.37,1.83-3.57.22-.42.43-.84.72-1.41.42,1.33.73,2.49,1.16,3.6s1.08,1.61,1.61,1.31c.8-.45.53-1.24.39-1.89-.18-.82-.49-1.61-.75-2.42a17,17,0,0,1-.82-3.14,44,44,0,0,1,8.82-1.25,65.38,65.38,0,0,0,13.23-1.46,14.7,14.7,0,0,0,9.35-5.52c.94.43,1.89.84,2.83,1.28,2,1,4.06,2,6.12,2.88a11,11,0,0,1,3.48,2.35,26.28,26.28,0,0,1,6.16,9.52c.26.72.39,1.48.61,2.35a12,12,0,0,1-1.65.59,34.72,34.72,0,0,1-10.52.55c-3.36-.37-6.74-.67-10.12-.86-2.25-.14-4.51-.09-6.77,0-3.24.08-6.49.18-9.72.39q-6.56.42-13.08,1c-3.86.37-7.71.88-11.56,1.3a26.72,26.72,0,0,1-3,.18c-5.22,0-10.45,0-15.67-.2A121.6,121.6,0,0,1,252.46,479.89Z" transform="translate(-243.21 -359.19)"/><path class="cls-1" d="M289,392.74a16.36,16.36,0,0,0,2.08-.33c.61-.1,1.07-.36,1.15-1a1.61,1.61,0,0,0-.72-1.83,6.68,6.68,0,0,0-1.56-.59,16.4,16.4,0,0,0-8.95.43,22.13,22.13,0,0,0-4.17,2,1.91,1.91,0,0,0-1.13,2.44c1.06.81,2.2.33,3.26.15A75.4,75.4,0,0,1,289,392.74Z" transform="translate(-243.21 -359.19)"/><path class="cls-1" d="M301.66,391.57l1.06,0c1.62.07,3.24.13,4.86.24,2.39.16,4.77.36,7.46.57h1l.21,0a.92.92,0,0,0,.66-1.44,5,5,0,0,0-1.52-1.39,16,16,0,0,0-11.84-1.7,9.92,9.92,0,0,0-2.52,1.06,1.53,1.53,0,0,0-.68,1.83A1.26,1.26,0,0,0,301.66,391.57Z" transform="translate(-243.21 -359.19)"/><path class="cls-1" d="M290.31,401.91c-.32-.13-.61-.26-.92-.36s-.63-.15-1-.25c.18-.88.34-1.62.52-2.44l3.16,1.17a7,7,0,0,0-.73-1.34,7.23,7.23,0,0,0-3.68-1.49,9.18,9.18,0,0,0-8.59,2.37,2.35,2.35,0,0,0-.63.83c-.07.25.11.57.24,1.11.73-.59,1.26-1,1.8-1.45a2.92,2.92,0,0,1,2.07-.95c.27.84.51,1.62.76,2.42l-1.86.58c1.52.5,7.8.47,8.61.25C290.13,402.33,290.17,402.14,290.31,401.91Z" transform="translate(-243.21 -359.19)"/><path class="cls-1" d="M314.42,398a6.87,6.87,0,0,0-4.74-2,10.82,10.82,0,0,0-7.42,2.46c-.11.09-.12.3-.19.47,1,.21,1.62-1,2.68-.52.05.68.09,1.36.13,2l-1.76,1.27c1.88-.22,3.32-.36,4.76-.57s2.87.27,4.38-.17c-.41-1-1.43-.71-2-1.27l.83-1.83c1.15.09,1.87.82,2.74,1.25.35.18.79.39,1.06-.16a1.24,1.24,0,0,0-.08-.41A2.64,2.64,0,0,0,314.42,398Z" transform="translate(-243.21 -359.19)"/><path class="cls-1" d="M297.26,415.86c.94.09,1.57-.49,2.15-1.39l-.91.2c-2.27.39-3.82-.77-3.81-3a9.82,9.82,0,0,1,.52-3.09,28.7,28.7,0,0,0,1.36-5.95,19.49,19.49,0,0,0-.62-7.3,3.53,3.53,0,0,0-.58-.92,4.58,4.58,0,0,0,.16,1.9,11.74,11.74,0,0,1-.25,7.06c-.43,1.19-.83,2.4-1.22,3.6a25.5,25.5,0,0,0-.87,2.82,5.24,5.24,0,0,0,1.38,5.06A4,4,0,0,0,297.26,415.86Z" transform="translate(-243.21 -359.19)"/><path class="cls-1" d="M289.92,421.24c-.08.62.37.92.83,1.06a7.93,7.93,0,0,0,2.24.47,23.36,23.36,0,0,0,12-3.33,3.31,3.31,0,0,0,1.66-2.08c-.55.18-.86.26-1.17.38-1.16.48-2.32,1-3.49,1.46a23.47,23.47,0,0,1-8.16,1.89,17.62,17.62,0,0,1-2.69-.32C290.46,420.67,290,420.84,289.92,421.24Z" transform="translate(-243.21 -359.19)"/><path class="cls-1" d="M298.94,425c-1.31.05-2.62.09-3.93.22-.21,0-.47.48-.53.76s.28.54.49.59a4.55,4.55,0,0,0,4-.56c.18-.14.23-.45.33-.64C299.12,425.18,299,425,298.94,425Z" transform="translate(-243.21 -359.19)"/></svg>