<svg id="Layer_1" data-name="Layer 1" xmlns="http://www.w3.org/2000/svg" viewBox="0 0 108.08 120.66"><defs><style>.cls-1{fill:none;}.cls-2,.cls-3,.cls-4{fill:#010101;}.cls-3,.cls-4{stroke:#010101;stroke-miterlimit:10;}.cls-3{stroke-width:0.75px;}.cls-4{stroke-width:0.49px;}</style></defs><path class="cls-1" d="M319,454.82s0,.05,0,.08,0,0,0-.08Z" transform="translate(-243.34 -360.83)"/><path class="cls-1" d="M319.06,454.91v0Z" transform="translate(-243.34 -360.83)"/><path class="cls-1" d="M319.38,455h0Z" transform="translate(-243.34 -360.83)"/><path class="cls-1" d="M319.11,455Z" transform="translate(-243.34 -360.83)"/><path class="cls-1" d="M318.08,454.18l-.15.06-.14-.09.14.09Z" transform="translate(-243.34 -360.83)"/><path class="cls-2" d="M260.17,481.09c6.56,0,13.13,0,19.69.23,5.71.25,11.43.16,17.15.16,2.89,0,5.78-.24,8.67-.25,4.45,0,8.88-.54,13.33-.36a33.6,33.6,0,0,0,4-.15c4.43-.32,8.87-.65,13.29-1,1.62-.13,3.22-.36,4.82-.61a32,32,0,0,0,7.19-2.45,8.88,8.88,0,0,0,2.14-1.35c1.13-.93,1.2-1.45.52-2.74-.4-.74-.82-1.48-1.27-2.2a22.88,22.88,0,0,0-4.93-6A46.17,46.17,0,0,0,330,456.75c-4.09-1.29-8.12-2.78-12.2-4.19-.27-1.3-.58-2.46-.73-3.64a14.2,14.2,0,0,0-2.61-6.4,4.76,4.76,0,0,0-3-2.11c-1-.2-2-.46-3.11-.72,0-1.34,0-2.6,0-3.87s.15-2.52.23-3.71l2.17-1.8a21.21,21.21,0,0,0,8.35-1.47c0-.67,0-1.38,0-2.08s-.18-1.53-.24-2.3-.06-1.41-.05-2.12-.44-1.43.32-2.18c.95,2.76,1,5.57,1.42,8.42l1.59-.61a6.61,6.61,0,0,0,.28-3.42c0-.56-.17-1.12-.16-1.68,0-.23.29-.47.68-1,.24,2.07-.05,3.8.64,5.62,1.3-.85,2.77-1.15,4-2.17-.36-4.07-.66-8.11-.82-12.53,1.2,1.36.77,2.7,1,3.89s.44,2.63.65,3.95,0,2.49.59,3.81c1.57-1.11,2.69-2.42,2.8-4.19a37.23,37.23,0,0,0-.08-6.76,119.64,119.64,0,0,0-4.39-20.66,13.06,13.06,0,0,1-.43-1.85,41.38,41.38,0,0,0-6.1-16.53A29.84,29.84,0,0,0,304.89,362a19.38,19.38,0,0,0-11.65-.5,16.23,16.23,0,0,0-4.64,2.24,24.15,24.15,0,0,0-3.18-.79c-5.77-.64-10.72,1.33-15,5.09a25.19,25.19,0,0,0-5.44,7.24,49.18,49.18,0,0,0-4.38,11.43c-.71,3-1.42,6-2.12,9.05-.3,1.31-.62,2.61-.85,3.93-.57,3.26-1.07,6.54-1.63,9.8-.5,3-1.47,5.88-1.57,8.94a3.19,3.19,0,0,0,.27,2.05,4.05,4.05,0,0,0,1.89,1.7c.24-1,.47-1.9.66-2.78.48-2.2.92-4.42,1.43-6.61.09-.38,0-1.05,1-1-.58,3.9-1.5,7.71-2.23,11.57l2.34,1.56a18.73,18.73,0,0,0,.83-2.09c.64-2.45,1.23-4.92,1.83-7.38.11-.44.07-1,.8-1.09.21,4-1.14,7.63-1.95,11.5l3.69,1.49a10.11,10.11,0,0,0,.35-1.12c.33-1.52.61-3,1-4.56a5.13,5.13,0,0,1,.73-1.12c.32,2.63-.31,4.81-.68,7.17,3.71,1.43,7.61,1.36,11.3,1.73,1.14.93,2.13,1.83,3.22,2.6s2.26,1.44,3.5,2.21a27.34,27.34,0,0,1,0,5.72c-1.25.39-2.4.69-3.52,1.1a4.24,4.24,0,0,0-2.87,3.13c-.33,1.3-.76,2.57-1.11,3.86-.44,1.7-.84,3.41-1.31,5.27-1.68.74-3.13,1.47-4.65,2-2.86,1-5.78,1.84-8.64,2.82-2.67.91-5.3,1.93-7.93,2.92a6.34,6.34,0,0,0-1.11.61c-3.45,2.12-5.58,5.36-7.22,8.91a65.47,65.47,0,0,0-2.37,6.78,9.24,9.24,0,0,0-.26,1.41,6.51,6.51,0,0,0,3.53,1.49A128.49,128.49,0,0,0,260.17,481.09Zm57.91-26.91-.15.06-.14-.09Zm4.27-50.48a7.41,7.41,0,0,1-3.24,11.35,9.5,9.5,0,0,1-1.69.27v-7.64c1.64.78,2,2.64,3.65,3.48a3.14,3.14,0,0,0-.87-2.93c-.81-.87-1.7-1.66-2.56-2.48-.08-1.68.27-2.35,1.5-2.84A2.58,2.58,0,0,1,322.35,403.7Zm-4.1-22.19c0,.14,0,.28,0,.42a4.27,4.27,0,0,1-2.5,3.62,2.11,2.11,0,0,1-2.32-.47,2,2,0,0,1,.2-2.51,19.63,19.63,0,0,1,2.29-2.18C317.06,379.52,318.11,380.06,318.25,381.51Zm-8-2.57a28.65,28.65,0,0,0,2.68-2.93,1,1,0,0,1,1.77.24,5.25,5.25,0,0,1,.32,1.05,5.5,5.5,0,0,1-1.57,3.74,3.36,3.36,0,0,1-1.45.81,1.63,1.63,0,0,1-1.82-.76A1.7,1.7,0,0,1,310.25,378.94Zm-19.4-11.51a7,7,0,0,1,1.36,4.48,21.42,21.42,0,0,0-.92-2.21,19.67,19.67,0,0,0-1.5-2.26c-.48-.64-1.22-1.07-1.61-1.91A4.51,4.51,0,0,1,290.85,367.43ZM271.39,377.5a54.49,54.49,0,0,1,4.84,2.56,1.49,1.49,0,0,1,.8,1.79c-.22.71-.89,1-2.14,1a7.65,7.65,0,0,1-4.76-2.44,2.74,2.74,0,0,1-.58-1.53A1.39,1.39,0,0,1,271.39,377.5Zm-3,4.65a1.54,1.54,0,0,1,1.93,0c.86.58,1.71,1.17,2.56,1.76a1.66,1.66,0,0,1,.34.25,1.28,1.28,0,0,1,.51,1.28c-.12.49-.63.79-1.57.8a5,5,0,0,1-3.84-2.13A1.45,1.45,0,0,1,268.35,382.15Zm3.49,33.12a5.39,5.39,0,0,1-4.66-2.41,7.2,7.2,0,0,1-.29-9,2.52,2.52,0,0,1,3.34-.92c1.24.52,1.51,1.07,1.4,2.89-1.36,1.53-3.66,2.49-3.35,5.33,1.6-.83,2-2.68,3.48-3.45A26.48,26.48,0,0,1,271.84,415.27ZM277.75,427a25.31,25.31,0,0,1-4-11.24,44.61,44.61,0,0,1-.3-4.63,145.94,145.94,0,0,0-.87-14.77c-.13-1-.37-2.06-.54-3,1.9-2.37,3.72-4.61,5.5-6.88a37.81,37.81,0,0,0,2.48-3.43,28.6,28.6,0,0,1,6.08-6.72,6.53,6.53,0,0,1,5.46-1.67,2.83,2.83,0,0,0,1.64-.16,6.73,6.73,0,0,1,5.71.44,8.78,8.78,0,0,1,2.1,1.41c3.74,3.43,7.52,6.81,10.54,11a54.26,54.26,0,0,0,4.77,5.08c.34.35.66.71,1,1.09a42.41,42.41,0,0,0-1.16,9.88c-.07,3.45-.16,6.9-.39,10.35-.34,5.15-1.65,10-4.85,14.19a14.34,14.34,0,0,1-6.57,4.82,27.3,27.3,0,0,1-19.26,0A15.1,15.1,0,0,1,277.75,427Zm28.85,7.58v8.75a18.41,18.41,0,0,1-1.92.41c-2.38.22-4.77.49-7.16.55-3,.07-6,0-9.08-.07a6.49,6.49,0,0,1-1.86-.33c-.21-.07-.3-.52-.65-1.16a15.07,15.07,0,0,0,6.77-.18c1.44-.32,2.9-.54,4.32-.95a16.51,16.51,0,0,0,7.64-5.08A16.92,16.92,0,0,1,306.6,434.58Zm-27.28,10.61a4.48,4.48,0,0,1,3.25-3.52c.52-.18,1.06-.31,1.64-.47a3,3,0,0,1,.09,2.27c-1,.25-1.91-.74-2.87.11a3.17,3.17,0,0,0,2.38,1.44,49.28,49.28,0,0,0,6.48.91c3.31.14,6.63.05,9.94,0,1.55,0,3.08-.32,4.63-.47s3.08-.25,4.62-.39c.69-.06,1.44.1,2-.75-.26-.25-.5-.65-.83-.75a12,12,0,0,0-2-.27q-.12-.84-.27-1.77c.27-.11.46-.27.64-.25,2,.3,3.79,1.07,4.67,3.12.23.52.57,1,.75,1.52a48.19,48.19,0,0,1,1.47,7.66,4.62,4.62,0,0,1-2.39,1c-.43-1.14-.85-2.24-1.29-3.34,0-.08-.24-.09-.51-.18-.13,1.35.42,2.59.46,4l-1.05.39c-1-1.19-.65-2.8-1.73-4.18a3.62,3.62,0,0,0-.26,2.31c.06.69.19,1.38.3,2.17l-1.3.38c-.91-2.7-1-5.45-2-8.07a3.79,3.79,0,0,0-.15.86c.11,1.75.25,3.51.37,5.26,0,.69.34,1.38,0,2.06-3.66,1.1-15.85,1.36-18.41.16-.14-1.46-.28-2.92-.44-4.37,0-.11-.17-.21-.34-.39-.83,1.43-.3,3.08-.9,4.63l-2.1-.18c-.38-1.93.36-3.94-.68-6.1-.81,2-.33,3.91-1.28,5.63l-1.51-.37c0-2.73,1.1-5.38.52-8.4-.31.35-.55.5-.59.69-.43,2-.83,4-1.24,6-.06.27-.14.54-.2.8a2.54,2.54,0,0,1-1.86-.7C278,450.79,278.73,448,279.32,445.19Zm-24,17.56,5.7-2.25a3,3,0,0,1,2.81.13,15.19,15.19,0,0,0,8.19,1.71,8,8,0,0,0,7.34-4.2,10.28,10.28,0,0,1,.58-.88,4.19,4.19,0,0,1,.45-.42,86.47,86.47,0,0,0,12.38,1.83,85.57,85.57,0,0,0,13-.54,6.94,6.94,0,0,0-1.47,5.05,6.33,6.33,0,0,0,2.92,5.14,12.37,12.37,0,0,0,6.34,2.12,9,9,0,0,0,8.94-7.45,8,8,0,0,0-3.36-8h0l0-.06a.64.64,0,0,1,0-.07h0l0,.07v0l.06,0h.57a2.35,2.35,0,0,1,.6.09c.94.31,1.86.66,2.76,1.06,2.39,1.06,4.85,1.87,7.33,2.7A44,44,0,0,1,342,464.7a14.8,14.8,0,0,1,3.16,2.8,9,9,0,0,1,.49.77c-1.38-.13-2.64-.26-3.89-.35-4.45-.32-7.5,1.94-9.81,5.45a10.62,10.62,0,0,0-1.12,2.5,20.86,20.86,0,0,0-.51,2.57l-1.64.2c-2.24.22-4.49.45-6.73.65a12.56,12.56,0,0,1-2.12.07,94.39,94.39,0,0,0-10.77.21c-4.51.19-9,.18-13.54.24a4.27,4.27,0,0,1-.72-.12c-.22-2-.35-4-1.59-5.78a9,9,0,0,0-2.31-2.45,22.13,22.13,0,0,0-3.1-1.77,7.88,7.88,0,0,0-3.55-.38,10.48,10.48,0,0,0-7.32,2.84,9.13,9.13,0,0,0-2.74,7.24c-2.5.48-19.52.34-22-.2a9.62,9.62,0,0,0,3-7.22c0-2.74-.67-5.13-3-7A11.08,11.08,0,0,1,255.34,462.75Z" transform="translate(-243.34 -360.83)"/><path class="cls-2" d="M287.3,401.63a3.86,3.86,0,0,0,.63-.28l-1.55-.88c.18-1.09-.13-2.15.28-3.17a11.32,11.32,0,0,0,1.52-.18,4.69,4.69,0,0,0,1-.57,9.05,9.05,0,0,0-5-.19,15.06,15.06,0,0,0-6.82,3.13,2,2,0,0,0-.9,1.92,36.82,36.82,0,0,0,3.34-1.92,2.44,2.44,0,0,1,.73-.1c0,.64.07,1.25.09,1.65L278.37,403a3.32,3.32,0,0,0,.86,0,19.94,19.94,0,0,1,6.62-1.13A9.08,9.08,0,0,0,287.3,401.63Z" transform="translate(-243.34 -360.83)"/><path class="cls-2" d="M303.46,399.81l-1.22.82a11.12,11.12,0,0,0,3,.45c1,.07,2,.15,2.94.3s1.85.37,2.77.56c0-.11.09-.21.13-.31l-1.92-1.5c-.08-.62-.2-1.25.49-1.77.59.32,1.19.67,1.82,1s1.07.87,1.91.75c-.24-1.45-1.37-1.88-2.29-2.45a14.43,14.43,0,0,0-9.52-2.09c-.29,0-.54.31-1.05.62l2.76.54C303.33,397.77,303.39,398.75,303.46,399.81Z" transform="translate(-243.34 -360.83)"/><path class="cls-2" d="M293.51,412.73c.06-.11.12-.17.12-.23,0-1.42-1.26-2.34-1.46-3.69a15.52,15.52,0,0,0-.23-14.36c1.15,4.94,1.27,9.76-1.54,14.19C291,410.47,291.63,412.05,293.51,412.73Z" transform="translate(-243.34 -360.83)"/><path class="cls-2" d="M288.77,419.42c-.45-.17-.82-.21-1,.33.74,1.09.77,1.21,1.57,1.56,1.16.5,2.35.93,3.55,1.34a7,7,0,0,0,6.75-1.36,4.61,4.61,0,0,0,1.81-2.91c-.93-.09-1.4.62-1.91,1.12a6,6,0,0,1-6.6,1.49C291.51,420.51,290.14,420,288.77,419.42Z" transform="translate(-243.34 -360.83)"/><path class="cls-2" d="M278.48,393.5a2.06,2.06,0,0,0,.6-.17,17.62,17.62,0,0,1,6.29-2.2,1.29,1.29,0,0,0,.6-.19c.25-.2.58-.45.64-.73a.79.79,0,0,0-.65-.94,4.34,4.34,0,0,0-1.86-.06,9.86,9.86,0,0,0-5.81,3.85c-.06.09,0,.25,0,.36S278.43,393.52,278.48,393.5Z" transform="translate(-243.34 -360.83)"/><path class="cls-2" d="M303.83,389.16a1.45,1.45,0,0,0,.74.35c1.8,0,3.43.76,5.15,1.07l1.67.29c-.05-.29,0-.46-.1-.55a9.2,9.2,0,0,0-5.78-2.76,3.48,3.48,0,0,0-1.61.37A.72.72,0,0,0,303.83,389.16Z" transform="translate(-243.34 -360.83)"/><path class="cls-2" d="M293,424.92c.71,1.09,1.68.68,2.51.67.57,0,1.1-.21,1.07-1.09A7,7,0,0,0,293,424.92Z" transform="translate(-243.34 -360.83)"/><path class="cls-3" d="M291.28,399.33c-.37-4.71-5.19-8.09-9.77-7.34a6.86,6.86,0,0,0-3,1.27,10.5,10.5,0,0,0-1.9,1.75,7.22,7.22,0,0,0-1.76,4.71c0,4.43,4.32,8,8.61,7.8S291.63,403.79,291.28,399.33ZM283.42,407c-5.28.24-9.9-5.09-7.51-10.18a7.74,7.74,0,0,1,6.19-4.48,8.35,8.35,0,0,1,8.14,5.23c0,.11.08.22.11.33C291.92,402.56,288.08,406.75,283.42,407Z" transform="translate(-243.34 -360.83)"/><path class="cls-3" d="M315.29,399.46c-.37-4.7-5.19-8.08-9.77-7.33a6.86,6.86,0,0,0-3,1.27,10.5,10.5,0,0,0-1.9,1.75,7.22,7.22,0,0,0-1.76,4.71c0,4.43,4.31,8,8.61,7.8S315.63,403.93,315.29,399.46Zm-7.86,7.64c-5.28.24-9.9-5.09-7.52-10.19a7.78,7.78,0,0,1,6.2-4.47,8.36,8.36,0,0,1,8.14,5.23c0,.11.07.22.11.33C315.92,402.7,312.08,406.89,307.43,407.1Z" transform="translate(-243.34 -360.83)"/><path class="cls-3" d="M291.05,399.8a4.23,4.23,0,0,1,3.89-1.32,5.36,5.36,0,0,1,3.92,2.19.25.25,0,0,0,.46-.2c-.67-1.64-2.86-2.4-4.48-2.57-1.3-.14-3.73.14-3.9,1.84a.07.07,0,0,0,.11.06Z" transform="translate(-243.34 -360.83)"/><path class="cls-4" d="M314.73,401.06a5,5,0,0,0,1.61,1.12,6.41,6.41,0,0,0,1.65.91c.09,0,.17-.18.11-.29a2.4,2.4,0,0,0-1.4-1c-.63-.3-1.26-.65-1.89-1-.08,0-.15.14-.08.22Z" transform="translate(-243.34 -360.83)"/><path class="cls-3" d="M275.05,399.48a4.6,4.6,0,0,0-1.87.65,10.8,10.8,0,0,0-2,1c-.14.11-.09.4.11.4a4.31,4.31,0,0,0,1.94-.71,9.41,9.41,0,0,0,1.9-1.1c.08-.08.06-.25-.07-.25Z" transform="translate(-243.34 -360.83)"/></svg>