<svg id="Layer_1" data-name="Layer 1" xmlns="http://www.w3.org/2000/svg" viewBox="0 0 108.43 119.04"><defs><style>.cls-1{fill:none;}.cls-2{fill:#010101;}</style></defs><path class="cls-1" d="M279.41,391.81l.45-.13-.45.13Z" transform="translate(-243.32 -361.28)"/><path class="cls-1" d="M315.41,437.54h0c.32-.26.62-.54.92-.81C316,437,315.73,437.28,315.41,437.54Z" transform="translate(-243.32 -361.28)"/><path class="cls-1" d="M309.56,441.39a6,6,0,0,0,0,.72A6,6,0,0,1,309.56,441.39Z" transform="translate(-243.32 -361.28)"/><path class="cls-1" d="M310.42,383.41v.07A.2.2,0,0,0,310.42,383.41Z" transform="translate(-243.32 -361.28)"/><path class="cls-1" d="M311.29,446.69a1.63,1.63,0,0,1-.34-.14,13.13,13.13,0,0,1-1.35-4.44,13.13,13.13,0,0,0,1.35,4.44A1.63,1.63,0,0,0,311.29,446.69Z" transform="translate(-243.32 -361.28)"/><path class="cls-1" d="M310.44,383.36h0l0,.05Z" transform="translate(-243.32 -361.28)"/><path class="cls-1" d="M253.48,421.19l0-.39h0Z" transform="translate(-243.32 -361.28)"/><path class="cls-1" d="M253.46,421.43c0,.16,0,.31,0,.47C253.44,421.74,253.45,421.59,253.46,421.43Z" transform="translate(-243.32 -361.28)"/><path class="cls-1" d="M279.35,391.83Z" transform="translate(-243.32 -361.28)"/><path class="cls-1" d="M303.17,374.29l-.08.08h0Z" transform="translate(-243.32 -361.28)"/><path class="cls-1" d="M275.38,387.37h0l.2-.13Z" transform="translate(-243.32 -361.28)"/><path class="cls-1" d="M301,367.9h0Z" transform="translate(-243.32 -361.28)"/><path class="cls-1" d="M279.48,380.24h0a.5.5,0,0,0-.08-.07A.5.5,0,0,1,279.48,380.24Z" transform="translate(-243.32 -361.28)"/><polygon class="cls-2" points="36.09 30.53 36.09 30.53 36.09 30.53 36.09 30.53"/><path class="cls-2" d="M253.52,420.71h0v0Z" transform="translate(-243.32 -361.28)"/><path class="cls-2" d="M253.53,420.74v0l0,0h0l0,0c0-.08,0-.16,0-.21s0,.13,0,.21Z" transform="translate(-243.32 -361.28)"/><path class="cls-2" d="M275.92,387h0a.61.61,0,0,1-.07.1l0,0h0l0,0A.61.61,0,0,0,275.92,387Z" transform="translate(-243.32 -361.28)"/><path class="cls-2" d="M275.31,387.41h0l0,0Z" transform="translate(-243.32 -361.28)"/><polygon class="cls-2" points="36.09 30.54 36.09 30.54 36.09 30.54 36.09 30.53 36.09 30.53 36.09 30.54"/><path class="cls-2" d="M252.22,418.11l-.67.22.67-.22Z" transform="translate(-243.32 -361.28)"/><polygon class="cls-2" points="10.2 59.52 10.2 59.52 10.2 59.52 10.2 59.52"/><path class="cls-2" d="M303,374.46l-.05-.06Z" transform="translate(-243.32 -361.28)"/><path class="cls-2" d="M303.14,366l-.06,0-.1,0,.1,0Z" transform="translate(-243.32 -361.28)"/><path class="cls-2" d="M315,437.72h0l.16-.09Z" transform="translate(-243.32 -361.28)"/><path class="cls-2" d="M272.82,479.43c8.6.23,17.21.32,25.82.46,3,.05,5.94-.1,8.89.11a133.23,133.23,0,0,0,31.85-1.63,10.4,10.4,0,0,1,1.68-.17c3.39,0,6.48-1.24,9.54-2.52a1.84,1.84,0,0,0,1.14-1.65,3.05,3.05,0,0,0-.11-1,4.71,4.71,0,0,0-.5-1.39c-1.9-3.07-3.91-6.1-6.76-8.34a34.36,34.36,0,0,0-10.16-5.58c-1.93-.65-3.84-1.38-5.73-2.16a8.89,8.89,0,0,1-4-2.69,5.14,5.14,0,0,0-3.08-1.71,13.67,13.67,0,0,0-1.45-.2,21.76,21.76,0,0,0-3.47-2.79,7.27,7.27,0,0,0-5.18-1.44h0a1.63,1.63,0,0,1-.34-.14,13.13,13.13,0,0,1-1.35-4.44,6,6,0,0,1,0-.72,5,5,0,0,1,.08-1,10.9,10.9,0,0,0,2.58.87,11.37,11.37,0,0,0,10-4,15.12,15.12,0,0,0,3.28-7.24c.14-.74.3-1.49.4-2a22.82,22.82,0,0,0,3.57-1.43,30,30,0,0,0,4.8-3.45c5.17-4.85,8-10.65,6.85-18-.69-4.4-2.34-8.26-6-11.06a7.57,7.57,0,0,1-.91-.88c-1.51-1.67-3-3.37-4.51-5a11.89,11.89,0,0,1-3.11-6.33c-1.17-7.29-4.76-13-11.21-16.83a22.49,22.49,0,0,0-3.56-1.81,17.56,17.56,0,0,0-11-.23c-1.82.49-3.55,1.27-5.46,2-.26-.23-.61-.58-1-.87a12,12,0,0,0-5.84-2.81,25.4,25.4,0,0,0-3.38-.11c-7.77.22-13.39,4-17,10.7-1.57,2.9-2.8,6-4.74,8.7a11.58,11.58,0,0,1-3.95,3.74c-1.06.55-2.19,1-3.21,1.6-7.94,4.68-10.06,10.65-9.08,18.19a5.91,5.91,0,0,0,4.88,5.45,6.15,6.15,0,0,1,.9.36,10.55,10.55,0,0,1-.88,1.24,14.64,14.64,0,0,0-3,5.55,17,17,0,0,0,.59,12.38c1.42,3.39,4.16,5.24,7.61,6.14a5,5,0,0,0,3.33-.14c.36-.16.73-.28,1.08-.42l.4.7c3.53,6.51,9.43,8.93,15.83,8.25a9.27,9.27,0,0,0,5.36-2.3,6.76,6.76,0,0,1,2-1.44c.43,2.93.36,4.67-.27,6.17-2.62-.54-4.2.89-5.37,3-.3.55-.64,1.09-1,1.74l-1.92.65a9.92,9.92,0,0,0-5,3.33,3.06,3.06,0,0,1-1.11.91,50.13,50.13,0,0,1-7.44,3c-2.71.77-5.35,1.79-8,2.77a11.82,11.82,0,0,0-2.61,1.37,23.2,23.2,0,0,0-9,11.23,5.14,5.14,0,0,0-.28,1,1.4,1.4,0,0,0,.88,1.72,13.28,13.28,0,0,0,2.63.71c1.88.24,3.78.4,5.68.52,3,.19,5.92.29,8.88.48C265.22,478.91,269,479.33,272.82,479.43Zm64.54-67.72a1.67,1.67,0,0,1,.53-.94c.35,2.67.17,5.18-1.82,7.25a6.57,6.57,0,0,1-2.86,1.71c-.2.06-.46-.08-.71-.15l0,0a2.49,2.49,0,0,1,.11.29l-.15-.33.06,0c.95-1,1.95-2,2.83-3.08A8.85,8.85,0,0,0,337.36,411.71Zm-2.84-4.12.07,0-.07.17Zm-5.62,10,.09,0c.47-1,1-2,1.42-3a12.88,12.88,0,0,0,.61-10,2.81,2.81,0,0,1,0-.73c.22.11.44.15.49.27a13.31,13.31,0,0,1,1.15,9A5.77,5.77,0,0,1,329,417.6l0,.07-.35.16Zm.1,3,0,0c.53-.62,1-1.26,1.59-1.86.76-.82,1.58-1.6,2.34-2.43a5.33,5.33,0,0,0,1.44-3.86c0-.78,0-1.55,0-2.33a7.5,7.5,0,0,1,.17-1c.26.15.44.21.45.27.06,1.26.18,2.53.13,3.79a6.14,6.14,0,0,1-1.43,3.68,11.9,11.9,0,0,1-4.7,3.7h0l0,0-.4.07ZM255.89,395.1l.12,0-.08,0h0a3.64,3.64,0,0,1,0,1.15,6.36,6.36,0,0,0,.37,4.88c.46,1.09,1.05,2.12,1.58,3.18l-.1.09.05-.15c-.19,0-.47.08-.56,0a8.73,8.73,0,0,1-2.26-7.7,1.53,1.53,0,0,1,1-1.43Zm-5,1.81a6,6,0,0,1,3-3.39,5.57,5.57,0,0,1,1.21-.19l-1,.9a5.58,5.58,0,0,0-1.73,6.29,16.41,16.41,0,0,0,2.42,5h0l.24.42a1.18,1.18,0,0,0,.11.19v.11a.77.77,0,0,1,0-.15L255,406l-.24-.37,0,0c-.26,0-.58.16-.74,0C251.86,404.1,249.6,400.33,250.87,396.91Zm2.91,32.66-.05-.05-.2-.62-.05,0a2.53,2.53,0,0,1-1.08-.23,5.36,5.36,0,0,1-2.09-3.29,10.2,10.2,0,0,1,.13-5c.15-.49.4-.86,1-.82l0-.07.11-1.14.67-.22a.43.43,0,0,0,0-.07l0,.07,0,0,0,0-.6.2-.12,1.18h-.05c-.12.38-.26.75-.35,1.14-.69,3.17-.12,6,2.41,8.17h.07l.23.69.08.05Zm1.33.26,0,0-.09.06.09-.06c-.47-.67-.92-1.35-1.4-2a6.2,6.2,0,0,1-.78-6.33,1.2,1.2,0,0,1,.29-.39l.34-.33v-.09h0a1.15,1.15,0,0,0,0-.2h0v.05a2.06,2.06,0,0,1,0,.21l0,0c0,.13,0,.26,0,.39s0,.16,0,.24,0,.32-.05.47a3.13,3.13,0,0,1-.14.69,4.13,4.13,0,0,0,.91,3.94,29.62,29.62,0,0,0,4.72,4.92C257.28,431.64,256.37,430.32,255.11,429.83Zm2.54-1.19a7.26,7.26,0,0,1-1.42-6.5c.61,1.62.62,3.24,1.56,4.48s1.93,2.38,2.93,3.6A3.52,3.52,0,0,1,257.65,428.64Zm19,49.27c1.45-7.23,2.37-14.5,5-21.64l2.16,1.05c-1.26,7-2.51,13.8-3.76,20.72A7.53,7.53,0,0,1,276.66,477.91Zm31-37.35a21.39,21.39,0,0,0,1.58,6.74,1.92,1.92,0,0,1-1.85,1.24,51.61,51.61,0,0,1-5.68.39,62.76,62.76,0,0,1-13.25-1.25c-.47-.11-.93-.28-1.48-.44.12-2,.22-3.85.33-5.75,3.62.62,7-.39,10.39-1.2a15.65,15.65,0,0,0,7.73-5c.61-.66,1.25-1.29,2.14-2.21C307.63,435.86,307.57,438.21,307.7,440.56ZM305.21,454l-1.95.36a2.78,2.78,0,0,1-.54-3c.21-.74.78-.92,1.56-.67C304.57,451.75,304.86,452.8,305.21,454ZM302,455.42c.11.8.18,1.33.25,1.92a4.16,4.16,0,0,1-2.88.23c-.07-.59-.14-1.17-.23-1.88Zm-2.81-2.73c.06-1.78.56-2.13,2.56-1.86v3.26c-.78.64-1.54.25-2.4.33A12.64,12.64,0,0,1,299.15,452.69Zm-7.34,1c-.46-1.43.18-2.4.91-3.39h2l-.92,3.7Zm1.63,1.61v2.16c-.87.35-1.67-.09-2.72-.08a5.29,5.29,0,0,1-.05-1.61,1.23,1.23,0,0,1,.86-.73A8.32,8.32,0,0,1,293.44,455.29Zm1.36.07,3,.26.29,1.69c-.21.17-.31.33-.41.34a11.93,11.93,0,0,1-1.69.05,3.76,3.76,0,0,1-1.18-.32.69.69,0,0,1-.26-.54C294.6,456.39,294.71,455.93,294.8,455.36Zm3.2-1.25a4.16,4.16,0,0,1-2.71-.1c-.62-2.94.38-4,3.23-3.32C298.35,451.82,298.17,453,298,454.11Zm-6.52-4.17c-.36,1.08-.71,2.16-1.12,3.39l-2-.23C288,450.11,288.75,449.39,291.48,449.94Zm-2,4.73c0,.65-.06,1.38-.1,2.24a9.76,9.76,0,0,1-4-.9c.31-.56.43-1.12.77-1.32A3.43,3.43,0,0,1,289.51,454.67Zm-5.14,1.09-2.4-1.12c.37-.54.56-1.1.9-1.22a2.38,2.38,0,0,1,2.59.16C285.11,454.28,284.78,454.93,284.37,455.76Zm-3,22.36c.08-.8.1-1.49.22-2.16,1.13-6,1.89-12.08,3.32-18.18l4.1,1a113.28,113.28,0,0,0-3.94,19.24A10.42,10.42,0,0,1,281.37,478.12Zm9.26.46a13.65,13.65,0,0,1-4.32-.37c.23-4.45,2.51-16.33,3.71-19.19l3.56.41c-.06.6-.07,1.08-.15,1.54-.82,4.7-1.67,9.4-2.47,14.11C290.78,476.17,290.75,477.29,290.63,478.58Zm1.38,0a15.18,15.18,0,0,1,.12-4.73c.78-4.71,1.63-9.41,2.48-14.21a7.2,7.2,0,0,1,3.61-.19,11.88,11.88,0,0,1-.41,4.5,138.06,138.06,0,0,0-2.06,14.43A6.52,6.52,0,0,1,292,478.62Zm9.24-.28h-4.18a16.27,16.27,0,0,1,0-1.85c.43-3.35.9-6.7,1.34-10,.27-2,.51-4.05.76-6.07,0-.27.09-.54.15-.88l3.54-.33a8.52,8.52,0,0,1,.07,1.4c-.5,4.9-1,9.8-1.53,14.7C301.31,476.24,301.31,477.22,301.25,478.34Zm5.19-1c0,.27-.09.54-.15.93h-3.64a20.1,20.1,0,0,1,.08-5.09c.18-2.25.42-4.49.62-6.73.21-2.39.4-4.77.6-7.15.68-.86,1.73-.5,2.66-1a7.93,7.93,0,0,1,.2,1.31Q306.65,468.47,306.44,477.36Zm-2.92-19.75c-.2-.95-.33-1.54-.49-2.28l3.07-.94c.31.4.59.7.81,1.05a6.14,6.14,0,0,1,.42,1C306.23,457.32,304.86,456.92,303.52,457.61Zm3.45-4.32c-1.48-.13-1.67-.4-1.72-2.54.28-.09.59-.21.91-.29s.55-.06.79-.09c.12.15.26.25.28.36.15,1.3,1.08,2.09,1.92,2.94.59.58,1.14,1.19,1.75,1.82-.74.9-1.68.62-2.37,1C307.19,454.54,307.19,454.54,307,453.29Zm.82,25c0-.63-.08-1.18-.08-1.73q0-8.64,0-17.3c0-1,0-1,1.21-1.35,1.79,6.67,2,13.6,3.46,20.58A16.06,16.06,0,0,1,307.79,478.33Zm5.77.23c-1.74-6.87-1.61-14-3.94-21l3.17-.94c1.15,2.39,5.36,17.62,6.07,21.9A25.35,25.35,0,0,1,313.56,478.56Zm6.94.07c-.2-.56-.45-1.12-.61-1.71-1.14-4.21-2.21-8.44-3.41-12.63-.76-2.64-1.69-5.22-2.55-7.83a3.11,3.11,0,0,1,.5-.43c.83-.37,1.68-.71,2.64-1.12a82.74,82.74,0,0,1,3.58,11.69c1.05,3.86,2.06,7.74,3.12,11.77A9.33,9.33,0,0,1,320.5,478.63Zm7-22.11c2,.79,3.88,1.66,5.86,2.38a34.85,34.85,0,0,1,9.84,5.68,32.65,32.65,0,0,1,4.35,4.86,22,22,0,0,1,1.58,2.24,4,4,0,0,1,.84,2.39,20.8,20.8,0,0,1-7,2.36c-3.06.45-6.15.78-9.22,1.15-1.45.18-2.91.33-4.42.5-.29-3.76-.52-7.39-.88-11a51.68,51.68,0,0,0-2.17-11C326.93,456.31,327.23,456.4,327.53,456.52Zm-7.2-4.63a6,6,0,0,1,4.46,4.48,61,61,0,0,1,1.93,9.74c.33,2.65.55,5.32.83,8,.08.77.24,1.53.31,2.3.05.54,0,1.09,0,1.58a3.38,3.38,0,0,1-2.68.27c-.19-.61-.41-1.27-.59-1.94-1.24-4.56-2.43-9.13-3.71-13.67-.57-2-1.31-4-2-6-.11-.33-.27-.65-.35-1a2,2,0,0,1,.47-2.14C319.47,453,319.83,452.51,320.33,451.89Zm-1.46.26L318,453.2a10.42,10.42,0,0,1-5.11-4.66C314.48,448.81,316.54,450,318.87,452.15Zm-7.3-3.28,5.09,4.88a2,2,0,0,1-1.85.85A29.28,29.28,0,0,0,313,452c-.72-.84-1.58-1.55-2.5-2.43Zm-1.91,1c1.07,1.82,3.43,2.75,3.95,5.29l-1.34.33-3.16-3.13a1.81,1.81,0,0,1-.42-.46c-.2-.43-.54-.91-.48-1.32C308.31,449.9,308.94,449.8,309.66,449.83Zm3.08-13.11a2.86,2.86,0,0,1,1.45-1.89,8.67,8.67,0,0,0,4.17-6.93c.69.39.63,1,.64,1.53a7.16,7.16,0,0,1-.88,4.05A6.45,6.45,0,0,1,312.74,436.72Zm9.21-5.85a15,15,0,0,1-.44,3.1,5.19,5.19,0,0,1-6.09,3.57l0,0h0l-.19.07-.19.09h0l.16-.09.17-.1h.08c.31-.26.61-.54.92-.81a13.54,13.54,0,0,1,1.62-1.32,7,7,0,0,0,3.22-4.5,3.37,3.37,0,0,1,.28-.67C322,430.27,322,430.62,322,430.87Zm-3.6-24.55c1.76.65,2,2.65,3.73,3.37.25-2.84-2.1-3.76-3.39-5.34-.05-2,.46-2.7,2.11-3a2.48,2.48,0,0,1,2.59,1,7.44,7.44,0,0,1-2.92,11.19,2.75,2.75,0,0,1-2.16.14C318.33,411.29,318.22,408.87,318.35,406.32Zm-8-23h.08l0,.05v.07l-.06.24A2.48,2.48,0,0,1,310.36,383.36Zm-7.44-17.31h0l.06,0,.1,0h.06c.08-.66.65-.59,1.08-.63a3.11,3.11,0,0,1,2.28.84c.79.63,1.87,1.05,1.86,2.32l.13.08-.08,0-1.9-1.54a4.29,4.29,0,0,0-3.37-1v0l-.22,0h0ZM300.33,368v-.08h.13a4.71,4.71,0,0,1,2-.82,4.67,4.67,0,0,1,4.66,1.78,8.78,8.78,0,0,1,2,4.14c.4,2.85.74,5.72,1.08,8.57a3.13,3.13,0,0,1-.11.74,3.47,3.47,0,0,1-1.23-2.42c-.29-1.87-.53-3.75-.74-5.63a11.67,11.67,0,0,0-1.59-4.55,3.36,3.36,0,0,0-3.48-1.88c-.68.07-1.36.06-2,.07h-.54l-.09.06a1.47,1.47,0,0,1-.06.19A.72.72,0,0,0,300.33,368Zm.05,20.29a2.34,2.34,0,0,0,2.53,2.28c.61,0,1.24,0,2,0a2.43,2.43,0,0,1-1.86,1.36,4,4,0,0,1-4.6-1.08,4.33,4.33,0,0,1-.64-5.26,12,12,0,0,1,3.8-4.21c.3.65-.23,1-.42,1.36A9.07,9.07,0,0,0,300.38,388.27Zm4,1.49c-.48.47-1,.27-1.48,0a1.85,1.85,0,0,1-1-1.5,7.57,7.57,0,0,1,1-5.45,19.45,19.45,0,0,1,1.31-1.57C303.63,387.21,303.63,387.21,304.35,389.76Zm-11.16-24.5a6.71,6.71,0,0,1,2.13,4.81,22.62,22.62,0,0,0-1.94-3.42,21.74,21.74,0,0,0-3-2.5A3.14,3.14,0,0,1,293.19,365.26ZM293,367.7a1.77,1.77,0,0,1,1,1.93,26.43,26.43,0,0,0-2.62-1.85,23.66,23.66,0,0,0-2.86-1.14C290.3,366,291.66,366.87,293,367.7Zm-19.66,8.11a7.34,7.34,0,0,1,5.1-6.86c1.3-.47,2.54-1.25,4.27-.66a11.54,11.54,0,0,1-1.56.51,11.14,11.14,0,0,0-3.5,1.43,5.79,5.79,0,0,0-3.07,4.77c-.14,1.19-.2,2.39-.36,3.58-.14,1-.36,2.05-.54,3.07l-.31,0C273.33,379.69,273.17,377.74,273.32,375.81Zm6.33,4.17a.25.25,0,0,1-.06.13l-.11.12h0l-.08-.06s0-.05,0-.07a1.82,1.82,0,0,1,.12-.35C279.54,379.83,279.66,379.91,279.65,380Zm-4.27,7.39-.07,0h0l0,0,0,0h0l.2-.13.23-.14a.22.22,0,0,0,0-.08l.13,0c.36-.51.73-1,1.1-1.52-.33,1.16-.35,1.22-1.1,1.52l-.08.1,0,0C275.82,387.39,275.64,387.43,275.38,387.37ZM273,413.75a5.08,5.08,0,0,1-1.56,0,7.4,7.4,0,0,1-3.29-11.59,2.46,2.46,0,0,1,2.88-.68c1.28.42,1.66,1,1.77,2.82-1.47,1.63-3.73,2.59-3.54,5.34,1.7-.57,1.95-2.48,3.38-3.17.53.18.34.67.35,1C273,409.52,273,411.55,273,413.75Zm5.63,11.62c-2.84-4.34-3.89-9.14-4.1-14.23q-.3-7.39-.74-14.78a22.24,22.24,0,0,0-.55-3.33,2.13,2.13,0,0,1,1-2.51,25.33,25.33,0,0,0,2.27-1.56,6.68,6.68,0,0,0,2.8-5.44,6,6,0,0,1,.07-.84c0-.06.07-.11.29-.41a44.92,44.92,0,0,1,0,4.81,6,6,0,0,1-3.45,4.77,9.46,9.46,0,0,1-2.31.52,5.9,5.9,0,0,0,3.35.69l-.78,1.31c3.47-.63,6.55-2.18,9.93-2.49.18,0,.34-.21.68-.43-.44-.33-.69-.65-1-.68a10.26,10.26,0,0,0-2.71,0,34.69,34.69,0,0,0-3.56,1l-.45.12h-.05l.05,0c.06-.18.1-.39.16-.58a.89.89,0,0,1,.15-.31,8.23,8.23,0,0,0,1.64-5.35c0-1.34,0-2.68,0-4l1-.71c-.07-.18-.09-.34-.17-.4-.72-.49-.72-.48-.7-1.52,2-1.05,4.15-.69,6.22-.5.19-.7-.14-.89-.46-1-.75-.21-1.5-.35-2.26-.49a2.5,2.5,0,0,1-1.19-.39c1.11,0,2.23,0,3.34,0s1.93.75,3.06.53c-.21-1.47-1.72-1.16-2.49-2.13a3.55,3.55,0,0,1,1.18.16c1.14.68,2.25,1.42,3.36,2.15.22.14.41.33.71.57.62-1.53-.82-2-1.41-3,1.88.33,2.52,2.06,4,2.64.63-.08.83-.64,1.09-1.12a8,8,0,0,1,2.51-2.82,3.65,3.65,0,0,1,3.43-.63l-2,1a6,6,0,0,0-2.44,2c-.27.43-.46.9.24,1.36a6.46,6.46,0,0,1,4.44-2.82l.09-.08.15,0,.08-.08-.08.08h0l-.09.09h-.15c-.79.66-2,1-2.3,2.33a18.62,18.62,0,0,1,1.93-.31,14.46,14.46,0,0,1,1.74.06l0,0h.07l.09-.15s0,.11,0,.12-.05,0-.08,0l0,.05h-.06a3.16,3.16,0,0,1-.55,1,38.1,38.1,0,0,1-3.24,2.71,15.56,15.56,0,0,0-4,4.35,6.17,6.17,0,0,0,1.9,8.38,4.53,4.53,0,0,0,5.18-.15c.65-.42,1.21-1,1.9-1.5a6.06,6.06,0,0,0,5.61,2.1l2.17,3.21a2.7,2.7,0,0,1-.83-.06c-.56-.29-1.1-.63-1.64-1a7.79,7.79,0,0,0-7.5-.3,6.89,6.89,0,0,0-3.18,2.2c1.3.54,2.12-.78,3.33-.56.12.63.26,1.3.41,2l-1.46.85c.47.23.76.51,1,.48a34.44,34.44,0,0,1,7.39.05c.17,0,.35-.16.64-.3-.43-.91-1.44-.5-2.06-1.07.08-.6.17-1.29.27-2,1.21-.27,1.79,1,3,1.14l1.8-1,2.88.71c0,1.28,0,2.54,0,3.79-.1,2.89-.33,5.78-.34,8.67a31.65,31.65,0,0,1-1.79,10.36,17.16,17.16,0,0,1-8.07,9.94,22.14,22.14,0,0,1-7.46,2.21,26.81,26.81,0,0,1-13.14-1.28A15.3,15.3,0,0,1,278.62,425.37Zm7.83,23.77c.44-.15,1,.13,1.6.23-.42,1.14-.78,2.1-1.19,3.2l-2.13-.65a8.07,8.07,0,0,1,.56-1.66A2.71,2.71,0,0,1,286.45,449.14Zm-4.43-.52c1-1.14,1.88-1.12,3.24-.13l-1.51,2.88c-.77-.42-1.37-.76-2.29-1.28.15.59.15.93.31,1.12a9,9,0,0,0,1.09.94l-1.76,1.94-1.87-1A18.13,18.13,0,0,1,282,448.62Zm-2.78,6.12,1.59,1.08c-.53,1.78-1,3.46-1.53,5.13a76.24,76.24,0,0,0-2.15,9.67c-.41,2.42-1,4.81-1.48,7.36a16.3,16.3,0,0,1-5.28-.38c1-4.17,2.21-8.2,3.56-12.2.42-1.27.78-2.55,1.18-3.83a14.73,14.73,0,0,1,3.24-6.09C278.61,455.23,278.89,455,279.24,454.74Zm-6.72,2.35a7.74,7.74,0,0,1,5.14-4.35c.1,0,.23,0,.35.08v0l.05,0h0c.15.51.29,1,.45,1.57-2.35,1.85-3.52,4.45-4.33,7.28-.46,1.63-1.07,3.21-1.56,4.82-1.09,3.64-2.16,7.29-3.27,11.06a11.5,11.5,0,0,1-4.12-.21,12.53,12.53,0,0,1,.29-1.48,125.59,125.59,0,0,1,5-13.68C271.2,460.51,271.79,458.77,272.52,457.09ZM245,476a9.72,9.72,0,0,1,.26-1.29,21.71,21.71,0,0,1,6.94-9.41,14,14,0,0,1,4.19-2.43c2.72-1,5.45-1.92,8.16-2.92,1.25-.46,2.47-1,3.7-1.54.62-.26,1.22-.55,2.18-1-1.38,3.53-2.67,6.71-3.86,9.92s-2.29,6.49-3.5,9.91c-2.89-.12-5.92-.09-8.91-.41S248.15,476.71,245,476Z" transform="translate(-243.32 -361.28)"/><path class="cls-2" d="M288.83,401.19l-1.57-.83c.06-.69.13-1.41.22-2.24l3.13.94.18-.43a9.32,9.32,0,0,0-5.16-2.51c-2.8-.63-5,.79-7.26,2.29l-1.71-1.22c0,.5-.09.8,0,1a3.18,3.18,0,0,0,2,1.69c1-.24,1.49-1.39,2.61-1.23.18.71.33,1.37.47,1.93-.55.71-1.63.28-2,1.4.66,0,1.19,0,1.72,0,2-.2,4-.67,6.08-.22C287.81,401.79,288.2,401.46,288.83,401.19Z" transform="translate(-243.32 -361.28)"/><path class="cls-2" d="M293.26,398.27a21.69,21.69,0,0,1-.1,8.38,25,25,0,0,0-.38,5,2.59,2.59,0,0,0,3.74,2.39,5.32,5.32,0,0,0,2.55-1.8,4.16,4.16,0,0,0,.28-1.19c-1,.68-1.65,1.2-2.37,1.62a1.74,1.74,0,0,1-2.76-1.41,9.26,9.26,0,0,1,.1-1.89,50.85,50.85,0,0,0,.71-8.18,16.24,16.24,0,0,0-2.14-7.63c-.38-.65-.88-1.23-1.32-1.85l-.45.24c.26.63.56,1.24.77,1.88A40.83,40.83,0,0,1,293.26,398.27Z" transform="translate(-243.32 -361.28)"/><path class="cls-2" d="M294.67,420.27c.61,0,.8-.5.43-1.24l-5.16-.88c-.59.53-.49,1,0,1.27A9.16,9.16,0,0,0,294.67,420.27Z" transform="translate(-243.32 -361.28)"/><path class="cls-2" d="M299,419.74a5.84,5.84,0,0,0,3.12-1.54c.1-.1,0-.35,0-.81a23.82,23.82,0,0,0-5.17,1.85C298.33,419.88,298.34,419.92,299,419.74Z" transform="translate(-243.32 -361.28)"/><path class="cls-2" d="M296.3,423.12a2.19,2.19,0,0,0,2.21-1.26h-4.69A2.21,2.21,0,0,0,296.3,423.12Z" transform="translate(-243.32 -361.28)"/></svg>