<svg id="Layer_1" data-name="Layer 1" xmlns="http://www.w3.org/2000/svg" viewBox="0 0 110.27 129.32"><defs><style>.cls-1{fill:none;}.cls-2{fill:#010101;}</style></defs><path class="cls-1" d="M283.72,381.64l.09.07.52.46-.52-.46Z" transform="translate(-242.21 -356.33)"/><path class="cls-1" d="M283.58,381.51l.09-.08-.09.08Z" transform="translate(-242.21 -356.33)"/><path class="cls-1" d="M283.89,381.63h0l-.08.08Z" transform="translate(-242.21 -356.33)"/><path class="cls-2" d="M351.59,475.13a25.81,25.81,0,0,0-1.73-3.25c-3.43-4.75-7.31-9-12.57-11.86-3-1.66-6.22-3-9.29-4.51-1.79-.9-3.55-1.86-5.31-2.82a13.44,13.44,0,0,1-4.86-5c-.24-.39-.47-.79-.7-1.19a7.81,7.81,0,0,0-6.19-4.23c-.9-.09-1.79-.2-2.71-.31-.17-2.61-.34-5.18-.49-7.74-.07-1.12-.25-2.28,1-2.94a27.89,27.89,0,0,0,4.95-9.49c.47-1.45.79-3,1.19-4.47a7,7,0,0,0,5.89-2.84,10.69,10.69,0,0,0,2.74-8,10.1,10.1,0,0,0-2-5.55,2.92,2.92,0,0,0-1.53-1,11.79,11.79,0,0,0-2.46,0c0-.3,0-.69,0-1.07.06-5.33.16-10.66.17-16a14,14,0,0,0-.48-3.33,2.3,2.3,0,0,1,.11-1.71,9.08,9.08,0,0,0,.87-2.79c.33-2.35-.78-4.3-1.56-6.34a11,11,0,0,0-1.18-2.22,4.66,4.66,0,0,0-1.61-1.78,9.41,9.41,0,0,1-3.1-2.55,1.87,1.87,0,0,0-.42-.32c-1.9-1.2-3.75-2.51-5.73-3.55a13.88,13.88,0,0,0-6.74-1.91,49.31,49.31,0,0,0-7.87.71,22.34,22.34,0,0,0-6.64,2.32c-1.88,1-3.71,2.16-5.57,3.22a16.75,16.75,0,0,0-5.8,5.61c-.38.59-.8,1.15-1.22,1.72-.89,1.22-1.85,2.39-2.66,3.65a6.86,6.86,0,0,0-1.23,3.73c-1.38.91-1.54,2.25-1.37,3.67a7,7,0,0,0,1.87,3.72,5.43,5.43,0,0,0-.93,3.33c.05,1.58.17,3.16.24,4.74a31.72,31.72,0,0,0,.95,6.36c.26,1.07.37,2.18.55,3.32a3.47,3.47,0,0,0-3.7,2.22,11.51,11.51,0,0,0-1,5.21c0,3.29,1.6,5.72,3.86,7.81a6.63,6.63,0,0,0,5.6,1.88,3.44,3.44,0,0,1,.19.34c.09.26.19.53.27.8a32.18,32.18,0,0,0,5.12,10.24,9,9,0,0,0,3.05,2.88l2.63,1.36c.1,2.45.2,4.91.3,7.46l-1.25.25a8,8,0,0,0-3.78,1.52,10.32,10.32,0,0,0-2.48,3.13,15.7,15.7,0,0,1-7,6.81c-1.57.78-3.16,1.53-4.74,2.29-2.91,1.41-6,2.49-8.65,4.38a10.48,10.48,0,0,1-.95.47,16.84,16.84,0,0,0-1.53.93,42.23,42.23,0,0,0-8,7.94,20.94,20.94,0,0,0-3.56,6.07c-.55,1.66-.47,2,1.12,2.81a6.68,6.68,0,0,0,.87.37c1.56.55,3.09,1.19,4.69,1.58,2,.51,4.14.76,6.2,1.2A119.32,119.32,0,0,0,267.32,484c2.9.31,5.81.66,8.72.95s5.68.61,8.52.68c3.1.09,6.2-.11,9.3-.18l.32,0,8.22-.63c1.15-.09,2.32-.12,3.47-.27,2.2-.28,4.37-.79,6.57-.92,4.55-.26,9.1-.3,13.65-.49,4.33-.19,8.66-.45,13-.7a24.26,24.26,0,0,0,2.83-.32c1.59-.26,3.18-.57,4.76-.89,1.27-.26,2.55-.51,3.8-.87a2.86,2.86,0,0,0,1.48-4.44A7.59,7.59,0,0,1,351.59,475.13ZM316.05,407.5c.22.25.38.4.51.58.34.49.66,1,1,1.49.23.33.41.81,1,.61.38-.15.45-.75.09-1.32a14.75,14.75,0,0,0-1.65-2.32,3.44,3.44,0,0,1-.94-2.77,1.77,1.77,0,0,1,.72-1.64c.81-.53,1.55-1.31,2.65-1a2.17,2.17,0,0,1,1.09.71c2.12,2.73,1.9,7.63.09,10a9.27,9.27,0,0,1-3.38,3.26,2.9,2.9,0,0,1-2.09.33C315.41,412.86,315.72,410.25,316.05,407.5Zm-6.84,43.88a8.14,8.14,0,0,0,1.67-6.65c-.07-.45-.15-.9-.25-1.47a6.61,6.61,0,0,1,5,3.6.67.67,0,0,1,.13.39,8.3,8.3,0,0,1-.46,2.15c-1.25,2.64-2.25,5.4-3.94,7.82a33.63,33.63,0,0,1-6.78,7.21c-1.22.95-2.53,1.79-3.82,2.63a16.93,16.93,0,0,1-1.79.86c.19-1.41.36-2.64.53-3.87a.72.72,0,0,1,.15-.27c1.93-2.65,3.83-5.32,5.81-7.93C306.67,454.31,308,452.87,309.21,451.38Zm5.09-82.82a.43.43,0,0,1,.3.17c-.25,0-.5.06-.75.07a3.5,3.5,0,0,0-2.55,1.68c-1.9,2.35-3.77,4.73-5.65,7.11a7.48,7.48,0,0,0-.48.83c-.86-.53-.89-.93-.59-1.39.44-.72.85-1.46,1.35-2.13,1-1.26,1.93-2.52,3-3.7A6.88,6.88,0,0,1,314.3,368.56Zm-2.14,4.82c-1.11,1.11-2.17,2.28-3.27,3.42a4.9,4.9,0,0,1-.79.55c-.08-1.94,3.74-5.25,5.53-5.1A13.43,13.43,0,0,0,312.16,373.38Zm1.37,2a9.21,9.21,0,0,1-3.13,1.79A3.66,3.66,0,0,1,313.53,375.4Zm-2-8.55-.59.22c-2.35.94-4.56,2.11-5.91,4.35-1,1.65-1.85,3.39-2.75,5.09-.51.95-1,1.9-1.5,2.85l-.3-.14c.32-.83.59-1.69.95-2.51.71-1.6,1.39-3.23,2.23-4.76a15.93,15.93,0,0,1,2.07-2.78C307.22,367.43,309.4,367.21,311.5,366.85Zm-10.41-.16c1.42-1.42,3-2.78,5.05-3.09a19.7,19.7,0,0,1,3.35-.06c.27,0,.54.26.81.4l-.06.31a8.19,8.19,0,0,1-1,0,7.58,7.58,0,0,0-5.85,2.49,14.06,14.06,0,0,0-4.15,8.13,27.57,27.57,0,0,1-.82,2.92c-.1.37-.18.74-.26,1.07a6.49,6.49,0,0,1-.73-5.18A13.84,13.84,0,0,1,301.09,366.69Zm-20.62-.13a14.45,14.45,0,0,1,4.36-5,17.63,17.63,0,0,1,8.11-3.57,10.58,10.58,0,0,1,4.29.47c-1.18.05-2.37,0-3.54.18a12.42,12.42,0,0,0-5.12,1.8,28.44,28.44,0,0,0-5.23,4.09,8.76,8.76,0,0,0-2.25,4.91,16.2,16.2,0,0,0,.65,8.12,34.46,34.46,0,0,0,1.93,3.84l.22.2h0l.56.36-.12.17-.52-.45-.08-.07-.15-.13h0a10.62,10.62,0,0,1-3.41-4,6.37,6.37,0,0,1-.38-1.19C279.05,373.05,278.93,369.72,280.47,366.56Zm5.5,3.62a13.29,13.29,0,0,0,0,5.65,6.43,6.43,0,0,0,2.2,3.85,8,8,0,0,1-3.7-7.71,12.27,12.27,0,0,1,3.8-8,8,8,0,0,1,5.23-2.14,2.44,2.44,0,0,1-.36.2C289.11,363.28,286.85,366.14,286,370.18Zm6.31,8.34a2.13,2.13,0,0,1-.25.66,11.81,11.81,0,0,1-.65-5.72c.28,1.24.57,2.47.82,3.71A6.09,6.09,0,0,1,292.28,378.52Zm-1.75.48a5.37,5.37,0,0,1-1.65-6.33C288.48,375,289.79,376.8,290.53,379Zm-18.95-7.93c-1.22,1.74-.46,4.26.83,5.57l3.4,3.45c.09.09.23.13.3.36a4.82,4.82,0,0,1-1.27-.31,8.84,8.84,0,0,1-4.45-5.35A3.52,3.52,0,0,1,271.58,371.07Zm-2.36,4.8s.11-.06.4-.22a5.73,5.73,0,0,1,0,.87,2.76,2.76,0,0,0,1.65,2.89c.46.24.88.54,1.36.84a1,1,0,0,1-1.23.52C269.12,380,268.12,378.39,269.22,375.87Zm-1.13,3.89L270,382A2.31,2.31,0,0,1,268.09,379.76Zm2.42,37.86a9.1,9.1,0,0,1-5.39-7,8.45,8.45,0,0,1,.9-5.93,1.7,1.7,0,0,1,2.11-.93,8.1,8.1,0,0,1,1.95,1,1.52,1.52,0,0,1,.54.95,3.54,3.54,0,0,1-.65,3.27,10.35,10.35,0,0,0-1.25,2.08,2.21,2.21,0,0,0-.31,1,.8.8,0,0,0,.38.64.82.82,0,0,0,.66-.34A24.07,24.07,0,0,1,271,410c.54,2.58,1.08,5.16,1.62,7.76A2.62,2.62,0,0,1,270.51,417.62Zm7.84,10.28a31.5,31.5,0,0,1-3.61-8.19c-.58-2.14-1-4.31-1.53-6.47-1.23-5.32-1.25-10.77-1.85-16.16-.19-1.79-.42-3.59-.44-5.38a14.21,14.21,0,0,1,2-8c1.21-1.92,3-2.28,5.05-1.95,2.6.41,5.18,1,7.79,1.29a36.35,36.35,0,0,0,5.81,0,76.59,76.59,0,0,0,10-1.63c.76-.14,1.48-.44,2.22-.64,1.26-.33,2.51-.65,3.77-.95a1.38,1.38,0,0,1,.72.08,7.12,7.12,0,0,1,3.49,2.4,13.77,13.77,0,0,1,2.56,6.82,69.2,69.2,0,0,1,.26,7.06c0,.88,0,1.77,0,2.65h0c0,2.05.09,4.1,0,6.14-.15,2.7-.4,5.4-.71,8.09-.23,2-.56,3.9-1,5.82a33.34,33.34,0,0,1-3.45,8.7,10.53,10.53,0,0,1-6.57,5.06,41,41,0,0,1-15.13,1.64,11.52,11.52,0,0,1-2.05-.49c-.23-.06-.45-.2-.69-.26C281.83,432.77,279.94,430.53,278.35,427.9Zm.32,19.64a6.59,6.59,0,0,1,5-3.63c-.08,1.11-.14,2.15-.24,3.19a6.86,6.86,0,0,0,1.34,4.36,12.21,12.21,0,0,0,1.28,1.68,78.1,78.1,0,0,1,7.3,9.58,4.91,4.91,0,0,0,.71.92,3.09,3.09,0,0,1,1,2c.1.9.22,1.8.35,2.79a15.39,15.39,0,0,1-4.23-2.3,37.93,37.93,0,0,1-6.47-6.06,22.76,22.76,0,0,1-3.58-5.59c-.61-1.31-1.27-2.59-1.8-3.93a19.28,19.28,0,0,1-.68-2.64A.64.64,0,0,1,278.67,447.54Zm-5.73,8.56a64.14,64.14,0,0,0-9.42,5c-3.28,2-6.49,4.09-9.72,6.16-1.08.69-1.48.64-2.35-.44a6.15,6.15,0,0,1,.59-.67,24,24,0,0,1,5.12-3.7c1.78-.83,3.43-1.94,5.21-2.78,3.87-1.82,7.94-3.27,11.46-5.95l.58,1.72C273.88,455.66,273.42,455.9,272.94,456.1Zm18.17,24.06c-.9.18-1.83-.83-1.82-2a1.7,1.7,0,0,1,1.76-1.59,1.81,1.81,0,1,1,.06,3.6Zm4.79-8.44c0,.34,0,.69,0,1.1a12.33,12.33,0,0,1-8-3.19c-2.48-2.39-4.84-4.92-7.22-7.42a11.68,11.68,0,0,1-1.23-1.72c-1-1.48-1.92-2.95-2.83-4.46a28,28,0,0,1-1.33-2.62,1.08,1.08,0,0,1,0-.88c.63-.87,1.34-1.68,2-2.52,1.4,3.35,2.62,6.72,4.77,9.63a40.27,40.27,0,0,0,5.94,6.3,26.12,26.12,0,0,0,7,4.43A1.21,1.21,0,0,1,295.9,471.72Zm1.21-2.86c-.3-1.14-.58-2-.74-2.9a15.23,15.23,0,0,0-3.23-6.67q-3.18-4.08-6.44-8.11a1.91,1.91,0,0,1-.45-1.74,9.22,9.22,0,0,0,0-1.58V444.8a36.29,36.29,0,0,0,4-.77,35.48,35.48,0,0,0,8.87-4.35A25.85,25.85,0,0,0,306,434a1.46,1.46,0,0,1,.36-.2A56.19,56.19,0,0,0,308,450.2c-.74.86-1.52,1.8-2.33,2.73a62.84,62.84,0,0,0-6.5,9,13.74,13.74,0,0,0-1.09,3.28C297.71,466.32,297.45,467.48,297.11,468.86Zm6.14,10.66a1.81,1.81,0,1,1,.07-3.59,1.71,1.71,0,0,1,1.76,1.59C305.08,478.68,304.17,479.7,303.25,479.52Zm15.85-26.77a29.83,29.83,0,0,1-1.45,2.81c-.85,1.41-1.72,2.82-2.67,4.17a31.4,31.4,0,0,1-2.69,3.38c-1.86,2-3.75,3.93-5.71,5.8a12.43,12.43,0,0,1-8,3.27,2,2,0,0,1,1.38-2.79c3.65-1.56,6.54-4.15,9.36-6.92,3.53-3.46,5.58-7.72,7.37-12.18.12-.28.19-.58.32-1,.72.88,1.43,1.69,2.07,2.56A1,1,0,0,1,319.1,452.75Zm21.31,13.74a173.48,173.48,0,0,0-14.86-9.08c-1.67-.9-3.43-1.62-5.15-2.43a3.44,3.44,0,0,1-.43-.24l.54-1.62a32.94,32.94,0,0,0,2.91,1.81c3,1.45,6,2.81,8.95,4.24,1.2.58,2.35,1.25,3.53,1.89.65.35,1.29.72,1.94,1.06a25.53,25.53,0,0,1,5.12,4C342,467.28,341.62,467.32,340.41,466.49Z" transform="translate(-242.21 -356.33)"/><path class="cls-2" d="M301.37,397.64c.11.85.21,1.65.31,2.44l-1.53.51c.5.9,1.17.75,1.89.66a19.11,19.11,0,0,1,2.92-.2c1.19,0,2.38.21,3.57.31.49,0,.81-.12.79-.78l-2.21-.53c.15-.85.28-1.63.44-2.55.74.45,1.48.92,2.23,1.37.36.22.73.29,1-.1a.59.59,0,0,0-.14-.92c-1.72-1.24-3.47-2.39-5.72-2.42a10.69,10.69,0,0,0-6.09,2.06,7.36,7.36,0,0,0-1.05,1C299.21,398.81,300.16,397.83,301.37,397.64Z" transform="translate(-242.21 -356.33)"/><path class="cls-2" d="M286.63,401.83l-1.53-.4c.09-.84.17-1.64.25-2.47,1.2.21,2.19,1.06,3.64.92a5.52,5.52,0,0,0-2.63-1.95c-4.25-1.89-6.84-1.08-10.13,1.52-.09.07-.21.14-.22.22-.05.28-.18.67-.05.84a1,1,0,0,0,.82.19c.25-.05.46-.31.69-.46l1.69-1.07.56,2.51c-.7.31-1.62.17-2.24.8.18.62.61.6,1,.53,2.25-.34,4.49-.83,6.79-.37A1,1,0,0,0,286.63,401.83Z" transform="translate(-242.21 -356.33)"/><path class="cls-2" d="M288.48,408.67a3.73,3.73,0,0,0,.46,3.49,5.57,5.57,0,0,0,4,2.1,2.9,2.9,0,0,0,1-.26,2.44,2.44,0,0,0,0-.27,26.46,26.46,0,0,1-2.53-1.47,2.91,2.91,0,0,1-1.16-1.39,5.31,5.31,0,0,1,.05-2.41c.33-1.42.84-2.81,1.26-4.22a12.33,12.33,0,0,0,.4-6c-.2-1-.32-2-.51-3a12.49,12.49,0,0,0-.48-1.42,3.94,3.94,0,0,0-.46,2.58,15.17,15.17,0,0,1-.07,5.66C289.82,404.24,289.15,406.46,288.48,408.67Z" transform="translate(-242.21 -356.33)"/><path class="cls-2" d="M298.94,390.75a2.76,2.76,0,0,0,1.14.45c1.84.31,3.68.53,5.51.87,1.2.22,2.38.62,3.57.88.79.18,1.43-.09,1.52-.57.13-.71-.37-1-.91-1.24l-.18-.09a13.07,13.07,0,0,0-7-1.54c-1.2,0-2.22,0-3.24,0-.23,0-.61.23-.64.4A1,1,0,0,0,298.94,390.75Z" transform="translate(-242.21 -356.33)"/><path class="cls-2" d="M282.35,392.66c.94-.1,1.88-.26,2.81-.42.71-.12,1.16-.55,1.16-1a1.17,1.17,0,0,0-1.26-1,6.24,6.24,0,0,0-1.37.06,19.59,19.59,0,0,0-3.69.84,52.18,52.18,0,0,0-4.76,2.45.87.87,0,0,0-.32,1.37,8.21,8.21,0,0,0,1.22-.39A19.78,19.78,0,0,1,282.35,392.66Z" transform="translate(-242.21 -356.33)"/><path class="cls-2" d="M293.42,422l-.09-.24c-1-.16-1.92-.34-2.89-.45s-2.16-.21-3.25-.24c-.25,0-.72.25-.72.38a1.67,1.67,0,0,0,.4.85.81.81,0,0,0,.48.2,14.38,14.38,0,0,0,5.11,0A3.63,3.63,0,0,0,293.42,422Z" transform="translate(-242.21 -356.33)"/><path class="cls-2" d="M296.23,424.34c-1.07.17-2.15.28-3.22.38-.49,0-1-.08-1.48,0a5.09,5.09,0,0,0-1.1.45c1.12,1.11,2.35.85,3.44.86a4.58,4.58,0,0,0,3.8-1.33A1.32,1.32,0,0,0,296.23,424.34Z" transform="translate(-242.21 -356.33)"/><path class="cls-2" d="M300.32,420.43c.45-.18.71-.53.42-1s-.65-.28-1-.12c-1.22.52-2.46,1-3.67,1.56-.24.11-.39.4-.58.61l.76.61C297.61,421.53,299,421,300.32,420.43Z" transform="translate(-242.21 -356.33)"/><path class="cls-2" d="M291,477.64c-.52,0-.79.28-.81.88s.29,1,.83,1a.86.86,0,0,0,.9-.94A.92.92,0,0,0,291,477.64Z" transform="translate(-242.21 -356.33)"/></svg>