<svg id="Layer_1" data-name="Layer 1" xmlns="http://www.w3.org/2000/svg" viewBox="0 0 108.03 130.33"><defs><style>.cls-1{fill:none;}.cls-2{fill:#010101;}</style></defs><path class="cls-1" d="M285.05,470.75l-.34.12.34-.12Z" transform="translate(-243.48 -355.74)"/><path class="cls-1" d="M282.74,449.64h0l0,0Z" transform="translate(-243.48 -355.74)"/><polygon class="cls-1" points="39.3 93.84 39.31 93.83 39.31 93.83 39.3 93.84"/><path class="cls-1" d="M282.78,440.41h0l-.69.18h0Z" transform="translate(-243.48 -355.74)"/><path class="cls-1" d="M281,441.49l-.13,0Z" transform="translate(-243.48 -355.74)"/><path class="cls-1" d="M281.58,443.39a.38.38,0,0,1,0,.1A.38.38,0,0,0,281.58,443.39Z" transform="translate(-243.48 -355.74)"/><path class="cls-1" d="M281.55,443.3h0l0,.09Z" transform="translate(-243.48 -355.74)"/><path class="cls-1" d="M284.4,476.34Z" transform="translate(-243.48 -355.74)"/><path class="cls-1" d="M281.51,441.29h0l-.76.15h0Z" transform="translate(-243.48 -355.74)"/><path class="cls-2" d="M281.61,441.23l0,0c.08-.21.17-.41.26-.62-.09.21-.18.41-.26.62Z" transform="translate(-243.48 -355.74)"/><path class="cls-2" d="M292.57,375.86l0,0Z" transform="translate(-243.48 -355.74)"/><path class="cls-2" d="M283.67,439.68l.47-.12,0-.05,0,.05Z" transform="translate(-243.48 -355.74)"/><path class="cls-2" d="M282.79,449.57l1-.3-1,.3Z" transform="translate(-243.48 -355.74)"/><path class="cls-2" d="M284.1,439.51l0,0,0,0-1,.23h0Z" transform="translate(-243.48 -355.74)"/><path class="cls-2" d="M281.54,443.23h0l.13-.09Z" transform="translate(-243.48 -355.74)"/><path class="cls-2" d="M292.15,376.35h0l0,0h0Z" transform="translate(-243.48 -355.74)"/><path class="cls-2" d="M281.8,443.05h0l-.23.23Z" transform="translate(-243.48 -355.74)"/><path class="cls-2" d="M281.58,441.2l0,0Z" transform="translate(-243.48 -355.74)"/><path class="cls-2" d="M283.25,442h0Z" transform="translate(-243.48 -355.74)"/><path class="cls-2" d="M295.54,378.93l.44-.51-.44.51-.06.1h0Z" transform="translate(-243.48 -355.74)"/><polygon class="cls-2" points="39.31 93.83 39.31 93.83 39.31 93.83 39.31 93.83"/><path class="cls-2" d="M292.6,375.89a.07.07,0,0,0,0,0l.49-.37-.49.37Z" transform="translate(-243.48 -355.74)"/><path class="cls-2" d="M350.11,470.57c-1.48-2.73-3-5.46-5.65-7.26a1.2,1.2,0,0,1-.47-.65c-.11-.75-.64-1.06-1.24-1.31-1.94-.82-3.9-1.61-5.85-2.43a135.38,135.38,0,0,0-17.5-5.58,4.38,4.38,0,0,1-3.55-3.71c-.33-2.52-.7-5-1.23-7.51-.46-2.18-1.31-4.19-3.54-5.22-.11,0-.16-.21-.34-.48.18-2.23.37-4.62.56-7,1.08-1.37,2.21-2.65,3.15-4a40.83,40.83,0,0,0,2.67-4.56c.75-1.49,1.32-3.07,2-4.63,4,.82,6.73-.86,8.79-3.9a9.62,9.62,0,0,0,1.49-5c.11-2.48-1.27-4.39-2.51-6.14.73-2.23,1.41-4.29,2.11-6.4a13.39,13.39,0,0,0,1.43-.28,10.39,10.39,0,0,0,1.27-.55c-1-.45-1.83.47-2.68-.29.65-2.59-.05-5.11-.63-7.65a6.19,6.19,0,0,1-.13-.62,40.5,40.5,0,0,0-5.09-13.82,16.46,16.46,0,0,0-6.85-6.4,16,16,0,0,0-6.85-2.06c.61-.81,1.45-.71,2.2-.79a12.83,12.83,0,0,1,2.32-.05,9.26,9.26,0,0,1,2.27.41,19.21,19.21,0,0,1,2.38,1.12,4.51,4.51,0,0,0-2.57-2.07c-2.71-1-5.39-.57-8.16.41-.2-.72-.35-1.32-.55-1.91A8.87,8.87,0,0,0,305,356c-.25-.21-.54-.49-1-.06a10.5,10.5,0,0,1,2.47,5.81c-.49-.79-.8-1.26-1.08-1.74a4.51,4.51,0,0,0-4.19-2.33,18.16,18.16,0,0,0-8.47,2.32c-1.57.79-3.15,1.58-4.79,2.22-3.15,1.24-6.34,2.36-9.5,3.56a30,30,0,0,0-17.28,14.45,15.4,15.4,0,0,0-2,9.55,16.38,16.38,0,0,0,1.86,5.75c-.27-2-.63-3.61-.67-5.2a27.45,27.45,0,0,1,.35-5,9.22,9.22,0,0,1,1.95-4.34c-.21,2.17-.49,4.33-.6,6.49a22.24,22.24,0,0,0,.85,6.48c.69,2.85,1.54,5,2.4,5.94-.17-1.25-.7-2.36-.54-3.82l3.7,6.53c-1,2-2,4-1.43,6.52a10.62,10.62,0,0,0,3.63,6c2,1.63,4.25,1.63,6.66,1.45.28.66.54,1.23.76,1.82a27.91,27.91,0,0,0,5.23,8.88c1.32,1.5,2.28,3,2.12,5a7.93,7.93,0,0,0,.17,1.26c.08,1.24.14,2.49.2,3.68-1.71.93-3.26,1.76-4.79,2.62a14.78,14.78,0,0,0-4.47,3.82,7,7,0,0,0-1.7,4.88c.08,1.53.11,3.06.16,4.7-.81.38-1.61.81-2.46,1.14-6.54,2.61-13.08,5.22-19.65,7.77-1.29.5-2.27,1.09-2.28,2.68a8.38,8.38,0,0,0-3.36,3.71c-1.32,2.55-2.55,5.16-3.8,7.69a7.29,7.29,0,0,0,4.5,4,28,28,0,0,0,5.68,1.64c2,.28,3.89.66,5.83,1,4,.8,8,1.63,12,2.45,3.63.74,7.25,1,10.88-.09a11.15,11.15,0,0,1,2.7-.47c5.14-.3,10.28-.71,15.42-.79a86.94,86.94,0,0,0,18.83-2.47,84.09,84.09,0,0,1,16.33-2.07c4.51-.18,9-.62,13.5-1a2.46,2.46,0,0,0,2.35-2.52,10.94,10.94,0,0,0-.37-2.9A10.75,10.75,0,0,0,350.11,470.57Zm-84.27-85.1.16-.05v.1Zm7,87.25c-.7.47-1.47.83-2.19,1.27-1.73,1.06-1.9,1.27-2.55,3-.64-.21-.6-.71-.47-1.2a3.14,3.14,0,0,1,1.41-1.79c.8-.55,1.62-1.07,2.65-1.75-4.09-.14-7.7,1.57-11.4,1.54-.53-.67-.3-1.1.12-1.41a10.59,10.59,0,0,1,1.78-1.11c2.3-1,4.63-2,6.94-3.06,1.21-.53,2.41-1.08,3.64-1.64.13.77-.39.9-.76,1.07-1.27.61-2.56,1.17-3.83,1.75-1.6.73-3.21,1.44-4.8,2.19a5,5,0,0,0-1.71,1.27,8.32,8.32,0,0,0,1.12-.09,56.86,56.86,0,0,1,8.3-1.4,3.57,3.57,0,0,1,2.56.35A4.76,4.76,0,0,1,272.86,472.72Zm1.56-6.41h-.21l.25-.06,0-.07Zm.29-9.68a61.36,61.36,0,0,0-10.6,4.74,47.88,47.88,0,0,1-8.11,3,5.69,5.69,0,0,1-4-.18c7.86-3.65,15.68-6,23-9.59a2.21,2.21,0,0,1,.41.57,6.18,6.18,0,0,1,.14.89A4.31,4.31,0,0,1,274.71,456.63Zm51.86-53.92a6.17,6.17,0,0,1,1.49,4.08,8.6,8.6,0,0,1-4.24,7.35,4.8,4.8,0,0,1-4,.51l1.8-7.95a3.08,3.08,0,0,1,.65.66c.57,1.13,1.08,2.29,1.67,3.4.26.48.7.71,1.28,0-.58-1.23-1.2-2.55-1.84-3.85-.38-.76-.8-1.49-1.2-2.23a1.81,1.81,0,0,1,.25-2.16,2.07,2.07,0,0,1,2.41-.86A4.34,4.34,0,0,1,326.57,402.71Zm-13-22a21.73,21.73,0,0,0,8.51,5.32c-4.45-.2-7.12-2.48-9.42-5.45C313.18,380.11,313.43,380.51,313.61,380.72ZM310,379.1a12.74,12.74,0,0,0,4.48,5.5,36.08,36.08,0,0,0,6.41,3.68c1.14.53,2.25,1.14,3.81,2a4.15,4.15,0,0,1-3.33-.08,24.51,24.51,0,0,1-9.18-5.88,13.65,13.65,0,0,1-3.2-5.89,19.76,19.76,0,0,1-.25-2.27C309.28,377.42,309.65,378.25,310,379.1Zm-4.87-16.82a7.9,7.9,0,0,1,.69,5.28,9.9,9.9,0,0,1-.42-1.07c-.28-1-.47-2.05-.82-3a3.34,3.34,0,0,0-3-2.49C303.63,360.52,304.33,360.76,305.12,362.28Zm-.84,4-2.79-3h0l0,0,0,0C303.48,363.49,304.33,364.39,304.28,366.3ZM273.9,382.35a54.78,54.78,0,0,0,17.69-5.9,1.36,1.36,0,0,1,.54-.06l0,0,.42-.49.49-.36.08-.12a1,1,0,0,0,0,.17l-.49.37-.44.46h-.06c-.07.13-.13.28-.19.41a1.07,1.07,0,0,1-.13.21.54.54,0,0,1-.15.15,23.86,23.86,0,0,1-3.11,1.76,66.23,66.23,0,0,1-12.85,4,10,10,0,0,1-4,0A21.46,21.46,0,0,1,273.9,382.35ZM269.49,386a28.39,28.39,0,0,0,10.05-.86,63.46,63.46,0,0,0,12.89-4.6c.63-.31,1.19-.76,1.81-1.08a7.57,7.57,0,0,1,1.24-.43l.06-.1.44-.51.06.06-.44.52-.12,0a5.12,5.12,0,0,1-.94,1.07c-.15.13-.31.26-.48.38l-.5.33-.53.3c-.44.24-.89.46-1.34.67a55.44,55.44,0,0,1-13.77,4.63,20.9,20.9,0,0,1-8.19.31,13.64,13.64,0,0,1-1.48-.55A7,7,0,0,1,269.49,386Zm2.3,14.58a10.68,10.68,0,0,1-1.55-7.27,4.85,4.85,0,0,1,.54-1.16c.13.29.25.42.23.53-.32,2.42.58,4.56,1.48,6.7a3.87,3.87,0,0,1,.6,2.36h0l0,.1-.09-.06a.06.06,0,0,0,0,0C272.33,401.74,272.08,401.06,271.79,400.58Zm-4.56-14.74h.36V386l-.36,0Zm.09,5.48a6.09,6.09,0,0,1,.6-1.06,8.32,8.32,0,0,1,.08,1.3,10,10,0,0,0,2.43,8.23,4.32,4.32,0,0,1,.57,1.06h.07c.09.19.19.38.29.57l.06,0-.11-.09-.29-.48,0,0c-.91.12-1.29-.62-1.74-1.17A10,10,0,0,1,267.32,391.32Zm5.17,23.11a8.58,8.58,0,0,1-4.28-7.32,6.37,6.37,0,0,1,1.2-3.68l3.93,2.78c-.75,1.62-1.51,3.25-2.22,4.8.35.62.79.68,1.08.28a13.65,13.65,0,0,0,1-1.85,8.76,8.76,0,0,1,1.44-2.61c.64,2.71,1.24,5.29,1.88,8A4.41,4.41,0,0,1,272.49,414.43Zm6.22,2.32A46,46,0,0,1,276,406.22l2.12-.79a6.24,6.24,0,0,1-2.3-5,16.44,16.44,0,0,1,.41-3.77,49.5,49.5,0,0,1,2.9-8.31c.69-.11,1.44-.26,2.19-.35a37.44,37.44,0,0,0,13-4.08,4.83,4.83,0,0,1,1.14-.33l0,0h0a1.25,1.25,0,0,1,1.17-.78l0-.06.14-.08-.09.13h-.08a1.29,1.29,0,0,1-1.17.78h0a14.48,14.48,0,0,1-5,3.33c-.44.2-.9.34-1.58.59,2.24.16,5.44-1.21,8.5-3.44a30,30,0,0,0,6.34-6.52c3.07,6.39,8,10.83,13.63,14.59,1.34.89,2.82,1.56,4.38,2.42a5.38,5.38,0,0,1,0,.89q-.84,5.64-1.69,11.28a42.52,42.52,0,0,1-6.21,17.16,41,41,0,0,1-8.81,9.64,17.42,17.42,0,0,1-1.74,1.21,9.45,9.45,0,0,1-10.39-.05,31,31,0,0,1-6.38-5.51A38.06,38.06,0,0,1,278.71,416.75Zm30.45,26.67a12.73,12.73,0,0,1-1.67.87c-2.13.74-4.27,1.44-6.41,2.13-1.54.49-3.09,1-4.65,1.39a2.2,2.2,0,0,0-1.56,1.56c0,.13-.06.27-.09.41-.66,2.71,1.26,3.72,3.16,3.08,2.06-.7,4.19-1.19,6.3-1.77a2.77,2.77,0,0,1,1.41,2.22c.47,2.27.9,4.55,1.37,6.91-.6.74-1.13,1.48-1.75,2.14a33.72,33.72,0,0,1-2.46,2.32,22.07,22.07,0,0,0-5.13,6.13,5.69,5.69,0,0,1-.66.78c-1.75-2.51-3.45-4.92-5.12-7.34-.52-.76-.9-1.61-1.48-2.32a4.52,4.52,0,0,1-.82-4c.18-.9.4-1.79.5-2.69a9.86,9.86,0,0,0-.12-1.74c-2.26-.4-4.52-.62-6.55-1.92.32-.58.94-.73,1.44-1a3.73,3.73,0,0,0,2.26-3.09c.1-1.19.27-2.37.36-3.56.05-.69,0-1.39,0-2.17,8.81,1.48,15.94-1.23,21.88-7.76-.07,1.54-.18,3.08-.21,4.62S309.16,441.76,309.16,443.42Zm-10.32,6.25a3,3,0,0,1-.5.54c-.45.26-1,.36-1.32-.12a.79.79,0,0,1,.08-.74c.4-.41.89-.75,1.45-.18A3.74,3.74,0,0,1,298.84,449.67Zm8.46,12.92c.2.86.35,1.46.54,2.27a20.76,20.76,0,0,0-1.87,1.66c-1.82,2-3.6,4.13-5.39,6.21A11.15,11.15,0,0,1,297,476c-1.84-2.25-4-4.23-5-7.05a17,17,0,0,0-1.85-3.07c-.41-.65-.92-1.26-1.26-1.94a7.08,7.08,0,0,1-.23-1.83,11.48,11.48,0,0,1,1.11,1.19c2.07,3.1,4.12,6.21,6.19,9.32.64.95,1.31,1,2,.2a8.2,8.2,0,0,0,1-1.36,22.43,22.43,0,0,1,4.91-5.77C305.05,464.76,306.08,463.73,307.3,462.59Zm-22.14,6.66,0-.19.11,0Zm.06,1.82c-.12,0-.25.12-.36.1s-.1-.19-.15-.3l.34-.12h0Zm-.19-3c.09-.3.17-.59.25-.89.11.06.33.13.32.17a8.19,8.19,0,0,1-.23.81Zm0-2.72c.58-.87.2-2,1.09-3.16,0,1.23,0,2.13,0,3C286.1,465.47,285.65,465.53,285,465.35Zm.36-26.83-.13,0a2.11,2.11,0,0,0,0,.25h0c0-.1,0-.2,0-.3Zm-.19,3.72a9,9,0,0,1-.05-1.46c0-.2.29-.38.52-.66a23.8,23.8,0,0,1,0,7.23c-.25,1-.72,1.78-1.86,1.87l0,0-1,.3h0l0,.06h0l0,0,0,0,0,0,0,0h0l.89-.3h.06c.28-.67.61-1.32.84-2A13.12,13.12,0,0,0,285.2,442.24Zm-2-.23,0-.05a.1.1,0,0,1,0,0h.12l-.14,0-.06.05Zm-2.56-.54v-.06l.12,0,.76-.15.07-.09.24-.52a.36.36,0,0,1,0-.09h0a.59.59,0,0,1,.23,0l.69-.18,0-.09.33-.58h0l1-.23.08-.06,0,.05,0,.06-.47.12-.47.12h0c-.11.19-.22.38-.32.58l-.1,0c-.17.3-.43.22-.69.19l-.18.05c-.09.2-.18.41-.26.62l-.14,0a.56.56,0,0,1-.49.19h-.13l-.14,0-.11,0v.12l0-.11Zm.92,1.83a.14.14,0,0,0,0-.07h0l.14-.09.13-.09h0l-.23.23,0,0,0,.09a.38.38,0,0,1,0,.1.19.19,0,0,1,0,.13c-.73,1.31-1.48,2.61-2.32,4.08C279,445.23,279.46,444.43,281.55,443.3Zm2.38,38.26c-.07.18-.53.22-.91.37-.25-.86-.24-1.48.46-1.94C284.27,480.34,284.14,481,283.93,481.56Zm-.19-26.28a4.45,4.45,0,0,1-1.45-.23,10.5,10.5,0,0,1-4.68-3.43,3.47,3.47,0,0,1-.38-3.56c.73,2.33,2.57,3.51,4.37,4.71,1.09.73,2.25,1.37,3.52,2.14A1.48,1.48,0,0,1,283.74,455.28Zm.66,21.06v.37h-.11c0-.13,0-.25,0-.37h.1Zm.32-3.87c.54.74.54.74,0,2.31C284,474,284.73,473.2,284.72,472.47Zm24.14,9.24a63.88,63.88,0,0,1-8.32.82c-3.73.2-7.47.39-11.2.63-1,.07-2.09.32-3.13.46a8.77,8.77,0,0,1-1.17,0c.12-.56.22-.95.28-1.34.21-1.32.41-2.64.59-4,.38-2.86.71-5.73,1.14-8.58.23-1.51.63-3,1-4.82a21.8,21.8,0,0,1,2.92,5,14,14,0,0,0,3,4.8c.53.57,1,1.19,1.48,1.8a2.48,2.48,0,0,0,1.93,1.1,17.35,17.35,0,0,0,2.33-1.87c1.8-2,3.49-4,5.24-6.07.86-1,1.75-2,2.79-3.16a41.14,41.14,0,0,1,1.21,7.74A25.77,25.77,0,0,1,308.86,481.71Zm-.15-16.8c.83.3.83.3.55,1.55C309,465.83,308.89,465.42,308.71,464.91Zm-.37-4.28c1,1.17,1.08,1.44.45,3C308.6,462.36,308.48,461.56,308.34,460.63Zm1.41,6.54c.09.7.14,1.1.19,1.5C309.12,468.31,309.13,467.91,309.75,467.17Zm0,5.47c0-.42-.07-.74-.11-1.19C310.4,471.82,310.31,472.15,309.71,472.64Zm.82,5.45c0,.15-.44.27-.67.28s-.36-.27-.36-.42a5.1,5.1,0,0,1,.14-1.23c.14-.6.32-1.18.55-2.06a15.74,15.74,0,0,1,.52,2A3.68,3.68,0,0,1,310.53,478.09Zm-7.1-31.22c.64-.35,1-.61,1.47-.79,1.22-.52,2.47-1,3.69-1.5,2.07-.88,3.34-2.29,3.1-4.7a4.49,4.49,0,0,1,.13-.91,2.72,2.72,0,0,1,.37,3,5.65,5.65,0,0,1-1.11,1.76C309.67,445.19,306,446.73,303.43,446.87Zm11.1,5.86a5.72,5.72,0,0,1-1.5,3.18,1.93,1.93,0,0,1-1.85.79,19.62,19.62,0,0,0,1.87-2.37,20.12,20.12,0,0,0,1.08-2.65C314.83,451.9,314.59,452.41,314.53,452.73Zm12.73,13.61c-2.16-.58-4.32-1.17-6.44-1.85-.76-.24-1.64-.28-2.19-1.05a31.19,31.19,0,0,1,8.59,1.7c.35.11.63.46,1.18.89C327.84,466.19,327.51,466.41,327.26,466.34Zm-6.82-5.51.18,0,.05.12a.58.58,0,0,1-.18,0S320.46,460.87,320.44,460.83Zm1.36.54v-.13h.54v.13Zm15.93,4.89c-2.94-1-5.88-1.95-8.83-2.9-1.13-.37-2.3-.65-3.44-1a1.53,1.53,0,0,1-.5-.46h-.11l-.05,0-1.13.05a.76.76,0,0,1,1.13-.05h.1l.06.07a11.2,11.2,0,0,1,2.18.26c4.1,1.28,8.18,2.61,12.26,3.94.11,0,.18.2.3.36C339,466.86,338.36,466.46,337.73,466.26Zm1.51-3.63c-1.5-.37-3-.74-4.46-1.25-4.83-1.71-9.65-3.47-14.46-5.22-.58-.2-1.3-.32-.88-1.4a191.91,191.91,0,0,1,21.85,7.34,6.74,6.74,0,0,1,.86.56A5.17,5.17,0,0,1,339.24,462.63Z" transform="translate(-243.48 -355.74)"/><path class="cls-2" d="M283.25,442l-.06.05h0Z" transform="translate(-243.48 -355.74)"/><path class="cls-2" d="M292.19,376.39v0Z" transform="translate(-243.48 -355.74)"/><path class="cls-2" d="M283.27,441.91l0,0a.1.1,0,0,1,0,0Z" transform="translate(-243.48 -355.74)"/><polygon class="cls-2" points="38.03 85.55 38.03 85.55 38.03 85.55 38.03 85.55"/><path class="cls-2" d="M281.58,441.2l.24-.52-.24.52-.07.09h0Z" transform="translate(-243.48 -355.74)"/><path class="cls-2" d="M308.85,397.13a6.3,6.3,0,0,0-3.93,2.27,1.1,1.1,0,0,0-.08.93c.05.15.49.28.72.24a9.39,9.39,0,0,0,1.35-.41c.24.85.45,1.56.64,2.19-.39.5-1.26.53-.8,1.47.51-.07,1.05-.15,1.59-.21s1.12-.11,1.68-.14,1.13,0,1.69,0a15.63,15.63,0,0,0,1.68-.05,18.58,18.58,0,0,0,1.92-.45l-2.41-1.11c.25-.87.48-1.65.71-2.44,1.3,0,2.27.61,3.85,1-.43-.67-.56-1.09-.85-1.29A10.16,10.16,0,0,0,308.85,397.13Z" transform="translate(-243.48 -355.74)"/><path class="cls-2" d="M290.39,404.36c.09,0,.15-.19.29-.4l-1.26-1c.31-.82.61-1.57.88-2.29.83,0,1.44.83,2.44.27a4.64,4.64,0,0,0-.72-1.19,7.75,7.75,0,0,0-5.41-2,9.69,9.69,0,0,0-7.79,4c1.35-.45,2.38-.83,3.43-1.15a7.19,7.19,0,0,1,1.23-.14c.09.81.16,1.48.23,2.15l-1.4.63.05.38a2.92,2.92,0,0,0,.74.17,20.51,20.51,0,0,1,6.48.55A1.86,1.86,0,0,0,290.39,404.36Z" transform="translate(-243.48 -355.74)"/><path class="cls-2" d="M295.52,402.7c.06,2.95,0,5.9,0,8.85a19.27,19.27,0,0,0,0,2.74,2.11,2.11,0,0,0,2.59,1.83,5.84,5.84,0,0,0,3.73-3.59,7.6,7.6,0,0,1-3.11,2c-1.12.42-1.74,0-1.79-1.22a14.32,14.32,0,0,1,.09-1.47,45.23,45.23,0,0,0-1.12-15.07c-.06-.25-.34-.45-.72-.93,0,.7-.08,1-.06,1.38C295.27,399.05,295.48,400.87,295.52,402.7Z" transform="translate(-243.48 -355.74)"/><path class="cls-2" d="M305.17,392.28l.21,0a37.46,37.46,0,0,1,9.63.41,8.54,8.54,0,0,0,1.24,0,2.09,2.09,0,0,0-1.67-1.77,19.89,19.89,0,0,0-3.46-.86,15,15,0,0,0-6.24.52c-.52.15-1.09.4-1.07,1.12C303.82,392.11,304.34,392.33,305.17,392.28Z" transform="translate(-243.48 -355.74)"/><path class="cls-2" d="M291.37,392.46a1.94,1.94,0,0,0-1.92-1.73,14.53,14.53,0,0,0-7.28.57,4.54,4.54,0,0,0-2.93,2.95,50.51,50.51,0,0,1,5.89-1.59A50.52,50.52,0,0,1,291.37,392.46Z" transform="translate(-243.48 -355.74)"/><path class="cls-2" d="M305.33,419.59c-2.07.58-4.13,1.17-6.55,1.87a2.76,2.76,0,0,0,2.58.42,9.85,9.85,0,0,0,4.28-1.56c.11-.09.07-.37.1-.55C305.57,419.69,305.43,419.56,305.33,419.59Z" transform="translate(-243.48 -355.74)"/><path class="cls-2" d="M295.47,424.9c.45.29.67.54.89.55,1.32,0,2.65,0,4,0,.2,0,.39-.33.62-.54A8.36,8.36,0,0,0,295.47,424.9Z" transform="translate(-243.48 -355.74)"/><path class="cls-2" d="M290.78,421c.17.35.22.64.4.79a1.42,1.42,0,0,0,.76.27c1.21.09,2.46.38,3.72-.53A8,8,0,0,0,290.78,421Z" transform="translate(-243.48 -355.74)"/></svg>