<svg id="OBJECTS" xmlns="http://www.w3.org/2000/svg" viewBox="0 0 442.41 432.33"><defs><style>.cls-1{fill:#fff;}.cls-1,.cls-2,.cls-3{stroke:#0b0b0b;stroke-linecap:round;stroke-linejoin:round;stroke-width:1.5px;}.cls-2,.cls-4{fill:#0b0b0b;}.cls-3{fill:none;}</style></defs><path class="cls-1" d="M742.86,85c1.57-2.81,5.43-3.47,8.55-2.69a13.8,13.8,0,0,1,3.23,25.52c-3.46,1.87-7.56,2.18-11.49,1.9a12.53,12.53,0,0,1-5.47-1.36,5.28,5.28,0,0,1-2.82-4.61c.11-2,2.3-3.33,4.15-4a7.62,7.62,0,0,0,7.37,3.42,9.71,9.71,0,0,0,6.87-4.68,8.46,8.46,0,0,0,.71-7.84c-1.18-2.47-4.26-4-6.81-3-.77.29-1.44.78-2.2,1.08a2.47,2.47,0,0,1-2.35-.1,2.18,2.18,0,0,1-.74-2C742,85.78,742.5,85.62,742.86,85Z" transform="translate(-354.46 -10.18)"/><path class="cls-1" d="M679.56,99.75s-2.18,7.34-1.28,8.58,8.59,7.6,22.41,10.56a51.79,51.79,0,0,0,24.79-.67s1.49-6.82,2-8.24C725.75,114.75,679.41,99.72,679.56,99.75Z" transform="translate(-354.46 -10.18)"/><path class="cls-1" d="M673.91,60s-8.26,22,.4,37.67c10.34,18.76,38.67,20.14,53.12,16.11,12.47-3.48,19.32-28.22,18.87-36.25S673.91,60,673.91,60Z" transform="translate(-354.46 -10.18)"/><ellipse class="cls-1" cx="710.1" cy="68.72" rx="11.75" ry="37.24" transform="translate(121.77 732.54) rotate(-76.39)"/><path class="cls-1" d="M675.64,65c4.46,5.44,16.65,11.46,31.7,15.1S736,84,742.44,81.2c-4.46-5.44-16.65-11.46-31.7-15.11S682.09,62.23,675.64,65Z" transform="translate(-354.46 -10.18)"/><path class="cls-1" d="M701.51,74.4c-.36,9.37-5.92,16.75-12.41,16.5S677.64,82.85,678,73.48s5.93-16.76,12.42-16.5S701.88,65,701.51,74.4Z" transform="translate(-354.46 -10.18)"/><path class="cls-2" d="M685.84,73.78l6.89,5.93c-1.46,4.78-4.37,7.78-7.43,7.66-4.29-.17-7.58-6.44-7.29-13.89S682.08,60,686.37,60.2c3.75.14,6.81,4.94,7.25,11.36Z" transform="translate(-354.46 -10.18)"/><ellipse class="cls-1" cx="707.9" cy="73.77" rx="16.98" ry="11.76" transform="translate(251.99 768.06) rotate(-87.75)"/><path class="cls-2" d="M704,73.61l6.89,5.93c-1.46,4.78-4.37,7.78-7.43,7.66-4.29-.17-7.58-6.44-7.29-13.89s4.07-13.45,8.36-13.28c3.75.14,6.81,4.94,7.25,11.36Z" transform="translate(-354.46 -10.18)"/><path class="cls-3" d="M722.47,102.36a8.5,8.5,0,0,0-.65-7.45c-2.32-3.54-7-1.61-10.1,2.39-5.2,6.79-9.41,2.08-11.39,7.61-1.43,4,6.06,7.2,13.1,5.33S722.29,103.15,722.47,102.36Z" transform="translate(-354.46 -10.18)"/><path class="cls-3" d="M722.21,103.12a10.39,10.39,0,0,0-6.78-.14c-3.41,1.24-3.49,2.94-3.49,2.94a5,5,0,0,0-5-.24,5,5,0,0,0-3.2,4.12" transform="translate(-354.46 -10.18)"/><path class="cls-1" d="M703.1,95s2.31-6.42,8.27-8.82c4.87-2,8.54-1.5,10.69.06" transform="translate(-354.46 -10.18)"/><path class="cls-1" d="M394.22,38.81S391,21.44,397.63,14.12s12.05.09,10.56,1-12.64,7.07-9.31,23.69Z" transform="translate(-354.46 -10.18)"/><path class="cls-1" d="M421.65,110.44S442,111.62,450,97.28s.12-26.93-9.23-30.79S421.57,43.8,410,37.94s-25.18-.25-26.05,11.72,2.24,19-4.24,31.91,0,31.79,13.71,35.54S417.25,115.62,421.65,110.44Z" transform="translate(-354.46 -10.18)"/><path class="cls-1" d="M421.65,110.44s8-7.42,11.26-8.67" transform="translate(-354.46 -10.18)"/><ellipse class="cls-1" cx="429.1" cy="66.21" rx="10.75" ry="13.6" transform="translate(-356.92 103.65) rotate(-15.07)"/><path class="cls-2" d="M425.2,67.26l5.46-4.53c-2-4.16-5.34-6.5-8.22-5.73-3.56,1-5.24,6.38-3.72,12s5.69,9.47,9.24,8.51c2.57-.69,4.25-3.72,4.29-7.71Z" transform="translate(-354.46 -10.18)"/><path class="cls-1" d="M415.38,71a11.15,11.15,0,0,0-18.92,7.13" transform="translate(-354.46 -10.18)"/><path class="cls-1" d="M404.29,86.19a3.46,3.46,0,0,0-2.43-.61,2.9,2.9,0,0,0-1.59,1.79,13.58,13.58,0,0,0-.63,9.43,10.92,10.92,0,0,0,6.32,6.87c4.18,1.58,9.14,0,12.27-3.18s4.62-7.73,4.88-12.19c.1-1.75-.73-2.59-2.28-1.79a15.71,15.71,0,0,1-5.34,1.59A19.61,19.61,0,0,1,404.29,86.19Z" transform="translate(-354.46 -10.18)"/><path class="cls-1" d="M400.27,87.37a2.9,2.9,0,0,1,1.59-1.79,3.46,3.46,0,0,1,2.43.61,19.61,19.61,0,0,0,11.2,1.91,15.71,15.71,0,0,0,5.34-1.59,2.43,2.43,0,0,1,1.08-.3,11.35,11.35,0,0,1-.9,4.31,3.73,3.73,0,0,1-1.65,2,2.67,2.67,0,0,1-2.55-.23,4.16,4.16,0,0,1-1.58-2.1,3.88,3.88,0,0,1-4,2.72A3.83,3.83,0,0,1,408,89.35c-.18,1.19-1.56,1.84-2.76,1.84a5.41,5.41,0,0,1-3.27-1.35,8.32,8.32,0,0,1-1.84-2C400.15,87.69,400.2,87.53,400.27,87.37Z" transform="translate(-354.46 -10.18)"/><path class="cls-1" d="M399.07,93.19a6.83,6.83,0,0,1,1.28-.08,10.85,10.85,0,0,1,8.09,4,4,4,0,0,1,3-1.23,8,8,0,0,1,3.36.87,7.16,7.16,0,0,1,3.26,2.66,4.71,4.71,0,0,1,.38.82c-.09.09-.16.19-.25.28-3.13,3.19-8.09,4.76-12.27,3.18a10.92,10.92,0,0,1-6.32-6.87A12.66,12.66,0,0,1,399.07,93.19Z" transform="translate(-354.46 -10.18)"/><path class="cls-1" d="M407.8,96.3a10.69,10.69,0,0,1,2.51,5.89" transform="translate(-354.46 -10.18)"/><path class="cls-1" d="M402.16,78.91a8,8,0,0,0-10.49,1.42" transform="translate(-354.46 -10.18)"/><path class="cls-1" d="M706.24,359.3s-6.69,16.79,15.91,34.07,58.07,12.13,64.43-3.05Z" transform="translate(-354.46 -10.18)"/><path class="cls-1" d="M721,354s-17.79-2-14.3,7.56,15.67,21.94,42.16,30,45.62,1.55,34.64-5.95S720.16,353.65,721,354Z" transform="translate(-354.46 -10.18)"/><path class="cls-1" d="M719.33,349.54s-9,.43-8.15,10.41,25.27,26.28,42.23,29.93,34.31,1.32,33.11-9S718.66,349.76,719.33,349.54Z" transform="translate(-354.46 -10.18)"/><path class="cls-1" d="M720.71,340.35s-8.52,4.59-10.43,9.19,14.2,2.94,25.5,15.24,10.14,13.8,15.63,15.13,19.45-4,30.09-.86,11.63,7.34,12.8,6.35.83-10.89-1-13.43S720.71,340.35,720.71,340.35Z" transform="translate(-354.46 -10.18)"/><path class="cls-1" d="M715.5,335.36s14.3-25.43,49.38-13.13,31.58,50.17,30.75,51.6-17.46,7.08-43.22-2.56S713.07,338.73,715.5,335.36Z" transform="translate(-354.46 -10.18)"/><path class="cls-1" d="M749.14,341.08a3.34,3.34,0,0,0-.78.67,9.59,9.59,0,0,0-1.14,1.54,1.51,1.51,0,0,0-.28,1,1,1,0,0,0,.84.75,1.53,1.53,0,0,0,1.12-.36,3.82,3.82,0,0,0,.77-.93,4.22,4.22,0,0,0,.64-1.4C750.49,341.4,750.15,340.5,749.14,341.08Z" transform="translate(-354.46 -10.18)"/><path class="cls-1" d="M757.77,341.75a2.34,2.34,0,0,0-.12,1,1.09,1.09,0,0,0,.5.83,1.12,1.12,0,0,0,1.14-.09,2.4,2.4,0,0,0,.76-.91,5.84,5.84,0,0,0,.64-3.33c-.12-1.05-.91-1.25-1.45-.39A11.38,11.38,0,0,0,757.77,341.75Z" transform="translate(-354.46 -10.18)"/><path class="cls-1" d="M772.93,347.12c.13.34.33.72.69.76a.7.7,0,0,0,.66-.47,1.92,1.92,0,0,0,.07-.86,7.35,7.35,0,0,0-1.16-3.95c-.27-.37-.89-1-1.32-.43s.1,1.68.22,2.19A18.71,18.71,0,0,0,772.93,347.12Z" transform="translate(-354.46 -10.18)"/><path class="cls-1" d="M781.38,342.94a2.87,2.87,0,0,0,1.09.4,1.1,1.1,0,0,0,1-.43,1.06,1.06,0,0,0,0-1,2.44,2.44,0,0,0-.61-.82,5.62,5.62,0,0,0-1.89-1.27c-.6-.22-3.32-.39-2.67.9.23.47,1,.87,1.4,1.17A17.2,17.2,0,0,0,781.38,342.94Z" transform="translate(-354.46 -10.18)"/><path class="cls-1" d="M766.12,336.84a1.11,1.11,0,0,0,.07.9.71.71,0,0,0,.82.17,1.67,1.67,0,0,0,.66-.58,4.91,4.91,0,0,0,1-3.07,1.19,1.19,0,0,0-.2-.69C767.35,332.34,766.24,336.32,766.12,336.84Z" transform="translate(-354.46 -10.18)"/><path class="cls-1" d="M752.87,329.44c-.13.11-.27.25-.24.42s.19.23.33.28a3.64,3.64,0,0,0,2.35,0,10.47,10.47,0,0,0,2.18-1c.39-.21.94-.79.39-1.19-.31-.23-1-.06-1.38,0A6.71,6.71,0,0,0,752.87,329.44Z" transform="translate(-354.46 -10.18)"/><path class="cls-1" d="M739.29,338.05a1.76,1.76,0,0,0-.53.62.72.72,0,0,0,.1.77,1,1,0,0,0,.84.17,8.24,8.24,0,0,0,3.35-1.43,2.43,2.43,0,0,0,.72-.63.84.84,0,0,0-.27-1.26c-.38-.16-.7.09-1,.23A11.19,11.19,0,0,0,739.29,338.05Z" transform="translate(-354.46 -10.18)"/><path class="cls-1" d="M740.63,326.91c-.35.18-.73.48-.67.87s.48.55.84.64a8.37,8.37,0,0,0,5.65-.66,1.69,1.69,0,0,0,.57-.42.66.66,0,0,0,.11-.66.86.86,0,0,0-.55-.39A8.2,8.2,0,0,0,740.63,326.91Z" transform="translate(-354.46 -10.18)"/><ellipse class="cls-1" cx="753.51" cy="329.2" rx="17.48" ry="12.11" transform="translate(-64.16 998.42) rotate(-79.31)"/><path class="cls-2" d="M749.53,328.45l8.29-4.36c-.37-5.14-2.6-8.82-5.69-9.4-4.35-.82-9.1,4.71-10.52,12.26s1,14.44,5.32,15.26c3.8.72,8-3.4,9.91-9.74Z" transform="translate(-354.46 -10.18)"/><path class="cls-1" d="M783.58,335.8c1.79-9.49-2.09-18.19-8.66-19.43s-13.35,5.45-15.15,14.93,2.09,18.19,8.66,19.43S781.79,345.28,783.58,335.8Z" transform="translate(-354.46 -10.18)"/><path class="cls-2" d="M767.7,332.8l8.29-4.36c-.37-5.13-2.6-8.82-5.69-9.4-4.35-.82-9.1,4.72-10.53,12.26s1,14.44,5.33,15.26c3.8.72,8-3.39,9.91-9.73Z" transform="translate(-354.46 -10.18)"/><path class="cls-1" d="M777.54,354.74a8.88,8.88,0,0,0-6.36-7.24c-5.85-1.79-11.17,1.89-11.17,1.89" transform="translate(-354.46 -10.18)"/><path class="cls-3" d="M770.71,354.06s-1.29-4.51-5.4-3.75-5.75,4-9.67,2.79-7.57,2.54-4.36,7.4,9.91,4.89,13.92,3.28S771.82,357.26,770.71,354.06Z" transform="translate(-354.46 -10.18)"/><path class="cls-3" d="M763,351.07a15.51,15.51,0,0,1,.9,13.15" transform="translate(-354.46 -10.18)"/><path class="cls-3" d="M759.19,353s.72,6.92-2,11.43" transform="translate(-354.46 -10.18)"/><path class="cls-3" d="M755,353a13.89,13.89,0,0,1-3.69,7.55" transform="translate(-354.46 -10.18)"/><ellipse class="cls-4" cx="200.03" cy="420.03" rx="155.97" ry="12.3"/><path class="cls-1" d="M456.12,183.09s22.44,38.42,78.15,18.46l-11.22,26.67s-44.77,13.46-72.82-24.44Z" transform="translate(-354.46 -10.18)"/><path class="cls-1" d="M686.94,416.81s7.17-6.32,8-27.76-9.32-34.91-10.32-35.57S674,352.81,672.48,355s7.48,61.68,7.15,64.5S686.94,416.81,686.94,416.81Z" transform="translate(-354.46 -10.18)"/><path class="cls-1" d="M562.62,336.42s13.36,50.14,68.47,44.4c0,0,8.47-13.92-3.25-22.29,0,0-25.18,4.31-35.9-22.11Z" transform="translate(-354.46 -10.18)"/><path class="cls-1" d="M451.8,174.62s12.47-.26,13.72,10.21-3.66,22.62-16.29,21.45-11.55-9.57-11.55-9.57Z" transform="translate(-354.46 -10.18)"/><path class="cls-1" d="M648.29,356.64s4.74-4.33,14.55-4,12.46.83,15.95,5.48,13.8,33.91,1.83,55.19S628.09,427,627.1,420.14s-.17-24.77,15.95-28.76c0,0,4.49-10.64,3.33-15.79S648.29,356.64,648.29,356.64Z" transform="translate(-354.46 -10.18)"/><path class="cls-1" d="M643.05,391.38s23.61-6.82,33.42,12.47" transform="translate(-354.46 -10.18)"/><path class="cls-1" d="M626.81,416.81s-2.37.67-2.21,2,.5,10,1,10.8,7.84,7.65,30.93,6.32,29.91-14.63,31.57-17.46-3.49-12-6.15-11-2.49,10.31-20.11,15.79S626.75,419.8,626.81,416.81Z" transform="translate(-354.46 -10.18)"/><path class="cls-1" d="M638.36,393.12s2.46-4.65,2.75-5.15,5.75-4.57,15.4-4.82,13.89,3,13.89,3.53-3.61,6.9-3.61,6.9A33.73,33.73,0,0,0,638.36,393.12Z" transform="translate(-354.46 -10.18)"/><path class="cls-1" d="M625.6,358a14.43,14.43,0,0,1,12.13-1.32s5.66-3.23,10.56-.7,7.56,14.51,4.57,21.65-9.64,3.69-9.64,3.69-4.88,3-9.17,2.12-4.63-2.42-4.63-2.42S637.24,367.27,625.6,358Z" transform="translate(-354.46 -10.18)"/><path class="cls-1" d="M644,381.6c0,.07.61,2.62,1.14,2.3s21.45-4.41,23.19-4-.83-8.9-1.08-9.06S646.58,378.22,644,381.6Z" transform="translate(-354.46 -10.18)"/><path class="cls-1" d="M637.73,356.64s10.48,6.48,5.32,23.93" transform="translate(-354.46 -10.18)"/><path class="cls-1" d="M665.83,372.93c.36-.54-6.82-6.66-10.81-6.16s-19.67,10.39-21,14.51,10.09,2.41,11.62,2.26S664.42,375,665.83,372.93Z" transform="translate(-354.46 -10.18)"/><path class="cls-1" d="M641.11,377.39s8.51-5.79,9.18-5.79,5.07,2.49,5.07,2.49-8.16,6-9.11,5.73S640.41,377.86,641.11,377.39Z" transform="translate(-354.46 -10.18)"/><path class="cls-1" d="M455.29,159.65s3.62,3.49,1.75,14.84-7.48,32.66-26.56,25.3,3.37-40.7,3.37-40.7S441.7,149.92,455.29,159.65Z" transform="translate(-354.46 -10.18)"/><path class="cls-1" d="M396.84,145.44l8.09,60.34s1.74,5.24,14.71,6.48,16.7-5.23,16.7-5.23l8-61.59Z" transform="translate(-354.46 -10.18)"/><path class="cls-1" d="M395.7,140.44s-2.25,1.59-3.45,6.08c0,0,7,6.9,29.76,6.27s27.22-6.15,27.22-6.15l-2.83-6.2S424.29,146.34,395.7,140.44Z" transform="translate(-354.46 -10.18)"/><path class="cls-1" d="M398.53,142.43v-8.22h43.88s2.49,8.4,1.91,9.11S418.14,149.16,398.53,142.43Z" transform="translate(-354.46 -10.18)"/><path class="cls-1" d="M456.93,163s0-7.38-9.86-11.62-21.7-5.86-25.06,1.37c-4,8.53,9.35,16.71,24.93,14.21" transform="translate(-354.46 -10.18)"/><path class="cls-1" d="M399.81,183.71s-3.11,2.49-2.74,7.73,11.6,6.11,18.08,4.61,10.1-9.6,2.37-13S399.81,183.71,399.81,183.71Z" transform="translate(-354.46 -10.18)"/><path class="cls-1" d="M397.82,171.74s-5.61,4.62-2.24,11.1,20.11,3.49,23.81.5,5-11-3-12.59S397.82,171.74,397.82,171.74Z" transform="translate(-354.46 -10.18)"/><path class="cls-1" d="M392.33,163.76s-2,10.6,13.22,10.85,17.66-5.74,15.75-10.85-9.18-5.92-16.12-6.13C398.44,157.43,393.33,158.78,392.33,163.76Z" transform="translate(-354.46 -10.18)"/><path class="cls-1" d="M634.54,136.24s51.4,11.94,64.87,77.52S658,327.43,624.1,336.42s-63.58,5.75-74.05-1.48-18.21-24.68-15-39.4S633.26,135.27,634.54,136.24Z" transform="translate(-354.46 -10.18)"/><path class="cls-1" d="M597.16,130.23s27.19-9.55,50.63,17.66,17.46,89.56-17.45,141.42-89.52,47.88-98,46.38a29.65,29.65,0,0,1-13.84-6.48s14.28-38.65,20.17-42.64,62.74-51.87,65-57.35S597.16,130.23,597.16,130.23Z" transform="translate(-354.46 -10.18)"/><path class="cls-1" d="M694.93,197.38s-6.74,12.54-14.72,21.19c0,0-1.9,49.12-31.92,84.21,0,0-3,18.76-13.84,30" transform="translate(-354.46 -10.18)"/><path class="cls-1" d="M648.29,302.78s-24.6,17.07-47.58,16.39" transform="translate(-354.46 -10.18)"/><path class="cls-1" d="M665.46,275.84s-15.29,2.25-26.83,0" transform="translate(-354.46 -10.18)"/><path class="cls-1" d="M676.82,241.93S665,227.6,658.38,224.67" transform="translate(-354.46 -10.18)"/><path class="cls-1" d="M680.21,218.57s-.28-31.44-23.08-54.16" transform="translate(-354.46 -10.18)"/><path class="cls-2" d="M595.43,299.53s4.36,11.1-17.21,22.32-38,2.49-38.55-5.61,3.89-28.43,21.47-33.79S594.56,290.06,595.43,299.53Z" transform="translate(-354.46 -10.18)"/><path class="cls-2" d="M607.12,144c.39.14,15.82-3.27,29.45,11.36s27.1,51.86,3.74,69.15-29-17.62-29-22.77S607.12,144,607.12,144Z" transform="translate(-354.46 -10.18)"/><path class="cls-1" d="M687.44,253.07s-7.81,8-7.23,13.8,1.24,15.8,7.47,17.21c0,0,.28,7.89,7.25,11.38s11.79,0,11.79,0,1,1.94,9,1.55,9.31-5.94,9.31-5.94,5.48,2.23,10.47-3.26,6.15-15.29,4.65-18.78-17.78-22.63-21.77-23.37S687.44,253.07,687.44,253.07Z" transform="translate(-354.46 -10.18)"/><path class="cls-1" d="M692.09,241.93s-7.14,3.5-6.65,9.48,8,10,22.45,5.49,18.78-18.12,1.49-20.29S692.09,241.93,692.09,241.93Z" transform="translate(-354.46 -10.18)"/><path class="cls-1" d="M617.92,197.38s47.33-5.09,73.51,48.28c0,0,2.24,6,12,4.25s8.47-10.85,8.47-10.85-24.22-57.78-87.37-62.48c0,0-5.22-.81-8.71,6.26S614.05,196.22,617.92,197.38Z" transform="translate(-354.46 -10.18)"/><path class="cls-1" d="M570.24,172.37s-32.16,6.48-51.74,57.1-17.33,83.53,0,99.74c0,0,13.54-10.48,21.17-13,0,0-1.42-16,23.05-23.69s32.71,7,32.71,7,28.42-15.95,44.88-75c0,0-8.48,6.23-17.7-6.73s-6.24-41.06,11.72-47.46l-8.43-4.13s-2.79-7.76-25.73-1.77S570.24,172.37,570.24,172.37Z" transform="translate(-354.46 -10.18)"/><path class="cls-1" d="M581.44,182.84S548.8,221,535.09,279.09" transform="translate(-354.46 -10.18)"/><path class="cls-4" d="M508.5,314s12.92,24.25,69.33,16.47c0,0,.07,11.37,38.13,7.86,0,0-39.46,9.65-64.12-2.33C551.84,336,518.89,343.93,508.5,314Z" transform="translate(-354.46 -10.18)"/><path class="cls-1" d="M548.14,254.65s16.87,12.47,37.07,6.23" transform="translate(-354.46 -10.18)"/><path class="cls-1" d="M517.84,252.91s2.78,4.48,19.74,0" transform="translate(-354.46 -10.18)"/><path class="cls-1" d="M566.67,212.26S581,223.48,610.39,216" transform="translate(-354.46 -10.18)"/><path class="cls-1" d="M533.84,207s3.57,7,24.1,4" transform="translate(-354.46 -10.18)"/><path class="cls-1" d="M518.5,380.24s3.87,24.1-9.43,35.41-99.57-22.78-103.89-35.41,21.44-26.1,38.06-24.1,44.55,7,45.38,7.14S518.5,380.24,518.5,380.24Z" transform="translate(-354.46 -10.18)"/><path class="cls-1" d="M583.11,291.18s-55,9.35-85.43,64.21c0,0,0,15.71,20.82,10.22,0,0,22.53-38.14,75.66-57.47,0,0,5.43-6.59-2.08-12.4S583.11,291.18,583.11,291.18Z" transform="translate(-354.46 -10.18)"/><path class="cls-1" d="M496.52,350.24a23.3,23.3,0,0,0,9.23,9.72A34.76,34.76,0,0,0,521,363.78c1.16-.08,4.82,7.82-1,12.47,0,0,1.08,10.14-7,11.89s-25.77-3.83-31.34-10-2.11-15.71,1.22-16.29c0,0-1.72-1.33,3-7.89S496.52,350.24,496.52,350.24Z" transform="translate(-354.46 -10.18)"/><path class="cls-1" d="M441.42,412.83s31.95,15.62,61.75,17.61c0,0,4.84-2.35,7.22-16a81.78,81.78,0,0,1-29.91-1.6c-15.84-4-36.71-12.52-36.71-12.52S435.28,409.18,441.42,412.83Z" transform="translate(-354.46 -10.18)"/><path class="cls-1" d="M482.86,361.87S498.1,383,520,376.25" transform="translate(-354.46 -10.18)"/><path class="cls-1" d="M423,396.2s28.1-13,31.75-12.8S517,402.93,517,402.93a31.88,31.88,0,0,1-2.85,6.59S460.53,393,457.7,392.87s-17.62,10-18.28,10.14S422.76,398.75,423,396.2Z" transform="translate(-354.46 -10.18)"/><path class="cls-1" d="M398.07,389.05s1.42-10.34,6.62-16c0,0,24.27,18.77,40.87,26.09,0,0-3.36,13.06-4.85,15.05S410.29,402.52,398.07,389.05Z" transform="translate(-354.46 -10.18)"/><path class="cls-1" d="M442.08,354.86s4.07,4.35.66,12.5c0,0,5.66,1.66,8.81,1.33,0,0,1.92-8.51-.66-12.75Z" transform="translate(-354.46 -10.18)"/><path class="cls-1" d="M455.47,356.61s4.08,4.35.67,12.5c0,0,5.65,1.66,8.81,1.33,0,0,1.91-8.51-.67-12.75Z" transform="translate(-354.46 -10.18)"/><path class="cls-1" d="M467.93,358.53s4.08,4.35.67,12.49c0,0,5.65,1.67,8.81,1.33,0,0,1.91-8.5-.67-12.74Z" transform="translate(-354.46 -10.18)"/><path class="cls-1" d="M687.68,284.08s-.74-8.61,3.58-12.74" transform="translate(-354.46 -10.18)"/><path class="cls-1" d="M687.63,268.53s4.66,1.66,7.3,7.81" transform="translate(-354.46 -10.18)"/><path class="cls-1" d="M706.72,295.46s2.43-4.15,5.21-9.31" transform="translate(-354.46 -10.18)"/><path class="cls-1" d="M725,291.07s3.49-6.58,3.16-10.4" transform="translate(-354.46 -10.18)"/><path class="cls-4" d="M570.85,353.71s11.46-8.58,25.21-9.48l-1.3-2.77s-17.94,1.32-30.91-1.39C563.85,340.07,567.22,349.7,570.85,353.71Z" transform="translate(-354.46 -10.18)"/><path class="cls-4" d="M509.38,207.1s10.79,6.16,5,22.8l4.15-.43a155.84,155.84,0,0,1,14.27-27.39A97.7,97.7,0,0,1,509.38,207.1Z" transform="translate(-354.46 -10.18)"/><path class="cls-1" d="M510.4,59.66S511,49.06,524,43.83,542.57,35.1,545.18,32,558,29,561.5,40.34c0,0,11.11-5.24,18.59.62s0,13.84,0,13.84,10.1,23.31-2,33.66C578.1,88.46,541,56.54,510.4,59.66Z" transform="translate(-354.46 -10.18)"/><ellipse class="cls-1" cx="154.99" cy="88.77" rx="19.28" ry="26.02"/><path class="cls-1" d="M496.26,79.26s.92-12.74,5-18.48,34.41-6.86,52.24,2.25,25.55,20,27.9,32.66c0,0-14.81-16.33-34.39-15.46s-48.38,5.1-50,3A4,4,0,0,1,496.26,79.26Z" transform="translate(-354.46 -10.18)"/><path class="cls-2" d="M502.42,100.05,497,98c.31-10.39,5.42-18.66,11.55-18.66,6.35,0,11.57,8.87,11.57,19.65s-5.22,19.65-11.57,19.65c-4.45,0-8.53-4.37-10.44-11.21Z" transform="translate(-354.46 -10.18)"/><path class="cls-1" d="M488.94,92.75s28.92-2.47,40.79.48c0,0-3.5-21.25-20.58-21.84s-19,17.82-19,17.82-2.91.59-2.69,1.89A2.17,2.17,0,0,0,488.94,92.75Z" transform="translate(-354.46 -10.18)"/><path class="cls-1" d="M529,88s-20.61,5-23.44,11.47-9.64,40.23-9.31,41.73,6.72,1.23,6.72,1.23-2.4,19.38,12.9,25.86,24.27,2,24.27,2S545,174.78,550.8,174c0,0,23.93,7.81,43.05-3.5,0,0,18.45-11.13,34.74-3.15,0,0,4.16-9.15-9.47-17.62s-15-3.33-19.78-14S584.87,87.5,561.93,81,529,88,529,88Z" transform="translate(-354.46 -10.18)"/><path class="cls-1" d="M503,142.43s12.77-.48,22.5-4" transform="translate(-354.46 -10.18)"/><ellipse class="cls-1" cx="185.54" cy="83.83" rx="21.5" ry="27.49"/><path class="cls-2" d="M548.61,94l-12.88-1c.34-11,6-19.72,12.88-19.72,7.07,0,12.89,9.37,12.89,20.76s-5.82,20.76-12.89,20.76c-5,0-9.52-4.62-11.65-11.85Z" transform="translate(-354.46 -10.18)"/><path class="cls-1" d="M529,127.38a30.82,30.82,0,0,1,14.29-15c6.31-3.15,15.3-5.34,22.19,1.15" transform="translate(-354.46 -10.18)"/><path class="cls-1" d="M517.13,87.46s32.25-2.62,45.49.5c0,0-3.9-22.44-23-23.06S518.5,83.72,518.5,83.72s-3.24.63-3,2A2.35,2.35,0,0,0,517.13,87.46Z" transform="translate(-354.46 -10.18)"/><path class="cls-4" d="M517.49,109.74c.22,3.91-.49,7.14-1.59,7.2s-2.17-3.06-2.39-7,.49-7.14,1.59-7.21S517.27,105.82,517.49,109.74Z" transform="translate(-354.46 -10.18)"/><path class="cls-4" d="M509.39,110.37c-.92,3.82-2.54,6.7-3.61,6.44s-1.19-3.56-.27-7.38,2.54-6.69,3.61-6.43S510.31,106.56,509.39,110.37Z" transform="translate(-354.46 -10.18)"/><path class="cls-1" d="M540.16,170.29s20-6,35.57-22.4" transform="translate(-354.46 -10.18)"/><path class="cls-1" d="M550.8,174s16.45.16,26.8-14.3" transform="translate(-354.46 -10.18)"/><path class="cls-1" d="M576.48,103.21a6,6,0,0,0,3.49.92c1.91-.17,5-1.91,7,2.91s1.5,16-5.24,16.7-6.81-1.91-6.81-1.91" transform="translate(-354.46 -10.18)"/><path class="cls-1" d="M525.49,138.45s4.48-2.24,11.34-9.47,12-11.35,19.33-6.48,8.47,16.45-5.36,27.92-28.11,5.93-31.67,0C516.14,145.44,518.38,140.32,525.49,138.45Z" transform="translate(-354.46 -10.18)"/><path class="cls-1" d="M524.5,138.75s1,12.07,7.59,18.29" transform="translate(-354.46 -10.18)"/><path class="cls-1" d="M531.36,134.21s6.14,13.72,16.78,18.21" transform="translate(-354.46 -10.18)"/><path class="cls-1" d="M538.67,127.08s12.78,3.12,19.5,15.35" transform="translate(-354.46 -10.18)"/><path class="cls-2" d="M584.71,113.33c0,3.48-1.06,6.3-2.37,6.3s-2.37-2.82-2.37-6.3S581,107,582.34,107,584.71,109.86,584.71,113.33Z" transform="translate(-354.46 -10.18)"/><path class="cls-1" d="M509.45,57.29s-3.4,3.19-4.53,14.38" transform="translate(-354.46 -10.18)"/><path class="cls-1" d="M518.5,56.37A37,37,0,0,0,516,72.93" transform="translate(-354.46 -10.18)"/><path class="cls-1" d="M529.73,57.29a29.84,29.84,0,0,0-2.66,11.12" transform="translate(-354.46 -10.18)"/><path class="cls-1" d="M541.07,59.35a22.18,22.18,0,0,0-1.4,5.55" transform="translate(-354.46 -10.18)"/><path class="cls-1" d="M552.49,62.51a16.66,16.66,0,0,0-1.35,6.14" transform="translate(-354.46 -10.18)"/><path class="cls-1" d="M562,68.65s2,10.17-.09,12.37" transform="translate(-354.46 -10.18)"/><path class="cls-1" d="M571.54,76s.78,7.77-.88,9.3" transform="translate(-354.46 -10.18)"/><path class="cls-1" d="M577.31,84s.29,4.59-1.35,6" transform="translate(-354.46 -10.18)"/><path class="cls-1" d="M515.86,56.5s2.52-6.19,8.75-8.43S541.07,35.5,541.07,35.5" transform="translate(-354.46 -10.18)"/><path class="cls-1" d="M523.73,56.37a19.93,19.93,0,0,1,7.62-7.68c5.61-3.37,15.38-18.3,23.34-17.26" transform="translate(-354.46 -10.18)"/><path class="cls-1" d="M559.22,35.5s-3-2.52-8.08.6-18.58,16.48-18.69,21" transform="translate(-354.46 -10.18)"/><path class="cls-1" d="M560.57,37.89s-4.41-1.17-10,5.44a154.26,154.26,0,0,0-10.88,15" transform="translate(-354.46 -10.18)"/><path class="cls-1" d="M561.5,40.34s-12,12.15-14.28,20" transform="translate(-354.46 -10.18)"/><path class="cls-1" d="M563.84,39.45a5.83,5.83,0,0,1,0,7.87c-3.44,4.36-2,16.33-4.09,19.2" transform="translate(-354.46 -10.18)"/><path class="cls-1" d="M568.49,38.38s4.46,5,2.17,9.67.34,19.34-1.91,25.2" transform="translate(-354.46 -10.18)"/><path class="cls-1" d="M576,38.83s3,5.87.68,9.86-1.57,13.39,0,19.72S577.19,80,576,81.69" transform="translate(-354.46 -10.18)"/><path class="cls-4" d="M611.78,164.62s-7.13,2.52-15.44,10-34.5,13.69-36.57,8.47,1.73-7,1.73-7,5.75,2.48,18.47-.5S600.29,165.44,611.78,164.62Z" transform="translate(-354.46 -10.18)"/><path class="cls-4" d="M443.57,167.46s-6.95,25,1.41,31.85a15.39,15.39,0,0,1-7.89,2l4.38-33.83Z" transform="translate(-354.46 -10.18)"/><path class="cls-4" d="M459.06,213.66s2.38-11,9.53-16.95L465,193.9s-1.77,10.79-12.32,12.46A40.53,40.53,0,0,0,459.06,213.66Z" transform="translate(-354.46 -10.18)"/><path class="cls-4" d="M419.7,193.9s1.5,5.57-5.42,7.39-10,0-10,0l-.67-5S412.09,198.86,419.7,193.9Z" transform="translate(-354.46 -10.18)"/><path class="cls-3" d="M581,136.1a3.39,3.39,0,0,0,6-1.78" transform="translate(-354.46 -10.18)"/><path class="cls-3" d="M589.31,130.36a2.81,2.81,0,0,0,4.32-1.77" transform="translate(-354.46 -10.18)"/><path class="cls-3" d="M589.13,140a2.37,2.37,0,0,0,4.24-.94" transform="translate(-354.46 -10.18)"/><path class="cls-3" d="M588.19,152.43a2.84,2.84,0,0,0,4.86-2.26" transform="translate(-354.46 -10.18)"/><path class="cls-3" d="M596.56,149.15a2.11,2.11,0,0,0,2.61-2.34" transform="translate(-354.46 -10.18)"/><path class="cls-3" d="M631.74,186.92a2.45,2.45,0,0,0,4.06-2.45" transform="translate(-354.46 -10.18)"/><path class="cls-3" d="M639.57,185.65a1.77,1.77,0,0,0,2.1-.63,5.39,5.39,0,0,0,.83-2.21" transform="translate(-354.46 -10.18)"/><path class="cls-3" d="M652.46,199.84a3,3,0,0,0,4.71-2.68" transform="translate(-354.46 -10.18)"/><path class="cls-3" d="M677.68,211.43a2.59,2.59,0,0,0,5-.65" transform="translate(-354.46 -10.18)"/><path class="cls-3" d="M686,213a2.82,2.82,0,0,0,3.57-.26,2.8,2.8,0,0,0,.19-3.57" transform="translate(-354.46 -10.18)"/><path class="cls-3" d="M689.2,233.87a2.35,2.35,0,0,0,2.13,1.15,2.38,2.38,0,0,0,2-1.37" transform="translate(-354.46 -10.18)"/><path class="cls-3" d="M694.79,235.91a2.34,2.34,0,0,0,2,1.52,2.37,2.37,0,0,0,2.19-1.2" transform="translate(-354.46 -10.18)"/><path class="cls-3" d="M698.12,231.51a2,2,0,0,0,3.43-1.55" transform="translate(-354.46 -10.18)"/><path class="cls-3" d="M503.3,218.84a3.13,3.13,0,0,0,4.39,4.33" transform="translate(-354.46 -10.18)"/><path class="cls-3" d="M497.42,214.74a2.25,2.25,0,0,0,2.23,3.62" transform="translate(-354.46 -10.18)"/><path class="cls-3" d="M489.78,214.1a2.45,2.45,0,0,0,1.18,4.31" transform="translate(-354.46 -10.18)"/><path class="cls-3" d="M479.4,214.71a5,5,0,0,0,4.32,7.45" transform="translate(-354.46 -10.18)"/><path class="cls-3" d="M493.75,223.22a3.31,3.31,0,0,0,4.7,1.79" transform="translate(-354.46 -10.18)"/><path class="cls-3" d="M474.49,204.13a3,3,0,0,0-3.05,2.89" transform="translate(-354.46 -10.18)"/><path class="cls-3" d="M466.73,210.5a4,4,0,0,0,2.8,4.91" transform="translate(-354.46 -10.18)"/><path class="cls-3" d="M566.33,300.6a2.39,2.39,0,0,0,2.64,3.85" transform="translate(-354.46 -10.18)"/><path class="cls-3" d="M571.2,307a3.35,3.35,0,0,0,4,3.2" transform="translate(-354.46 -10.18)"/><path class="cls-3" d="M553.62,305.81a2.1,2.1,0,0,0,2.41,2.94" transform="translate(-354.46 -10.18)"/><path class="cls-3" d="M552.86,314.57a2,2,0,0,0,1.68,3.44" transform="translate(-354.46 -10.18)"/><path class="cls-3" d="M535.6,317.74a3.45,3.45,0,0,0,3.47,4.14" transform="translate(-354.46 -10.18)"/><path class="cls-3" d="M539.16,325a2.57,2.57,0,0,0,2.67,4" transform="translate(-354.46 -10.18)"/><path class="cls-3" d="M532.7,324.7a2.66,2.66,0,0,0,2.63,2.9" transform="translate(-354.46 -10.18)"/><path class="cls-3" d="M521.34,332.44a3,3,0,0,0,3,3.73" transform="translate(-354.46 -10.18)"/><path class="cls-3" d="M525.92,339.68a2.45,2.45,0,0,0,3.94,1.76" transform="translate(-354.46 -10.18)"/><path class="cls-3" d="M516.35,343.17a2.44,2.44,0,0,0,3.24,2.41" transform="translate(-354.46 -10.18)"/><path class="cls-3" d="M508.9,349.9a3.89,3.89,0,0,0,4.73,3.69" transform="translate(-354.46 -10.18)"/><path class="cls-3" d="M578.2,355.76a2.78,2.78,0,0,0,5.21-1.37" transform="translate(-354.46 -10.18)"/><path class="cls-3" d="M587.6,352.49a2.86,2.86,0,0,0,4.95-2.08" transform="translate(-354.46 -10.18)"/><path class="cls-3" d="M588.66,357.9a2.79,2.79,0,0,0,4.92-.07" transform="translate(-354.46 -10.18)"/><path class="cls-3" d="M599,359.05a2.44,2.44,0,0,0,3.23-2.42" transform="translate(-354.46 -10.18)"/><path class="cls-3" d="M595,371.15a3,3,0,0,0,1.39-4" transform="translate(-354.46 -10.18)"/><path class="cls-3" d="M600.66,371.6a2.59,2.59,0,0,0,2.73-2" transform="translate(-354.46 -10.18)"/><path class="cls-3" d="M609.89,370.66a3.65,3.65,0,0,0,3.66-4" transform="translate(-354.46 -10.18)"/><path class="cls-3" d="M619.62,365.89a1.7,1.7,0,0,0,.45-2.95" transform="translate(-354.46 -10.18)"/><path class="cls-3" d="M621.1,374.26a3.38,3.38,0,0,0,2.76-3.91" transform="translate(-354.46 -10.18)"/><line class="cls-3" x1="146.41" y1="132.26" x2="147.34" y2="124.14"/><line class="cls-3" x1="157.21" y1="131.43" x2="155.94" y2="125.16"/><line class="cls-3" x1="172.15" y1="127.11" x2="167.41" y2="119.54"/><path class="cls-1" d="M362.25,255.54s6.13-10.48,18.14-13,15.68.56,14.41,3.25-3.69,11.16-1.18,18.92S362.25,255.54,362.25,255.54Z" transform="translate(-354.46 -10.18)"/><path class="cls-1" d="M420.3,322a23.11,23.11,0,0,0,13.15-7.79c5.51-6.67,9.4-16.5,6.48-17.8s-18.16-.09-24.79-3.33S420.3,322,420.3,322Z" transform="translate(-354.46 -10.18)"/><path class="cls-1" d="M358,283.48s-5.49-18.52.6-28,34,4.51,36,7.83,1.7,8.61,1.51,9.17S358,283.48,358,283.48Z" transform="translate(-354.46 -10.18)"/><path class="cls-1" d="M393.81,328.93s6.1,3.45,15.67.56,14.19-4.83,13.32-10.49-7-26.64-8.56-28.6-2.1-4.69-4.55-4.24S393.81,328.93,393.81,328.93Z" transform="translate(-354.46 -10.18)"/><path class="cls-1" d="M411.26,286.61s-3.19,36.79-14.68,42.88-43-28.54-41.3-44.91,40.87-15.27,44.46-12.59S411.61,283.34,411.26,286.61Z" transform="translate(-354.46 -10.18)"/><ellipse class="cls-1" cx="394.75" cy="277.07" rx="9.37" ry="12.43" transform="translate(-438.73 210.88) rotate(-28.39)"/><path class="cls-2" d="M397.67,275.33,393.72,280c2.73,3.81,6.41,5.61,8.8,4.31,2.82-1.52,2.94-6.83.28-11.75s-7.17-7.73-10-6.21c-2.18,1.19-2.82,4.68-1.58,8.68Z" transform="translate(-354.46 -10.18)"/><path class="cls-1" d="M369.09,287.21c1.76,7.33,8,12.12,14,10.69s9.32-8.54,7.55-15.87-8-12.11-13.95-10.68S367.32,279.88,369.09,287.21Z" transform="translate(-354.46 -10.18)"/><path class="cls-2" d="M383.51,283.77l-6,4c1.88,4.8,5.47,7.7,8.59,6.94,3.67-.88,5.51-6.53,4.07-12.51s-5.64-10.17-9.32-9.28c-2.85.68-4.69,4.26-4.56,8.87Z" transform="translate(-354.46 -10.18)"/><path class="cls-1" d="M390.63,287.71s3-4.31,7.62-2.81,1.91,8.15-4,7.78S390.63,287.71,390.63,287.71Z" transform="translate(-354.46 -10.18)"/><path class="cls-1" d="M398.6,306.34s.92-4-1.64-5.49-4.63.55-10-1.45-10.08,1.35-9.19,6.11,6.51,7.25,10,7.22S397.46,310.77,398.6,306.34Z" transform="translate(-354.46 -10.18)"/><path class="cls-1" d="M379.32,302.62a2.69,2.69,0,0,1-1.05-.66c1.33-2.65,4.86-4,8.72-2.56,5.08,1.9,7.2.16,9.59,1.25-.07,1.29-.35,3.18-1.63,3.67-1.94.73-2.64-1.68-2.77-2.22a2.92,2.92,0,0,1-2.62,2.36c-2.2.11-2.49-3.32-2.49-3.32s-1.28,2.5-3.31,2.22a2,2,0,0,1-1.62-2.42S380.86,303.13,379.32,302.62Z" transform="translate(-354.46 -10.18)"/><path class="cls-1" d="M378.92,308.19a4.79,4.79,0,0,1,3.49-1.53,6.84,6.84,0,0,1,4.26,1.61,5.57,5.57,0,0,1,4.89-.29,4.33,4.33,0,0,1,2.59,3.19,15.48,15.48,0,0,1-6.31,1.56A11.54,11.54,0,0,1,378.92,308.19Z" transform="translate(-354.46 -10.18)"/><path class="cls-1" d="M385.83,307.67a9,9,0,0,1,2.85,3.55" transform="translate(-354.46 -10.18)"/><path class="cls-1" d="M756.54,226.64a4.15,4.15,0,0,1-3.93-.46c-5.81-4.13-23.49-17.79-25.32-32.36-2.21-17.47,9-26,17.76-25.4a19.21,19.21,0,0,1,17.18,12.18,18.53,18.53,0,0,1,17.18-9.25c12.19.59,16.89,14,14.54,22.18C791.65,201.57,787.52,214.54,756.54,226.64Z" transform="translate(-354.46 -10.18)"/><path class="cls-1" d="M762.29,192.58c-1.63,7.82-7.34,13.24-12.76,12.11s-8.49-8.38-6.86-16.2,7.35-13.25,12.76-12.12S763.92,184.76,762.29,192.58Z" transform="translate(-354.46 -10.18)"/><path class="cls-2" d="M749.21,189.85l4.95,6c-1.9,3.81-4.77,5.92-7.32,5.39-3.58-.75-5.46-6.48-4.17-12.7s5.32-10.73,8.9-10c3.13.66,5,5.12,4.49,10.58Z" transform="translate(-354.46 -10.18)"/><ellipse class="cls-1" cx="767.75" cy="192.95" rx="14.47" ry="10.02" transform="translate(67.69 894.97) rotate(-78.22)"/><path class="cls-1" d="M760.92,208.51s3.12-4.3,7.57-4.75,8.17,1.77,9.47,3.61" transform="translate(-354.46 -10.18)"/><path class="cls-2" d="M764.47,192.26l5,6c-1.9,3.81-4.77,5.92-7.32,5.39-3.59-.75-5.47-6.49-4.17-12.71s5.32-10.73,8.9-10c3.13.65,5,5.12,4.49,10.58Z" transform="translate(-354.46 -10.18)"/><path class="cls-3" d="M754.14,212.54a8.72,8.72,0,0,0,8.35,2.29c5.36-1.19,7-6.42,7-6.42" transform="translate(-354.46 -10.18)"/><path class="cls-3" d="M767.24,208s4.31.18,5.27,1.1" transform="translate(-354.46 -10.18)"/></svg>