<svg id="OBJECTS" xmlns="http://www.w3.org/2000/svg" viewBox="0 0 412.72 473.57"><path d="M398.18,0c-.65.63-1.28,1.26-1.94,1.88A46.87,46.87,0,0,0,390.58,8a26.61,26.61,0,0,0-5.3,12,24.93,24.93,0,0,0,.51,10q1.09,4.4,2.49,8.72c1.61,5,3.86,9.74,4.83,15l4.39.77c13.55,2.35,25,8.76,34.85,18.17a112.06,112.06,0,0,1,20.39,26.3,77.71,77.71,0,0,1,8.33,23.49,69,69,0,0,1,1.25,15.51,63.17,63.17,0,0,1-7.48,27.34,145.45,145.45,0,0,1-12.16,18.87q-5.79,7.78-11.46,15.66a113.26,113.26,0,0,0-11.28,19.38c-.38.82-.7,1.66-1.09,2.57.28.34.55.69.84,1a53.31,53.31,0,0,1,12.81,28.59A54.6,54.6,0,0,1,429,279.15a2.77,2.77,0,0,0,.13,2.52c3.08,6.14,6.2,12.27,9.11,18.5a115.81,115.81,0,0,1,9.51,33.27,47.61,47.61,0,0,1-1.45,21.25,51,51,0,0,1-9.13,16.84,92.3,92.3,0,0,1-12.28,12.17A116.18,116.18,0,0,1,404.08,398a105.35,105.35,0,0,1-19.73,7.73c-1.73.51-3.46,1-5.19,1.49-.35.1-.69.22-1,.33.6,5.58-.61,10.9-1.89,16.17a106.94,106.94,0,0,1-9.53,25.06,31.39,31.39,0,0,1-4.27,6.43,19.49,19.49,0,0,1-2.87,2.65,7.45,7.45,0,0,1-6.42,1.2,5.13,5.13,0,0,1-2.36-1.24,1.56,1.56,0,0,0-.94-.42,10.25,10.25,0,0,1-5.05-1.75,31.87,31.87,0,0,1-6.82-6.14,44,44,0,0,1-7.47-11.62c-.08-.19-.18-.36-.35-.7-.34.39-.64.7-.91,1a102.26,102.26,0,0,1-12.48,13.17,86.74,86.74,0,0,1-43.13,20.48,142.73,142.73,0,0,1-28.39,1.55c-3.93-.14-7.85-.32-11.77-.58a138.89,138.89,0,0,1-46.74-11.41,198,198,0,0,1-18.55-9,77.19,77.19,0,0,1-17.28-13.06,58.7,58.7,0,0,1-6.73-8.43l-.56-.81a71.09,71.09,0,0,1-11.67.12,35.09,35.09,0,0,1-9.14-1.67c-.58-.2-1.16-.42-1.72-.67a4.36,4.36,0,0,1-2.84-3.45c-.25.26-.48.46-.67.68a4,4,0,0,1-3.34,1.51c-2.33-.16-4.66-.29-7-.6a262,262,0,0,1-25.8-4.8,71.19,71.19,0,0,1-15.35-5.45,32.46,32.46,0,0,1-5-3.05c-2.79-2.11-3.21-4-1.89-7.19a8.09,8.09,0,0,1,1.08-2.06,16.25,16.25,0,0,1,2-1.77c.37-3.76,2.2-7.12,4.44-10.28A36.66,36.66,0,0,1,80.87,380a45.22,45.22,0,0,1,18.42-4.67c.78,0,1.56,0,2.33.06a1.54,1.54,0,0,1,.82.2,1.88,1.88,0,0,1,.64.95c.07.43-.28.74-.74.82a32,32,0,0,1-3.73.65A41.57,41.57,0,0,0,72.67,389a25.38,25.38,0,0,0-6.9,10.16,11.11,11.11,0,0,0-.59,2.12A2.89,2.89,0,0,0,67,404.84a42.62,42.62,0,0,0,5,2.14c7.18,2.49,14.42,4.83,21.79,6.76,10.17,2.66,20.47,4.75,30.84,6.48.81.14,1.62.22,2.59.34.48-1,1-1.92,1.43-2.93,2-5.25,3.78-10.55,5.28-16,.4-1.45.95-2.87,1.43-4.3a5.3,5.3,0,0,1,5.3-3.79,16.92,16.92,0,0,1,5.7.72,3.62,3.62,0,0,1,2.83,3.7,23.36,23.36,0,0,1-.88,6.55,103,103,0,0,1-4.16,12.7c-.53,1.46-1.09,2.9-1.67,4.42,2.41,0,4.42-.7,5.51-3q1.13-2.38,2.07-4.85c5.08-13.17,10.1-26.36,16-39.19.08-.18.14-.38.27-.74l-36.63-15.25a3,3,0,0,1,1.58.13c3.14,1,6.32,2,9.41,3.19,8.61,3.27,17.18,6.61,25.61,10.33l.72.31c.91-2,2.07-3.89,2.53-6.06a2,2,0,0,0-1.13-2.36,10.91,10.91,0,0,0-1.34-.63q-12-4.74-23.95-9.49c-5.79-2.28-11.55-4.63-17.54-6.34q-4.89-1.39-9.86-2.48a13.85,13.85,0,0,0-5.37-.22,3.92,3.92,0,0,0-2.89,2,21.48,21.48,0,0,0-2,5.38,7,7,0,0,0,.94.15,60.74,60.74,0,0,1,19.08,4.3,6,6,0,0,1,.84.49,1.62,1.62,0,0,1-1.37.06c-3.89-.8-7.76-1.65-11.66-2.39-2.37-.44-4.77-.72-7.16-1.06a7.07,7.07,0,0,0-1,0l-.4,1.82c-.91,3.9-1.8,7.81-2.73,11.71-.18.79-.45,1.57-.71,2.35a9,9,0,0,1-.51,1c-.88-.35-.65-1-.57-1.49.35-2.18.67-4.37,1.11-6.53.77-3.69,1.58-7.36,2.46-11a31.45,31.45,0,0,1,1.41-4.31c1-2.5,1.86-3.33,4.41-4.49-.3-.35-.57-.68-.86-1A156,156,0,0,0,97,331.11c-6.16-5.32-12.41-10.56-18.53-15.92a102.74,102.74,0,0,1-15-15.82A68.42,68.42,0,0,1,50.19,267.9,63.23,63.23,0,0,1,50,252.59a86.52,86.52,0,0,1,3.59-17.52A64.55,64.55,0,0,1,65.3,213.93c4.16-5.19,8.87-9.86,13.4-14.7l8.47-9.06c.3-.33.56-.69.92-1.12-.5-.55-1-1.06-1.43-1.56a124.66,124.66,0,0,1-13-16,45.64,45.64,0,0,1-5.91-12.08,20,20,0,0,1-.18-11.61,23.23,23.23,0,0,1,7.92-12.41,17.88,17.88,0,0,1,9.78-3.91,14.33,14.33,0,0,1,10,3c.38.29.77.56,1.34,1A86.8,86.8,0,0,1,97,119a74.52,74.52,0,0,1,4.3-15.64c-.3-.22-.54-.43-.81-.59a17.82,17.82,0,0,1-4.92-4.39,1.61,1.61,0,0,0-1.66-.7,36.71,36.71,0,0,1-10.15-.13,8.87,8.87,0,0,1-2.32-.75c-1.61-.79-1.93-2.15-.78-3.5a11,11,0,0,1,2.31-2,34.83,34.83,0,0,1,7.54-3.54l1-.34c.25-7.39,3.32-13.23,10-16.68s13.11-2.72,19.2,1.76l.78-.73c2.13-2,4.24-4,6.4-5.92a1.67,1.67,0,0,0,.56-1.5,34.83,34.83,0,0,1,5.49-21.27,35.6,35.6,0,0,1,28-16.85,32.71,32.71,0,0,1,15.72,2.54,24.87,24.87,0,0,1,2.62,1.34,5.65,5.65,0,0,1,.89.78c-.58.5-1,.16-1.38,0-1.44-.48-2.85-1-4.29-1.5-1-.34-1-.32-1.67.61s-1.36,2-2,3.08a5.74,5.74,0,0,1-4.3,2.75,26,26,0,0,1-3.05.25c-2.87,0-5.73,0-8.6,0-5.88,0-9.91,2.83-12.27,8.15-.25.56-.47,1.14-.72,1.7A10.1,10.1,0,0,1,140,49.6a25.36,25.36,0,0,1-7.69,4.27,1.9,1.9,0,0,0-1.51,1.79c-.12,1.42-.37,2.84-.54,4.26a5.72,5.72,0,0,0,0,.82c.15,0,.25,0,.3,0a33.68,33.68,0,0,1,7.13-3.24,38.93,38.93,0,0,0,9.39-5,16.7,16.7,0,0,0,4.57-4.9,17.72,17.72,0,0,1,13.35-9,46.38,46.38,0,0,0,6-1.23,58.65,58.65,0,0,1,6.24-1.2,17.92,17.92,0,0,0,6.25-2.7,3,3,0,0,1-.53-.65,3.49,3.49,0,0,1-.21-.86c.26,0,.52,0,.77,0a2.44,2.44,0,0,1,.47.17,54,54,0,0,1,13-5.37,33.54,33.54,0,0,1,9-1.24,93.47,93.47,0,0,1,16.62,1.32,44.64,44.64,0,0,1,13.65,5c3.95,2.15,7.74,4.59,11.63,6.85,4.43,2.58,8.51,5.67,12.68,8.63a50.8,50.8,0,0,0,14.54,7.53A63.37,63.37,0,0,0,286.34,57a147.87,147.87,0,0,0,23.05.54c1.15,0,2.3-.11,3.44-.08a1.54,1.54,0,0,0,1.57-.93,23.23,23.23,0,0,0,1.68-3.93c.64-2.53,1-5.13,1.52-7.7.09-.48.15-1,.25-1.45a.87.87,0,0,1,.82-.78.89.89,0,0,1,1,.73c.17.8.24,1.61.38,2.42.24,1.45.41,2.92.78,4.34a11.8,11.8,0,0,0,3.31,5.65,2.15,2.15,0,0,0,1.87.62c8.42-1,16.83-2,25.26-2.81a204.83,204.83,0,0,1,22.43-1.14h1.77c-.09-.69-.15-1.28-.25-1.86A72.53,72.53,0,0,0,371,37.17a91.26,91.26,0,0,1-3.7-10.53,31.79,31.79,0,0,1-.11-16.46A26.84,26.84,0,0,1,371.72.84a5.07,5.07,0,0,0,.42-.84h2.95c-.16.36-.31.74-.5,1.09-.66,1.3-1.34,2.59-2,3.85a1.6,1.6,0,0,0,.29.24,25.24,25.24,0,0,0,13.68,2.5,1.69,1.69,0,0,0,1.29-.77,42.86,42.86,0,0,1,5.5-6.08A6.61,6.61,0,0,0,394,0ZM259.08,74.18A11.45,11.45,0,0,1,266,69c2-.51,4-.8,6-1.18.33-.06.67-.1,1-.15a2.06,2.06,0,0,0-.85-.6A23.11,23.11,0,0,0,266,65.57a103.6,103.6,0,0,0-16.43-.18,26.81,26.81,0,0,0-7.81,1.45,12.52,12.52,0,0,0-8,11,4.32,4.32,0,0,0,2.71,4.26,16.52,16.52,0,0,0,3.66.93,67.85,67.85,0,0,0,14.94-.06c.75-.07,1.5-.18,2.2-.27a29.72,29.72,0,0,1,0-3.29,16.11,16.11,0,0,1,1.73-5.2Zm20.56,334.74c-1.6-.15-3.07-.25-4.52-.44a59.35,59.35,0,0,1-14.24-3.57,28.3,28.3,0,0,1-15.48-13.64c-.26-.51-.56-1-.81-1.52-2.36-5.08-4.86-10.11-7.05-15.26s-3.91-10.15-5.85-15.23l-.47-1.28a5,5,0,0,1-3.22.09c-1.82-.26-3.65-.47-5.47-.7-1.3-.16-2.6-.28-3.89-.49a1.31,1.31,0,0,1-1.22-.85c.38,0,.68-.11,1-.11,1.76,0,3.52,0,5.28.08,2.43.12,4.88.19,7.21,1.27,0-.23,0-.42,0-.62a3.06,3.06,0,0,1,0-.61c.12-.52.54-.65.9-.27a3.41,3.41,0,0,1,.48.71c.94,1.86,1.92,3.7,2.78,5.6,2,4.28,3.83,8.59,5.74,12.89.19.43.43.84.63,1.2l18-7.52c2-.83,4-1.62,6-2.45a2,2,0,0,1,2.54.86c.18.22.32.48.49.71,1,1.38,1.91,2.76,2.88,4.12a29.9,29.9,0,0,0,10.35,8.88,25.92,25.92,0,0,0,3.89,1.46c1.08.38,2.18.69,3.26,1.07.53.19,1,.51.62,1.27a7.08,7.08,0,0,0-1.78.18,6.72,6.72,0,0,1-4.55-.38,27.16,27.16,0,0,1-8.61-5.34,21.78,21.78,0,0,1-5.1-6.24c-.92-1.71-1.77-3.46-2.6-5.09-8,3.74-16.36,6.82-24.81,9.79.15.35.27.69.43,1,1.07,2.29,2.11,4.61,3.25,6.87s2.17,4.23,3.36,6.28a22.92,22.92,0,0,0,8.47,8.35,40.63,40.63,0,0,0,8.7,3.63,1.45,1.45,0,0,0,.82.05c1.91-.72,3.85-1.39,5.71-2.23a46.13,46.13,0,0,0,17.1-13.08,3.56,3.56,0,0,1,.77-.78.88.88,0,0,1,.76-.09.83.83,0,0,1,.22.73,6.83,6.83,0,0,1-.65,1.58,18.28,18.28,0,0,1-3.62,4.63,45.85,45.85,0,0,1-12.16,8.42l-4,1.85a4.16,4.16,0,0,0,.77.28c1.13.2,2.26.37,3.39.54,2,.3,4,.29,5.91,1,.48.19,1.1.22,1.17.9s-.53.76-.91,1a1.25,1.25,0,0,0-.18.3c.14.37.3.8.52,1.36a14.37,14.37,0,0,0,2.66-2.92c5-7,10.07-13.94,14.83-21.09,4.52-6.77,8.69-13.77,13-20.69.81-1.32,1.52-2.71,2.26-4.08a6,6,0,0,0,.33-.91c-.58-.24-1.08-.41-1.55-.64-2.93-1.36-5.86-2.72-8.77-4.12A8.07,8.07,0,0,1,300,349.6a43.12,43.12,0,0,1-.71-6.2,176.76,176.76,0,0,1,.71-21.34c.29-3.22.52-6.44.77-9.66q.45-6,.86-12c.12-1.71-.06-3.45,1.09-5.09h-.89c-1.67.12-3.34.3-5,.36-4.75.19-9.49.42-14.24.48q-10.62.15-21.24.07-20.56-.15-41.14-.45c-6-.09-12-.31-18-.55-3.84-.16-7.68-.45-11.51-.72-2.61-.19-5.22-.44-7.82-.64-2.82-.22-5.63-.4-8.45-.59-.31,0-.77,0-.91.14a1.41,1.41,0,0,1-1.63.4,3.52,3.52,0,0,0-1.08.17c-1.38.17-2.75.35-4.13.48-.94.09-1.89,0-2.82.16a110.2,110.2,0,0,0-14.18,2.85,4.56,4.56,0,0,0-.76.36c2.56.47,5,.85,7.39,1.35a58.27,58.27,0,0,1,11.68,3.68,26.35,26.35,0,0,1,3.8,2.22,6.78,6.78,0,0,1,2.49,3.28c.33.86.26,1-.58,1.61a5.87,5.87,0,0,1-.46-.52A13.1,13.1,0,0,0,168,305c-1.12-.5-2.25-1-3.4-1.41a117,117,0,0,0-18.54-4.67,3.18,3.18,0,0,0-1.44.07,35.68,35.68,0,0,0-13.06,7.59,25.47,25.47,0,0,0-4.72,5.47,90,90,0,0,0-8.7,18.1,7,7,0,0,0-.2.88c1.27.13,2.47.17,3.62.39,5.26,1,10.53,2,15.76,3.14a57.19,57.19,0,0,1,11.38,3.36c.57.26,1.29.34,1.4,1.32-.42.05-.8.12-1.19.13a7.66,7.66,0,0,0-1.58-.05,6.71,6.71,0,0,1-3.15-.26c-.71-.19-1.41-.42-2.12-.6l-22.87-5.66-1.85-.44c-1.19,3.48-2.35,6.87-3.54,10.33.35.07.58.12.81.15,1.14.15,2.28.25,3.4.45a99.58,99.58,0,0,1,15.38,4.18c9,3.14,17.78,6.64,26.55,10.26,2.79,1.15,5.62,2.19,8.5,3.31.19-.5.33-.92.51-1.32,1.33-3,2.63-6.08,4-9.09.62-1.33,1.54-1.51,2.74-.68a8,8,0,0,1,3.58-.64,81.11,81.11,0,0,1,19.18,1.34c4.75.81,9.44,2,14.14,3.07a6.83,6.83,0,0,1,1.56.71c.39.2.7.55.53,1a1.48,1.48,0,0,1-.73.71,4.61,4.61,0,0,1-2.89.18c-3.81-.79-7.6-1.61-11.42-2.35A196,196,0,0,0,176,350.88c-1.94,3.67-3.88,7.35-5.81,11a.76.76,0,0,0,.09.17c.11.12.23.23.35.34a5,5,0,0,1,1.6,5.22,24.56,24.56,0,0,1-1.16,3.35c-.83,1.92-1.75,3.79-2.6,5.7-5.18,11.49-9.68,23.26-14.46,34.92-1,2.53-2,5.09-3.17,7.58a9.36,9.36,0,0,1-2,2.93,5.3,5.3,0,0,0-1.8,3.23,19.78,19.78,0,0,1-1.51,4,55.43,55.43,0,0,0,6.45,8.27A73.92,73.92,0,0,0,169,450.5a196.59,196.59,0,0,0,19,9.19,137,137,0,0,0,46.66,11.16c5,.32,10,.51,15,.58a135.73,135.73,0,0,0,23.13-1.49A84.83,84.83,0,0,0,314,451.09a107.23,107.23,0,0,0,14.29-14.84,2.79,2.79,0,0,0,.6-3.17,28.79,28.79,0,0,1-.95-3.68l-.17-.65c-1.31-.37-2.5-.66-3.66-1-2-.66-4-1.43-6.05-2-5.41-1.6-10.84-3.12-16.27-4.67a99.46,99.46,0,0,1-16.49-5.93,28.67,28.67,0,0,1-3.89-2.31,3.67,3.67,0,0,1-1.67-3.37A2.7,2.7,0,0,0,279.64,408.92Zm26.8-140.81c0-1.36,0-2.54,0-3.71-.09-5.32-.28-10.64-.27-16,0-16.9.1-33.81.07-50.72,0-2.93-.39-5.87-.67-8.79a23.75,23.75,0,0,0-.64-2.87c-.09-.42-.38-1,.14-1.22s.82.36,1.08.75a4.14,4.14,0,0,1,.55,1.09,40.36,40.36,0,0,1,1.07,4,89.06,89.06,0,0,1,1.16,13.93c.17,5.15.22,10.31.27,15.47.05,4.87,0,9.74.05,14.61,0,.43,0,.86.07,1.43a24.31,24.31,0,0,0,2.3-.88c2.89-1.5,5.22-3.51,6.11-6.82a14.37,14.37,0,0,1,.79-1.92,21.28,21.28,0,0,0,.94-2.27c2.22-7.46,4.26-15,4.68-22.78a50.36,50.36,0,0,0-.62-13.09,9.37,9.37,0,0,0-1.47-3.44c-.89-1.29-4-2.35-5.44-1.65a7.82,7.82,0,0,1-2.23.64,44.58,44.58,0,0,1-9.31.24c-2.56-.19-5.07-.6-6.68-2.85a17.6,17.6,0,0,1-2.54,2.2,17.92,17.92,0,0,1-3.92,1.69,61.53,61.53,0,0,1-11.6,2c-3.66.36-7.33.72-11,.94-3,.18-6.05.2-9.08.2a28.41,28.41,0,0,1-3.66-.39c-.32-.05-.74-.09-.77-.72l1.73-.08c2.9-.09,5.82,0,8.71-.3,5.21-.45,10.42-1,15.62-1.65,3.11-.4,6.21-1,9.28-1.72a8.63,8.63,0,0,0,6.41-5c.15-.34.31-.77.76-.65s.61.61.54,1.09-.15.88-.24,1.34a9.63,9.63,0,0,0,3.81,1.71,31.32,31.32,0,0,0,8.32.14,1,1,0,0,0,.62-.3,6.88,6.88,0,0,0,2-4.59c0-2.62.16-5.24.2-7.86.1-5.89.15-11.78.26-17.67.05-2.62.22-5.24.36-7.85a9.28,9.28,0,0,1,.26-1.32,1.33,1.33,0,0,1,.85,1.27,20.41,20.41,0,0,1,.27,2.8c0,9.5,0,19-.07,28.49,0,2.25.16,4.6-1.43,6.76l2.42-.16c.41,0,.89-.22,1.2-.06a1.14,1.14,0,0,0,1.72-.48,2,2,0,0,1,.58-.45,12.53,12.53,0,0,0,5-6.63,30.07,30.07,0,0,0,1.35-9.31c.22-6.14.13-12.28-.16-18.41-.08-1.6-.12-3.2-.32-4.78a22.37,22.37,0,0,0-.9-4.05,6.43,6.43,0,0,0-4.64-4.18,21.37,21.37,0,0,0-6.41-.86h-1.81a8.63,8.63,0,0,1-.25,1.09,1.16,1.16,0,0,1-1.22.82,1.12,1.12,0,0,1-1-1.09,8.58,8.58,0,0,1,.05-1.34,67.56,67.56,0,0,0,.07-10.55,54.57,54.57,0,0,0-2.79-14C301.37,91,290.3,80.38,273.59,75.77c-.5-.14-1-.23-1.58-.36l-3.77,5.88a2.33,2.33,0,0,0,.49,0,25.26,25.26,0,0,1,8.18-.45A12.49,12.49,0,0,1,281.64,82a2.22,2.22,0,0,1,1.09,3.29c-.22.47-.49.92-.78,1.45a4.39,4.39,0,0,0,.63.22c5.95,1.5,10.06,5.24,12.84,10.59.09.18.25.37.24.56a1.13,1.13,0,0,1-.25.73.69.69,0,0,1-.67,0,6,6,0,0,1-1-.87q-1.8-1.93-3.57-3.89a17.68,17.68,0,0,0-7.52-4.92c-.43-.14-.86-.27-1.28-.42-1.78-.62-2.09-1.43-1.18-3.06.32-.56.62-1.13.93-1.7a5.34,5.34,0,0,0-3-1.41c-4.54-1.07-9-.41-13.45.65-1.43.34-2.85.76-4.3,1-2.68.37-5.36.73-8,.85-3.27.14-6.54.06-9.81,0a24,24,0,0,0-3.65-.27,49.53,49.53,0,0,0-6.58,1.45,18.29,18.29,0,0,0-6.56,3.51c-1.58,1.3-2.66,2.8-1.8,5a1.29,1.29,0,0,1-.6,1.6,14.44,14.44,0,0,1-1.29.69c-1.81,1-3.68,1.81-5.42,2.88a24.21,24.21,0,0,0-8.76,8.93,15.49,15.49,0,0,0-1.25,3.17c-.35,1.19-.2,1.32,1,1.71s1.37,1.28.49,2.12c-.21.2-.45.36-.67.55a8.41,8.41,0,0,0-2.25,3,4.52,4.52,0,0,0,2.57,6.13c.06,0,.09.13.18.28-.17.69-.73.79-1.3.64-2-.52-3.55-1.51-4-3.55a7.58,7.58,0,0,1,1.45-6.14c.39-.56.87-1.07,1.3-1.59-1.06-1.58-1.27-2.33-.73-4.18a19.28,19.28,0,0,1,1.54-3.73A24,24,0,0,1,213,99.8a42.13,42.13,0,0,1,7.55-4.32l1.25-.63c-.12-2.84.28-4.08,1.89-5.67a14.1,14.1,0,0,1,2-1.61,22,22,0,0,1,8.51-3.34l1.56-.29-3-2.71c-1.41.78-2.89,1.56-4.33,2.42a79.71,79.71,0,0,0-28.65,29.55,75,75,0,0,0-10.22,40.15c.09,2.86.51,5.7.78,8.55a4.48,4.48,0,0,1-.07,2.15,1.54,1.54,0,0,1-.56-.73c-.27-.85-.54-1.71-.73-2.59a62.13,62.13,0,0,1-.39-22.34c.06-.39.1-.78.15-1.2a4.22,4.22,0,0,0-.57-.13,6.18,6.18,0,0,0-.86,0A9.78,9.78,0,0,0,181,139.6a15.92,15.92,0,0,0-4.62,7.55A52.07,52.07,0,0,0,174,160.51c-.21,4.54-.21,9.08-.26,13.63a26.33,26.33,0,0,0,.24,3.18,5.48,5.48,0,0,0,1.08,2.83c1.79,2.32,4.37,3.41,7,4.63a30.93,30.93,0,0,1-1-3.44,127.93,127.93,0,0,1-1.47-15.26c-.14-3.19-.13-6.38-.1-9.58,0-1.92.13-3.84.31-5.75a16.67,16.67,0,0,1,1.19-5,6.58,6.58,0,0,1,4-3.74,3,3,0,0,1,.74-.07,1.7,1.7,0,0,1-.67.6,6.16,6.16,0,0,0-3,4.26c-.24,1.2-.41,2.42-.54,3.64a81.64,81.64,0,0,0,.1,12.51c.23,4.61.75,9.2,1.19,13.8a49,49,0,0,0,.73,5,5.44,5.44,0,0,0,3.13,3.91c.09-2.07.16-3.94.25-5.8,0-.55-.12-1.21.58-1.47.41-.16.83.3,1,1.29.48,2.22,1.2,4.46-.07,6.67,2.45.6,12.82.32,15.23-.38,0-.14.06-.3.09-.46.08-.39,0-.92.53-1s.66.49.83.9a3.42,3.42,0,0,1,.13.34,3,3,0,0,0,1.83,2,14.38,14.38,0,0,0,3.24,1.09,56.51,56.51,0,0,0,7.56.7c7.24,0,14.49-.13,21.73-.22a7.58,7.58,0,0,0,.81-.13,4.85,4.85,0,0,0,.07-.55c.16-3.48.3-6.95.47-10.42.06-1.15.16-2.29.29-3.43.05-.44,0-1,.79-1.23a16.85,16.85,0,0,1,.37,2.2c.17,4,.31,7.93.45,11.89,0,.48,0,1,0,1.49a36.44,36.44,0,0,0,7.61-.55,2.21,2.21,0,0,0,1.88-1.85c.27-1.2.58-2.38.89-3.57a4.73,4.73,0,0,1,.32-.74c.8.38.84.38.91.91a17.16,17.16,0,0,1,.17,2.57c-.15,2.86-1.44,4.42-4.23,4.91a49.6,49.6,0,0,1-6.08.68c-3.35.18-6.71.23-10.07.32-1.06,0-2.13,0-3.19.07a134.53,134.53,0,0,1-16.68-.13c-3.78-.32-7.52-.83-10.3-4-4.32,1.47-8.8,1.22-13.36,1.3a20.49,20.49,0,0,0-.85,3.1c-.31,2.55-.59,5.12-.7,7.69-.23,5.6-.33,11.2-.52,16.81-.16,4.74-.33,9.48-.56,14.23-.29,6.13-.72,12.25-.95,18.38-.18,5-.18,10-.2,15,0,1.46.19,2.91.29,4.4,1.5.09,2.89.15,4.27.27,1.67.14,3.34.3,5,.51a2.42,2.42,0,0,1,1.76.87h-1.79l-8.83-.19a1.37,1.37,0,0,0-1.23.39c-.39.45-.83.37-1.28,0a1.51,1.51,0,0,0-.85-.36,17.18,17.18,0,0,0-6.15,1,5.83,5.83,0,0,0-3.78,3.9c-.17.54-.34,1.09-.47,1.65a45.27,45.27,0,0,0-1,10c0,1.43-.09,2.86-.13,4.29a5.32,5.32,0,0,0,.07.74h8.87a2,2,0,0,0,.07-.25,76.61,76.61,0,0,1,.8-12.11,29.34,29.34,0,0,1,1-4.42,4.29,4.29,0,0,1,1.7-2.35c.26-.18.54-.36.82,0a22,22,0,0,0-1,2.41,12,12,0,0,0-.42,2.66c-.13,3.64-.22,7.28-.29,10.92,0,1.17.07,2.34.11,3.58l15.76.93c.32-1,.61-1.93.87-2.83a26.72,26.72,0,0,1,2.53-6.11,10.2,10.2,0,0,1,6.79-4.83,5.5,5.5,0,0,1,1.94,0c.21,0,.47.32.55.55s-.16.47-.33.57a13.52,13.52,0,0,1-2.61,1.3,8.65,8.65,0,0,0-4.9,3.66c-1.57,2.34-2.34,5-3.47,7.7,13.82.56,27.51.76,41.38.77-.4-1.15-.73-2.15-1.1-3.14a22.42,22.42,0,0,0-4.38-7.33,6.78,6.78,0,0,0-4.73-2.33q-4-.23-8-.14a46.26,46.26,0,0,1-8.32-.37,6.28,6.28,0,0,1-1.14-.4,2.23,2.23,0,0,1,2-.82c1.63-.12,3.26-.21,4.9-.28,3.22-.16,6.45-.36,9.68-.42a10.6,10.6,0,0,1,8.61,3.95,26.92,26.92,0,0,1,5.74,11.33h1.19c3.19,0,6.38.07,9.58.08h19c.55,0,1.1-.08,1.67-.13-.21-2.3-.44-4.45-.59-6.61a37.55,37.55,0,0,1,.38-9.17,4.28,4.28,0,0,1,.57-1.46.9.9,0,0,1,.73-.25c.1,0,.24.38.25.6.22,3,.34,6,.63,8.93.26,2.63.69,5.24,1.06,7.95.49,0,.89,0,1.29,0,2.25-.07,4.5-.22,6.75-.2,6,0,11.9-1.07,17.89-.78a1.85,1.85,0,0,0,2.05-1.56,10,10,0,0,0,.4-2.41c.06-3.85.11-7.7,0-11.55a16.26,16.26,0,0,0-.56-4,4.16,4.16,0,0,0-3.65-3.19,32.66,32.66,0,0,0-7.59-.07c-2.69.18-5.38.4-8.08.56-2.37.14-4.74.19-7.11.33a3.35,3.35,0,0,0-1.37.41c-.71.4-1.35.91-2,1.37l-.16-.13.82-1.36c-1.5,0-3,0-4.42,0-4.17.12-8.34.27-12.52.38a13.14,13.14,0,0,1-2.07-.17,2.61,2.61,0,0,1-.67-.33l0-.26c.42-.08.84-.21,1.27-.25,4.52-.39,9-.81,13.57-1.14,5.31-.38,10.62-.66,15.92-1,2.57-.18,5.13-.47,7.7-.64A30.88,30.88,0,0,1,306.44,268.11ZM310.14,60l0-.32c-1.19,0-2.37,0-3.55,0a131.72,131.72,0,0,1-25.1-1.26,46.81,46.81,0,0,1-18.56-7c-2.69-1.79-5.37-3.61-8-5.52a197.47,197.47,0,0,0-19.38-12,41.2,41.2,0,0,0-13.39-5A93.1,93.1,0,0,0,205,27.58a22.66,22.66,0,0,0-3.18.3,49.42,49.42,0,0,0-14.93,5c-.28.14-.53.34-.86.55l.93.75c11.13,9.1,15.61,20.86,13.14,34.91-3.32,19-21.12,31.43-39.95,29.05a35.52,35.52,0,0,1-23.58-13.06c-.23-.27-.48-.52-.74-.8a14.9,14.9,0,0,1-5.9,4.26A3,3,0,0,0,128,91.07a18.26,18.26,0,0,1-20.7,14.11c-1.33-.21-2.62-.6-4-.92-.11.24-.26.53-.38.82a66.17,66.17,0,0,0-4.08,16.39,83.07,83.07,0,0,0,.08,15.45,2.45,2.45,0,0,0,.56,1.29c2.52,3,5.08,6,7.61,9a6.85,6.85,0,0,1,.51.77l.24-.2a23.82,23.82,0,0,1,0-3.78,10.82,10.82,0,0,1,6.45-8.53,5.08,5.08,0,0,1,5.64.73,11.65,11.65,0,0,1,2.68,3.17,18.85,18.85,0,0,1,2.4,6.14c.73,3.94,1.31,7.91,2,11.86.27,1.56.6,3.12.9,4.7.38,0,.62,0,.86,0a6,6,0,0,1,4.33,1.42,22.3,22.3,0,0,1,6,7.49,4.2,4.2,0,0,1-.71,4.9c-.48.55-1,1.08-1.5,1.63a4.24,4.24,0,0,0,.31.4,36.56,36.56,0,0,0,8.66,6.79,69,69,0,0,0,14.3,5.79,56.64,56.64,0,0,0,12.51,2.2,40.52,40.52,0,0,1,1.88-4.31c.78-1.37,2.28-2,3.73-2.65-1.17-.8-2.21-1.44-3.18-2.19a8.46,8.46,0,0,1-3.39-5.9,30.22,30.22,0,0,1-.23-3.55c0-3.36.07-6.71.15-10.06a64.26,64.26,0,0,1,1.3-11.32,30.25,30.25,0,0,1,3.31-9.72c2.84-4.69,6.74-7.62,12.64-7a82.27,82.27,0,0,1,43.22-56.77,3,3,0,0,0,0-.45A12.31,12.31,0,0,1,235,70.39c1.75-2.16,3.79-4,6.75-4.29a1.84,1.84,0,0,0,.58-.21,20.8,20.8,0,0,1,6.16-1.54,92.3,92.3,0,0,1,17.9-.2,21.3,21.3,0,0,1,8.74,2.67,8.55,8.55,0,0,1,3.56,3.61,9.32,9.32,0,0,1,.93,4.91l1.27.54a46.31,46.31,0,0,1,13.53,8.31c8.52,7.57,13.75,17.06,16.35,28.07.19.81.37,1.63.59,2.66.24-.41.37-.6.48-.81a24,24,0,0,1,5.89-7.46,62.14,62.14,0,0,1,12.67-8.38,145.63,145.63,0,0,1,14-5.92,78.49,78.49,0,0,0,11.26-5.17c7.27-4.24,13.15-9.83,16.83-17.53a31.38,31.38,0,0,0,3.33-13.71c0-.43-.06-.87-.09-1.27-5.34-.7-43.26,2.34-46.92,3.78l2.19.67a1.12,1.12,0,0,1,.91,1.16,1.17,1.17,0,0,1-1,1.11c-.43.12-.88.17-1.32.28-1.5.37-3,.69-4.51,1.13a7.75,7.75,0,0,0-5.25,5c-.58,1.57-1,3.19-1.5,4.79a7.65,7.65,0,0,1-.41,1.28,1.15,1.15,0,0,1-2.07.16,3.51,3.51,0,0,1-.46-1c-.31-1-.64-1.94-.88-2.94a11.34,11.34,0,0,0-5.13-7.34,4.59,4.59,0,0,1-1.28-1.28,1.22,1.22,0,0,1-.07-1c.16-.42.58-.48,1-.39A5,5,0,0,0,310.14,60Zm67.19,345.54,6.21-1.77a101.78,101.78,0,0,0,19.08-7.38A118.85,118.85,0,0,0,432,374.22a50.39,50.39,0,0,0,9.76-13.76,43.24,43.24,0,0,0,4.38-17.36,70.42,70.42,0,0,0-1.5-15.6,117.48,117.48,0,0,0-6.2-21.55c-3.11-7.67-6.83-15.05-10.66-22.37-.09-.17-.22-.32-.4-.58-.26.45-.46.79-.64,1.14a54.86,54.86,0,0,1-59.27,28.35c-28.8-5.83-45.94-32.23-43.75-57.44a50.59,50.59,0,0,1,6.18-20.64c.15-.26.25-.54.43-.93l-.75.05a44.81,44.81,0,0,1-9.19.08c-1.28-.16-1.28-.13-1.61-1.38,0,0-.12-.07-.23-.13-2.25,3.15-5.15,5.32-9.19,5.67,0,.39-.07.71-.07,1,.07,6.91.16,13.83.21,20.75,0,3.27,0,6.54,0,9.81a1.87,1.87,0,0,0,.39,1,9.27,9.27,0,0,1,1.83,4.37,96.72,96.72,0,0,1,.33,14.34,4,4,0,0,1-.12,1.1,18.75,18.75,0,0,1-1.09,3.35,3,3,0,0,1-3.61,1.59,7.61,7.61,0,0,0-1.33-.19,4.14,4.14,0,0,0-2.25.42,5.2,5.2,0,0,1,.92,3.66c-.27,4.33-.51,8.66-.8,13-.22,3.14-.44,6.29-.76,9.42a192.56,192.56,0,0,0-1,21.2,29.09,29.09,0,0,0,.66,6.83,5.7,5.7,0,0,0,2.78,3.86c2,1.1,3.92,2.2,5.89,3.28.5.28,1,.5,1.63.8.42-.78.83-1.48,1.19-2.2a3.7,3.7,0,0,1,2.48-2,9,9,0,0,1,2.42-.24,21.58,21.58,0,0,1,6,1.23c3.59,1.25,7.16,2.55,10.75,3.81a188.63,188.63,0,0,1,23.09,9.62c3.83,2,7.77,3.69,11.31,6.15a3.8,3.8,0,0,0,1.13.44,22.34,22.34,0,0,1,5.76,2,9.43,9.43,0,0,1,4.61,5.8,21.07,21.07,0,0,1,.7,4.59,37.22,37.22,0,0,1-.74,8.55c-.7,3.55-1.83,6.9-5,9.13.07.18.12.33.19.47S377.11,405.19,377.33,405.58Zm-193.09-137c-1.22-10.09,0-20,.33-30a35.67,35.67,0,0,1-10,1.37,90.14,90.14,0,0,1-11.38-.78c-.72-.07-1.44-.2-2.21-.32a4.39,4.39,0,0,1-2.76,3.35,13,13,0,0,1-1.8.77,17.15,17.15,0,0,1-9.1.31,62,62,0,0,1-14.82-5,24.3,24.3,0,0,1-4.33-2.77,11.79,11.79,0,0,1-3.9-5.27,5.31,5.31,0,0,1,.15-4.51c.07-.14.11-.3.2-.54a76.75,76.75,0,0,1-11.28-8,66.89,66.89,0,0,1-9.58-10l-.72.46c-3.1,2-5.58,1.7-8.17-.91A19.37,19.37,0,0,1,91.5,202a7.15,7.15,0,0,1,0-7.05c.27-.5.53-1,.76-1.44l-2.77-2.74c-.1.09-.23.19-.33.3l-9,9.7c-4.41,4.73-9,9.28-13.07,14.33a62.84,62.84,0,0,0-11.46,20.71A84.65,84.65,0,0,0,52,254.2a60,60,0,0,0,1.48,19.62A67.93,67.93,0,0,0,66.15,299.5a97.87,97.87,0,0,0,8.17,9c5.54,5.48,11.59,10.37,17.49,15.44,6.86,5.89,13.84,11.66,19.94,18.38a2.5,2.5,0,0,0,.58.36,2.82,2.82,0,0,0,.15-.43c2.13-9.63,5-19,9.79-27.67a39.88,39.88,0,0,1,4.65-7.06,38.3,38.3,0,0,1,15.46-10.75,91.33,91.33,0,0,1,17.2-4.44,41.45,41.45,0,0,1,11.12-.58c.06,0,.13-.07.19-.11-.12-1.39-.32-2.76-.34-4.14a40.8,40.8,0,0,1,.82-8.54,33.16,33.16,0,0,1,1.33-4.83,7.06,7.06,0,0,1,4.56-4.35,20,20,0,0,1,3.33-.81C181.75,268.76,182.93,268.72,184.24,268.61ZM359.81,167.89c-.52-.47-1-.87-1.42-1.29a4.44,4.44,0,0,1-1.23-5.64,25.64,25.64,0,0,1,4.16-6.49,7.09,7.09,0,0,1,5.36-2.82,3.85,3.85,0,0,0,.55-.09c.08-.61.2-1.21.24-1.82.19-2.85.34-5.72.55-8.57.19-2.49.35-5,.72-7.45a16.12,16.12,0,0,1,3-7.56c2.12-2.77,4.72-3.41,7.79-1.81a11.13,11.13,0,0,1,6.33,10c0,.36-.14.79.23,1.17l.73-1.08c1.31-2,2.57-4,4-5.92a41.23,41.23,0,0,1,7.07-8.13,13.65,13.65,0,0,1,7.71-3.18,18,18,0,0,1,13.21,4.26,23.53,23.53,0,0,1,6.76,9.22,20.56,20.56,0,0,1,1.25,13,44.72,44.72,0,0,1-3.93,10.81,111,111,0,0,1-10.2,16c-2.27,3-4.56,6-6.87,9,.31.49.65,1,1,1.51a7,7,0,0,1,.67,6.68,19,19,0,0,1-3.06,5.29,9.73,9.73,0,0,1-1.49,1.45,4.37,4.37,0,0,1-3.92.94c-1.09-.29-2.16-.68-3.33-1.06-.57.84-1.17,1.76-1.8,2.65s-1.31,1.78-2,2.64-1.47,1.76-2.22,2.63-1.41,1.63-2.2,2.54A53,53,0,0,1,403.68,210a55.8,55.8,0,0,1,13.52,10c.15-.25.23-.35.28-.46a115.42,115.42,0,0,1,12.29-21.34q5.43-7.52,11-15a147.16,147.16,0,0,0,12.2-18.84,61.28,61.28,0,0,0,7.35-28,65.49,65.49,0,0,0-1.18-13.18,75.06,75.06,0,0,0-8.29-23.5,112.72,112.72,0,0,0-17.53-23.28,77.84,77.84,0,0,0-14.56-11.79,62.79,62.79,0,0,0-24.1-8.61,7.46,7.46,0,0,0-1.06,0c.14,1.43.31,2.73.39,4a43.84,43.84,0,0,1-1.82,15.53A42,42,0,0,1,375.83,98a74.93,74.93,0,0,1-16,8.52c-4.59,1.84-9.25,3.52-13.9,5.21a51.72,51.72,0,0,0-20.41,13.46c-1.55,1.66-2.86,3.56-4.26,5.38a7.89,7.89,0,0,0-.61,1.16l1,.35a8.28,8.28,0,0,1,5.51,5.36,19.65,19.65,0,0,1,1.05,4.52c.34,3.87.63,7.75.72,11.63a114,114,0,0,1-.46,16.93,18.43,18.43,0,0,1-2.95,8.11,5.55,5.55,0,0,1-2.13,2c-.78.4-1.53.86-2.52,1.43,1.28.27,1.92,1.45,3.26,1,.46,1.12.92,2.21,1.4,3.35.76-.14,1.52-.26,2.28-.41a66.48,66.48,0,0,0,17.47-6.38,49.09,49.09,0,0,0,9.32-6.11A38.62,38.62,0,0,0,359.81,167.89Zm17,53.15c1.58,3,5.65,2.78,7.46,1s1.82-4.54-.17-6c-.76-.55-1.44-1.21-2.15-1.83-.3-.25-.75-.5-.42-1s.66-.22,1-.06c.81.38,1.65.73,2.42,1.19a5.09,5.09,0,0,1,2.46,5.67,6.11,6.11,0,0,1-4.65,4.72,5.45,5.45,0,0,1-6.21-2.3c-.07-.12-.21-.19-.37-.33a19.42,19.42,0,0,1-7.87,6.78c-2.84,1.46-5.74,2.79-8.66,4.08a30.57,30.57,0,0,1-4.3,1.44,16.71,16.71,0,0,1-8.48.47c-2.18-.54-4.29-1.2-5.13-3.61-2.52.52-4.94,1.14-7.41,1.47a3.24,3.24,0,0,0-2.88,2.26c-4.8,11.1-6.32,22.55-3.78,34.43a51.82,51.82,0,1,0,90.68-43.57,52.79,52.79,0,0,0-24-16.4,58.37,58.37,0,0,0-9.19-2.32l-8.43,7C378.31,216.49,377.81,218.79,376.8,221ZM361,372.46a191.93,191.93,0,0,0-29.52-12.78.83.83,0,0,0-.14.23c-.86,4.87-3,9.23-5.33,13.52A155.13,155.13,0,0,1,314,391.92a65.23,65.23,0,0,1-7.64,8.63c-.4.38-.86.7-1.29,1.05l-.25-.17a5.33,5.33,0,0,1,.41-1.05c.51-.79,1.05-1.56,1.63-2.3,3.19-4.06,6.12-8.3,8.92-12.63A149.72,149.72,0,0,0,326,367.17a52.25,52.25,0,0,0,2.92-8.5c-1.66-.61-3.24-1.26-4.87-1.78s-3.38-1-5.09-1.36A3,3,0,0,0,315.3,357a9.34,9.34,0,0,1-.83,1.1,6.26,6.26,0,0,0,.56.36,6.34,6.34,0,0,0,.64.24,1.33,1.33,0,0,0,.21-.22c.68-1.22,1.27-1.58,2-1.25s1,1.16.54,2.36a30.74,30.74,0,0,1-1.83,4.15c-1.45,2.56-3,5.06-4.57,7.56-6.28,10.12-12.7,20.14-20.16,29.46-2.8,3.5-5.25,7.32-9,10.14a66.43,66.43,0,0,0,8.2,3.5c.48-.57.87-1.09,1.33-1.55,1.55-1.57,3.11-3.13,4.7-4.67.35-.34.74-.78,1.48-.43a12.2,12.2,0,0,1-1.77,2.48c-.59.84-1.17,1.68-1.8,2.49s-1.29,1.52-2,2.39c2.32.7,4.45,1.41,6.62,2,8.83,2.3,17.69,4.45,26.26,7.64a35.59,35.59,0,0,1,3.57,1.59c1.58.79,1.58,1.53.07,2.46a.4.4,0,0,0,0,.11l1.16,3.5A43.37,43.37,0,0,0,344,451.91a17.79,17.79,0,0,0,3.48,2.27,5.6,5.6,0,0,0,6.61-.89,17.81,17.81,0,0,0,2.56-2.79,39.18,39.18,0,0,0,5-8.85,198.64,198.64,0,0,0,11.69-41c.33-1.85.45-3.73.67-5.53-.38-.3-.62-.52-.9-.7-6.74-4.48-13.9-7.95-22-9.09-2.48-.35-3-1-2.61-3.52a2,2,0,0,1,0-.24c.3-1.73.58-3.47.9-5.2.52-2.76,1.15-3.37,3.92-3.94l.73-.1A27.44,27.44,0,0,1,361,372.46Zm41.37-196.67c6.9-9,13.77-18.08,18-28.78a1.16,1.16,0,0,1,0,.62c-.72,2-1.35,4.12-2.21,6.1-3.68,8.47-9,15.93-14.49,23.41l1.4,1.49c.26-.35.46-.59.63-.85,1.58-2.3,3.16-4.59,4.72-6.89,2.27-3.35,4.61-6.67,6.78-10.08a62.13,62.13,0,0,0,6.66-13.1,24.74,24.74,0,0,0,1.75-8.63,21.49,21.49,0,0,0-8.9-17.12,11.86,11.86,0,0,0-2.1-1.27c-6-3-12.49-2.71-17.43,3.13a77,77,0,0,0-5,6.5c-2.19,3.21-4.19,6.54-6.28,9.82a4.76,4.76,0,0,1-.74,1,1,1,0,0,1-1.77-.59,3.6,3.6,0,0,1,0-1.08c.19-1.83.54-3.66.55-5.49a9,9,0,0,0-6-8.17,3.24,3.24,0,0,0-3.86,1,10.36,10.36,0,0,0-1.41,2.13,21.82,21.82,0,0,0-1.21,3.34,40.37,40.37,0,0,0-1,8.27c-.19,3-.33,6-.52,9-.05.89-.18,1.77-.28,2.71l1.67.67c.31-1.83.56-3.53.87-5.22a28,28,0,0,1,1.07-5,13.17,13.17,0,0,1,.34,5.47c-.11,1.87-.39,3.73-.59,5.58C383,160.69,392.57,168.29,402.39,175.79ZM95.28,189.51c9.11-8.45,17.92-17,27.2-24.86-.27-1.06-.6-2-.76-3-.34-2.17-.62-4.36-.88-6.55a1.48,1.48,0,0,1,.43-1.48c.93,3.44,1.83,6.76,2.76,10.16l1.53-.8c0-.25,0-.42,0-.57q-1-6-2-12a37.37,37.37,0,0,0-1.7-7.39,13.31,13.31,0,0,0-2.54-4.45c-1.67-1.8-3.13-2-5.24-.76a9.14,9.14,0,0,0-4.38,9.42c.23,1.37.64,2.7,1,4.06a3.33,3.33,0,0,1,.19,1.19,1.45,1.45,0,0,1-.57,1,1.63,1.63,0,0,1-1.13-.13c-.24-.09-.42-.38-.59-.6L106,149.4a96.62,96.62,0,0,0-8.82-10.53,39.31,39.31,0,0,0-4.3-3.65,11,11,0,0,0-6.84-2,15.88,15.88,0,0,0-9.11,3.25,21.05,21.05,0,0,0-7.39,10.88,17.82,17.82,0,0,0-.72,8.84,31,31,0,0,0,3.85,10.16c1.56,2.64,3.24,5.22,5,7.7a134.3,134.3,0,0,0,11.86,14.23,17.68,17.68,0,0,1,1.07,1.46c.74.95,1.45,1.92,2.31,2.88l1.34-1.78a19.52,19.52,0,0,1-1.51-1.48c-3.49-4.23-7.08-8.38-10.41-12.73a57.53,57.53,0,0,1-7.24-12.36c-.13-.3-.26-.61-.36-.92s-.13-.54-.19-.82C79.8,172.84,87.55,181.16,95.28,189.51Zm30.43,29.86a10.44,10.44,0,0,1,.58-1c.65-.9,1.29-1.8,2-2.65,1.95-2.33,3.95-4.6,5.88-6.93a169.77,169.77,0,0,0,10.17-13.85c1.25-1.87,2.53-3.71,3.84-5.63l-5.1-2.93a128.16,128.16,0,0,1-11.29,14.75c-4.65,5.35-11.86,12.52-13.24,13a9.11,9.11,0,0,1,.64-1c.83-1,1.64-1.95,2.53-2.85a236.46,236.46,0,0,0,20.54-23.93,4.66,4.66,0,0,0,.27-.49,34.89,34.89,0,0,1-7.53-7.08c-.3.36-.54.64-.75.93a71.91,71.91,0,0,1-9.13,10.43q-5.61,5.15-11.3,10.2c-1.74,1.55-3.56,3-5.36,4.49a2.05,2.05,0,0,1-1.48.64c.45-.47.74-.81,1.06-1.1,3.58-3.25,7.12-6.54,10.75-9.72a137.78,137.78,0,0,0,14.14-14.14l1.8-2.08L133,175.76c-7.33,6.87-15,13.2-22.72,19.4a3,3,0,0,1,.67-1.26c1.36-1.41,2.69-2.86,4.14-4.18,4.17-3.82,8.38-7.58,12.58-11.36.88-.79,1.75-1.6,2.67-2.35a9.37,9.37,0,0,1,1.65-1,1.39,1.39,0,0,0,.82-.81c.23-.64.6-.66,1.09-.15.23.24.41.51.62.77l1.39,1.69a21,21,0,0,1,1-2.25,2.69,2.69,0,0,0-.23-3.3c-1.39-1.82-2.84-3.59-4.29-5.36a5.33,5.33,0,0,0-1-.87,3.56,3.56,0,0,0-3.48-.6,19.87,19.87,0,0,0-3.41,1.65,25.42,25.42,0,0,0-3.31,2.53Q110,178.38,98.87,188.56a39.51,39.51,0,0,0-4.14,4.53,20.46,20.46,0,0,0-2.19,3.67,4.14,4.14,0,0,0,0,3.57,15.37,15.37,0,0,0,4.43,6.1,5.1,5.1,0,0,0,6.21-.21c-.22-.43-.46-.86-.66-1.31a8.07,8.07,0,0,1-.57-1.48.87.87,0,0,1,.31-.69c.11-.09.49,0,.64.15a7.1,7.1,0,0,1,.87,1c.75,1,1.43,2,2.24,2.92a79.58,79.58,0,0,0,22.36,17.41c.27.14.58.24.75.32,8-11,14.74-22.57,21.85-34-.32-.15-.61-.3-.91-.43s-.65-.26-1-.4a154,154,0,0,1-10.68,15.69C134.67,210.19,127,218.83,125.71,219.37Zm236.38-50.83c.19.21.32.37.46.51a145.34,145.34,0,0,0,16.86,14.07c3.9,2.78,7.7,5.69,11.54,8.55.41.3.78.65,1.17,1l-.23.31a73.29,73.29,0,0,1-8-5.35c-2.59-1.86-5.2-3.7-7.73-5.65s-5.13-3.95-7.53-6.11-4.56-4.51-6.89-6.85a36,36,0,0,1-6.78,7.82c2.51,2.63,4.89,5.17,7.29,7.67,5,5.18,10.37,9.89,15.81,14.55,1.06.91,2,1.89,3,2.86a2.53,2.53,0,0,1,.34.63l-.23.18c-9.76-7.59-19-15.72-26.74-25.44l-4.78,3.41c1.3,1.55,2.58,3,3.81,4.55a175.58,175.58,0,0,0,17.12,18.43c1.26,1.17,2.4,2.46,3.57,3.72a2,2,0,0,1,.69,1.48,161.42,161.42,0,0,1-26-27.73l-1.81,1.07c8.23,10.77,16.1,21.64,25,31.77.23-.13.55-.3.85-.5a73.53,73.53,0,0,0,9.61-7.43c4.95-4.62,9.62-9.48,13-15.44a2.9,2.9,0,0,1,.27-.41c.25-.33.5-.75,1-.54s.39.74.24,1.17-.43,1.15-.63,1.73c-.09.26-.15.52-.25.88.67.16,1.26.29,1.85.45A4.57,4.57,0,0,0,403.1,192a18.81,18.81,0,0,0,2.94-5.22,4.9,4.9,0,0,0-.41-4.48,19.8,19.8,0,0,0-1.64-2.29,39,39,0,0,0-6.66-6q-7.89-6-15.84-11.83c-3.06-2.25-6.15-4.48-9.33-6.58a19.94,19.94,0,0,0-4.23-1.9,3.79,3.79,0,0,0-4.25,1.12,25.35,25.35,0,0,0-4.63,7,2.11,2.11,0,0,0-.2,1.42,13.38,13.38,0,0,0,1.85,3.37l1.19-1.8c.18-.27.33-.57.53-.82.44-.55.73-.52,1.13,0,.18.24.39.58.64.64a9.65,9.65,0,0,1,3.28,1.88q8.16,6,16.28,12.07c1.24.93,2.37,2,3.52,3.05a7.6,7.6,0,0,1,.8,1l-.22.24c-1.7-1-3.23-2.28-4.88-3.37s-3.33-2.23-5-3.36-3.25-2.21-4.85-3.36-3.21-2.4-4.83-3.59-3.22-2.31-4.87-3.49C363,166.76,362.55,167.6,362.09,168.54ZM184.44,33.89c-.2.16-.38.26-.52.4a12.5,12.5,0,0,1-6.47,3.29,32.38,32.38,0,0,1-3.85.77,5.34,5.34,0,0,0-4.38,3.12c-.33.61-.67,1.22-1,1.84-.51,1.08-1,2.16-1.47,3.24a17.18,17.18,0,0,1-10.57,9.78,3.82,3.82,0,0,0-1.29.69,21.48,21.48,0,0,1-4.88,3c-2.26,1-4.55,2-6.82,3.07-2,.9-4.05,1.78-6,2.75a10.61,10.61,0,0,0-5.07,5.31,2.39,2.39,0,0,0-.09,1.89,34.55,34.55,0,0,0,3.76,7.7c.15.23.35.43.56.69a5.76,5.76,0,0,0,.73-.51c1.3-1.18,2.63-2.34,3.88-3.58a8.72,8.72,0,0,1,7.39-2.53c1.79.18,3.59.25,5.38.38a3,3,0,0,0,3.46-2.43,37.45,37.45,0,0,0,1-4.41,18.83,18.83,0,0,1,2.16-6.61c1.77-3.06,4.34-4.59,7.92-4.26a12.08,12.08,0,0,0,1.47.09,36,36,0,0,0,4.29-.16c4.13-.6,7.37-2.57,9.26-6.45.44-.92.88-1.84,1.3-2.77a16.4,16.4,0,0,1,3.52-5.14c1-.94,2.11-1.74,3.19-2.61A25.74,25.74,0,0,0,184.44,33.89Zm186.22,181-2-2.09A199.67,199.67,0,0,1,352,193.33c-1.38-1.83-2.86-3.59-4.14-5.48-1.05-1.53-2.43-2.73-3.52-4.17l-7.18,3.19Q341.24,207,345.31,227l5.36-1.53a2.7,2.7,0,0,0,.31-.2c1.55-.83,3.07-1.72,4.65-2.47,4.58-2.19,9.17-4.35,13.55-6.93C369.67,215.55,370.14,215.24,370.66,214.92ZM153.85,191.76c-1.24,1.83-2.52,3.5-3.59,5.34-2,3.46-4.24,6.8-6.39,10.19a170,170,0,0,1-12.81,17.51c-.14.17-.23.38-.38.61.45.22.8.43,1.18.58q5.79,2.35,11.59,4.68,3.92,1.58,7.85,3.12a3.36,3.36,0,0,0,.7.15c.56.1,1.13.16,1.69.28,1.14.26,2.28.54,3.34.8,1.43-13.64,2.85-27.2,4.28-40.79ZM122,74.15c-4.9-3.92-10.31-5.19-16.22-3.61s-9.92,5.56-12,11.55a6.22,6.22,0,0,0,1,0c1.53-.28,3.07-.51,4.57-.9,5.5-1.43,11-2.93,16.47-4.4l1.41-.37a1.39,1.39,0,0,1-.81.62c-5,1.52-10.09,3.08-15.16,4.52a27.83,27.83,0,0,1-7.61,1.16A16.7,16.7,0,0,0,93.94,92c3.64.25,30.55-5.62,33-7.18a16.39,16.39,0,0,0-3.14-8c-.24-.34-.5-.66-.74-1a.65.65,0,0,1,.07-1c.38-.29.71-.1,1,.17a5.65,5.65,0,0,1,.7.85c.85,1.34,1.66,2.7,2.49,4l6.06.51a38.31,38.31,0,0,1-4.53-12.74C126.3,69.86,124.18,72,122,74.15Zm197.2,156.69c3.93,1.24,19.15-.74,23.68-3.11-.52-2.65-1-5.33-1.57-8s-1.07-5.37-1.62-8.05-1.14-5.36-1.66-8.06-1-5.38-1.42-8.09-.71-5.39-1.06-8.16l-4.74,1.31c0,.4,0,.68.08,1,.52,2.9.93,5.82,1.58,8.69,1.56,7,3.25,13.94,4.86,20.92.54,2.35,1,4.72,1.45,7.09.07.37.24.8-.37,1.2-1-3.22-1.7-6.44-2.52-9.63s-1.62-6.34-2.36-9.53-1.51-6.45-2.09-9.71-1-6.51-1.42-9.8l-4,.55a50.49,50.49,0,0,1,.54,10.74,7.08,7.08,0,0,0,.14,1.59c1.1,6.91,2.37,13.79,4.06,20.58.46,1.82.78,3.68,1.14,5.52a2.54,2.54,0,0,1-.09.76,1.78,1.78,0,0,1-.7-.92c-.31-1.1-.59-2.22-.87-3.33-1.54-5.94-2.92-11.92-3.87-18,0-.08-.12-.15-.22-.27a1.59,1.59,0,0,0-.16.41,68.92,68.92,0,0,1-2.45,11.63,5.9,5.9,0,0,0,0,3.12c.57,2.38,1,4.79,1.51,7.2.08.41.23.87-.22,1.28a5,5,0,0,1-1-2.6c-.23-.87-.41-1.75-.59-2.63s-.32-1.82-.51-2.92C321.56,224.81,320.4,227.83,319.23,230.84ZM174,212.09c0,.28-.07.44-.09.6-.47,4.52-.91,9-1.44,13.54-.31,2.6-.78,5.18-1.18,7.77a1.56,1.56,0,0,1-.69,1.3,9,9,0,0,1,0-3.24c1-6.89,1.87-13.79,2.26-20.74a27,27,0,0,0,.06-6.36,37.66,37.66,0,0,1-.43-7.58c0-.56,0-1.12,0-1.77h-4c0,.45-.08.89-.08,1.33a112.27,112.27,0,0,1-1.14,15.54q-.93,6.56-1.88,13.11c-.41,2.75-.85,5.5-1.29,8.25a6.89,6.89,0,0,1-.29.95l-.31,0a9.07,9.07,0,0,1-.11-1.27c0-1,.12-2,.25-2.94.82-6,1.75-11.9,2.46-17.87.65-5.4,1.09-10.82,1.61-16.24,0-.34,0-.7,0-1l-4.82-.81c0,.36-.07.68-.09,1-.16,3.76-.22,7.52-.5,11.27-.32,4.28-.82,8.55-1.26,12.82-.36,3.54-.75,7.08-1.11,10.62-.17,1.74-.29,3.49-.45,5.33.77.15,1.43.33,2.12.41,3.2.39,6.41.77,9.62,1.09a42.14,42.14,0,0,0,9.19-.17c1.08-.13,2.14-.4,3.33-.62-2.16-2.77-3.32-5.87-4.8-8.82a3.28,3.28,0,0,0-.14.84c-.23,2.07-.46,4.14-.71,6.21a1.23,1.23,0,0,1-.74,1.21,10.22,10.22,0,0,1-.07-1.39c.26-2.6.52-5.21.86-7.8a4.23,4.23,0,0,0-.23-2.15c-.57-1.44-1.12-2.9-1.59-4.38C175.53,217.46,174.78,214.83,174,212.09Zm-35-127.35a30.82,30.82,0,0,0,10.45,8,16.9,16.9,0,0,1,2.26-1c1.34-.36,2.72-.59,4.08-.86a31.64,31.64,0,0,0,11-4.41,11.12,11.12,0,0,0,4.53-5.79c.43-1.23.86-2.47,1.26-3.71a19.63,19.63,0,0,1,6.13-9.15,5.35,5.35,0,0,1,.86-.47,3.11,3.11,0,0,0-.55-.27c-3,.35-5.94.63-8.89,1.07a15,15,0,0,0-7.32,2.92c-1.89,1.5-3.72,3.07-5.57,4.61-.13.1-.21.25-.34.35-1.38,1.15-2.69,2.4-4.17,3.4A30.51,30.51,0,0,1,145,83C143,83.65,141,84.15,138.93,84.74ZM189.82,189a29.4,29.4,0,0,1-8.1-1.8,2.57,2.57,0,0,0-2.25.28,8.55,8.55,0,0,1-1.07.59,4.82,4.82,0,0,0-3,3.8c-.12.56-.23,1.12-.31,1.69a39.15,39.15,0,0,0,0,10,72.44,72.44,0,0,0,3,14.27,129.84,129.84,0,0,0,5.91,15.2c.2.42.45.82.68,1.23.4-2.5.58-4.93.74-7.36.22-3.43.4-6.87.63-10.3q.39-5.92.84-11.87c.24-3.14.49-6.28.82-9.41A15.52,15.52,0,0,1,189.82,189Zm2.23-147.6a14.87,14.87,0,0,0-6.28,7.3c-.49,1.13-1,2.25-1.54,3.34A12.12,12.12,0,0,1,179.57,57a14.06,14.06,0,0,1-7.47,2.08c-1.64,0-3.27-.09-4.91-.18a5.42,5.42,0,0,0-4.93,2.44,13.62,13.62,0,0,0-2.37,5.86c-.27,1.57-.53,3.14-.8,4.71,0,.25-.07.5-.15,1,.72-.62,1.25-1.06,1.76-1.52a16.33,16.33,0,0,1,7.57-3.85c1.84-.39,3.7-.66,5.56-1,2.26-.35,4.54-.59,6.79-1a8.37,8.37,0,0,0,5.78-4A20.24,20.24,0,0,0,189.11,55c.66-3.12,1.15-6.27,1.74-9.4a13.15,13.15,0,0,1,.61-2.12c.16-.42.43-.83.88-.88-.24,1.3-.52,2.52-.69,3.76-.22,1.62-.31,3.26-.55,4.87-.66,4.46-1.78,8.75-4.68,12.36,0,0,0,.14,0,.22s.16.07.22.05c4.22-1.33,7.87-3.34,10-7.48a5.73,5.73,0,0,0,.54-5.08A38.33,38.33,0,0,0,192.05,41.4Zm6.49,24.34a27.64,27.64,0,0,1-8,3.39A15.62,15.62,0,0,0,181,76.61c-.67,1.13-1.29,2.29-1.92,3.43a13.35,13.35,0,0,1-3.58,4.32,31.39,31.39,0,0,1-13.08,6.2c-3.41.67-6.73,1.8-10.25,1.87a2.57,2.57,0,0,0-1.91.73c.32.16.53.29.75.38a34.82,34.82,0,0,0,15.22,2.7,6.71,6.71,0,0,0,3.55-1.15,29.74,29.74,0,0,0,6.68-6.28c1.24-1.52,2.56-3,3.92-4.4a15.43,15.43,0,0,1,6.14-4c2.59-.89,5.23-1.59,8.14-2.46A34.94,34.94,0,0,0,198.54,65.74Zm-25.6-36.9c-18.26-5.05-37.82,7.09-41.49,24.76a25.4,25.4,0,0,0,7.36-4.25,10.07,10.07,0,0,0,3-4.12c.31-.8.61-1.61,1-2.38,2.57-5,6.6-7.93,12.31-8.2,3.07-.14,6.14,0,9.21-.12a30.29,30.29,0,0,0,3.41-.34,3.85,3.85,0,0,0,2.69-1.76ZM62.45,403.68a9.71,9.71,0,0,0-1.35,3,2.86,2.86,0,0,0,1.11,3.66,37.64,37.64,0,0,0,4.48,2.75,68.12,68.12,0,0,0,14.64,5.22c8.73,2,17.53,3.68,26.41,4.87,2,.27,4.06.43,6.1.52a2.58,2.58,0,0,0,2.64-2.06l-.47-.11a305.5,305.5,0,0,1-38.84-9.84A89.78,89.78,0,0,1,66,407.54,6.17,6.17,0,0,1,62.45,403.68ZM167.88,39.22,167.8,39l-3.32.55a15.58,15.58,0,0,0-11.09,7.15c-.35.55-.72,1.09-1,1.66a15,15,0,0,1-3.84,4.26A35.41,35.41,0,0,1,140,57.47c-2,.8-4,1.44-6,2.23-1.06.41-2.06,1-3.09,1.48a1.18,1.18,0,0,0-.71,1.29c.21,2,.38,4,.61,6,.07.61.26,1.21.42,1.94a3.09,3.09,0,0,0,.36-.42,11.24,11.24,0,0,1,5-5.35c1.43-.8,2.9-1.52,4.38-2.21,2.93-1.37,5.87-2.7,8.81-4a16.46,16.46,0,0,0,7.63-7c1-1.67,2-3.31,3-4.9a22.54,22.54,0,0,1,7-6.93C167.66,39.41,167.76,39.31,167.88,39.22Zm-71,58.38c.55.58,1.07,1.18,1.67,1.72a1,1,0,0,0,.79.11q7.33-1.5,14.66-3c2.31-.49,4.61-1,6.92-1.51l0,.23A168.54,168.54,0,0,1,99.2,99.79c3.71,3.54,10.72,5.42,17.08,2.89,5.41-2.15,10.2-7.94,10.25-12.54A142.75,142.75,0,0,1,96.87,97.6ZM375.55,215c-.24.13-.4.19-.53.28a128.48,128.48,0,0,1-18.47,10.16c-1.51.72-3.12,1.22-4.68,1.82-.22.09-.43.22-.64.33a13.16,13.16,0,0,1-1.6.88c-1.71.68-3.45,1.3-5.17,1.94-.29.11-.56.24-.92.39.21.18.32.29.45.39a10,10,0,0,0,7.37,1.61,22,22,0,0,0,6.28-1.62c3.14-1.39,6.29-2.77,9.33-4.35a34.43,34.43,0,0,0,5.06-3.44,11.06,11.06,0,0,0,3.46-4.71A4.37,4.37,0,0,0,375.55,215ZM125.83,225.89a2.66,2.66,0,0,0-.18,2.15,12.47,12.47,0,0,0,1.1,2.44,13.36,13.36,0,0,0,5.36,4.75,56.79,56.79,0,0,0,17,5.86,12.94,12.94,0,0,0,7.25-.6,7.17,7.17,0,0,0,2.83-2l-.91-.27c-2.45-.75-5.07-.95-7.32-2.34a1.79,1.79,0,0,0-.47-.1,23.72,23.72,0,0,1-2.39-.56,137.61,137.61,0,0,1-20.83-8.62ZM166.76,88l.06.13a6.54,6.54,0,0,0,.87-.34c1.57-.89,3.15-1.74,4.68-2.69a16,16,0,0,0,5.79-6.37,36.68,36.68,0,0,1,2.35-4,16.12,16.12,0,0,1,9-6.78c.74-.22,1.48-.46,2.22-.7a26.42,26.42,0,0,0,6.16-2.71,1.42,1.42,0,0,0,.82-1.36c-.05-1.55,0-3.11-.11-4.66,0-.9-.26-1.8-.43-2.91-.19.32-.26.41-.31.52A13.07,13.07,0,0,1,191,63.46a48.29,48.29,0,0,1-6.07,2.31,16.09,16.09,0,0,0-10.53,9.88c-.66,1.63-1.16,3.32-1.72,5a13,13,0,0,1-5.06,6.76ZM352.51,457.28a6.63,6.63,0,0,0,6.27-1.21,16.07,16.07,0,0,0,2.71-2.82,41.24,41.24,0,0,0,3.21-5.07A102,102,0,0,0,376,413.24a14.27,14.27,0,0,0-.17-5.25,13.51,13.51,0,0,0-.57-1.46c-.17.58-.25.85-.32,1.13-1.34,5.1-2.61,10.22-4,15.3a144.76,144.76,0,0,1-7.09,20.63,40.62,40.62,0,0,1-6.15,10,11.28,11.28,0,0,1-4.49,3.33A5.15,5.15,0,0,0,352.51,457.28ZM385.74,83.91a41.06,41.06,0,0,0-13.14-8.49l-5.28,6.37a21.33,21.33,0,0,1,12,10.27A36.49,36.49,0,0,0,385.74,83.91ZM91.57,88.51A41.51,41.51,0,0,0,82.79,93a6.4,6.4,0,0,0-1.07,1c-.61.76-.53,1.28.39,1.6a13.24,13.24,0,0,0,3,.66A46.67,46.67,0,0,0,96,95.89c4-.55,8.08-1.28,12.08-2.1a103.78,103.78,0,0,0,17.52-5.14,35.73,35.73,0,0,0,6.52-3.1,12.54,12.54,0,0,0,2.11-1.66c.68-.7.53-1.18-.35-1.61a4.2,4.2,0,0,0-.92-.33,15.48,15.48,0,0,0-5-.43c-.06,0-.12.09-.24.19l.18.59a12.64,12.64,0,0,1,1.52,0,5.31,5.31,0,0,1,1.54.35,1.07,1.07,0,0,1,.22,2,5.38,5.38,0,0,1-1.36.81c-1.56.62-3.1,1.29-4.71,1.75A188.7,188.7,0,0,1,104,92.09c-4.44.75-8.91,1.29-13.36,1.88a19,19,0,0,1-2.82.08c-.62,0-1.27-.14-1.53-.81s.24-1.16.7-1.57a6.82,6.82,0,0,1,3-1.55c.58-.15,1.17-.26,1.83-.4C91.73,89.3,91.66,89,91.57,88.51Zm186.19-13.8A6.48,6.48,0,0,0,276.59,70c-.47-.66-.95-1.22-1.9-.88a2.61,2.61,0,0,1-.73,0,23.62,23.62,0,0,0-9,1.58,9,9,0,0,0-4.75,4.22A21.63,21.63,0,0,0,258,82.57a27.07,27.07,0,0,0,5-.81,7.28,7.28,0,0,0,5-3.66,22.77,22.77,0,0,1,2.1-3,3.34,3.34,0,0,1,3.43-1.41c.68.12,1.36.24,2,.4S277,74.48,277.76,74.71Zm90.75,25.36a22.77,22.77,0,0,0-1.12-3.28,17.56,17.56,0,0,0-8.42-7.9,1.48,1.48,0,0,0-1.48.06c-2,1-3.95,2-5.93,2.93l-.81.42a16.18,16.18,0,0,1,9.08,12Zm9.07-6.4-.73-1.25a21.46,21.46,0,0,0-10.41-9,1.31,1.31,0,0,0-1.54.27c-1.47,1.17-3,2.28-4.48,3.42-.21.16-.41.34-.66.55,5.4,2,8.74,5.82,10.87,11A47.39,47.39,0,0,0,377.58,93.67Zm12.73-21.79c-.62.07-1.14.14-1.66.17a20.14,20.14,0,0,1-3.29.07,19.36,19.36,0,0,1-8.64-3.23,4.08,4.08,0,0,0-.5-.27l-3.13,6a31.76,31.76,0,0,1,7.18,3.15,27,27,0,0,1,6.05,5A30.23,30.23,0,0,0,390.31,71.88Zm-33.22,33.54a5.36,5.36,0,0,0-.14-3.53,17.19,17.19,0,0,0-3.3-5.41,12.63,12.63,0,0,0-4.28-3,2,2,0,0,0-1.64,0c-1.4.57-2.83,1.08-4.24,1.61-.32.12-.63.26-1,.4,4.22,3.25,6.92,7.25,7.41,12.72ZM347.46,109a7.37,7.37,0,0,0-.29-4.27c-.67-1.36-1.31-2.73-2.09-4a12.1,12.1,0,0,0-3.55-3.85,2.1,2.1,0,0,0-2.28-.25c-1.14.54-2.34,1-3.52,1.43-.56.23-1.1.48-1.76.77a14.18,14.18,0,0,1,6.53,13Zm43.83-46.89c-4.55,1.47-8.61,0-12.63-1.77-.6,2.25-1.18,4.41-1.78,6.67,4.2,2.67,8.92,3.21,13.83,3.34A32,32,0,0,0,391.29,62.08ZM369.7,13.25a2.83,2.83,0,0,0,.39.27,23.49,23.49,0,0,0,12.67,1.93,1.19,1.19,0,0,0,1-.89c.62-1.47,1.3-2.91,2-4.35.2-.42.45-.82.82-1.49-5.44,1.66-9.93-.47-14.54-2.56A23.71,23.71,0,0,0,369.7,13.25ZM369.6,15a26.6,26.6,0,0,0,.37,8.94.84.84,0,0,0,.77.66A23.2,23.2,0,0,0,382,23.44c.27-2.17.54-4.29.82-6.43C378.06,18.35,373.83,16.64,369.6,15ZM310.68,61.06c3.48,2,5.06,5.11,6.05,8.65a16.88,16.88,0,0,1,3.49-6.37c1.75-1.79,4.08-2.46,6.52-3.25l-1.22-.65a12.27,12.27,0,0,1-4.17-3.36,15.63,15.63,0,0,1-2.48-4.9,5.43,5.43,0,0,0-.33-.71c-.51,1.61-.89,3.12-1.47,4.55A9.6,9.6,0,0,1,310.68,61.06ZM170.77,95.46c6.51.31,20-9,22.62-15.51-1.73.46-3.42.88-5.1,1.35a16.91,16.91,0,0,0-7.81,4.63q-1.6,1.68-3.12,3.46a26.23,26.23,0,0,1-6.17,5.72A4.25,4.25,0,0,0,170.77,95.46ZM324,124.13c.9-.81,1.79-1.59,2.65-2.41A1.32,1.32,0,0,0,327,121a7.2,7.2,0,0,0-.69-4.4,31.08,31.08,0,0,0-1.84-3,16.13,16.13,0,0,0-5.42-4.7c-.36-.19-.71-.45-1.12-.09a20.15,20.15,0,0,0-4.29,4.89C319.09,115.23,322.23,119.05,324,124.13Zm58-99a11.94,11.94,0,0,1-5.5,1.64c-1.93,0-3.86-.19-5.84-.29a6.69,6.69,0,0,0,.18.85c.71,2,1.45,4.07,2.13,6.13a1.73,1.73,0,0,0,1.49,1.21c3.11.68,6.09,0,9-.83a.18.18,0,0,0,.09-.11C383,30.86,382.52,28.06,382,25.12Zm-47.82,90.42c.95-.58,1.72-1.11,2.54-1.56a4.11,4.11,0,0,0,2.16-4.07,12.32,12.32,0,0,0-4.92-9.36A7.4,7.4,0,0,0,333,100a1.55,1.55,0,0,0-1.62,0c-1.32.74-2.67,1.42-4,2.14a5.82,5.82,0,0,0-.58.41C331.43,105.62,334.28,109.63,334.16,115.54ZM329,119.46c.94-.73,1.84-1.42,2.71-2.14a1,1,0,0,0,.34-.62,17.66,17.66,0,0,0,.08-3.77,13.13,13.13,0,0,0-5.37-8.46,11.33,11.33,0,0,0-1.07-.61,1.22,1.22,0,0,0-1.47.11c-1.32,1-2.66,1.89-4,2.85a4.81,4.81,0,0,0-.54.57A17,17,0,0,1,329,119.46Zm60.74-67.67a39.11,39.11,0,0,0-3.11-8.5,14.9,14.9,0,0,1-9.51,1.46c.52,2.44,1,4.75,1.52,7.1a15.83,15.83,0,0,0,5.93.58ZM120.17,422.37c-.23,2,.13,2.78,1.87,3.35a38,38,0,0,0,5.45,1.42,58.6,58.6,0,0,0,13.94.55c2-.15,2.91-1.1,3-3.15C136.21,425.05,128.21,423.49,120.17,422.37ZM320,130.13a26.86,26.86,0,0,1,1.52-2.38,2.86,2.86,0,0,0,.59-2.86c-1.36-4.94-4.67-8-9.2-10a4,4,0,0,0-1.15,2.45c.11,1.82.36,3.63.55,5.41C316,124,317.85,125.8,320,130.13Zm70.21-77.56a13.66,13.66,0,0,1-11.36.74v5.31c4.16,1.82,9.44,2.51,12.53,1.61Zm-19.95,337.9c.21-4,.41-7.83.61-11.77a35.26,35.26,0,0,0-6-2.23c-.26,3.82.63,7.49-.28,11.07Zm6.38-347.3a26.64,26.64,0,0,0,9.76-1.08l-2.29-6.88c-.49.22-.88.43-1.29.6a15.77,15.77,0,0,1-2.17.81A11.62,11.62,0,0,1,375,36.5a5.9,5.9,0,0,0-.87-.12C375,38.72,375.8,41,376.6,43.17ZM138.23,84.07a56.52,56.52,0,0,0,10.76-4c1.62-.85,3.12-1.92,4.67-2.91a4.07,4.07,0,0,0,.62-.73c-.89,0-1.54,0-2.18,0-1.55-.11-3.1-.28-4.65-.4a6.65,6.65,0,0,0-5.11,1.6c-1.81,1.57-3.22,3.58-5.47,4.72ZM356.51,384.42c.52-3.18,1-6.32,1.55-9.52a15,15,0,0,0-5.34.1,1.39,1.39,0,0,0-1.19,1.2c-.31,1.61-.67,3.21-1,4.81-.13.7-.17,1.42-.26,2.15Zm-212.62,25a45.19,45.19,0,0,0,1.78-5.73l-9.6-1.77c-.54,1.77-1.07,3.55-1.6,5.28Zm215.24-34.55c-.37,3.51-.71,6.74-1.05,10l5.25,2.07c.19-3.67.38-7.23.58-11ZM141.34,416.18l2.19-5.62a11,11,0,0,0-1.13-.14,28,28,0,0,1-8.18-1.42,1.08,1.08,0,0,0-.41.05c-.64,1.72-1.29,3.46-1.91,5.15Zm233.22-38.24.48,1a25.15,25.15,0,0,1,1.79,6.22,47.81,47.81,0,0,1-.16,12.59c-.13,1.26-.34,2.51-.55,4a9.14,9.14,0,0,0,2.38-4.1,33.6,33.6,0,0,0,1.2-12.61,8,8,0,0,0-4.29-6.86C375.21,378.16,375,378.1,374.56,377.94Zm-245.8,42.82a105.36,105.36,0,0,0,10.72,1c.46-1.55.86-2.92,1.29-4.39-3.24-.29-6.36-.63-9.24-2Zm17.34-18.59a15.3,15.3,0,0,0,.6-4.15,1.52,1.52,0,0,0-1.18-1.63,11.39,11.39,0,0,0-5.9-.39,3.25,3.25,0,0,0-1.63,1,8.88,8.88,0,0,0-1.36,3.18ZM156.92,55a14.53,14.53,0,0,0,4-2.29,18.51,18.51,0,0,0,4.87-6.68c.75-1.68,1.57-3.33,2.36-5,.13-.28.28-.54.42-.81a7.68,7.68,0,0,0-2.13,1.22,24.86,24.86,0,0,0-6,7.25c-1.13,1.95-2.27,3.89-3.4,5.83A2.08,2.08,0,0,0,156.92,55Zm161.15,76.29c-.81-3-3.63-6.31-5.79-6.85v6.85ZM374,393.3c.26-4.79,0-9.25-2-13.45-.24,3.81.37,7.66-.61,11.41ZM91.94,90.56a8.45,8.45,0,0,0-4,2,15.58,15.58,0,0,0,4.5-.26C92.24,91.72,92.11,91.22,91.94,90.56Zm36.27-7c.06.38.1.62.17,1l1.44-.64,0-.26Z" transform="translate(-49.64)"/><path d="M85.72,352a1.1,1.1,0,0,1-1,1.23c-.45.06-.9,0-1.35.07a12.07,12.07,0,0,0-6.59,3A7.56,7.56,0,0,0,74.49,360c-.49,1.85-.83,3.74-1.23,5.62,0,.16,0,.33-.05.49-.13.85-.47,1.3-1,1.3s-1-.49-1.17-1.07c-.44-1.36-.89-2.72-1.31-4.08-1.36-4.48-4.47-7-8.93-8-.4-.09-.79-.2-1.18-.32a1.08,1.08,0,0,1-.15-2.08c1.1-.53,2.19-1.07,3.31-1.55a7,7,0,0,0,2.47-1.77,18.29,18.29,0,0,0,4.3-9.22c.33-1.84.39-3.73.58-5.6a9.91,9.91,0,0,1,.15-1.22.91.91,0,0,1,1-.77,1,1,0,0,1,1,.78,4.82,4.82,0,0,1,.11.85A33.71,33.71,0,0,0,75,343.5,14.83,14.83,0,0,0,79,348.82a8.85,8.85,0,0,0,5.2,2.22,1.93,1.93,0,0,1,.93.26A2.65,2.65,0,0,1,85.72,352Zm-5.9,0a18.94,18.94,0,0,1-5.28-5,30.54,30.54,0,0,1-3-6.57c-.14.46-.2.65-.27.83a36.44,36.44,0,0,1-1.54,4.13c-1.48,2.9-3.32,5.54-6.42,7a1.49,1.49,0,0,0-.35.3,14.18,14.18,0,0,1,5.49,3.21,19.48,19.48,0,0,1,3.35,5.55A12.31,12.31,0,0,1,79.82,352Z" transform="translate(-49.64)"/><path d="M111.26,40.74a15.48,15.48,0,0,0,1.82,6.69,6.25,6.25,0,0,0,3.51,2.72c.61.24,1.34.36,1.3,1.22s-.75,1-1.39,1.12a6.18,6.18,0,0,0-4.78,4.75,15.65,15.65,0,0,1-.41,1.53,1.06,1.06,0,0,1-1.92.3,5,5,0,0,1-.56-1.08,5.06,5.06,0,0,0-2.36-2.57c-1.24-.62-2.5-1.22-3.75-1.82-.26-.12-.53-.21-.79-.32-.56-.26-1.19-.47-1.21-1.23s.57-1.1,1.19-1.39,1.49-.68,2.2-1.08a9.64,9.64,0,0,0,4.39-4.95,14.88,14.88,0,0,0,.56-3.49c.07-.53,0-1.07.07-1.59a1.13,1.13,0,0,1,1.12-1.09c.57,0,.94.44,1,1.18C111.28,40,111.26,40.37,111.26,40.74Zm-6.94,11.2c2,1.14,4.17,1.82,5.68,3.81a8.78,8.78,0,0,1,3.75-4.51,23.62,23.62,0,0,1-2.1-2.2,22.14,22.14,0,0,1-1.47-2.59,7.24,7.24,0,0,1-2.27,3.32C106.82,50.54,105.63,51.16,104.32,51.94Z" transform="translate(-49.64)"/><path d="M297.4,55.7a5,5,0,0,1-1-.72,7.48,7.48,0,0,1-.77-1.25,16.3,16.3,0,0,0-6-6.19,6.68,6.68,0,0,1-1.22-.82,1,1,0,0,1,.29-1.82,6.62,6.62,0,0,1,1.66-.41,4.34,4.34,0,0,0,3.14-2.11,11.08,11.08,0,0,0,1.52-4c.26-1.33.45-2.66.67-4a1.76,1.76,0,0,1,.14-.71c.17-.24.46-.57.69-.56a1.29,1.29,0,0,1,.87.49,2.34,2.34,0,0,1,.27.93c.18.76.35,1.52.54,2.27A8.72,8.72,0,0,0,303.79,43c.42.17.84.31,1.26.49a1,1,0,0,1,.71,1,1.08,1.08,0,0,1-.79,1,2.18,2.18,0,0,1-.23.09,7.4,7.4,0,0,0-5,5c-.41,1.11-.7,2.26-1,3.4a2.9,2.9,0,0,1-.33.91A6.13,6.13,0,0,1,297.4,55.7Zm-.35-3.52c.85-3.26,2.2-5.9,5.11-7.71a10.09,10.09,0,0,1-5.49-5.94c-.22.7-.33,1.08-.45,1.45a10,10,0,0,1-2.05,3.87,9.66,9.66,0,0,0-.85,1.35l-2.32.69A21.4,21.4,0,0,1,297.05,52.18Z" transform="translate(-49.64)"/><path d="M97.48,373.12a2.21,2.21,0,0,1,1.11-2.27.93.93,0,0,1,1.23.13c.3.32.13.65,0,1-.3.67-.51,1.37-.81,2a3.47,3.47,0,0,1-.57.72c-.25-.22-.6-.4-.74-.68A3,3,0,0,1,97.48,373.12Z" transform="translate(-49.64)"/><path d="M193,422.69c.76-2.44,1.44-4.74,3.67-6.32a12.17,12.17,0,0,1-4.62-5.87c-.23.63-.37,1-.48,1.33a10.43,10.43,0,0,1-2.05,3.88,8.42,8.42,0,0,1-1.7,1.38,1.46,1.46,0,0,1-.93.15.74.74,0,0,1-.5-.46.68.68,0,0,1,.24-.6,8.07,8.07,0,0,0,2.94-4.69c.46-1.52.7-3.1,1-4.66.11-.52.16-1.05.27-1.57a1,1,0,0,1,.92-.85,1.77,1.77,0,0,1,1,.47,2.4,2.4,0,0,1,.46,1c.27.86.49,1.73.76,2.59a10.48,10.48,0,0,0,4.44,6,16.46,16.46,0,0,1,1.62,1.1,1.36,1.36,0,0,1-.4,2.43.21.21,0,0,1-.11,0c-2.12.27-3,1.79-3.59,3.58-.38,1.21-.65,2.45-1,3.68-.06.23-.09.48-.16.72-.26.86-.73,1.33-1.4,1.34a1.54,1.54,0,0,1-1.47-1.1,12.49,12.49,0,0,0-5-5.55,14.64,14.64,0,0,1-2-1.65,1,1,0,0,1-.2-1.33c.37-.5.82-.32,1.32-.15a14.4,14.4,0,0,1,5.9,4.06Z" transform="translate(-49.64)"/><path d="M216.61,348.89c-.22.62-.56.71-1,.53-2.57-1-4.41-2.53-4.84-5.45a64.73,64.73,0,0,1-.6-10.77c0-2.41.17-4.82.34-7.22a67.69,67.69,0,0,1,4.94-20.79,28.1,28.1,0,0,1,1.45-2.84,7.3,7.3,0,0,1,.8-1l.22.11a2,2,0,0,1,0,.64c-.24.87-.5,1.73-.79,2.58a88,88,0,0,0-4.07,16.77,84.31,84.31,0,0,0-.62,8.56c-.1,3.1,0,6.22.06,9.32a43.26,43.26,0,0,0,.46,4.39c.24,1.77,1.46,3,2.61,4.19C215.93,348.28,216.29,348.59,216.61,348.89Z" transform="translate(-49.64)"/><path d="M150.47,339.75c1.86-3,2.32-6.3,3.31-9.4,1.54-4.83,3.8-9.2,7.7-12.59a29.27,29.27,0,0,1,9.77-5.51c1.11-.38,2.27-.62,3.42-.9.2,0,.59,0,.64.15a1.52,1.52,0,0,1,0,.79c0,.1-.14.2-.24.27-1.37.94-2.54,2.15-4.16,2.77a23.64,23.64,0,0,0-14.41,15.24c-.59,1.61-1.09,3.26-1.74,4.85a19.6,19.6,0,0,1-1.72,3.23,4.38,4.38,0,0,1-1.52,1.17C151.31,339.94,151,339.79,150.47,339.75Z" transform="translate(-49.64)"/><path d="M218.41,346.59a7.69,7.69,0,0,1-.27-1.48c0-3.31,0-6.62.19-9.92.14-2.77.41-5.55.79-8.29,1-7.68,2.67-15.22,6.13-22.23A20.91,20.91,0,0,1,227,302c.23-.34.53-.69,1-.46s.45.63.32,1.06a18.13,18.13,0,0,1-.83,2.68,64.66,64.66,0,0,0-5.16,15.93,157,157,0,0,0-2.5,18.81c-.14,1.84-.41,3.66-.64,5.48a6.4,6.4,0,0,1-.33,1.11Z" transform="translate(-49.64)"/><path d="M203,431.67l-.49.87c.9.94,1.82,1.92,2.8,3a31.22,31.22,0,0,1,1.9-2.8,26.54,26.54,0,0,1,2.35-2.19l-3.72-3.76c-.2.45-.43,1-.67,1.48a5.07,5.07,0,0,1-1.84,2.25,2.39,2.39,0,0,1-1.13.36c-.2,0-.5-.26-.6-.47s.1-.49.26-.6a5.74,5.74,0,0,0,2.29-3.77c.21-.83.39-1.68.59-2.51a1.16,1.16,0,0,1,1-1,1.22,1.22,0,0,1,1.28.76,4.6,4.6,0,0,1,.25.55,9.34,9.34,0,0,0,4.35,5,9.36,9.36,0,0,1,1.26.76,1.31,1.31,0,0,1-.17,2.31,5.69,5.69,0,0,1-.56.26,7.53,7.53,0,0,0-4.1,4c-.31.67-.6,1.35-.86,2a1.69,1.69,0,0,1-1.36,1.26c-.75.1-1.18-.38-1.61-.92-1.05-1.35-2.15-2.66-3.24-4-.13-.16-.29-.29-.42-.45-.68-.82-.74-1.55-.17-2.2A2,2,0,0,1,203,431.67Z" transform="translate(-49.64)"/><path d="M220.15,393.5a1.13,1.13,0,0,1,1.26.85c.23.65.44,1.31.67,2a6.22,6.22,0,0,0,3.25,3.66c.22.11.44.22.65.34,1.08.67,1.14,1.84,0,2.43a8.52,8.52,0,0,0-3.93,4.82,11.2,11.2,0,0,1-.47,1.13,1.36,1.36,0,0,1-2.46.22,15.14,15.14,0,0,0-4.7-4.59,1.46,1.46,0,0,1,.61-2.79,3.35,3.35,0,0,1,.59-.14c1.18.08,1.74-.71,2.28-1.55a10.75,10.75,0,0,0,1.48-4.75,2.91,2.91,0,0,1,.16-1A3,3,0,0,1,220.15,393.5Zm3,8.06-2.76-3a13.39,13.39,0,0,1-3.42,4.48l3,2.7Z" transform="translate(-49.64)"/><path d="M241.11,336.9c-.73-.07-1-.34-.68-1a5.45,5.45,0,0,1,1.16-1.71,53.67,53.67,0,0,1,4.7-4.1A77.14,77.14,0,0,1,264,320.36c3.54-1.4,7.09-2.73,10.65-4.08a11.65,11.65,0,0,1,2-.56,1,1,0,0,1,.8.32c.14.4-.25.49-.59.59a20.94,20.94,0,0,0-2.2.72A161.33,161.33,0,0,0,251,328.88a48,48,0,0,0-8.26,6.12A21.56,21.56,0,0,0,241.11,336.9Z" transform="translate(-49.64)"/><path d="M277.9,321.89c-.21.26-.31.46-.47.55a10.47,10.47,0,0,1-1.21.6l-18.69,8-4.16,1.81a3.61,3.61,0,0,1-.8.32.59.59,0,0,1-.5-.21.57.57,0,0,1,0-.54,3.11,3.11,0,0,1,.84-.7,32.52,32.52,0,0,1,3.25-1.71q9.78-4.12,19.57-8.17a5,5,0,0,1,1.42-.37C277.37,321.48,277.61,321.73,277.9,321.89Z" transform="translate(-49.64)"/><path d="M180,299.28a1.6,1.6,0,0,1,1.8.06,28.65,28.65,0,0,1,3.81,2.18,27.65,27.65,0,0,1,7.65,8.36c1.6,2.67,3.09,5.39,4.61,8.1a14.33,14.33,0,0,1,.56,1.37c-.73.06-.88-.37-1.08-.69-.72-1.09-1.38-2.22-2.11-3.31-1.76-2.6-3.46-5.26-5.35-7.77a24.8,24.8,0,0,0-9.38-7.91A2.77,2.77,0,0,1,180,299.28Z" transform="translate(-49.64)"/><path d="M194.57,303c.15-.39.48-.4.79-.23a8.94,8.94,0,0,1,1.33.87,11.86,11.86,0,0,1,3.26,4.54,92.69,92.69,0,0,1,4.79,13.64,14.72,14.72,0,0,1,.25,1.9l-.25.1a2.88,2.88,0,0,1-.5-.56c-.31-.71-.58-1.44-.85-2.17-1.3-3.52-2.54-7.08-3.93-10.57a29.47,29.47,0,0,0-2.43-4.66A25.47,25.47,0,0,0,194.57,303Z" transform="translate(-49.64)"/><path d="M300.64,360.43a3.72,3.72,0,0,1-.19.59c-1.48,2.77-2.93,5.56-4.46,8.3-.73,1.32-1.56,2.58-2.41,3.83a3.94,3.94,0,0,1-1.2,1,.85.85,0,0,1-.74-.14c-.13-.1-.12-.43-.1-.65a1.39,1.39,0,0,1,.23-.43c2.05-3.44,4.08-6.88,6.15-10.31a13.25,13.25,0,0,1,1.28-1.79A1.1,1.1,0,0,1,300.64,360.43Z" transform="translate(-49.64)"/><path d="M294.51,354.86c-.13.13-.34.45-.42.43-.75-.26-1.16.32-1.61.67-1.57,1.18-3.07,2.45-4.65,3.61-1.75,1.27-3.55,2.47-5.36,3.66a3.75,3.75,0,0,1-1.36.53.82.82,0,0,1-.7-.32.93.93,0,0,1,.16-.73,1.86,1.86,0,0,1,.57-.46c3.59-2.43,7.17-4.88,10.77-7.28a6.08,6.08,0,0,1,1.66-.75C294,354.09,294.36,354.28,294.51,354.86Z" transform="translate(-49.64)"/><path d="M298.18,355.92a6.94,6.94,0,0,1-.41.71q-3.36,4.32-6.74,8.61c-.61.77-1.29,1.48-1.95,2.2a2,2,0,0,1-.65.55,1.17,1.17,0,0,1-.88.11c-.39-.23-.23-.65,0-1a9.46,9.46,0,0,1,.76-1.11q2.94-3.47,5.9-6.91c.91-1.05,1.86-2.06,2.82-3.08C297.3,355.7,297.67,355.39,298.18,355.92Z" transform="translate(-49.64)"/><path d="M174.23,348.58a1.34,1.34,0,0,1-.38-.22,13,13,0,0,1-1.55-1.87c-.8-1.42-1.5-2.89-2.21-4.36a2.19,2.19,0,0,1,0-.89,3.32,3.32,0,0,1,.9.15,1.83,1.83,0,0,1,.65.53,13.58,13.58,0,0,1,3.16,6C174.86,348.33,174.66,348.51,174.23,348.58Z" transform="translate(-49.64)"/><path d="M178.82,345.18a7.89,7.89,0,0,1,0,1.46,3,3,0,0,1-.51.87c-.25-.22-.64-.4-.73-.68a21.14,21.14,0,0,1-.66-2.72c-.21-1.12-.34-2.25-.5-3.38a1.12,1.12,0,0,1,0-.48c.07-.21.17-.5.34-.57a.72.72,0,0,1,.65.12,4.52,4.52,0,0,1,.74,1.1A8.4,8.4,0,0,1,178.82,345.18Z" transform="translate(-49.64)"/><path d="M253.2,165l.93,3.26c5.05-.1,10-1.2,15.11-1.49a3,3,0,0,0-.21-.47c-2.6-3.18-2.67-6.74-1.19-10.3a17.38,17.38,0,0,1,9.47-9.34,13.38,13.38,0,0,1,5.79-.83,3.56,3.56,0,0,1,1,.39l0,.34a8.54,8.54,0,0,1-1.2.33c-.69.08-1.39.08-2.08.1a11.16,11.16,0,0,0-5.94,2.08,17.48,17.48,0,0,0-6,6.69A10.06,10.06,0,0,0,268,163a6.92,6.92,0,0,0,1.73,3.2,1.56,1.56,0,0,0,1,.49c2.73-.24,5.45-.55,8-.82.62-1,1.1-1.84,1.66-2.63a25.13,25.13,0,0,0,4-11.22c.24-1.65.48-3.31.75-5a5.28,5.28,0,0,1,.43-1.4.92.92,0,0,1,.65-.41c.13,0,.34.29.44.49a2,2,0,0,1,.15.72,36.24,36.24,0,0,1-1.39,12.86,40,40,0,0,1-2.14,4.67c-.17.36-.4.69-.72,1.23a18.78,18.78,0,0,0,2-.35,54.77,54.77,0,0,0,5.36-1.71,10.56,10.56,0,0,0,6.74-8.28c.37-2.05.67-4.1,1-6.29l-3.47,1.74c0,.45,0,1,0,1.5a1,1,0,0,0,.41.95c1.77,1.52,1.26,3.38.66,5.19a.59.59,0,0,1-.93.36,11.35,11.35,0,0,0-.11-1.63,9.45,9.45,0,0,0-.57-1.62,3.51,3.51,0,0,0-.58-1.06,2,2,0,0,1-.47-2.26,4.93,4.93,0,0,0,.18-.9c-1.14-.22-2.39.43-3.43-.47.16-.63.67-.71,1.14-.79a21.25,21.25,0,0,0,6.15-2.39,2.89,2.89,0,0,0,1.59-2,39.58,39.58,0,0,1,1.66-5,11.52,11.52,0,0,1,3.35-4.64,1.32,1.32,0,0,0,.53-1.26,33.55,33.55,0,0,0-.23-4c-.88-4.71-4.33-6.07-8.32-4.33a9.38,9.38,0,0,0-5.68,6.38c-.1.37-.26.74-.39,1.11l-.29,0c-.13-.25-.38-.52-.36-.75a9.28,9.28,0,0,1,.47-2.87,10.74,10.74,0,0,1,8.58-6.53c.56-.08,1.13-.13,1.74-.2.06-1.74.56-3.41-.08-5.12a2,2,0,0,1,.68-2.11c1.28-1.44,1.29-1.8,0-3.3-.53-.61-1.15-1.16-1.73-1.74-1.22-1.22-1.07-2.19.45-3,.36-.18.74-.34,1.1-.54,1.19-.65,1.44-1.27.86-2.52a6.55,6.55,0,0,0-1.33-1.88,9.91,9.91,0,0,0-4.12-2.34c-.33-.09-.69-.12-.69-.54s.39-.55.76-.61a2,2,0,0,1,.49,0,9.47,9.47,0,0,1,6.18,3.44,6.9,6.9,0,0,1,1,2,3.24,3.24,0,0,1-1.38,4c-.37.25-.75.47-1.23.75.29.3.55.55.78.82a19.87,19.87,0,0,1,1.82,2.29,3.16,3.16,0,0,1-.35,4c-.25.31-.53.61-.82.93a7.31,7.31,0,0,1-.3,6.09,7.89,7.89,0,0,1,4.13,4.27,12.53,12.53,0,0,1,.72,6,8.83,8.83,0,0,1,1.15-.11,2.48,2.48,0,0,1,.94.16.56.56,0,0,1,.26.48.61.61,0,0,1-.39.38,9.34,9.34,0,0,0-5.88,4.83,23.9,23.9,0,0,0-2.42,7.68c-.44,2.63-.75,5.27-1.21,7.88-.86,4.86-3.8,8-8.25,9.93a30.21,30.21,0,0,1-8.29,2.13c-4.75.59-9.51,1-14.27,1.5-3.09.31-6.19.63-9.29.87-1.29.1-2.6,0-4.06,0,.26,1.38.51,2.6.72,3.82s.46,2.42.55,3.64a12.77,12.77,0,0,1-.18,2.68,1.48,1.48,0,0,1-1.11,1.33,1.44,1.44,0,0,1-1.71-.77l.56-.6c-.47-2.91-.88-5.7-1.36-8.47-.25-1.4-.59-2.8-1-4.18a5.66,5.66,0,0,0-3.79-4,27.74,27.74,0,0,0-7.29-1.6,86.22,86.22,0,0,0-8.94-.48,54.17,54.17,0,0,0-14.22,1.65,15,15,0,0,0-6.92,3.77c-.41.41-1,.74-.76,1.53,0,.15-.26.54-.48.62a2.19,2.19,0,0,0-1.13,1.37,48.24,48.24,0,0,0-2.9,9c-.25,1-.52,2.06-.82,3.08-.21.71-.24.71-.93,1.26-.52-.47-.28-1.08-.19-1.58.49-2.61,1-5.22,1.58-7.81.33-1.42.88-2.8,1.34-4.27a1.66,1.66,0,0,0-.46-.07,27.66,27.66,0,0,1-11-1.05,10.63,10.63,0,0,1-2.33-1.07,6.51,6.51,0,0,1-1.13-1.1c.55-.06.82-.17,1-.1,4.35,1.56,8.84,1.45,13.36,1.32a2.84,2.84,0,0,0,2.84-1.93,23.62,23.62,0,0,1-2-2.23,12.53,12.53,0,0,1-2.14-7.19,43.2,43.2,0,0,1,.32-4.39c0-.45.11-.88.17-1.38a2.83,2.83,0,0,0-.62-.19,5.52,5.52,0,0,1-4-2.07,9.13,9.13,0,0,1-2.53-5.73,12.92,12.92,0,0,1,1.93-8.21,8.71,8.71,0,0,1,3-2.88,5.28,5.28,0,0,1,6.11.25l.69.45c0-1.51,0-2.84.05-4.16s-.4-2.55.13-3.76l.36,0a8.64,8.64,0,0,1,.51,1.27,27.63,27.63,0,0,1,.37,11.45c-.29,1.69-.67,3.36-1,5.05,0,0,.09.15.14.15a9.39,9.39,0,0,1,7.89,8.19,10.22,10.22,0,0,1-2.54,7.83c-.72.84-1.49,1.63-2.25,2.43a11.33,11.33,0,0,1-1,.78c-.4-.64.06-.93.29-1.26,1-1.44,2.1-2.83,3.07-4.29a8.34,8.34,0,0,0,1.13-6.83c-.73-3-2.8-4.91-5.51-6.19a7,7,0,0,0-1.36-.32,6.93,6.93,0,0,0-.32.83c-.76,3.09-1.58,6.17-2.24,9.29a14.15,14.15,0,0,0,.07,6.21,10.42,10.42,0,0,0,1.5,3.47c.43.64.8,1.31,1.25,2,4.26-3.54,9.44-4.32,14.69-5a23.23,23.23,0,0,1-1.18-2.33,13.44,13.44,0,0,1-.65-6.29,8.49,8.49,0,0,1,1.06-3.5,4.67,4.67,0,0,1,4.53-2.59,35.38,35.38,0,0,1,4.23.64c2.49.5,4.94,1.19,7.43,1.59a27.33,27.33,0,0,0,12.38-.89,24.48,24.48,0,0,1,6.58-1.41,12.9,12.9,0,0,1,3.51.37,4.65,4.65,0,0,1,3.45,4.55A12.4,12.4,0,0,1,264,155.2a21.12,21.12,0,0,1-8.18,8.93,9.43,9.43,0,0,1-1.82.67C253.77,164.89,253.5,165,253.2,165Zm-25.86-18.58a2.45,2.45,0,0,0-2.42,1.09,6.79,6.79,0,0,0-1,2.2,13.17,13.17,0,0,0,1.21,9.18h1.47c2.2-.06,4.41-.17,6.61-.18,1.31,0,2.61.12,3.92.19.37,0,.7,0,1-.34a9.63,9.63,0,0,1,4.32-3.12l1-.49c0-.1,0-.2-.07-.3-1.17,0-2.35.06-3.52,0s-2.44-.24-3.66-.42a17.57,17.57,0,0,1-5.41-1.5A5.9,5.9,0,0,1,227.34,146.46Zm1,.06a5.67,5.67,0,0,0,4.15,4.42c.47.13.94.26,1.42.37a43,43,0,0,0,7.42.83,68.17,68.17,0,0,0,20.08-1.79c.46-.13.91-.29,1.33-.42.08-1.78-.56-2.74-2.18-3a12.4,12.4,0,0,0-3.65.06,35.31,35.31,0,0,0-4.62,1.22,28.25,28.25,0,0,1-14.65.64c-2.55-.56-5-1.35-7.58-2C229.51,146.74,229,146.65,228.33,146.52Zm-22.23-3.67.29,0c.62-2.5,1.27-5,1.85-7.49.34-1.43.06-2-1.25-2.66a3.45,3.45,0,0,0-3.73.08,9.52,9.52,0,0,0-2.06,1.9,9.34,9.34,0,0,0-1.91,5.35c-.35,4.31,1.42,7,5.26,8.77.47-1.68.94-3.35,1.43-5.08-.93,0-1-.67-1.28-1.2-.81-1.74-1.5-3.57-3.53-4.39a1.17,1.17,0,0,1,1.47-.43,3.9,3.9,0,0,1,2.43,2.28C205.46,140.92,205.76,141.9,206.1,142.85Zm33.58,16.22c1.45.23,2.63.37,3.78.61,3.32.69,6.68,1.35,8.92,4.23l4.51-3.54c-.94-2.7-3.06-3.49-5.47-3.91a15.63,15.63,0,0,0-7,.5A15.44,15.44,0,0,0,239.68,159.07Zm22.89-7.4c-2.78,1.76-5.73,2-8.6,2.71a7.83,7.83,0,0,1,4.94,4A15.89,15.89,0,0,0,262.57,151.67Z" transform="translate(-49.64)"/><path d="M248.61,204.61l.78,2.9-.22.09c-.12-.21-.25-.42-.35-.64-.25-.52-.48-1-.73-1.55a1.75,1.75,0,0,0-1.78-1c-6.38.12-12.77.1-19.15.3a76.27,76.27,0,0,0-13.89,1.41,31.26,31.26,0,0,0-5.37,1.68,8.32,8.32,0,0,0-5.25,6.49c-.48,2.78-.84,5.58-1.16,8.38-.68,5.89-1.26,11.79-2,17.67-.93,7.77-1.62,15.55-1.79,23.37,0,.85-.14,1.71-.24,2.56a3.08,3.08,0,0,1-.36.76,2.85,2.85,0,0,1-.43-.66,8.27,8.27,0,0,1-.13-1.22,127.16,127.16,0,0,1,.59-19.61c.72-6.87,1.48-13.74,2.22-20.61.34-3.13.65-6.26,1.05-9.39.67-5.32,3.75-8.62,8.74-10.31a36.62,36.62,0,0,1,8.75-1.81c4.2-.36,8.41-.65,12.61-.77q8.22-.24,16.45-.15a56.21,56.21,0,0,1,7.32.64,8.72,8.72,0,0,1,6.77,5.11,22.91,22.91,0,0,1,2.2,7.63c.38,3.08.64,6.18.8,9.28.2,3.71.34,7.44.34,11.16,0,5.48-.17,11-.26,16.45-.06,3.23,0,6.47-.17,9.7a24.32,24.32,0,0,1-.64,4.22c-.47,2.12-2.23,3-4,3.91a.79.79,0,0,1-.75-.13,1.14,1.14,0,0,1,0-.87,2.77,2.77,0,0,1,.64-.74,7.28,7.28,0,0,0,2.27-5.14c.06-1.47,0-2.94.07-4.42.12-6.3.27-12.6.37-18.9.05-2.94.06-5.89,0-8.84-.09-3.8-.25-7.6-.45-11.4a40.32,40.32,0,0,0-1.24-8.24c-.14-.51-.33-1-.5-1.51a7.67,7.67,0,0,0-7.16-5.58A27.14,27.14,0,0,0,248.61,204.61Z" transform="translate(-49.64)"/><path d="M223.54,213.12c.22,3.5-.28,6.78-.37,10.08s-.29,6.57-.21,9.94c.21-.22.43-.43.65-.65,2.38-2.36,4.75-4.73,7.16-7.06,1.16-1.12,2.06-1.14,3.21,0a27.45,27.45,0,0,1,2.65,3.05c1.1,1.47,2.1,3,3.14,4.54l.44.55c.09-1.32.24-2.44.22-3.55-.12-4.91.24-9.81.57-14.7a9.34,9.34,0,0,1,.31-1.38,1,1,0,0,1,.9,1c.09.9.21,1.79.21,2.69,0,6,0,11.94,0,17.92,0,2.81-.33,5.63-.39,8.45s0,5.39.09,8.09c0,1.11-.39,1.65-1.48,1.62a13.59,13.59,0,0,1-2.54-.33,5.71,5.71,0,0,0-2.18,0,25.83,25.83,0,0,1-3.4.39c-2.33.11-4.66.17-7,.21a16.59,16.59,0,0,1-2.44-.18c-1.72-.23-2.34-.92-2.42-2.67,0-1-.06-2.05-.06-3.07,0-5.15-.15-10.32.11-15.46a114.77,114.77,0,0,1,1.87-17.91C222.66,214.13,222.64,213.51,223.54,213.12Zm16.19,30.44a7.93,7.93,0,0,1-2.79-2.49c-1.91-2.29-3.88-4.54-5.85-6.78-.84-1-1-.95-2-.21-1.89,1.3-3.74,2.64-5.65,3.91a1.48,1.48,0,0,0-.74,1.4c0,3.76-.07,7.52-.1,11.29,0,1.15.1,1.25,1.22,1.35a3.93,3.93,0,0,0,.49,0c3.35-.06,6.7-.19,10.05-.15,1.69,0,3.36-.53,5.06-.14.17,0,.37-.08.58-.13C239.89,249,239.81,246.34,239.73,243.56Zm-7.42-17.19c-.61.52-1.06.87-1.48,1.25-2.46,2.28-4.91,4.58-7.38,6.85a2,2,0,0,0-.51,2.55c.95-.78,1.89-1.56,2.86-2.33s1.93-1.51,2.91-2.24a2.16,2.16,0,0,1,3.2.08,7,7,0,0,1,.64.58l6.7,7.34c.17.19.36.37.66.68,0-.6.07-1,.1-1.4.1-1.34.26-2.7-1-3.68-.12-.1-.16-.28-.25-.42-1.32-2.07-2.61-4.16-4-6.19C234.08,228.4,233.21,227.47,232.31,226.37Z" transform="translate(-49.64)"/><path d="M216.48,109.21a16.92,16.92,0,0,0-2.67,6.72,7.91,7.91,0,0,0,.12,3.65c.37,1.22.92,1.59,2.09,1a18.81,18.81,0,0,0,3.66-2.2,22.21,22.21,0,0,0,5.62-6.76c1.56-2.79,3.06-5.6,4.46-8.47a15.17,15.17,0,0,1,2.53-3.08c.24-.27.59-.51,1-.06-1.82,4.93-2.69,9.88.59,15,.19-.61.28-1,.42-1.34.49-1.26,1-2.51,1.5-3.76.16-.4.45-.79.9-.62a1.56,1.56,0,0,1,.79.81c.24.6.31,1.27.5,1.89a12,12,0,0,0,.73,2,4.62,4.62,0,0,0,6,2.27,6.76,6.76,0,0,0,3.61-3.35,25.58,25.58,0,0,0,2.18-6.49c.28-1.28.53-2.57.85-3.83.13-.53.22-1.35.93-1.24s.48,1,.4,1.44a4.35,4.35,0,0,0,.47,2.73,19.46,19.46,0,0,0,7.73,8.34,6.34,6.34,0,0,0,3.13,1,3,3,0,0,0,2.82-1.43,11.73,11.73,0,0,0,1.34-2.87c.56-2,1-4,1.45-6a4.25,4.25,0,0,1,.37-1.16.92.92,0,0,1,.66-.37c.14,0,.33.31.42.51a1.25,1.25,0,0,1,0,.61c-.3,2.27-.57,4.55-.94,6.81a8.65,8.65,0,0,1-1.65,3.79,5.24,5.24,0,0,1-5.41,2.1,10.84,10.84,0,0,1-4.28-1.78,20.38,20.38,0,0,1-6-6.37c-.19-.3-.38-.61-.7-1.15-.14.73-.24,1.21-.31,1.71a13.66,13.66,0,0,1-2.27,5.77,8.13,8.13,0,0,1-4.9,3.46,6.51,6.51,0,0,1-7.84-3.87,6,6,0,0,0-.78-1.46c-.15.88-.29,1.75-.44,2.62a8.3,8.3,0,0,1-.24,1.32,1.23,1.23,0,0,1-2.06.58,4.33,4.33,0,0,1-.59-.62,12.76,12.76,0,0,1-3-8.11,1.88,1.88,0,0,0-.22-1c-.17.39-.36.78-.53,1.17a30.41,30.41,0,0,1-5.9,9.12,18.84,18.84,0,0,1-5,3.9,9.08,9.08,0,0,1-2.05.77,3.11,3.11,0,0,1-3.92-2.24,8.94,8.94,0,0,1-.29-3.77,12.53,12.53,0,0,1,2.7-6.75,5.36,5.36,0,0,1,1-.93A.73.73,0,0,1,216.48,109.21Z" transform="translate(-49.64)"/><path d="M198.18,268.35c3.34,1,6.8.87,10.2,1.13,5.75.43,11.5.77,17.25,1.16,4,.26,7.91.56,11.87.82,2.57.17,5.15.27,7.72.43a2.63,2.63,0,0,0,3-2.13,30.17,30.17,0,0,0,.54-4.12c.29-5.43.52-10.87.75-16.3.09-2.17.15-4.34.13-6.51-.07-7.44-.15-14.89-.31-22.33-.05-2.2-.39-4.4-.59-6.6A2.36,2.36,0,0,1,249,212c.27.6.5,1,.64,1.44a30.63,30.63,0,0,1,1.37,8.7c.17,7.77.32,15.54.32,23.32,0,4.16-.32,8.33-.51,12.5-.13,2.7-.29,5.39-.44,8.08a13.83,13.83,0,0,1-1.46,5.89c1.43-.07,2.68-.09,3.92-.19.89-.07,1.78-.24,2.67-.33a8.56,8.56,0,0,1,1.13,0c.17.64-.22.77-.54.93a12.15,12.15,0,0,1-5,1.24,158,158,0,0,1-16.43-.39c-2.24-.15-4.49-.21-6.73-.36-3.92-.27-7.83-.58-11.74-.88-3.51-.27-7-.51-10.52-.83-1.78-.16-3.57-.43-5.33-.75a5.9,5.9,0,0,1-1.9-.81A.76.76,0,0,1,198.18,268.35Z" transform="translate(-49.64)"/><path d="M210.34,244.36h-2.58a10.14,10.14,0,0,1-1.46-.1c-1.4-.23-1.89-.85-1.79-2.28.13-1.71.3-3.42.43-5.13.08-1.06.14-2.12.19-3.18.27-6,.92-11.9,1.71-17.82,0-.36.14-.72.21-1.08.39-1.78.54-2,2.37-2.24a23.51,23.51,0,0,1,6.49,0c1.33.18,1.77.76,1.55,2.13-.79,4.79-.64,9.62-.65,14.45a94.47,94.47,0,0,1-.6,12c-.37,2.87-1,3.35-3.79,3.2-.69,0-1.39,0-2.08,0Zm-3.2-7.64,7.79.22a20.33,20.33,0,0,0,.2-5.85,30.17,30.17,0,0,1-8-.1Zm.11-6.88,8.08.29v-4.8c-2.63.52-5.12,0-7.79-.28C207.44,226.65,207.35,228.22,207.25,229.84Zm8.33-10.22L207.9,219c-.09,1.66-.17,3.18-.26,4.79l7.73.56C215.44,222.83,215.5,221.26,215.58,219.62Zm-1.38,22.93a13.47,13.47,0,0,0,.71-4.24l-8-.32c-.16,1.36-.33,2.88-.53,4.56Zm-6.09-28.43c-.06,1.31-.12,2.62-.19,4,1.45,0,2.71,0,4,0s2.49.21,3.8.33a22,22,0,0,0,.43-4.43C213.47,213.69,210.91,214.07,208.11,214.12Z" transform="translate(-49.64)"/><path d="M293.34,113.77c.47.25.43.57.21.85a9.36,9.36,0,0,1-3.57,3.1,3.06,3.06,0,0,1-3-.45,7.48,7.48,0,0,1-2.67-3.14c-.18-.36-.33-.73-.56-1.22-.27.26-.5.45-.71.67a4.79,4.79,0,0,1-5.15,1.39,7.18,7.18,0,0,1-5-4.79,3.72,3.72,0,0,1-.17-1.33.72.72,0,0,1,.79-.79l.22.68a6.8,6.8,0,0,0,3.95,4.28,3.27,3.27,0,0,0,4.5-1.53c.32-.52.57-1.08.84-1.63a1.22,1.22,0,0,1,1.22-.84,1.27,1.27,0,0,1,1.13,1c.21.57.37,1.17.56,1.75a7.87,7.87,0,0,0,1.81,3.16,2.36,2.36,0,0,0,3.4.47C291.9,114.89,292.62,114.3,293.34,113.77Z" transform="translate(-49.64)"/><path d="M271,119.3a1,1,0,0,1-.35,0,14.8,14.8,0,0,0-8.92-.61c-.85.17-1.8.3-2.25,1.27.27.72.92.93,1.5,1.19a19.47,19.47,0,0,0,6.39,1.66,30,30,0,0,0,4.64,0,3.32,3.32,0,0,0,2.39-1.17c-.37-.92-1.45-.93-2.07-1.5.05-.13.06-.24.11-.26a3.53,3.53,0,0,1,3.39,1.35,1.35,1.35,0,0,1-.39,1.67,8.3,8.3,0,0,1-1.86,1.14,10,10,0,0,1-4.59.55,23.36,23.36,0,0,1-8-1.77,9.76,9.76,0,0,1-1.93-1.06c-1.37-1-1.29-2.48.17-3.41a4.26,4.26,0,0,1,1.1-.52,15.22,15.22,0,0,1,9.18.18A1.87,1.87,0,0,1,271,119.3Z" transform="translate(-49.64)"/><path d="M222.45,125.13l-.37,0c-.85,0-1.17-.28-.83-1.06a16.81,16.81,0,0,1,1.34-2.32,1.76,1.76,0,0,1,.43-.43,13.85,13.85,0,0,1,9.35-3.42,4.77,4.77,0,0,1,2,.51A1.61,1.61,0,0,1,235,121a5.07,5.07,0,0,1-1.86,1.53,33.51,33.51,0,0,1-4.85,1.68c-1.9.47-3.85.72-5.78,1.07Zm-.28-.89.17.26c2.14-.53,4.29-1,6.4-1.6a29.93,29.93,0,0,0,3.66-1.39,4.36,4.36,0,0,0,1.38-1c.51-.53.39-1-.3-1.19a4,4,0,0,0-1.32-.2,12.38,12.38,0,0,0-8.44,3.42A20.83,20.83,0,0,0,222.17,124.24Z" transform="translate(-49.64)"/><path d="M263.3,128.83c.2,1.58.35,3.16.61,4.73.09.58.28,1.3,1,1.38a1.59,1.59,0,0,0,1.48-.95,17.55,17.55,0,0,0,1.07-2.33c.51-1.33.95-2.7,1.47-4,.2-.5.39-1.16,1.14-1.09.44,0,.56.56.21,1.62-.56,1.7-1.17,3.39-1.86,5.05a5.51,5.51,0,0,1-2,2.56,2.19,2.19,0,0,1-3.38-.64,6,6,0,0,1-.81-1.77,13,13,0,0,1-.1-6.44c.11-.46.17-1.1.83-1s.63.67.63,1.18,0,1.15,0,1.72Z" transform="translate(-49.64)"/><path d="M301.58,130.32c-3.57.39-5,1.62-6.54,5.63a3.06,3.06,0,0,1,2.33,2.78c0,1.44-.24,2.15-1,2.67-.53-.17-.53-.64-.62-1.08a8,8,0,0,0-.48-1.76c-.38-.84-.92-.85-1.41-.09a8.82,8.82,0,0,1-.53.82.88.88,0,0,1-1.19.28.89.89,0,0,1-.4-1.25c.31-.67.64-1.32,1-2,.65-1.22,1.25-2.47,2-3.65a6.12,6.12,0,0,1,3.93-2.91A3,3,0,0,1,301.58,130.32Z" transform="translate(-49.64)"/><path d="M225.2,128.43c.72.27.65.87.75,1.35.21,1.09.32,2.19.56,3.26a13.2,13.2,0,0,0,.73,2.2,1.4,1.4,0,0,0,1.12,1,1.57,1.57,0,0,0,.79-1.44c.18-1.42.29-2.84.44-4.26.09-.89.15-1.79.32-2.67a1.07,1.07,0,0,1,.66-.74c.49-.08.67.4.7.82a7.5,7.5,0,0,1,.06,1.83c-.28,1.85-.59,3.71-1,5.54-.23,1-.75,2-2,2.08a2.44,2.44,0,0,1-2.27-1.61,12.86,12.86,0,0,1-1.29-6.66.88.88,0,0,1,.1-.35A3,3,0,0,1,225.2,128.43Z" transform="translate(-49.64)"/><path d="M244.38,129.41c-.26.3-.51.61-.79.9a12.76,12.76,0,0,0-2.72,4.32,6.83,6.83,0,0,0,0,5.25c.41,1,.87,1.93,1.31,2.9a5.35,5.35,0,0,1,.39.89.86.86,0,0,1-.2.63c-.07.08-.36,0-.54-.06a.45.45,0,0,1-.19-.15c-1.61-1.94-3.06-4-3-6.65a10.61,10.61,0,0,1,3.89-7.88,2.89,2.89,0,0,1,.95-.54,2,2,0,0,1,.75.08C244.31,129.2,244.34,129.3,244.38,129.41Z" transform="translate(-49.64)"/><path d="M205.58,251.17a3.61,3.61,0,0,1,3.23-3.41,1.7,1.7,0,0,1,1.6.7c.31.42.7.79,1,1.19a2.54,2.54,0,0,1,.35,3.06,3.24,3.24,0,0,1-3.62,1.62A3.39,3.39,0,0,1,205.58,251.17Zm3.59-2a2.31,2.31,0,0,0-1.69,1.33,1.32,1.32,0,0,0,.25,1.58,1.51,1.51,0,0,0,1.69.4,1.32,1.32,0,0,0,.83-1.37A2.41,2.41,0,0,0,209.17,249.13Z" transform="translate(-49.64)"/><path d="M210.32,262.06a2.77,2.77,0,0,1-1.63,2.6,3.11,3.11,0,0,1-3.34-.46,2.86,2.86,0,0,1,.77-4.76c.44-.19.87-.4,1.32-.57a1,1,0,0,1,.58,0A3.86,3.86,0,0,1,210.32,262.06Zm-1.83-.26c0-.84-.25-1.19-.87-1.21A1.5,1.5,0,0,0,206.1,262a1.1,1.1,0,0,0,1.2,1.1C208.1,263.16,208.49,262.73,208.49,261.8Z" transform="translate(-49.64)"/><path d="M241,261.33a4,4,0,0,1-.81,2.56,2.1,2.1,0,0,1-3.45.18,4.11,4.11,0,0,1-.85-3.78,5.33,5.33,0,0,1,.43-1.37,1,1,0,0,1,.71-.5,4.87,4.87,0,0,1,2.94.64A2.22,2.22,0,0,1,241,261.33Zm-2.65,1.89a2.25,2.25,0,0,0,.65-2.47,1.63,1.63,0,0,0-1.66-1.1A3.57,3.57,0,0,0,238.38,263.22Z" transform="translate(-49.64)"/><path d="M215.52,247.91a6.93,6.93,0,0,1,.37,1.44c.23,4.33.44,8.66.6,13a11.13,11.13,0,0,1-.3,2.42c0,.22-.34.39-.51.57-.19-.19-.49-.35-.53-.57a10.84,10.84,0,0,1-.27-2.19c0-4.21.07-8.43.12-12.64,0-.67.12-1.33.18-2Z" transform="translate(-49.64)"/><path d="M298.16,164a4.34,4.34,0,0,1,.33.86q.74,5.45,1.43,10.9c.05.41.24,1-.35,1.16s-.82-.41-1-.86a12.83,12.83,0,0,1-1-4.39c-.08-2.15-.09-4.31-.08-6.47a4.8,4.8,0,0,1,.3-1.2Z" transform="translate(-49.64)"/><path d="M223.19,258.87c1.75,0,2.53.77,2.53,2.4a3.9,3.9,0,0,1-.85,2.5,2.24,2.24,0,0,1-3.6-.06A3.48,3.48,0,0,1,221,260,2.12,2.12,0,0,1,223.19,258.87Zm.87,2.63a2.58,2.58,0,0,0-.09-.74c-.16-.29-.35-.69-.62-.78-.45-.16-.75.2-.91.62a2.17,2.17,0,0,0,.12,1.89.62.62,0,0,0,1.15,0A5.7,5.7,0,0,0,224.06,261.5Z" transform="translate(-49.64)"/><path d="M224.92,212.72a6.06,6.06,0,0,1,1.11-.16c3.8.09,7.59.17,11.39.32a17.86,17.86,0,0,1,2.76.52,3.4,3.4,0,0,1,.65.4,27.79,27.79,0,0,1-3.45.35c-3.51-.11-7-.32-10.53-.5a6,6,0,0,1-1.32-.23,2.44,2.44,0,0,1-.64-.44Z" transform="translate(-49.64)"/><path d="M230.4,258.89a2.09,2.09,0,0,1,2.39,1.77,3.08,3.08,0,0,1-1.81,3.15,1.82,1.82,0,0,1-2.14-1,3.42,3.42,0,0,1-.28-2.49A1.63,1.63,0,0,1,230.4,258.89Zm.1,3.34c1-1.21.77-2.1-.47-2.3C229.82,261.21,229.84,261.35,230.5,262.23Z" transform="translate(-49.64)"/><path d="M289.76,124.24c-.08-1.59-.16-3.21-.25-4.83a1.6,1.6,0,0,1-.05-.48c.05-.22.14-.51.3-.59a.7.7,0,0,1,.64.15,2.44,2.44,0,0,1,.55.79,8,8,0,0,1,0,6.06,1.06,1.06,0,0,1-.77.61c-.45,0-.49-.44-.48-.82S289.75,124.56,289.76,124.24Z" transform="translate(-49.64)"/><path d="M308.16,135.56a3.66,3.66,0,0,1,4.18-.25,6.86,6.86,0,0,1,2.67,4.11c0,.09-.07.21-.15.43a3,3,0,0,1-.57-.4c-.7-.8-1.4-1.59-2.06-2.42a3.07,3.07,0,0,0-2.18-1.2C309.49,135.78,308.94,135.68,308.16,135.56Z" transform="translate(-49.64)"/><path d="M289.06,179.12a8.11,8.11,0,0,1,.69-1.19,1,1,0,0,1,.75-.31,2.38,2.38,0,0,1,1.79,2.55,1.6,1.6,0,0,1-1.45,1.13,1.36,1.36,0,0,1-1.46-.88A9.15,9.15,0,0,1,289.06,179.12Z" transform="translate(-49.64)"/><path d="M230.83,182c.07.4.14.81.22,1.29.51-.38.21-.74.17-1.1a2.61,2.61,0,0,1,.17-.75c.24.09.55.1.71.27a2.87,2.87,0,0,1,.45,2.74,1.36,1.36,0,0,1-1.24.86,1.17,1.17,0,0,1-1.21-.84,5.33,5.33,0,0,1-.14-1.78A.7.7,0,0,1,230.83,182Z" transform="translate(-49.64)"/><path d="M212.34,181.3c.71-.7,1-.65,1.38.2a1.66,1.66,0,0,1-.05,1.52,1.25,1.25,0,0,1-2,.36,2.4,2.4,0,0,1-.58-2.37c.09-.2.33-.5.46-.48s.43.27.61.45S212.29,181.19,212.34,181.3Z" transform="translate(-49.64)"/><path d="M246.66,143.83c-.11-.14-.42-.36-.44-.61a.67.67,0,0,1,.8-.71,1,1,0,0,1,.7.5C247.86,143.35,247.28,143.84,246.66,143.83Z" transform="translate(-49.64)"/><path d="M242.64,165.23c-.09,1.09-.19,2.18-.29,3.28a5.77,5.77,0,0,1-.11-3.29Z" transform="translate(-49.64)"/><path d="M154,130.65c-.18.19-.42.69-.76.77-2.18.57-2.86,2.3-3.33,4.17-.32,1.3-.48,2.65-.71,4,0,.25,0,.49-.08.73-.09.58-.36,1-1,1.09a1.09,1.09,0,0,1-1.12-.78,5.69,5.69,0,0,1-.25-.69,9.81,9.81,0,0,0-5.82-6.24c-.83-.34-1.63-.75-2.44-1.15a7.2,7.2,0,0,1-.85-.49,1.2,1.2,0,0,1-.65-1.22,1.37,1.37,0,0,1,1-1c1-.4,1.94-.83,2.91-1.24a4.33,4.33,0,0,0,2.62-3.18c.52-2.14.95-4.3,1.42-6.46.06-.27,0-.62.15-.83s.55-.67.87-.71a1.26,1.26,0,0,1,1,.52,5,5,0,0,1,.47,1.51c.35,1.51.66,3,1,4.54a8.53,8.53,0,0,0,1.85,3.55,6.05,6.05,0,0,0,2.7,1.84A1.38,1.38,0,0,1,154,130.65Zm-3.72-.05a29.86,29.86,0,0,1-2.5-3,28,28,0,0,1-1.64-3.35c-.62,1.37-1.25,2.74-1.86,4.12-.67,1.54-2.26,1.94-3.59,2.77a36.06,36.06,0,0,1,3.75,2.13,35.37,35.37,0,0,1,3.11,2.93C148.09,134.13,148.57,132.05,150.24,130.6Z" transform="translate(-49.64)"/><path d="M376.47,330.45l-.4,1.64a13.3,13.3,0,0,1-1.7,4.19,7.44,7.44,0,0,1-4.29,3.27,7,7,0,0,1-1.94.16,1.12,1.12,0,0,1-1.15-.85c.2-.11.39-.3.58-.31,2.79-.11,4.51-1.72,5.68-4.06a20,20,0,0,0,1.6-5.89c.16-1.05.31-2.1.44-3.16.07-.59.34-1.05.95-1.1a1.08,1.08,0,0,1,1.14.92c.14.51.26,1,.4,1.54a23.57,23.57,0,0,0,2.56,5.95,8.69,8.69,0,0,0,6.91,4.29,6.42,6.42,0,0,1,1.08.19,1,1,0,0,1,.76,1,1.06,1.06,0,0,1-.7,1c-.19.09-.4.11-.59.18-.91.36-1.85.66-2.72,1.1a10.12,10.12,0,0,0-5.86,7.68c-.19,1.25-.43,2.5-.65,3.74a3.11,3.11,0,0,1-.1.61,1.09,1.09,0,0,1-1.06.86,1.05,1.05,0,0,1-1-.73c-.14-.34-.18-.71-.32-1.06-.56-1.44-1.07-2.91-1.74-4.3a9.13,9.13,0,0,0-3.44-3.75,26.35,26.35,0,0,1-2.32-1.81,1.14,1.14,0,0,1-.41-.44c-.08-.25-.17-.64,0-.77a1,1,0,0,1,.82-.24c2.74,1.17,5.34,2.53,6.84,5.3.39.71.79,1.41,1.33,2.38a13.88,13.88,0,0,1,2.43-5.63,17.12,17.12,0,0,1,4.82-3.77,8.88,8.88,0,0,1-4.84-3.21C378.43,333.85,377.52,332.18,376.47,330.45Z" transform="translate(-49.64)"/><path d="M393.07,362.29a3.15,3.15,0,0,1-1-.76,17.12,17.12,0,0,0-3.93-4.17,7.45,7.45,0,0,1-1.28-1.46c-.41-.56-.37-.86.2-1.22a8.15,8.15,0,0,0,3.48-5.26c.24-.95.46-1.91.69-2.86.13-.55.39-1,1-1.05s1,.38,1.19.89.32.75.48,1.12a8.51,8.51,0,0,0,4.86,4.75l.11,0c.64.24,1.25.52,1.2,1.34s-.62,1-1.25,1.14a4.47,4.47,0,0,0-3.22,2.93c-.41,1.1-.76,2.23-1.1,3.37A1.56,1.56,0,0,1,393.07,362.29Zm-.77-12.72a9.06,9.06,0,0,1-3.59,5.36c1.46,1.25,2.85,2.43,4.3,3.65.66-1.92,1.39-3.82,3.12-4.91Z" transform="translate(-49.64)"/><path d="M86.68,259.86c-.51,2.56.28,5.12,1.08,7.65a12.82,12.82,0,0,0,5.29,7,7.56,7.56,0,0,0,3.5,1.4,2.29,2.29,0,0,1,.36.07c.68.19,1,.54,1,1.08s-.37.86-1,1a15.52,15.52,0,0,0-1.8.37,8.09,8.09,0,0,0-4.86,4.24,27.4,27.4,0,0,0-2.44,8.07c-.2,1.21-.36,2.42-.53,3.64a5.77,5.77,0,0,1-.1.6c-.19.66-.59,1-1.1,1a1.08,1.08,0,0,1-1-1q-.26-1.95-.48-3.9a36.42,36.42,0,0,0-1.67-7.28,6.11,6.11,0,0,0-3.61-3.93c-1.28-.54-2.54-1.12-3.81-1.68l-.46-.19a1.08,1.08,0,0,1-.8-1.22c.11-.63.58-.82,1.17-.87a20.76,20.76,0,0,0,2.07-.22,5.33,5.33,0,0,0,4.35-3.34,32.51,32.51,0,0,0,2.22-8c.19-1.25.25-2.52.37-3.77a11.68,11.68,0,0,1,.16-1.34,1.15,1.15,0,0,1,1.19-1c.59,0,.93.44,1,1.19C86.69,259.45,86.68,259.57,86.68,259.86Zm-1.1,7.83c-.49,1.44-.9,2.58-1.29,3.74-.29.88-.54,1.77-.86,2.64a2.85,2.85,0,0,1-.63.88,18.52,18.52,0,0,1-1.49,1.45c-.52.43-1.09.78-1.68,1.19a2,2,0,0,0,.35.25,8.39,8.39,0,0,1,5.11,6c.3,1.13.65,2.25,1.07,3.69,1.29-4.34,2.58-8.38,6.84-10.59A15.88,15.88,0,0,1,85.58,267.69Z" transform="translate(-49.64)"/><path d="M112,275a1.34,1.34,0,0,1-1.09-1.15c-.29-1.06-.56-2.13-.86-3.19a12.64,12.64,0,0,0-.48-1.39,7.58,7.58,0,0,0-3.18-3.79c-.84-.51-1.71-1-2.58-1.41-.62-.31-1.27-.57-1.9-.87A1.25,1.25,0,0,1,101,262c0-.52.44-.92,1.14-1.11,1.26-.36,2.5-.76,3.78-1.06a2.71,2.71,0,0,0,1.84-1.47,19.15,19.15,0,0,0,2.26-7.71c.1-1.1.13-2.21.2-3.31a1.91,1.91,0,0,1,.19-.94,1.28,1.28,0,0,1,.85-.55,1.44,1.44,0,0,1,.89.5,1.52,1.52,0,0,1,.25.81,38.68,38.68,0,0,0,2.22,8.4,7.42,7.42,0,0,0,6.46,5.11c.36,0,.73.08,1.09.15a1,1,0,0,1,.88.89,1,1,0,0,1-.62,1.1,4,4,0,0,1-.57.22l-1,.28a9.55,9.55,0,0,0-7.21,7.71c-.19.92-.34,1.85-.52,2.77S112.64,275.06,112,275Zm-6.16-12.23a11.29,11.29,0,0,1,6.11,6.49,11,11,0,0,1,6.14-7.06c-1.62-1-3.23-1.86-4.13-3.41s-1.5-3.08-2.33-4.83a21.48,21.48,0,0,1-2.91,6.77,2.34,2.34,0,0,1-.65.68C107.45,261.86,106.78,262.24,105.87,262.79Z" transform="translate(-49.64)"/><path d="M402.2,94.25a21.51,21.51,0,0,1,5.94,4.9c1.12-2.88,2-5.71,4.43-7.6a32.28,32.28,0,0,1-3.25-2.29,29,29,0,0,1-2.53-2.9c-.25.61-.45,1.23-.74,1.8a21.7,21.7,0,0,1-1.49,2.67,4.1,4.1,0,0,1-3,1.79,2.71,2.71,0,0,1-1.2-.11c-.24-.09-.38-.45-.57-.69.22-.15.43-.39.66-.43a4.08,4.08,0,0,0,3.3-2.64c.73-1.77,1.32-3.6,1.92-5.42.23-.68.34-1.44,1.22-1.46s1.09.72,1.29,1.41a9.18,9.18,0,0,0,5.3,5.93c.7.33,1.43.59,2.15.88a1.28,1.28,0,0,1,.92,1.18,1.18,1.18,0,0,1-.86,1.22,6.83,6.83,0,0,0-4,4.26c-.59,1.43-1,2.92-1.54,4.39-.11.31-.18.63-.29.94a1.4,1.4,0,0,1-1.28,1,1.37,1.37,0,0,1-1.3-.76,13.35,13.35,0,0,0-3.43-3.82c-1.15-.9-2.43-1.64-3.66-2.44a10.91,10.91,0,0,1-1.35-.84,1.17,1.17,0,0,1,.33-2.07,3.09,3.09,0,0,1,2.51,0C402.21,93.34,402.25,93.46,402.2,94.25Z" transform="translate(-49.64)"/><path d="M350.91,279.83a11.61,11.61,0,0,0-1.79,5.56,7.78,7.78,0,0,0,6.7,8.56,7,7,0,0,0,7.66-6,9.57,9.57,0,0,0-1.83-7,6,6,0,0,0-6.34-2.52,3.53,3.53,0,0,1-.84.15c-.25,0-.62-.13-.69-.3a.76.76,0,0,1,.19-.73,9.22,9.22,0,0,1,2.08-1,5.36,5.36,0,0,1,3.71.39,7.72,7.72,0,0,1,2.06,1.3,10.79,10.79,0,0,1,3.25,11.07,8.24,8.24,0,0,1-6.94,6.34c-3.57.6-6.39-.91-8.63-3.6a8.26,8.26,0,0,1-1.58-7.41,20.39,20.39,0,0,1,1.35-3.66A1.9,1.9,0,0,1,350.91,279.83Z" transform="translate(-49.64)"/><path d="M363,246a9.76,9.76,0,0,0-2.51,4.76,13.52,13.52,0,0,0-.38,3,6.72,6.72,0,0,0,6.18,6.63,7.13,7.13,0,0,0,7.18-4.31,6.71,6.71,0,0,0-1.4-7.89,11,11,0,0,0-4.68-3,.71.71,0,0,1-.43-.48.74.74,0,0,1,.31-.59,1.21,1.21,0,0,1,.81-.11c3.59,1.08,6.46,3,7.6,6.79,1.56,5.21-2.61,11.19-8,11.53-6,.37-10.26-5-8.7-11a10.4,10.4,0,0,1,2.38-4.64A1.72,1.72,0,0,1,363,246Z" transform="translate(-49.64)"/><path d="M414.82,233.08c-.83.93-1.6,1.66-2.22,2.51-2.58,3.51-3.2,7.28-1.33,11.31a6.55,6.55,0,0,0,2.33,2.8,3.57,3.57,0,0,0,4.44-.21c1.94-1.59,2.32-3.75,2.15-6.09a14.27,14.27,0,0,0-1.74-5,3.39,3.39,0,0,1-.35-.78,2.69,2.69,0,0,1,.08-.79c.26,0,.61,0,.77.15a8.57,8.57,0,0,1,1.74,1.88,10.26,10.26,0,0,1,.78,9.09,6.64,6.64,0,0,1-4.1,4,5.3,5.3,0,0,1-5-.86,9.08,9.08,0,0,1-3.5-5.6A11.07,11.07,0,0,1,412.73,234,2.71,2.71,0,0,1,414.82,233.08Z" transform="translate(-49.64)"/><path d="M421,254.91l-1.11,1a6,6,0,0,0-1.4,7.17c.93,2,2.57,2.52,4.41,1.28a8.63,8.63,0,0,0,1.91-1.86,3.08,3.08,0,0,0,.41-3.14c-.39-1-.75-2-1.11-3a3.6,3.6,0,0,1-.3-.93.73.73,0,0,1,.27-.6.69.69,0,0,1,.63.13c1.26,1.66,2.66,3.25,2.85,5.46a3.59,3.59,0,0,1,0,.73c-.36,2.74-3.49,5.65-6.25,5.76a4.1,4.1,0,0,1-3.11-1.21,7,7,0,0,1,.95-10.47A1.78,1.78,0,0,1,421,254.91Z" transform="translate(-49.64)"/><path d="M334.73,245.28c-.24.36-.33.52-.44.66a11.09,11.09,0,0,0-1.88,9.32,5,5,0,0,0,1.5,2.76,2.8,2.8,0,0,0,4,.1,5.61,5.61,0,0,0,1.8-2.73,8.75,8.75,0,0,0-1.15-8.06,11.41,11.41,0,0,1-.69-1c-.08-.15-.09-.49,0-.54a1.53,1.53,0,0,1,.66-.11.18.18,0,0,1,.1.06c1.06.95,2.26,1.82,2.72,3.25a9.94,9.94,0,0,1-1.15,8.92c-1.11,1.64-2.62,2.78-4.74,2.48a5,5,0,0,1-4-3.6,11,11,0,0,1,1-9.57,8.29,8.29,0,0,1,1.46-1.63C334,245.43,334.29,245.42,334.73,245.28Z" transform="translate(-49.64)"/><path d="M407.37,272.18c-.13.35-.22.64-.35.91-.37.84-.31,1.28.43,1.8a7.85,7.85,0,0,0,1.93,1,2.93,2.93,0,0,0,1.66,0,4.29,4.29,0,0,0,2.5-5.32,3.06,3.06,0,0,0-2.4-2,5.52,5.52,0,0,0-5,1.51,11.26,11.26,0,0,1-1.59,1.44,3.49,3.49,0,0,1,.11-.86,6.23,6.23,0,0,1,8.36-3,5.07,5.07,0,0,1,2.44,5.09,6.13,6.13,0,0,1-3,4.67,4.75,4.75,0,0,1-6.78-2.49A2,2,0,0,1,407.37,272.18Z" transform="translate(-49.64)"/><path d="M366,300.18a3.75,3.75,0,0,1,1.76-1.6,7.9,7.9,0,0,1,5.72-.61,3.87,3.87,0,0,1,3.05,3,3.68,3.68,0,0,1-1.66,3.83c-2.74,2-5.57,1.38-7.79-.67-.32-.3-.5-.69-.11-1.07s.63-.23,1,.11a5.53,5.53,0,0,0,5.66.38,2.44,2.44,0,0,0,1.36-2.3,2.36,2.36,0,0,0-1.87-2,7.76,7.76,0,0,0-5.82.63l-1.14.58Z" transform="translate(-49.64)"/><path d="M340.65,268c.34,1.28.66,2.45,1,3.62a4,4,0,0,1-2.8,5.09,3.58,3.58,0,0,1-3-.34,7.24,7.24,0,0,1-3-7.93c.19-.55.36-1.17,1.29-1.36-.11.56-.2,1-.27,1.4a6.41,6.41,0,0,0,1.86,5.83,2.33,2.33,0,0,0,2.79.63,2.36,2.36,0,0,0,1.46-2.58c-.07-1.14-.26-2.27-.32-3.41C339.67,268.1,339.77,268,340.65,268Z" transform="translate(-49.64)"/><path d="M393,301.8a1.87,1.87,0,0,0,2.37-.74.9.9,0,0,0-.32-1.36,1.84,1.84,0,0,0-2.07.07c-.44.27-.83.6-1.29.93a2.59,2.59,0,0,1,2-2.44,2.82,2.82,0,0,1,2.63.62,2.34,2.34,0,0,1-.09,3.71,3.45,3.45,0,0,1-2.92.5C392.75,303,392.7,302.69,393,301.8Z" transform="translate(-49.64)"/><path d="M341.6,261.31a7.56,7.56,0,0,0,.33,1.08,3,3,0,0,0,.65,1,.74.74,0,0,0,1.31-.53,7.56,7.56,0,0,0-.06-1.34c0-.33-.1-.65-.13-1s-.09-.83.4-.87c.2,0,.53.35.62.6a11.94,11.94,0,0,1,.64,2.11,2.06,2.06,0,0,1-3.64,1.74A2.1,2.1,0,0,1,341.6,261.31Z" transform="translate(-49.64)"/><path d="M402.63,218c.27.67.26,1.53,1.43,1.34a13.09,13.09,0,0,1,0-1.66,1.34,1.34,0,0,1,.42-.9c.4-.25.65.13.84.47s.36.55.51.83a1.83,1.83,0,0,1-.3,2.16,2.09,2.09,0,0,1-2.19.7,2.15,2.15,0,0,1-1.44-1.81A1,1,0,0,1,402.63,218Z" transform="translate(-49.64)"/><path d="M339.23,286.76a.85.85,0,0,1,.77-.91,3,3,0,0,1,2.83.81,2.47,2.47,0,0,1,.82,2.55,1.88,1.88,0,0,1-1.92,1.57,1.21,1.21,0,0,1-.78-.4c-.07-.1.18-.47.3-.7,0-.07.14-.09.2-.14,1-.81.95-1.63-.07-2.37A2.74,2.74,0,0,0,339.23,286.76Z" transform="translate(-49.64)"/><path d="M335.73,235.08c.11.58.15,1,.27,1.45a1.13,1.13,0,0,0,1.68.85c.57-.22,1.1-.54,1.65-.8s.88-.46,1.34-.05a5.86,5.86,0,0,1-2.94,2.43,2.28,2.28,0,0,1-2.46-1.22A2,2,0,0,1,335.73,235.08Z" transform="translate(-49.64)"/><path d="M400,125.47c-.11.16-.21.33-.32.48q-4.46,5.92-8.91,11.84c-.93,1.24-1.9,2.46-2.85,3.68a3.47,3.47,0,0,1-.59.62.44.44,0,0,1-.73-.42,2.31,2.31,0,0,1,.29-.92,19.73,19.73,0,0,1,1.45-2.26c2.58-3.21,5.2-6.4,7.81-9.59a22.88,22.88,0,0,1,3.65-3.58Z" transform="translate(-49.64)"/><path d="M381.45,138.29c-.29-3.68-.56-4.55-2.25-7,1,.24,2.3,1.85,2.77,3.39A3.69,3.69,0,0,1,381.45,138.29Z" transform="translate(-49.64)"/><path d="M422,139.21c.46-2.51-.26-4.67-.54-7C422.83,133.18,423.17,137,422,139.21Z" transform="translate(-49.64)"/><path d="M92.79,138.84A37.8,37.8,0,0,1,96,141.39c3.39,3.32,6.72,6.69,10,10.09a11,11,0,0,1,1.53,2.2c.12.2-.07.57-.12.86a2.14,2.14,0,0,1-.75-.25c-.83-.79-1.65-1.59-2.41-2.44-2.55-2.83-5-5.69-7.6-8.51-1.31-1.45-2.69-2.84-4-4.26C92.69,139,92.74,138.92,92.79,138.84Z" transform="translate(-49.64)"/><path d="M114.22,142.8a9.58,9.58,0,0,0-1.51,7.46C110.33,148.86,112,144,114.22,142.8Z" transform="translate(-49.64)"/><path d="M72.11,147.79c-.08,2.47-.56,4.7.08,7C71,153.37,70.87,149.38,72.11,147.79Z" transform="translate(-49.64)"/><path d="M136.15,183.52c-1.57,4.19-19.11,23.38-22.54,24.89a4.75,4.75,0,0,1,.44-.79c1-1.05,1.93-2.11,2.94-3.12a228.82,228.82,0,0,0,18.2-19.92C135.48,184.21,135.82,183.87,136.15,183.52Z" transform="translate(-49.64)"/><path d="M103,201.54a15.33,15.33,0,0,1,3.3-3.48l-3,3.73Z" transform="translate(-49.64)"/><path d="M361,173.84c.5,0,.72.41,1,.67,1.23,1.2,2.44,2.41,3.65,3.63,5.12,5.14,10.71,9.73,16.27,14.37,1.06.89,2.12,1.8,3.16,2.71.32.29.6.62.89.93l-.2.25c-.42-.26-.87-.49-1.27-.79C374.51,188.1,362.58,177.06,361,173.84Z" transform="translate(-49.64)"/><path d="M395.69,188.5,393,186.23A5,5,0,0,1,395.69,188.5Z" transform="translate(-49.64)"/><path d="M353.28,219.58a1.69,1.69,0,0,1-1,1.8,2,2,0,0,1-2.19-.22,1.33,1.33,0,0,1-.39-1.75,10.29,10.29,0,0,1,1-1.78,1.07,1.07,0,0,1,.86-.25A2.18,2.18,0,0,1,353.28,219.58Z" transform="translate(-49.64)"/><path d="M363.35,214.52a1.7,1.7,0,0,1-2.79,1.52,1.5,1.5,0,0,1-.52-1.74,2.19,2.19,0,0,1,.33-.78c.36-.4.54-1.09,1.25-1a1.79,1.79,0,0,1,1.47,1.15A5.28,5.28,0,0,1,363.35,214.52Z" transform="translate(-49.64)"/><path d="M150.41,230.18a1.86,1.86,0,0,1-2-1.8,2.19,2.19,0,0,1,1.76-2.43,1,1,0,0,1,.72.28,13.52,13.52,0,0,1,.81,1.17,1.6,1.6,0,0,1,.36,1.8A1.81,1.81,0,0,1,150.41,230.18Z" transform="translate(-49.64)"/><path d="M141.29,224.36a1.72,1.72,0,0,1-3.43,0c0-1.05.85-2.23,1.69-2.25S141.27,223.42,141.29,224.36Z" transform="translate(-49.64)"/><path d="M101.06,84.51l19.84-5.69C118.28,80.28,105.13,84.09,101.06,84.51Z" transform="translate(-49.64)"/><path d="M108.6,72.59a19.07,19.07,0,0,1-7.36,1.8A35.8,35.8,0,0,1,108.6,72.59Z" transform="translate(-49.64)"/><path d="M109.4,74.45l2.12-.5,0,.14-2.11.55Z" transform="translate(-49.64)"/><path d="M245.64,81.16c-1.71-.1-3.83-.19-5.95-.37a8.84,8.84,0,0,1-2.38-.54A1.91,1.91,0,0,1,236,78a3.44,3.44,0,0,1,3.16-3.33,44.46,44.46,0,0,1,9.44-.06,25.07,25.07,0,0,1,3.75.62c1.83.46,2.3,1.32,1.91,3.17-.05.24-.1.48-.17.71-.51,1.71-1.25,2.3-3,2.27S247.73,81.25,245.64,81.16ZM247.58,80l3.72.15A1.6,1.6,0,0,0,253,79a9.8,9.8,0,0,0,.35-1.17c.14-.75,0-1.09-.74-1.32a14.65,14.65,0,0,0-4.89-.6C247.7,77.28,247.64,78.59,247.58,80Zm-6.42-.4,5.36.32a18.26,18.26,0,0,1-.11-2.1,14.55,14.55,0,0,1,.32-2h-5C241.53,77.15,241.36,78.29,241.16,79.63Zm-.66,0V76.05l-1.74-.18c-.74-.07-.85.54-1,1-.22.62-.7,1.26-.17,2a.72.72,0,0,0,.41.24C238.84,79.27,239.71,79.44,240.5,79.6Z" transform="translate(-49.64)"/><path d="M259.08,74.18a1.29,1.29,0,0,1-1.58.5,22.55,22.55,0,0,0-3.37-.55c-2.68-.29-5.37-.58-8.06-.76-2.32-.16-4.66-.25-7-.23a37,37,0,0,0-4,.47,3.07,3.07,0,0,1,2.34-1.37,33.48,33.48,0,0,1,4.89-.4c2.69,0,5.39.27,8.08.46,1.92.14,3.83.36,5.74.55a3.5,3.5,0,0,1,2.67,1.31c0,.06.2,0,.31,0Z" transform="translate(-49.64)"/><path d="M110.41,100.25l.72-.25,0,.12-.72.25Z" transform="translate(-49.64)"/></svg>