<svg id="OBJECTS" xmlns="http://www.w3.org/2000/svg" viewBox="0 0 441.36 436.67"><path d="M142.08,273.66c-1.71-1.41-3.61-2.56-5.22-4.1-1.91-1.77-3.48-3.86-5.22-5.79a11.62,11.62,0,0,0-1.26-1.27.68.68,0,0,0-.4-.17c-.45,0-.6.5-.41.84a34,34,0,0,0,2.94,4.74,23.84,23.84,0,0,0,8.29,7.56A1.11,1.11,0,0,0,142.08,273.66Z" transform="translate(-29.32 -31.67)"/><path d="M145.56,276.1a1.09,1.09,0,0,0-.08,2.17C147,278.46,147,276.16,145.56,276.1Z" transform="translate(-29.32 -31.67)"/><path d="M124,146.65c1.21.73,1.82-1,2.5-1.67a37.83,37.83,0,0,0,6.23-11.32c2-5.11,3.11-10.76,6.59-15.13a.5.5,0,1,0-.5-.87,12.42,12.42,0,0,0-2.3,2.65,28,28,0,0,0-3.09,5.86c-1.89,4.52-3.45,9.2-6,13.38-.87,1.43-1.78,2.84-2.66,4.26-.32.48-.65.95-1,1.42A1,1,0,0,0,124,146.65Z" transform="translate(-29.32 -31.67)"/><path d="M121.11,151.31a1.38,1.38,0,0,0,.87-2.4,1.44,1.44,0,0,0-1-.36,1.39,1.39,0,0,0-1.32,1.44,1.38,1.38,0,0,0,1.44,1.32Z" transform="translate(-29.32 -31.67)"/><path d="M264.42,104.08h0a40.24,40.24,0,0,1,7.65,4,40.9,40.9,0,0,1,7.87,6.37c2.42,2.53,3.94,5.6,5.53,8.73a1.13,1.13,0,0,0,2.06-1c-.46-1-.87-2-1.35-2.92-3.59-6.68-10-11.39-16.76-14.51a33.44,33.44,0,0,0-3.75-1.46c-.51-.12-1.48-.56-1.64.22A.5.5,0,0,0,264.42,104.08Z" transform="translate(-29.32 -31.67)"/><path d="M280.38,122.54a37.75,37.75,0,0,0-4.79-6.76,36.78,36.78,0,0,0-9.74-7.18c-.38-.19-.78-.35-1.17-.54a.32.32,0,0,0-.36,0c-.58.52.5.88.84,1.17a38.45,38.45,0,0,1,9.56,8.78c1.43,2,2.51,4.31,3.73,6.49.41.73.83,1.46,1.23,2.2a1.27,1.27,0,0,0,.81.58,1.33,1.33,0,0,0,1.6-1,1.37,1.37,0,0,0-.16-1C281.42,124.38,280.91,123.45,280.38,122.54Z" transform="translate(-29.32 -31.67)"/><path d="M206.17,210.81a13,13,0,0,0,10.56,6.89,14.61,14.61,0,0,0,12.77-5.2A12.51,12.51,0,0,0,231,210a6.5,6.5,0,0,0,1.12-2.89,5,5,0,0,0-3-5.36c-2.88-1.18-5.14-.5-8,.19a5.1,5.1,0,0,1-3.35-.61c-3.19-1.95-7.16-3.28-10.41-.7C204.17,203,204.35,207.63,206.17,210.81Zm2.6,1a11.92,11.92,0,0,1,1.2-.92,9.33,9.33,0,0,1,12.54,2.19,9.77,9.77,0,0,1,1.11,1.68.77.77,0,0,0,.19.27,13.24,13.24,0,0,1-5.2,1.32,12,12,0,0,1-6.07-1.18,13.14,13.14,0,0,1-4-3.14A1.71,1.71,0,0,0,208.77,211.78Z" transform="translate(-29.32 -31.67)"/><path d="M198.5,199.82a5.11,5.11,0,0,0,5.7-2.24,3.73,3.73,0,0,0,.06-2.22c-.26-1.31-.55-2.61-.76-3.92.61.76,2.31,3.69,3.32,2.18a18.56,18.56,0,0,0,1.65-3.27,38.1,38.1,0,0,0,1.77-4.47c.58-2,1.25-4.12.71-6.18a5.37,5.37,0,0,0-7.3-3.33c-4,1.75-5.65,6.53-7.1,10.33-.84,2.63-1.84,5.34-1.58,8.14A5.66,5.66,0,0,0,198.5,199.82Z" transform="translate(-29.32 -31.67)"/><path d="M232,197a4.87,4.87,0,0,0,4.32-2.06c.68-1-.3-2-.7-2.87a6.14,6.14,0,0,1-.44-3.73c.83,2,3.13,3.83,4.75,1.46a13.78,13.78,0,0,0,1.83-5.5,10.14,10.14,0,0,0-.79-5.91,5,5,0,0,0-7.37-1.91c-2.84,2-3.95,5.67-4.95,8.82-.67,2.48-1.32,5.14-.66,7.69C228.44,194.89,229.87,196.77,232,197Z" transform="translate(-29.32 -31.67)"/><path d="M193.34,206.29a.82.82,0,1,0,.14-1.56A.83.83,0,0,0,193.34,206.29Z" transform="translate(-29.32 -31.67)"/><path d="M186.18,207.58a1.3,1.3,0,1,0-1.26-1.33A1.3,1.3,0,0,0,186.18,207.58Z" transform="translate(-29.32 -31.67)"/><path d="M196.5,212.84a1,1,0,0,0-1.94-.06A1,1,0,0,0,196.5,212.84Z" transform="translate(-29.32 -31.67)"/><path d="M239,201.19c-1-.51-1.65,1.11-.55,1.39A.76.76,0,0,0,239,201.19Z" transform="translate(-29.32 -31.67)"/><path d="M243.94,204.3a1.13,1.13,0,1,0-1.14-1.11A1.14,1.14,0,0,0,243.94,204.3Z" transform="translate(-29.32 -31.67)"/><path d="M237.34,205.17a1.19,1.19,0,1,0,1.19,1.17A1.19,1.19,0,0,0,237.34,205.17Z" transform="translate(-29.32 -31.67)"/><path d="M167.56,168.79c.87.43,1.21-.48,1.58-1.07s.63-1,.92-1.52a29.34,29.34,0,0,1,3.09-4.41c2.36-2.75,5.39-4.77,8.24-6.94.73-.43.05-1.35-.63-.95a48.21,48.21,0,0,0-7.89,5.67,25.42,25.42,0,0,0-4.3,5.54,16.55,16.55,0,0,0-1,1.91C167.26,167.61,166.81,168.33,167.56,168.79Z" transform="translate(-29.32 -31.67)"/><path d="M165.26,174a.8.8,0,0,0,.38-1.54A.8.8,0,1,0,165.26,174Z" transform="translate(-29.32 -31.67)"/><path d="M316.72,193.19c-.44.23-.58.77-.79,1.18-.69,1.61-1.26,3.27-1.85,4.92-.67,1.94-1.47,3.84-2.21,5.75-.24.64-.44,1.28-.7,1.91a.82.82,0,0,0,.46,1.05c.66.25,1-.33,1.24-.88s.61-1.21.86-1.84c.75-2,1.51-4,2.16-6,.47-1.45.92-2.94,1.32-4.42.09-.49.41-1.07.12-1.52A.53.53,0,0,0,316.72,193.19Z" transform="translate(-29.32 -31.67)"/><path d="M308.89,211.56a.94.94,0,0,0,1.88,0A.94.94,0,0,0,308.89,211.56Z" transform="translate(-29.32 -31.67)"/><path d="M283,224.42c.3-.5,1.69-2.33,1.33-2.8-.21-.28-.56-.12-.72.12a24.68,24.68,0,0,1-3.35,3.93c-.7.59-1.38,1.21-2.13,1.75a.57.57,0,0,0,.28,1,.64.64,0,0,0,.42-.11l1-.73A13.35,13.35,0,0,0,283,224.42Z" transform="translate(-29.32 -31.67)"/><path d="M286,223.94a.78.78,0,0,0-.41.37c-.32.44-.67.86-1,1.28a37.64,37.64,0,0,1-3.71,3.54c-.37.32-.76.64-1.15.94a.64.64,0,0,0,.78,1l1.59-1.21a16.57,16.57,0,0,0,3.76-4c.28-.49.76-1,.72-1.59A.46.46,0,0,0,286,223.94Z" transform="translate(-29.32 -31.67)"/><path d="M95.72,266.05c.23-.28.55-.54.6-.92a.57.57,0,0,0-.67-.62,1.68,1.68,0,0,0-.66.38c-.59.46-1.15.95-1.73,1.42-1.13.92-2.27,1.81-3.41,2.71s-2.11,1.77-3.22,2.59a.68.68,0,1,0,.84,1.08c.84-.64,1.71-1.25,2.57-1.86A41.19,41.19,0,0,0,95.72,266.05Z" transform="translate(-29.32 -31.67)"/><path d="M97.5,267.76a.6.6,0,0,0-.39.19c-.34.31-.66.65-1,1-1.78,1.73-3.7,3.32-5.45,5.09a.79.79,0,0,0,0,1.12.8.8,0,0,0,1.12,0L93,273.9c.88-.87,1.71-1.78,2.54-2.7a17.41,17.41,0,0,0,2.31-3A.39.39,0,0,0,97.5,267.76Z" transform="translate(-29.32 -31.67)"/><path d="M133.41,242.55a5.34,5.34,0,0,0-1.26,1.25c-.47.58-.92,1.17-1.37,1.76-.9,1.16-1.61,2.44-2.39,3.68a.89.89,0,0,0,.35,1.21,1,1,0,0,0,1.35-.55c1.14-1.61,2.18-3.3,3.17-5,.27-.46.56-.92.8-1.4a.55.55,0,0,0,.17-.57A.59.59,0,0,0,133.41,242.55Z" transform="translate(-29.32 -31.67)"/><path d="M124.6,254.5a.8.8,0,0,0,1.59,0A.8.8,0,0,0,124.6,254.5Z" transform="translate(-29.32 -31.67)"/><path d="M146.68,329.34a1.57,1.57,0,0,0-.5.8,30.36,30.36,0,0,0-.82,2.93c-.55,2.31-.92,4.65-1.24,7a23.47,23.47,0,0,0-.2,2.36.93.93,0,0,0,.81.9.92.92,0,0,0,1-.68c.27-1.3.41-2.63.57-3.95.19-1.53.36-3.06.6-4.58.18-1.16.37-2.32.52-3.48a2.33,2.33,0,0,0,0-1.05A.53.53,0,0,0,146.68,329.34Z" transform="translate(-29.32 -31.67)"/><path d="M143.41,348.77c.52.85,1.83.18,1.67-.73C144.78,346.5,142.51,347.48,143.41,348.77Z" transform="translate(-29.32 -31.67)"/><path d="M261.45,386c-.52-4.56-1.38-9.07-2.19-13.58-.18-.68-.1-1.89-1.1-1.79a.77.77,0,0,0-.64.95c.72,4.89,1.22,9.82,2.27,14.66A.84.84,0,0,0,261.45,386Z" transform="translate(-29.32 -31.67)"/><path d="M261.06,390.73a1.28,1.28,0,0,0-1.25,1.29,1.27,1.27,0,1,0,1.25-1.29Z" transform="translate(-29.32 -31.67)"/><path d="M173.44,70.1l1.67-1.25q2.58-1.78,5-3.75,3.3-2.61,6.66-5.15c.05,2.87.1,5.75.11,8.62,0,2.31.16,4.6.34,6.9a1.14,1.14,0,0,0,2.28-.07c0-3.4-.07-6.81-.08-10.22l-.12-6.12q2.34,1.86,4.7,3.7c2.69,2.13,5.25,4.41,8.07,6.37a1,1,0,0,0,1.22-1.66A126.08,126.08,0,0,0,192.79,59l-2.35-1.76q3.54-2.6,7.14-5.13c1.44-1,2.83-2.12,4.2-3.25.66-.55,1.32-1.12,1.94-1.72a6.75,6.75,0,0,0,1.48-1.72c.21-.37-.26-.78-.62-.6a33.25,33.25,0,0,0-3,2.16c-2.56,2-5.23,3.73-7.9,5.51-1.48,1-2.95,2-4.41,3q-.09-6-.16-12c0-1.85,0-3.72-.14-5.56h0a.72.72,0,0,0-1.06-.49,1.53,1.53,0,0,0-.59,1.13,106.59,106.59,0,0,0-.59,13.84v2c-.77-.59-1.55-1.17-2.33-1.74-2.84-2.09-5.45-4.45-8.23-6.6-1-.78-2-1.57-3-2.29-.27-.18-.62-.42-.94-.22-.85.66.88,1.93,1.4,2.4,4.12,3.33,7.83,7,12.12,10.18l1.05.84v.24q-5.4,3.82-10.64,7.89c-1.35,1.07-2.67,2.18-4.06,3.21a1.12,1.12,0,0,0,1.4,1.75Z" transform="translate(-29.32 -31.67)"/><path d="M36.78,125.37a7.65,7.65,0,0,0,3,1c2.15.41,4.3.84,6.41,1.4a21.66,21.66,0,0,1,6.44,2.4c3,1.84,4.67,5,5.88,8.23a53.58,53.58,0,0,1,2.52,10.83c.26,2,.49,3.93.87,5.87a1.47,1.47,0,0,0,2.45.8,1.29,1.29,0,0,0,.94-.68,5.15,5.15,0,0,0,.29-2.07,46.78,46.78,0,0,1,.45-5.42c.79-4.52,2.71-9,6.21-12.09A31.26,31.26,0,0,1,81.89,130a63.81,63.81,0,0,1,8.56-3.09,10.49,10.49,0,0,1,1.25-.2,1.26,1.26,0,0,0-.32-2.49c-1.87-.13-3.71-.51-5.56-.79-6.1-1.11-13.21-3-17-8.31-1.61-2.32-2.25-5.1-2.87-7.81S65,101.71,64.29,99a2.4,2.4,0,0,0-.46-1,.56.56,0,0,0-.2-.11.66.66,0,0,0-1,.06,2.72,2.72,0,0,0-.29,1.35c-.06,1.46-.15,2.91-.33,4.35-.46,3.32-.55,6.8-1.93,9.89s-4,4.93-7.09,6.07a49.11,49.11,0,0,1-10.76,2.6l-2.61.34a7.61,7.61,0,0,0-2.68.53A1.42,1.42,0,0,0,36.78,125.37ZM61,117.1c1.91-2.78,2.52-6.07,2.78-9.37.15.77.31,1.54.48,2.3a16.84,16.84,0,0,0,4.07,8.51C72.69,123,79,125,85.05,126c-6.17,2.22-12.85,4.36-17.1,9.66a24.4,24.4,0,0,0-4.42,9.22,36.93,36.93,0,0,0-4.31-12c-3.49-5.72-8.95-6.85-15-8.26C49.72,123.69,57.67,122,61,117.1Z" transform="translate(-29.32 -31.67)"/><path d="M111.75,89.69C115.4,93,122.17,91.07,123,86.06c1-5-3.11-8.76-8.07-7.54C110.19,79.66,107.31,86.46,111.75,89.69Zm7.19-9.2c-.1.91,1.1,1,1.54,1.65,1.06,1.32.67,3.31-.1,4.7a5.14,5.14,0,0,1-3.84,2.29C107.59,89.07,111.37,78.15,118.94,80.49Z" transform="translate(-29.32 -31.67)"/><path d="M126.15,300.28c-.24-1.79-1.4-3.89-3.38-4-2.26-1.47-5.63-.18-7.07,1.9-2.29,3.15-.08,8.12,3.74,8.63A5.81,5.81,0,0,0,126.15,300.28Zm-9.33.11a4,4,0,0,1,5-2.93,1.17,1.17,0,0,0,.83.86,2,2,0,0,1,.7.65,3.55,3.55,0,1,1-6.48,1.42Z" transform="translate(-29.32 -31.67)"/><path d="M43.37,368.22c-.55,1.37-3.7,5.55-.9,5.95,1.57-.27,3.72-2.72,5.09-3.74a122.56,122.56,0,0,0,12.11-11.57c2.93,5.32,5.48,10.84,8.89,15.88a46.29,46.29,0,0,0,3.4,4.69c.55.6,1,1.43,1.82,1.69,4.7,1.2-3.68-23.15-4.37-25.59,2.71-1.11,5.62-1.67,8.38-2.66,4.76-1.69,9.63-3.15,14.18-5.38a1.26,1.26,0,0,0,.36-2.24c-1.25-.72-2.81-.62-4.21-.77-6.61-.37-13.22,0-19.83.18a83.82,83.82,0,0,0,3.25-14.06c0-1.27.56-2.67.09-3.89-.54-.85-1.6-.34-2.06.31-4.08,5.09-6.68,11.15-10,16.72a58,58,0,0,0-6.37-10.31c-1-1.44-2.07-3.1-3.13-4.54a2,2,0,0,0-.86-.75c-1-.39-1.59.79-1.43,1.67.62,5.83,2.91,11.32,4.68,16.87-5.9.79-11.51,2.86-17,5.1-1.34.55-2.67,1.13-4,1.69-1.09.37-2.93,1.35-1.77,2.65,1.08.82,4.05,0,5.47,0,5.56-.66,11.17-1,16.69-1.9C49,358.85,46,363.44,43.37,368.22Zm-8.63-13.9C61.42,342,54.69,357.39,49.5,331c2.26,3.28,4.72,6.48,6.79,9.89.72,1.21,1.47,2.42,2.08,3.71.26.65.7,1.45,1.46.79.61.13.9-.45,1.11-.92.46-.91.92-1.83,1.43-2.73C64.8,337.45,67,333.11,70,329.1a85.51,85.51,0,0,1-3.06,13.45c-1.17,3.35-.84,4.55,3,3.88a133.8,133.8,0,0,1,19.82.1A172.89,172.89,0,0,1,71.74,353c-5.31,1.3-4.51,2-3,6.63,2,6.3,4.3,12.6,5,19.2l-.26-.39c-4.51-6.13-7.92-13-11.64-19.61-.66-1.25-1.65-3.05-3.06-1.43-1.17,1.11-2.26,2.3-3.39,3.45a121,121,0,0,1-10.51,9.48c1.41-2.78,3-5.47,4.6-8.14s3.15-5,4.53-7.54c.93-1.72-.16-2.82-1.93-2C46.35,353.61,40.5,353.72,34.74,354.32Z" transform="translate(-29.32 -31.67)"/><path d="M469.16,71c-6-4.47-12.83-7.65-19.26-11.44,5-5.62,11.53-9.69,17-14.86.75-.93,2.39-1.79,2.56-3,0-1.17-1.36-1.37-2.24-1C459.23,43.44,452,48,444.55,52a96.51,96.51,0,0,0,.88-18.45c.08-1.71-1.32-2.74-2.16-.84a138.11,138.11,0,0,0-5.68,20.09,109.82,109.82,0,0,0-8.5-14c-1.27-1.49-3.27-4.53-5-5.2-1.53-.16-1.25,1.79-1,2.76,1.81,7,5.26,13.45,7.92,20.16-9,1.68-17.69,4.73-26.45,7.42-2,.43-2.23,2.69,0,2.68,5-.05,10-1,14.93-1.86,2.91-.52,5.83-1,8.7-1.64a112.08,112.08,0,0,0-6.4,12c-1.45,3.11-3.1,6.14-4.29,9.36-.33.87,0,2.11,1.06,2.18,1.84-.14,3.92-3.15,5.23-4.44a108.52,108.52,0,0,0,11.65-14.66A69.18,69.18,0,0,0,445.51,90.1c.43.6,1,1.27,1.83,1.1,2.07-.64,1-6.45.85-8.19a97.24,97.24,0,0,0-3.91-15c7.61,3,15.52,5.35,23.71,5.94C471.08,74.59,471.56,72.66,469.16,71Zm-19.33-3.06c-1.79-.6-3.57-1.24-5.34-1.9-.85-.38-2.36-.94-2.68.35,0,1.22.74,2.34,1.05,3.5,1.78,6.11,4.12,12.39,3.93,18.86l-.47-.76a74.72,74.72,0,0,1-7.19-15.14c-.56-1.67-1.05-3.36-1.53-5-.46-2.09-1.71-4.43-3.41-1.6a115.23,115.23,0,0,1-13.81,16.88,212.2,212.2,0,0,1,10.91-21.15c.17-1.3-1.15-1.54-2.1-1.06s-2.06.48-3.09.72c-5,1-10.1,2-15.19,2.65,5.44-1.81,10.87-3.67,16.46-5,1.29-.46,4.66-.71,5.22-2,.21-.6-.23-1.12-.49-1.62s-.56-1.21-.83-1.82c-1.59-3.54-3-7.14-4.52-10.73a36.85,36.85,0,0,1-2.44-7.49A68.86,68.86,0,0,1,432,46.46c1.82,2.89,3.46,5.89,5.27,8.79.43.84,1.72.36,1.29-.54.45-.32.4-.94.54-1.43.26-1.22.52-2.45.79-3.68,1.07-4.78,2.32-9.54,3.85-14.23-.1,4.34-.46,8.67-.94,13,0,1.56-1.27,5.07-.34,6.2s2.46-.25,3.45-.83c.76-.5,1.54-1,2.33-1.44a176.91,176.91,0,0,1,17.55-9c-4.38,4.06-9.16,7.63-13.67,11.55-1.47,1.5-3.71,2.68-4.31,4.81-.28,1.5,3.28,3,4.38,3.81,4.88,2.94,10.14,5.22,14.82,8.5A88.43,88.43,0,0,1,449.83,67.92Z" transform="translate(-29.32 -31.67)"/><path d="M357.41,42.43c3.14,1.62,7.13-.93,7.41-4.35a4.31,4.31,0,0,0-1.66-3.92,5.51,5.51,0,0,0-4.45-.14C354.94,35.21,353.55,40.43,357.41,42.43Zm2-7c.47.82,1.5.37,2.24.63,1,.76.72,2.29.06,3.18a2.9,2.9,0,0,1-2.13,1C356.44,40.14,357.32,36.54,359.46,35.45Z" transform="translate(-29.32 -31.67)"/><path d="M464.54,152.55a2.68,2.68,0,0,0-1.37-.25c-.93,0-1.86,0-2.78-.06-2.73-.14-5.47-.22-8.18-.57a20.73,20.73,0,0,1-4.94-1.06c-4.24-1.74-4.67-7.47-5.09-11.44l-.42-5.27a45.09,45.09,0,0,0-.65-5.68,1.07,1.07,0,0,0-2-.25,3.21,3.21,0,0,0-.16,1.24l-.09,2.79c-.28,1.64-.52,3.3-.67,5-.06.64-.09,1.27-.14,1.9,0,.3-.07.59-.11.88-.43,2.78-1,5.8-3.07,7.83-2.24,2.19-5.39,2.92-8.39,3.34s-6.2.63-9.29.93a1.86,1.86,0,0,0-1.71.83,1.17,1.17,0,0,0,.81,1.65A70.45,70.45,0,0,1,426.81,156c3.37.82,6.64,2.91,8,6.21,1.87,4.9,1.94,10.24,2.15,15.41,0,1.34.08,2.67.17,4,0,.62.08,1.38.77,1.61a1,1,0,0,0,1.24-.61,5.4,5.4,0,0,0,.18-1c.13-1,.25-1.9.37-2.85a57.87,57.87,0,0,1,1.09-7.06c.95-3.07,2.18-6.22,4.41-8.6,4.48-4,10.5-5.59,16.08-7.49,1-.35,2-.69,3-1A1.16,1.16,0,0,0,464.54,152.55Zm-21,9.48a23.93,23.93,0,0,0-4.64,9.59c-.81-10.42-3.11-16.11-14.15-18.23,4.29-.36,8.9-1.34,11.94-4.62,2.06-2.25,2.68-5.34,2.84-8.3.5,3.92,1.19,8.27,4.28,11.05,2.22,1.92,5.24,2.34,8.06,2.65,2.08.23,4.17.33,6.26.4C453.07,156.29,447.39,158.11,443.56,162Z" transform="translate(-29.32 -31.67)"/><path d="M467.31,411.49c-1.78.12-3.56.11-5.33.16-2.45.08-4.89.24-7.32.45.32-.27.63-.55.94-.83q4.8-4.23,9.42-8.66a1.06,1.06,0,0,0-1.4-1.58c-.68.6-1.38,1.17-2.08,1.74q-4.49,4-8.8,8.09c0-.9,0-1.81.05-2.71.06-4,.21-8,.33-12a.58.58,0,0,0-.71-.29c-.51.22-.49.88-.6,1.35-.72,4.77-1,9.6-1.31,14.42-.67-.56-1.35-1.12-2.05-1.67-2.34-1.79-4.74-3.49-7-5.39-.43-.35-.86-.7-1.3-1s-.78-.72-1.3-.67c-1.17.45.56,2.08,1,2.6,2.66,2.63,5.64,4.9,8.47,7.33-2.82.36-5.63.79-8.45,1.27-1.17.22-2.34.46-3.52.7-.31.07-.84.1-1,.45a.47.47,0,0,0,.2.62,2.86,2.86,0,0,0,1.13,0c1.25-.09,2.5-.17,3.74-.27,2.69-.21,5.38-.46,8.07-.68-1.91,1.89-3.8,3.8-5.68,5.75-2.36,2.3-4.73,4.69-7.16,6.93-.2.11-.39.25-.37.53.24,1,1.18.12,1.62-.23.93-.72,1.84-1.49,2.75-2.25,3.64-3,7.07-6.32,10.55-9.55-.39,5.48-1.07,10.94-1.13,16.44,0,.95-.08,1.89-.14,2.84a1.1,1.1,0,0,0,2.19.14c.08-1.43.2-2.86.33-4.29.35-4.92.75-9.83,1-14.75,4.5,4.1,8.8,8.43,13.43,12.38a1,1,0,0,0,1.26-1.43c-.67-.64-1.22-1.26-1.92-2-1.6-1.66-3.29-3.22-4.94-4.82-2.13-2.05-4.27-4.09-6.47-6.06l2.73-.12c3.64,0,7.26-.27,10.88-.52A1.22,1.22,0,0,0,467.31,411.49Z" transform="translate(-29.32 -31.67)"/><path d="M329.61,419.53c-2.77-2.53-7.19-1.87-10,.33-2.44,1.9-2.89,5.44-1.9,8.22a6.72,6.72,0,0,0,4.22,4,7.41,7.41,0,0,0,7.87-2,8.34,8.34,0,0,0,2-5.3,5.32,5.32,0,0,0-1-3.88C330.33,420.49,330.07,419.93,329.61,419.53Zm-5.43,10.86c-3.79-.13-5.67-3.89-4.3-7.22,1.21-2.66,5.36-3.81,7.89-2.48a1,1,0,0,0,.27.86,5.93,5.93,0,0,1,1.09,1.36C330,426.34,328,430.25,324.18,430.39Z" transform="translate(-29.32 -31.67)"/><path d="M461.72,233.63a6.73,6.73,0,1,0-.93,13.41c4.55.22,8.81-4.14,7.39-8.74a6.44,6.44,0,0,0-3.29-4.14A5.87,5.87,0,0,0,461.72,233.63Zm4.08,6.42c.18,2.47-2.22,4.45-4.53,4.66a4.8,4.8,0,0,1-4.25-2.45,4.87,4.87,0,0,1,2.51-6.16,1.28,1.28,0,0,0,.82.06,5.47,5.47,0,0,1,2.84.12A4.34,4.34,0,0,1,465.8,240.05Z" transform="translate(-29.32 -31.67)"/><path d="M402.29,141.44a.89.89,0,0,0,1-.61c.29-.93.47-1.9.69-2.86a56.49,56.49,0,0,0,1.11-6.85c.08-1,.16-2,.16-3.06,0-.35,0-.78-.21-1.07a.59.59,0,0,0-.95.21,9.31,9.31,0,0,0-.48,2.24c-.15,1-.29,2-.45,3-.34,2-.72,4-1.16,6-.14.67-.3,1.34-.4,2A.88.88,0,0,0,402.29,141.44Z" transform="translate(-29.32 -31.67)"/><path d="M400.88,147.27a1.27,1.27,0,0,0,1.29-1.23,1.26,1.26,0,1,0-1.29,1.23Z" transform="translate(-29.32 -31.67)"/><path d="M351.26,65.7a.66.66,0,0,0,.31-1.29,63.59,63.59,0,0,0-10.95-2c-.32,0-.7-.12-1,0-.47.35-.13.9.35,1,1.29.35,2.63.53,3.94.77C346.38,64.63,348.83,65.14,351.26,65.7Z" transform="translate(-29.32 -31.67)"/><path d="M353.56,69.07c-3.47-1-7-1.59-10.53-2.43-.43,0-2-.7-1.7.22.06.16.28.25.44.32.65.28,1.34.46,2,.69,3.1,1,6.28,1.83,9.45,2.62A.73.73,0,0,0,353.56,69.07Z" transform="translate(-29.32 -31.67)"/><path d="M120.61,370.39a29,29,0,0,0-1,3,42.24,42.24,0,0,0-1,4.29c-.09.94-.94,2.87.45,3.15,1.2.1,1.15-1.45,1.32-2.28q.33-2.13.69-4.26c.19-1.11.41-2.22.6-3.33a1.93,1.93,0,0,0,0-1C121.33,369.39,120.78,369.9,120.61,370.39Z" transform="translate(-29.32 -31.67)"/><path d="M118.07,384.44a1,1,0,0,0,2-.13A1,1,0,1,0,118.07,384.44Z" transform="translate(-29.32 -31.67)"/><path d="M98.19,367.07a.9.9,0,0,0,1-.56,18.75,18.75,0,0,0,.77-2.41c.54-1.78,1.21-3.52,1.87-5.26.42-1.09.83-2.18,1.18-3.29.09-.53.61-1.32-.08-1.63a.55.55,0,0,0-.71.32l0-.05a.21.21,0,0,0,0-.06,43.63,43.63,0,0,0-4.18,9.42C97.92,364.46,96.79,366.74,98.19,367.07Z" transform="translate(-29.32 -31.67)"/><path d="M98.06,369a1,1,0,0,0-1.29,1.39A.95.95,0,0,0,98.06,369Z" transform="translate(-29.32 -31.67)"/><path d="M195.74,319.77a50.91,50.91,0,0,1,6.87,6.59,53.59,53.59,0,0,1,3.43,4.37.92.92,0,0,0,.53.46.82.82,0,0,0,.93-1.18,28.48,28.48,0,0,0-2.92-3.83,37.08,37.08,0,0,0-8.09-7c-.26-.12-.58-.33-.86-.18A.41.41,0,0,0,195.74,319.77Z" transform="translate(-29.32 -31.67)"/><path d="M204.32,332.88c-2.15-3.22-4.37-6.62-7.61-8.84a1.17,1.17,0,0,0-.41-.19.42.42,0,0,0-.45.56,1.57,1.57,0,0,0,.45.51c.51.48,1,1,1.46,1.52a47.8,47.8,0,0,1,3.65,5.19c.77,1.19,1.56,2.35,2.31,3.55a.88.88,0,0,0,1.53-.86Q204.8,333.59,204.32,332.88Z" transform="translate(-29.32 -31.67)"/><path d="M357.9,366.8c1.22-.7,2.43-1.43,3.6-2.22,5.25-3.94,9.76-9.63,11.17-16.15.13-.66.23-1.32.3-2,0-.39.19-.94-.18-1.21-.63-.3-.76.63-.91,1.06s-.28,1-.43,1.47a28.2,28.2,0,0,1-8.68,13.41,33.35,33.35,0,0,1-3.4,2.65c-.62.44-1.26.86-1.91,1.25-.55.23-1,.73-.72,1.35A.88.88,0,0,0,357.9,366.8Z" transform="translate(-29.32 -31.67)"/><path d="M365.49,353.34a17.25,17.25,0,0,0,2.17-4.36,6.94,6.94,0,0,0,.49-2.14.43.43,0,0,0-.55-.31c-.53.26-.69.94-1,1.41a24.46,24.46,0,0,1-7.24,8.82c-1.95,1.43-3.95,2.82-6,4.13a1.07,1.07,0,0,0,.41,1.93,1.11,1.11,0,0,0,.79-.17c1.31-.83,2.63-1.65,3.94-2.49A24.67,24.67,0,0,0,365.49,353.34Z" transform="translate(-29.32 -31.67)"/><path d="M432.05,347.08a.57.57,0,0,0-.19.42c-.13.46-.23.93-.34,1.39-.37,1.57-.7,3.16-1,4.74-.5,2.56-1.11,5.1-1.57,7.68-.13.83-.29,1.66-.47,2.49a1,1,0,0,0,.79,1.13c1,.15,1.16-.9,1.33-1.66a62.63,62.63,0,0,0,2.12-10.76c.15-1.27.25-2.55.31-3.82a5.9,5.9,0,0,0,0-1.26A.58.58,0,0,0,432.05,347.08Z" transform="translate(-29.32 -31.67)"/><path d="M428.43,367.86a.89.89,0,1,0-.4,1.73A.89.89,0,0,0,428.43,367.86Z" transform="translate(-29.32 -31.67)"/><path d="M440.05,336c.1-4.79-.18-8.06.43-11.68.25-.85.53-1.72.83-2.58a24.67,24.67,0,0,1,2.82-5.68c4-5.34,8.68-10.9,8.95-17.89.38-5.89-1.78-11.5-4.19-16.76a56.56,56.56,0,0,0-11.9-17,36.35,36.35,0,0,0-5.18-4.5,10.58,10.58,0,0,0-3.39-1.63,2.88,2.88,0,0,0,.33-1,20.78,20.78,0,0,0,.29-2.47c.19-2.43.09-4.86.07-7.29-.22-6.15-.78-12.39.62-18.45,1.78-7.95,6.19-15.11,7.33-23.23.26-1.68.39-3.55.63-5.28,0-.61.42-1.39,0-1.91a.44.44,0,0,0-.15-.37,2,2,0,0,0-.7-.3c-1.33-.34-2.69-.59-4-.82s-2.8-.45-4.2-.63c-6.76-.81-13.52-1.45-20.27-2.49l-20.59-3.33-.6-.08c2.5-2.23,5.59-7.51,6.59-9.21a163.8,163.8,0,0,0,12.48-27.52,96.42,96.42,0,0,0,3.36-12.72c2.38-11.56,3-23.59.5-35.18a66.61,66.61,0,0,0-6.46-16.3,51.1,51.1,0,0,0-15.88-17.88,82.49,82.49,0,0,0-25.56-11.66A164,164,0,0,0,345,57.29a245.63,245.63,0,0,0-43.39-.46,126.29,126.29,0,0,0-17.12,2.23c-4.2,1-8.65,3.22-10.5,7.34-2,4.75,1.83,8.47,6.07,9.87a37.87,37.87,0,0,0,8,1.64,10.81,10.81,0,0,0-2.9,2.13,10.19,10.19,0,0,0-2.41,7.21c.39,5.06,4.67,8.3,9.33,9.46l-.11.15a5.92,5.92,0,0,0-1,4.13,9.2,9.2,0,0,0,5.3,7c5.44,2.12,11.86-.21,17-2.36.89-.4,1.78-.83,2.65-1.28s1.5-.78,2.22-1.22h0a6.4,6.4,0,0,0,.71.55c2.63,1.69,6.06,1.09,8.62-.44a20.57,20.57,0,0,0,4.42-3.63c2.31-2.4,4.39-5,6.58-7.5a39.86,39.86,0,0,1,4.07-3.94A29.56,29.56,0,0,1,352.56,91a32.41,32.41,0,0,1,16.56,25,58.88,58.88,0,0,1-1,16.11c-1.91,11.18-5.61,21.94-9.48,32.57-2.08,5.43-4.16,10.87-6.29,16.29-.57,1.43-1.15,2.85-1.69,4.3-.15.43-.41.89-.58,1.34a16.13,16.13,0,0,0-2.6-.14,3.41,3.41,0,0,0-2.08,1.3,43.9,43.9,0,0,0-4.42,6.84,99.54,99.54,0,0,0-4.91,9.39,41.22,41.22,0,0,0-3.41,14.13c-.26,3.24.09,6.49-.09,9.74a15.67,15.67,0,0,1-4.07,8.22,25.76,25.76,0,0,1-5.42,4.08c-3.12,1.84-6.41,3.36-9.56,5.15a82.06,82.06,0,0,0-7.42,4.84,42.7,42.7,0,0,0-14.14,14.12c-4.65,7.34-7,15.81-9.26,24.13-2.9,11.16-12.05,18.34-22.06,23.13a73.69,73.69,0,0,1-7.94,2.88c-1.14.36-2.28.73-3.41,1.11a2.7,2.7,0,0,0-.83.32q-1.4-4-2.82-8c-3.93-11-8.4-21.8-14.34-31.88a44.74,44.74,0,0,0-3.49-5.36,2.11,2.11,0,0,1-.19-.23A43.73,43.73,0,0,1,238,263.18c6.25-3,13.14-4.18,19.9-5.46a42.36,42.36,0,0,0,9.45-2.76,30,30,0,0,0,7.13-4.78c.21-.22.79-.76,1.34-1.34a29.12,29.12,0,0,0,10.57-2.23c6.5-2.37,11.89-7,16.1-12.38a132.24,132.24,0,0,0,8-11A130,130,0,0,0,319.59,205c1.85-4.16,3.42-8.44,5-12.7s3.22-8.59,4.55-13c1-3.26,1.94-6.92,2.76-10.32,1.62-6.63,2.92-13.5,2.49-20.35a13.75,13.75,0,0,0-1.89-6.57,7.17,7.17,0,0,0-5.6-3.37,5,5,0,0,0-3.54,1.34,8.07,8.07,0,0,0-1.35-2.36,4.76,4.76,0,0,0-5.43-1.17,4,4,0,0,0-1.1.68,4.32,4.32,0,0,0-3-2.77,5.84,5.84,0,0,0-5.66,2.45c.31-2,.62-4,.92-5.95.63-5.49,3.26-15.26-3.07-18.21-3.73-1.34-6.85,1.51-8.18,4.79a27.74,27.74,0,0,0-1.59,4.79c-4.47-11.79-14.8-20.27-25.73-25.95-17-8.91-35.8-10.48-54.56-7.94-5.5.66-11,1.61-16.54,1.6a87.61,87.61,0,0,1-10.48-1c-12.8-2-26.24-.81-38,4.84a44.82,44.82,0,0,0-14.28,10.7c-4.43,4.84-7,11.27-9.18,17.43-5.65,16.82-10.71,23.3-24.21,34.73-6.46,5.67-13.7,10.63-19,17.49-9.07,12-14.3,28.19-9.85,43A39.26,39.26,0,0,0,81.46,232c4.47,4.61,10.21,7.67,15.4,11.36a35.55,35.55,0,0,1,3,2.3l.56.7c.87,1.08,1.77,2.13,2.69,3.15a5.44,5.44,0,0,0,1.1,1.24c-3.15,2.42-6.37,4.74-9.69,6.94-7.49,4.93-15.06,9.89-23.29,13.5-2.49-4.29-5.79-9.28-11.15-9.84a6.83,6.83,0,0,0-5.5,2.23,7.69,7.69,0,0,0-1.68,5.62c.31,3.43,2.22,6.43,4.22,9.14-4.62,3.17-10.16,5.55-13.33,10.38-1.67,2.46-1.52,6.05,1.44,7.42,2,.9,4.3.56,6.36,0-2.17,2.48-3.47,6.25-.37,8.57,2.91,2.11,6.81,1.16,9.8-.3A6.77,6.77,0,0,0,60,310.18a6.67,6.67,0,0,0,5.62,4.25c7.24.71,15.8-6.24,21.47-10.34a222,222,0,0,0,21-17.82c5.5-5.52,10.76-11.3,15.76-17.27a1.28,1.28,0,0,1,.2.25c.48.58,1,1.22,1.45,1.87,3.52,5,7,10.13,11.85,13.87,3.66,2.79,7.82,5.32,12.5,5.75a2.35,2.35,0,0,0,.59,0c-2.62,8.08-4.9,16.28-6.92,24.54-2.12-1.46-6.3-2-8.31-1.92-9.33.33-18.22,5.93-24.46,12.6a60,60,0,0,0-7.47,10c-4.15,7.12-6.73,15-9.34,22.82a145.94,145.94,0,0,0-4.86,19.26c-.36,2-.71,4-1,5.95-.13,1.29-.87,4.33-.54,6a19.65,19.65,0,0,0-3.73.63c-2.06,1-1.82,4.26-2,6.25-.18,3.17-.32,6.33-.52,9.5-.12,2-.15,4-.31,5.95-.43.86-2.62,1.17-3.53,1.44-14.73,2.56-25.08,9-32.17,22.4a33.61,33.61,0,0,0-3.44,9.47c-.49,2.52-1.62,6.61.46,8.64,3.06,2.63,7.87,2.76,11.86,3.13a4.61,4.61,0,0,0,1.31.55,16.57,16.57,0,0,0,2.79.54c2.83.43,5.68.8,8.51,1.19,8,1.12,16,2.73,24.19,3,.3,0,.61,0,.92,0a12.36,12.36,0,0,0,2,.39c2,.26,3.91.37,5.86.54,5.88.41,11.76.74,17.65.81,6.57-.08,13.08,0,19.67.17,2.81.07,5.63.15,8.44,0a5.87,5.87,0,0,0,2.43-.36c1.49-.95,2.32-4,3-5.62,1.29-3.78,2.52-7.59,3.47-11.48.07-.28.13-.56.2-.84q.28,6.6,1,13.19c.1.95.19,1.9.35,2.84.1,1.43,1,1.8,2.29,1.78,4-.14,8-.09,12-.54a22.85,22.85,0,0,0,3.39-.57,2.29,2.29,0,0,0,1.48-1.8,24.75,24.75,0,0,0,.42-6c0-.17,0-.35,0-.52.31-1.44.57-2.89.79-4.35.86-5.51,1.52-11.05,2.35-16.57s1.91-11,2.65-16.53c.42-3.68.5-7.39,1-11.07.32-2.34.58-5,1-7.38.29-1.51.67-3.51-1.54-3.36.09-.71.15-1.43.24-2.14.15-1.17.34-2.34.54-3.51.39,1.65.76,3.31,1.09,5,1.54,7.35,2.86,14.73,3.83,22.18.53,3.09.85,6,1.53,9.14.31,1.4.64,2.79.94,4.19.29,1.2.56,2.64.88,4.15a13.71,13.71,0,0,0,2,7.34,10.26,10.26,0,0,0,1.68,2,6.35,6.35,0,0,0,4.6,2.24,27,27,0,0,0,7.38-.69c4.8-.93,9.54-2.19,14.23-3.56a55.86,55.86,0,0,0,5.52-1.85,12.87,12.87,0,0,0,1.71-.72c-.56,4.67-1.06,9.36-1.49,14-.26,2.69-.47,5.39-.48,8.1,0,1.09-.1,2.32,1.25,2.56,4.11.21,8.12,1.1,12.28,1.36,1.14.14,1.83-.88,2.23-1.81s.73-1.81,1.06-2.73c.63-1.78,1.17-3.6,1.72-5.41.83-2.72,1.65-5.45,2.37-8.21.21,1.17.41,2.33.63,3.49.56,3,1.13,6,1.74,9,.23,1.06.49,2.12.77,3.17.17.57.28,1.3.89,1.56l0,0a1.74,1.74,0,0,0,.11.18c.46.49,1.21.4,1.82.47,6.93.31,13.86.49,20.78.83,12.87.82,25.74,1.81,38.61,2.51,2,.11,3.46-.45,3.33-2.7,0-3.41-1.59-6.61-3.44-9.4a32.19,32.19,0,0,0-6.68-7.25c-6.63-5.58-15-9.47-23.77-9.62a13.67,13.67,0,0,0-1.43,0c-.17-1-.33-1.93-.52-2.9q-1.21-6-2.52-12a50.05,50.05,0,0,0,25.75-7.13,54.37,54.37,0,0,0,19.2-20.92c2.91-5,6.07-10.16,10.79-13.66,3.65-2.58,7.92-3.73,12.18-4.89,0,.82-.05,1.64-.05,2.46,0,9.4.09,18.91,2.05,28.15a104.56,104.56,0,0,0,4.64,16.37A55.94,55.94,0,0,0,359.77,440c5,7,12.33,12.13,21,13.35a26.58,26.58,0,0,0,12.66-1.18c15.27-4.72,23.09-23.39,29.1-36.9a159.52,159.52,0,0,0,11.14-33,205.58,205.58,0,0,0,4.49-25.72C438.93,349.71,439.76,342.89,440.05,336Zm-48-142.19c8.14,1.16,16.26,2.45,24.44,3.3l1.15.12-.26.4c-.46.75-.87,1.54-1.29,2.32-6.45,11.48-7.34,21.72-6.18,34.57.65,7.31.5,14.81-1.7,21.87a44.81,44.81,0,0,1-3.87,8.73,36.15,36.15,0,0,1-5.41,7.4,80,80,0,0,1-13.19,10.28c-5.2,3.26-10.58,6.34-15.14,10.49a27.53,27.53,0,0,0-2.47,2.48,44.51,44.51,0,0,0-3.06,4.62A59.85,59.85,0,0,0,359.91,312c-2.42,7.26-3.44,14.94-6.37,22a44.91,44.91,0,0,1-11.67,16.57A58.75,58.75,0,0,1,325,360.72c-9.11,3.74-19.39,6.4-25.84,14.38a90.93,90.93,0,0,0-8.3,11.66l-.06.1c-1,1.19-2.05,2.37-3.14,3.49a42.62,42.62,0,0,1-11.85,7.81,32.34,32.34,0,0,1-4.39,1.58c-.34.12-.88.19-1.33.35a303,303,0,0,0-6.52-32.83c-2.9-10.54-5.65-21.12-8.7-31.61a6.17,6.17,0,0,0,.61-.19c1.32-.33,2.38-.75,3.81-1.09,3-.82,6-1.61,8.85-2.65,13.17-4.5,24.78-12,30.55-25.13,3.3-7.54,5.17-15.56,8.07-23.27a55.55,55.55,0,0,1,15-21.56c6.09-5.39,13.54-8.86,20.12-13.57a57.67,57.67,0,0,0,7-5.94,31.91,31.91,0,0,0,7.31-12c2-6.07,2.26-12.44,3.82-18.63,1.56-5.64,3.45-11.37,7-16.09a47.66,47.66,0,0,1,3.71-4.19l0-.05c2.19.25,4.39.52,6.68.76C382.33,192.48,387.21,193,392.06,193.83Zm-78.18-91.21c-4.55,2-11.72,4.4-16.61,3.15-2.75-1-5.13-3.93-4.61-7a5.55,5.55,0,0,1,.66-1.81,15.65,15.65,0,0,0,2.34.21,30.61,30.61,0,0,0,5.74-.38l-.34.15c-1.17.46-2.28,1.06-3.41,1.59a.79.79,0,0,0-.42,1,.8.8,0,0,0,1,.42c.48-.22,1-.44,1.47-.64,1.16-.49,2.29-1.07,3.43-1.64,1.48-.75,3-1.52,4.46-2.25a37.53,37.53,0,0,0,5.45-1.93,26.52,26.52,0,0,0,3-1.54c-.14.61-.26,1.23-.35,1.86a12.1,12.1,0,0,0,.92,7.49C315.73,101.79,314.82,102.23,313.88,102.62Zm3-13.23c-.74-.08-1.56.76-2.24,1a34,34,0,0,1-6.17,2.31A57.68,57.68,0,0,1,299,94.38c-5.06.45-11.55-.56-13.72-5.83a7.8,7.8,0,0,1,1.34-7.26,11.57,11.57,0,0,1,4.82-3.09h0l1.52.07c4.85.16,9.68.25,14.54.28l-.47.17A102.07,102.07,0,0,0,294,84.15l-1.68.85a.92.92,0,0,0,.72,1.69q1.31-.64,2.64-1.26c4.23-2,8.52-3.78,12.78-5.66.94-.41,1.88-.82,2.8-1.24,3.16,0,6.31-.12,9.46-.24a28.23,28.23,0,0,0,2.91-.18v0A40.56,40.56,0,0,0,316.86,89.39Zm36.86,95c3.76-8.91,7.33-17.91,10.48-27a148.77,148.77,0,0,0,6.74-25.14c1.52-8.59,2.11-17.77-1.44-25.94-3.67-8.84-11.52-16.49-20.93-18.82a35.05,35.05,0,0,0-4.31-.77c.41-.3.83-.59,1.25-.86A38.46,38.46,0,0,1,350,83.39a14.08,14.08,0,0,1,3.6-1.3c1.09-.1,2.05-.43,2-1.73a1.47,1.47,0,0,0-1.62-1.27,31.09,31.09,0,0,0-3.59.67,23.15,23.15,0,0,0-6.07,3,38.19,38.19,0,0,0-5.42,4.32c-3.59,3.39-6.35,7.53-9.83,11-4.79,5.12-11.49,5.63-10.88-3.08.44-5.56,3.25-10.53,6.38-15A31.68,31.68,0,0,1,329,74.67c.5-.48.09-1-.53-.86a5.32,5.32,0,0,0-1.51.92h-.07c-.89.13-1.79.28-2.68.43a27.58,27.58,0,0,0-4.61,0c-5.5.19-11,.3-16.53.18-6.89-.21-14,0-20.74-1.86-7.29-2.15-6.67-6.5-.77-10,4.6-2.31,9.89-2.62,14.93-3.29,20.94-1.93,42.29-2,62.91,2.58a72.28,72.28,0,0,1,17.9,6.76,63.6,63.6,0,0,1,14.52,9.89A52.15,52.15,0,0,1,403.33,96a61.15,61.15,0,0,1,3.42,9.16,59.91,59.91,0,0,1,1.41,8c1.53,12.18-.24,24.6-3.44,36.39a154.64,154.64,0,0,1-11,26.87c-1.25,2.5-2.57,5-4,7.38a76.93,76.93,0,0,0-14.95-.65,140.59,140.59,0,0,0-16,1.14c-1.83.29-3.66.61-5.45,1.06C353.44,185,353.59,184.71,353.72,184.41ZM250,318c1.09-.26,2.18-.52,3.27-.83a52.86,52.86,0,0,0,25.48-15.48c4.2-4.67,6.44-10.59,8.22-16.52,2.28-6.61,4.56-13.31,8.22-19.31a65.07,65.07,0,0,1,7.34-9.44c1.1-1.21,2.22-2.39,3.4-3.52l2.17-1.39c2.9-1.85,5.83-3.63,8.88-5.21,7.88-4.17,15.76-7.79,17.92-17.33a18.37,18.37,0,0,0,.29-3.78,64.86,64.86,0,0,1,.8-11.05,47.11,47.11,0,0,1,5.67-15.27q1.28-2.3,2.58-4.58a28,28,0,0,1,3.69-5.48c6.09.36,12.17,1.5,18.28,2,.95.08,1.88.17,2.81.27a17.8,17.8,0,0,0-3.43,3.17c-3,3.41-4.79,7.63-6.32,11.85a56.53,56.53,0,0,0-2.45,8.63c-1.26,5.87-1.64,12-4.19,17.54a32.82,32.82,0,0,1-4.51,7c-5.58,6.06-13.07,9.79-19.94,14.14a57.93,57.93,0,0,0-22.8,25.48,128.92,128.92,0,0,0-4.88,13.92c-3.59,10.57-5.5,18.3-14.34,26-5.43,4.76-12,7.92-18.83,10.27-3.56,1.21-7.24,2-10.81,3.2a6.48,6.48,0,0,0-2.12.88l-.23.13-.18-.61q-2.26-7.27-4.73-14.48A2.66,2.66,0,0,0,250,318Zm73.48-159.33a82.23,82.23,0,0,0,.77-11.41,29.69,29.69,0,0,0-.43-5.71l.09-.09a3.65,3.65,0,0,1,3.37-1,5.24,5.24,0,0,1,2.23,1.18,7.12,7.12,0,0,1,2.3,4.18,35.73,35.73,0,0,1,0,10.53,101.7,101.7,0,0,1-2.59,13.14A152,152,0,0,1,324,187.59c-5.15,14.56-10.76,29.32-20.32,41.63-3.31,4.38-6.57,8.75-11.18,11.89-3.85,2.6-8.22,4.71-12.9,5.11a22.49,22.49,0,0,1-13-3.05,28.3,28.3,0,0,1-5.87-5.11A89.07,89.07,0,0,1,250,222.58c.41-.46.4-1.41.53-2,.27-1.8.46-3.61.63-5.42.24-2.85.49-5.72.56-8.59v0a50.52,50.52,0,0,0,3.89,11.3c1.82,3.58,4.13,7.37,8,9,6.43,2.78,12.44-.45,16.22-5.8,3.71-5.16,5.29-11.45,6.75-17.53,1.33-5.85,2.86-11.66,3.88-17.57.46-3,1.64-10.56.32-13.69a1,1,0,0,0-.24-1.17c-2-1.73-3.59-3.4-3.62-6.21-.09-2.42,1.39-4.52,3-6.2,3.48-3.4,8.31-4.92,13-5.76,2.52-.47,6.45,0,6.57,3.25-.13,2.09-1.69,3.9-3,5.39a19.5,19.5,0,0,1-6,3.87,49.29,49.29,0,0,0-4.89,1.95c-.43.24-1.1.44-1.1,1s.61.59,1,.41c1.94-.68,3.95-1.12,5.91-1.73.63-.22,1.25-.47,1.86-.74l-.08.05c-1.21,1.14.67,2.91,1.85,3.15a5.26,5.26,0,0,0,4.54-1.06,2.12,2.12,0,0,0,.11.21,6.1,6.1,0,0,0,4.86,2.1,8.4,8.4,0,0,0,4.56-1.21,3.33,3.33,0,0,0,1.92,1.53,6.2,6.2,0,0,0,6.92-2.3,11.32,11.32,0,0,0,1.94-4.5c.75-3.19,1.15-6.44,1.59-9.68.22-1.57.36-3.16.52-4.74a.45.45,0,0,0-.25-.6.43.43,0,0,0-.54.29,17,17,0,0,0-.53,1.89c-.59,2.3-1.09,4.63-1.58,7-.8,3.2-1.18,8.39-4.24,10.21a3.45,3.45,0,0,1-3.66-.13,4.47,4.47,0,0,0-.43-.44C322.55,165.77,323.12,162.16,323.47,158.66Zm-12.29.6c-.35,1.43-.66,2.63-.88,3.51-.6,2.19-2.24,5.46-5,4.28-.49-.46-1.06-1-1.68-.87.51-.24,1-.5,1.49-.78A16.06,16.06,0,0,0,311.18,159.26Zm5-17.43a14.53,14.53,0,0,0-.36-3.54,4.38,4.38,0,0,1,.42-.28,3.45,3.45,0,0,1,4.21.49c1.43,1.64,1.57,4,1.66,6.07a99.52,99.52,0,0,1-.93,13.47,28.65,28.65,0,0,1-1.25,6.63,5.39,5.39,0,0,1-8.2,2.61,2,2,0,0,0-.86-.46c1.59-2.57,2.24-6.28,2.88-8.9C315,152.63,316.2,147.28,316.22,141.83Zm-8.49-3a5,5,0,0,1,2.79-2.42,2.29,2.29,0,0,1,2.69.65c2.1,2.79.39,12-1.23,18.88a4.93,4.93,0,0,0-.1-.86c-.74-3.35-4-4.76-7.14-4.77.21-1,.38-2,.53-3.06.1-.65.19-1.3.29-1.95A31.16,31.16,0,0,1,307.73,138.87ZM297,125.7c.7-3.47,1.94-12.79,7.13-11.27,4.6,2.25,2.48,10.78,2,14.91-1,6.35-2,12.69-3,19q-.21,1.06-.33,2.13a33.34,33.34,0,0,0-8.92,2.43c.09-.5.13-1,.2-1.24.19-1.32.37-2.63.52-3.95C295.47,140.4,295.7,133,297,125.7ZM102.84,243.84l-.69-.53c-.51-.49-1.06-.95-1.62-1.39-3.25-2.56-6.74-4.79-10.13-7.15a31.57,31.57,0,0,1-9.47-9.3,37.14,37.14,0,0,1-5.88-17.55c-.63-10.64,3.1-21.12,9-29.84a58.82,58.82,0,0,1,11-11.61c4.3-3.73,8.72-7.33,12.93-11.17,10.09-9.16,15-16.28,19.55-29.16,2.38-6.5,4.45-13.32,8.9-18.76,11.23-13.86,30.76-18.3,47.84-16,4.29.53,8.56,1.32,12.89,1.5a84.55,84.55,0,0,0,13.48-.94c24-3.65,45.31-2,66,11.9a53.61,53.61,0,0,1,9.78,8.51,56.68,56.68,0,0,1,4.23,5.75,44.57,44.57,0,0,1,3.65,7.15c-.17,1-.31,2-.44,2.94-.4,3.74-.76,7.5-.91,11.26-.08,3.51-.41,7-.59,10.52-.05.86-.09,1.73-.09,2.59,0,.27,0,.75,0,1.19a19.36,19.36,0,0,0-2.8,1.89c-5.66,4.57-7.19,12-1.08,16.56a.93.93,0,0,0,0,.41,9.94,9.94,0,0,1,.33,2.24,73.91,73.91,0,0,1-1.94,16.49c-1.21,5.64-2.51,11.26-4.16,16.78s-3.88,11.21-8.58,14.82a9.25,9.25,0,0,1-12.49-.65c-4.93-5.14-6.9-12.22-8.87-18.88l-.18-.65-.48-2.46c-.37-1.82-.73-3.64-1-5.46.08-1.65.1-3.31,0-5a46.74,46.74,0,0,0-.57-5.42c-.09-.6-.2-1.19-.31-1.78h0c-.17-1.08-.38-2.16-.57-3.25a43,43,0,0,0-3.23-10.8,39.36,39.36,0,0,0-15.67-17.52c-.69-.44-1.39-.87-2.1-1.28s-1.46-1-2.21-1.52a51.9,51.9,0,0,0-11.52-5.63A50.85,50.85,0,0,0,202.46,140a52.89,52.89,0,0,0-25.75,4.34,49.72,49.72,0,0,0-6,3.11c-1,.6-1.91,1.21-2.84,1.86s-1.79,1.29-2.66,2a52.17,52.17,0,0,0-5,4.46,51.24,51.24,0,0,0-4.31,5c-.68.92-1.35,1.84-2,2.79s-1.17,1.84-1.72,2.78a53,53,0,0,0-2.94,5.89,51.91,51.91,0,0,0-2.18,6.21,47.94,47.94,0,0,0-1.37,6.29c-.21,1.4-.37,2.8-.47,4.21a1,1,0,0,0,0,.18v0a51.58,51.58,0,0,0,.13,8.7c.1,1.07.23,2.14.41,3.21l.15.83c0,.14,0,.28.07.42s.06.38.11.56l0,.15q.16.84.36,1.68c.24,1,.51,2.06.81,3.08a.5.5,0,0,1,0,.13c-7.32,8.8-14.76,17.51-23.15,25.32-5.19,5-10.57,9.9-16.18,14.46-.62-.44-1.24-.86-1.85-1.32C105.14,245.49,104,244.71,102.84,243.84Zm15.68,26.4a181.72,181.72,0,0,1-30.47,29,116.88,116.88,0,0,1-11.89,8.34,29.17,29.17,0,0,1-6.63,3.08c-2.17.64-5.63.85-6.37-1.86-.12-1.59,1-2.94,1.79-4.2,1-1.35,2.15-2.6,3.29-3.85a4.86,4.86,0,0,0,1.33-1.94A1.55,1.55,0,0,0,68.51,297c-1.11-.35-2.07.61-3,1.05-2.22,1.24-4.41,2.55-6.74,3.58-1.59.62-3.41,1.21-5.09.58-1.88-.69-.64-2.77.14-3.89a42.15,42.15,0,0,1,6.87-6.61c.84-.62,2-1.11,2.29-2.2A1.47,1.47,0,0,0,60.88,288c-.49.29-.92.65-1.41.93a55.07,55.07,0,0,1-6.33,3.3c-4.44,2-10.58,2.24-5.2-3.72A47.83,47.83,0,0,1,55.33,283c1-.64,1.92-1.26,2.85-1.92,1.56-1,2.56-2.57,1-4.09-1.75-2.62-3.7-5.59-3.36-8.87a3.75,3.75,0,0,1,4.73-3.41c3.09.93,5.27,3.61,7,6.19,1.87,2.9,2.39,4.27,6,2.53a192.58,192.58,0,0,0,38.62-24.8,224.44,224.44,0,0,0,31.39-31.92q2.43-3,4.79-6.08v0l.71-.93,1.05-1.37h0c2.18-2.91,4.31-5.85,6.36-8.85a.64.64,0,0,0-.62-.9,1.34,1.34,0,0,0-.74.39c-.2.18-.4.37-.59.57-.11-.59-.2-1.18-.28-1.77a44.51,44.51,0,0,1-.3-9.44,58.14,58.14,0,0,1,5.7-20.6,52.3,52.3,0,0,1,20-20.93,33.55,33.55,0,0,1,9.82-3.66l1.35-.24.55-.07c1.07-.14,2.13-.24,3.2-.32s2.38-.12,3.57-.1,2.23,0,3.35.13a57.42,57.42,0,0,1,6.54.89c1.16.24,2.31.52,3.45.83s2.32.69,3.47,1.08a57.61,57.61,0,0,1,6.31,2.71,56.85,56.85,0,0,1,5.9,3.54c.38.26.76.54,1.13.81,1.11,1,2.16,2.05,3.25,3.09a55.2,55.2,0,0,1,6.14,7.17,114.3,114.3,0,0,1,6.62,11.55l.54,1.07a1.82,1.82,0,0,0,.07.25c.21.5.38,1,.55,1.53h0a.65.65,0,0,0,0,.13,54.05,54.05,0,0,1,1.54,6,60.38,60.38,0,0,1,.85,7v.07a.34.34,0,0,0,0,.1,47.32,47.32,0,0,1-.9,12.57,50.27,50.27,0,0,1-4.33,12.42l-.05.09-.09.18a55.36,55.36,0,0,1-3.4,5.68,54.77,54.77,0,0,1-4,5.08,56.68,56.68,0,0,1-4.92,4.76,56.07,56.07,0,0,1-5,3.69l-.41.26a53.43,53.43,0,0,1-5.09,2.83,56.37,56.37,0,0,1-6.15,2.47q-2.82.9-5.71,1.51a.72.72,0,0,0-.39-.05,29.74,29.74,0,0,1-7.76-.6,53.31,53.31,0,0,1-7-1.64c-11.89-3.9-26.6-13.86-32.53-25.08a18.41,18.41,0,0,1-1.17-2.77c.32-.81.6-1.62,1-2.41a1.49,1.49,0,0,0-.71-2,1.52,1.52,0,0,0-1.11-.06,1.94,1.94,0,0,0-1.06,1.18c-.55.93-1.18,1.81-1.66,2.79l-2.27,4.33c-.2.38-.4.75-.59,1.13l-.83,1.54-1.23,2.29c-3.79,7.1-7.79,14.09-11.89,21A163.74,163.74,0,0,1,118.52,270.24Zm12.7,121.07c-.09,1.76-.2,3.52-.28,5.29l-1.55,0c-1.84,0-3.67-.13-5.5-.17-3.32,0-6.65-.12-10-.05,0-.29,0-.58,0-.88.16-1.38.18-2.77.22-4.15a112.77,112.77,0,0,1,1.3-13.44A109.35,109.35,0,0,1,122.86,352a87.08,87.08,0,0,1,16.5-24.89c.6-.6,1.22-1.2,1.82-1.82q-2.38,10.84-4.33,21.77C134.38,361.74,131.89,376.43,131.22,391.31Zm-40.34-6.46a163.14,163.14,0,0,1,5.9-26.19c2.73-8.15,5.42-16.48,10.07-23.78A45.78,45.78,0,0,1,121.7,320a31.15,31.15,0,0,1,11.07-4.26,19.49,19.49,0,0,1,8.88.5,12,12,0,0,1,1.47.61l-.3,1.25c-.24.19-.48.39-.73.57-.67.54-1.34,1.08-2,1.61-1.12.87-2.25,1.75-3.33,2.68-8.37,6.84-14.13,16.34-18,26.31a136.39,136.39,0,0,0-3.78,13.46c-.63,2.88-1.16,5.79-1.73,8.68-.24,1.4-.51,2.8-.71,4.21s-.21,2.91-.34,4.36c-.28,2.72-.56,5.44-.75,8.17a12.4,12.4,0,0,0-.07,1.66c-2.62,0-5.25.2-7.87.15-3.17,0-6.34-.18-9.52-.1H90.24a.86.86,0,0,0,0-.16C90.44,388.11,90.65,386.48,90.88,384.85Zm-33,60.93a35.94,35.94,0,0,0-4.06,7.36,13.81,13.81,0,0,0-.53,1.51l-1.37-.14a8,8,0,0,0,.48-1.37,45.67,45.67,0,0,1,3.36-7.86c4.56-8.23,12-14.63,20.34-18.83a61,61,0,0,1,15.84-5.31c2.53-.65,7.56-1.14,9.38-2.74a5.46,5.46,0,0,0,1.34-3.63c.18-1.67.2-3.35.26-5s.28-3.43.44-5.14.3-3.34.58-5a5.12,5.12,0,0,1,.61-1.84,1.61,1.61,0,0,1,.7-.57,6.59,6.59,0,0,0,1.8-1.13,2.42,2.42,0,0,0,.4-2.42c-.09-.5-.21-1-.31-1.48l.65-.06c1.33-.17,2.68-.27,4-.54,0,.72-.05,1.43-.07,2.15s0,1.61,0,2.42c0,.09,0,.18,0,.27l-1.23.06a2,2,0,0,0-1.69.9,5.37,5.37,0,0,0-.61,1.78c-.39,1.89-.72,3.8-1,5.71-.35,2.77-.86,5.52-1.22,8.28-.22,1.9-.45,3.79-.64,5.69-.1.84-.16,1.69-.19,2.53-.63.05-1.26.13-1.89.21A90.1,90.1,0,0,0,88.9,425a73,73,0,0,0-18.68,7.94C65.17,436.19,61.3,440.9,57.86,445.78Zm71.22-38.6c-1.81.66-2.05,2.92-2.5,4.55a78.61,78.61,0,0,0-1.64,10.34c-.36,3.38-.71,6.76-1.22,10.11-.23,1.45-.56,2.88-.86,4.31-1.45.92-4.14,1.4-5.35,1.81a53.76,53.76,0,0,0-9.83,3.73,37.16,37.16,0,0,0-13.91,11.35A30.38,30.38,0,0,0,90,459.56a2.63,2.63,0,0,0-.18.45H87.42a1.25,1.25,0,0,0,.09-.25c.27-.74.57-1.46.91-2.17a45,45,0,0,1,2.84-5.07,32.94,32.94,0,0,1,9.25-9.57,37.32,37.32,0,0,1,12.67-5.76,45.16,45.16,0,0,0,6-1.31c1.48-.57,1.78-1.29,1.87-2.8.27-3.9.36-7.92.59-11.88s.82-8.44,3-12a15.64,15.64,0,0,1,2.63-3.05c.4-.39,1-.67,1.12-1.24a8.11,8.11,0,0,0-.13-2.14c-.2-1.39-.38-2.8-.7-4.16.75,0,1.5-.09,2.24-.16l1-.13a58.88,58.88,0,0,0,.21,8.71A10.13,10.13,0,0,0,129.08,407.18Zm36.25.74c-7.72-.33-15.44-.66-23.17-.68-1.31,0-2.63,0-3.94,0s-2.76-.08-4.15-.09a8.79,8.79,0,0,1-.08-1.91c0-1.59,0-3.18,0-4.78a272.13,272.13,0,0,1,2.29-28.8c4.46-33.5,11.18-66.81,22.56-98.7.41-1.25.78-2.51,1.12-3.78a.61.61,0,0,0-1.15-.31,33.23,33.23,0,0,0-2.26,4.88q-2.91,7.26-5.38,14.68a1,1,0,0,0-.28-.12c-.58-.16-1.19-.1-1.78-.22a21,21,0,0,1-2.21-.7,26.26,26.26,0,0,1-6.19-3.29,60.51,60.51,0,0,1-11.58-11.26,49,49,0,0,0-4.38-4.95c1-1.2,2-2.41,2.95-3.62a168.08,168.08,0,0,0,12.11-18.12c4.81-8.1,9.48-16.17,14-24.43a52.22,52.22,0,0,0,17.33,16.57,53.2,53.2,0,0,0,24.93,7.33c.69,0,1.38,0,2.07,0A52.42,52.42,0,0,0,221.8,240a49.31,49.31,0,0,0,5.54-3.22,58.12,58.12,0,0,0,5.12-3.86,49,49,0,0,0,5.38-5.31,52.46,52.46,0,0,0,6.8-9.78c.48,1,1.06,2,1.58,3.07,2.15,3.94,3.95,8.1,6.53,11.82,5,7.2,11.45,15.17,20.82,16.05l.23,0c-.8.6-1.61,1.2-2.45,1.73a32.49,32.49,0,0,1-5.3,2.75,67.59,67.59,0,0,1-12,2.85C242.3,258,233.61,261,224.76,269.31c-3.43,3.12-6.33,6.73-9.44,10.16A49.51,49.51,0,0,1,196.49,293a48.33,48.33,0,0,1-12.22,2.81,40.28,40.28,0,0,1-4.25.3c0-.37-.15-.74-.19-1.11-.38-2.44-1-5.11-1.49-7.58-.8-3.81-1.28-7.71-2.31-11.47a9.19,9.19,0,0,0-.55-1.63.61.61,0,0,0-.27-.3.44.44,0,0,0-.28,0,.49.49,0,0,0-.44,0c-.46.31-.47.95-.64,1.44-.35,1.4-.58,2.82-.79,4.24-1.32,9.89-2.17,19.86-2.59,29.83-.9,28.34-4.27,56.57-4.53,84.93a111.28,111.28,0,0,0,.12,13.17,1.28,1.28,0,0,0,.07.35Zm66.36-5.17a30.42,30.42,0,0,0-9.67,1.8,36.94,36.94,0,0,0-5.7,2.57,215.22,215.22,0,0,0,5.43-27.38,111,111,0,0,0,.55-27.26,1.47,1.47,0,0,0,.32-.29c1.24-1.25,2.3-2.64,3.42-4l1.87-2.09c1.23,10.45,2.71,20.87,3.7,31.35.84,8.44,1.4,16.9,1.89,25.36C232.78,402.76,232,402.78,231.69,402.75Zm-4.53-58.22c-1.63,1.24-3.18,2.58-4.7,4l-.62.6a67.29,67.29,0,0,0-4.92-16.94c-.29-.65-.61-1.29-.94-1.93a5.21,5.21,0,0,0,.72-.69l.91-.81a24.29,24.29,0,0,1,2.69-2c.9-.6,1.85-1.15,2.8-1.68.46-.28,1-.52,1.42-.8,1.22,6.6,2.26,13.22,3.14,19.9Zm-5.11-21a21.09,21.09,0,0,0-7,4.22,3.82,3.82,0,0,0-.32.27A48.12,48.12,0,0,0,188,307c-4.65-1.22-9.71-2.25-14.49-1.49q.15-3.93.35-7.86a5.09,5.09,0,0,0,.87.14c1.45.17,2.89.36,4.35.46A47.72,47.72,0,0,0,200.56,294a49.69,49.69,0,0,0,13.25-9h0c.31.94.66,1.88,1,2.81A273.5,273.5,0,0,1,223.12,317c.38,1.91.75,3.83,1.11,5.74C223.49,322.93,222.77,323.21,222.05,323.48ZM174.7,441.62c-.23-4.64-.52-9.29-.86-13.92-.26-3.05-.73-6.08-1.08-9.12-.23-1.91-.52-3.82-.93-5.7-.31-1.19-.57-3.33-1.65-4.22-.08-.41-.77-.56-1.19-.56l-.56,0a2.59,2.59,0,0,0,.12-1c0-.56.06-1.11.08-1.67.06-1.74.07-3.49.13-5.24,0-1,.07-2,.11-3,.65.11,1.31.18,2,.23-.33,1.32-.4,3.71-.51,4.17-.11,1.06-.19,2.13-.3,3.19a2.34,2.34,0,0,0,.1,1.69c.46.61,1.28.75,1.79,1.31a3.79,3.79,0,0,1,.84,2.18l.39,2.83c.64,3.71,1.36,7.33,1.7,11.11a69.15,69.15,0,0,1,.53,10.86.84.84,0,0,0,.36.63C175.4,437.43,175.05,439.52,174.7,441.62ZM180.94,386c-.44,2.56-.87,5.11-1.33,7.66-.05.5-.27,1.17-.35,1.81-2.91,0-5.81.2-8.71.21-.32,0-1,0-1.62,0,.28-6.49.66-13,.94-19.48.66-19.93,2.73-39.79,3.33-59.72,0-2.83.1-5.66.2-8.49l.13,0a40.59,40.59,0,0,1,21.27,5.33c13.78,8,21.27,20.33,23.34,36,2.33,14.17.83,28.49-1.87,42.49a182.81,182.81,0,0,1-4.47,20.33,183.47,183.47,0,0,1-7.52,20.33c-.51,1.34-2.9,5.91-3.82,9a.84.84,0,0,0-.2.28,6.59,6.59,0,0,1-.79,1.11c-1.92.44-3.61-1-4.65-2.52a19.1,19.1,0,0,1-1.55-4.34,29.31,29.31,0,0,1,.09-5.62c.22-2.74.57-5.35,1-8.1,1-7.06,2-14.12,3.18-21.16,1.44-9.54,2.87-19.09,3.42-28.73a39.46,39.46,0,0,0-.45-11.38,14.59,14.59,0,0,0-1.92-5.37,5.48,5.48,0,0,0-2.8-2.23,25.15,25.15,0,0,1,2.41-2.2,27.84,27.84,0,0,1,2.69-1.85c.58-.33,1.18-.62,1.78-.91a1.18,1.18,0,0,0,.43-.33.59.59,0,0,0,0-.71c-.68-.76-3,.54-3.83.95C186.36,355.91,183.53,372.54,180.94,386Zm3.05,4.35c-.2-.69-.41-1.47-.69-2.18a.85.85,0,0,0-.48-.57,155.9,155.9,0,0,1,4.34-18.51,55.33,55.33,0,0,1,3.85-9.21,37.4,37.4,0,0,1,3.84-5.36,3.21,3.21,0,0,1,2.1,1.38c1.67,2.28,1.94,5.63,2.28,8.39a52.93,52.93,0,0,1-.27,8.25c-.92,12.86-3.29,25.55-5.35,38.27-.73,5.36-1.69,10.69-2.39,16.05l-.36-1.72C188.59,413.53,187,401.77,184,390.34Zm48.27,17.75c-1.94.7-1.75,3.82-2,5.54-.57,5.94-.6,11.92-1.45,17.83-.21,1.52-.4,3-.59,4.57a1.34,1.34,0,0,0-.76.13c-.5.2-1.06.37-1.57.58-1.32.54-2.65,1.07-4,1.53q-7,2.26-14.08,4l-.68.14c.36-1.31.55-2.68.81-4,.53-3.06,1.06-6.12,1.72-9.15.4-1.79.79-3.59,1.15-5.39,1.64-4.2,3.1-8.48,4.38-12.81a39.21,39.21,0,0,1,8.93-4.09,38.43,38.43,0,0,1,7.65-1.54c.57-.06,1.29.12,1.88.05,0,.78.09,1.57.13,2.35A8.6,8.6,0,0,0,232.26,408.09Zm32.88-.81c-3.77.26-7.54.5-11.32.48-4.28,0-8.6-.1-12.9-.17-1.73,0-3.47-.06-5.2.06,0-.39-.06-.82-.06-1.19q-.78-15.4-2.19-30.76c-2.31-21.14-4.08-42.45-8.86-63.21a238.92,238.92,0,0,0-7-23c-.37-1-.78-2-1.2-3l.18-.13h0a38.47,38.47,0,0,0,6.4-5.21,55.69,55.69,0,0,0,4.2-5.24c.42-.61.81-1.23,1.18-1.86.88,1.55,1.72,3.2,2.51,4.79A208.53,208.53,0,0,1,242.4,306c4.77,13.59,9.51,27.19,13.1,41.16,2.23,8.53,4.74,17,6.76,25.58s3.6,17,4.83,25.63c.43,2.89.64,5.82,1.11,8.71C267.18,407.16,266.16,407.24,265.14,407.28ZM329,382.33a48.17,48.17,0,0,0-7.83,10.08c-3,5.18-5.88,10.55-10.19,14.81a45.71,45.71,0,0,1-22.27,12.84,49.92,49.92,0,0,1-6.08,1.08c-2.06.22-4.13.18-6.19.2-.23-1-.45-2-.67-3-.63-2.83-1.26-5.67-2-8.47-.13-.44-.26-.88-.41-1.31a2.64,2.64,0,0,0-.47-.95s0,0,0-.06a.73.73,0,0,0-.64-.41c-.46,0-.91-.08-1.37-.09,0-.91-.12-1.83-.21-2.73a18,18,0,0,0,3.86-1c5.08-1.76,9.39-5,13.55-8.36a29,29,0,0,0,5.4-6.25l.21-.26c3.78-5.17,7-10.92,12.07-15,7.35-5.6,16.72-7.36,24.84-11.52a56.49,56.49,0,0,0,16.89-12.3,51.46,51.46,0,0,0,10.43-18.58c2.36-7.34,3.42-15.06,6.36-22.21A53.31,53.31,0,0,1,370,298,31.42,31.42,0,0,1,375,293.3c6.77-5.26,14.56-9.06,21.1-14.64a44.11,44.11,0,0,0,16-28.14c.95-5.84.69-11.78.26-17.66a82.14,82.14,0,0,1,0-13.94,53,53,0,0,1,3.31-13.3c1.08-2.77,2.47-5.42,3.53-8.2v0c3.26.31,6.52.52,9.77.83,2.29.22,4.45.47,6.77.72.25,0,.5.05.75.06-.77,1.23-1.08,4.23-1.31,5a54.2,54.2,0,0,1-2.3,8.36c-1.71,4.38-3.72,8.67-5,13.22-2.13,6.79-1.77,14-1.37,21,.07,2.43.13,4.87.22,7.31q0,1.13,0,2.25a9.08,9.08,0,0,0,0,1.95,6.08,6.08,0,0,0-4.4,1.86,7.62,7.62,0,0,0-1.84,4.74,5.61,5.61,0,0,0-.08,1.73A4.58,4.58,0,0,0,419,266a6.11,6.11,0,0,0-2.24.31,7.11,7.11,0,0,0-4.93,6.53v.35a6.17,6.17,0,0,0-2.7.39,9.48,9.48,0,0,0-5.5,6.5c-1.5,5.62.59,11.76,2.59,17.39a15.39,15.39,0,0,1-1.54,1.26c-1.74,1.15-3.61,2.08-5.44,3.08a38.8,38.8,0,0,0-11.71,8.68c-3.75,4.13-6.92,9-8.11,14.54-1.13,5.24-1.26,10.62-1.54,16a42.12,42.12,0,0,1-1.44,11,27,27,0,0,1-3.28,6.75,19.71,19.71,0,0,1-3.63,4.26,39.58,39.58,0,0,1-12.64,8.19,84.26,84.26,0,0,1-10.14,3.49C340.48,376.32,333.81,377.73,329,382.33Zm52.65,18.42a45.83,45.83,0,0,1-3.56,9.72,9.07,9.07,0,0,1-1.88,2.3c-.65.53-.75.21-1.11-.19-2.49-3.82-3.26-8.45-4.1-12.85-1.14-6.65-1.87-13.36-2.36-20.09-.24-3.35-.38-6.71-.79-10-.06-.47-.12-.94-.19-1.41a33.52,33.52,0,0,0,6.26-5.93,31.51,31.51,0,0,0,5.21-10.66c1.3-5.08,1.31-10.36,1.69-15.57s.72-10.52,2.91-15.3a35.45,35.45,0,0,1,8.35-11.09c.33-.32.67-.62,1-.91a28.47,28.47,0,0,0,2.17,6.3,24.8,24.8,0,0,1,1.71,6c.88,8.68-1.66,17.23-3.28,25.68-2.76,13.55-5.38,27.12-8.7,40.54C384,391.75,382.9,396.27,381.66,400.75Zm55.54-73.07a1.09,1.09,0,0,0,0,.36c-.1,1.32-.13,2.65-.11,4a193.52,193.52,0,0,1-1.58,20,229.11,229.11,0,0,1-9.94,46.44c-3.05,9-7.11,17.56-10.91,26.22-3.18,6.67-7,13.15-12.18,18.44a24.55,24.55,0,0,1-11.11,6.6,22.93,22.93,0,0,1-13,.19,28.31,28.31,0,0,1-13.15-7.51c-7-7.43-11.1-17.14-13.84-26.87a106.81,106.81,0,0,1-3.84-22.22c-.22-3-.34-6-.47-9a1.75,1.75,0,0,0,.34-.15c1.11-.45,2.18-1,3.25-1.55a53,53,0,0,0,8.31-5.14,41.38,41.38,0,0,0,7.36-6.69v.19c0,3.36-.09,6.72.1,10.08.52,7.58,2,29.72,7.65,34.39-.83.86-1.64,1.73-2.47,2.59s-2.35,2.23-1.74,3.4a1.53,1.53,0,0,0,.94.57,1.18,1.18,0,0,0,1.51-.11l.32-.33a17.43,17.43,0,0,0,4.51-4.24,42.64,42.64,0,0,0,5.23-9.32c.82-2.31,1.53-4.65,2.18-7,2.72-10.07,5.13-20.32,7.39-30.51,1.39-6.75,2.75-13.5,4.2-20.23s2.94-13.31,3.75-20.07c.81-5.69.6-11.37-2-16.58a28,28,0,0,1-2.16-5.29,3.92,3.92,0,0,0-.43-1.2c2.47-1.77,5.14-3.26,7.72-4.86a16.54,16.54,0,0,0,3.81-3c.25.72.5,1.43.73,2.13,1.79,5,2.73,10.34,4.45,15.41a1.29,1.29,0,1,0,2.38-1c-1.17-5.13-2.64-10.24-4.26-15.25-1.12-3.36-2.38-6.67-3.28-10.09-1.15-4.07-2-9.14.88-12.73a7.06,7.06,0,0,1,4.17-2.61h.08a20.5,20.5,0,0,0,.86,3.43c.83,2.53,1.77,5,2.64,7.52,1.64,5.2,3.56,10.36,4.35,15.77a38.83,38.83,0,0,1,.27,4.82c0,.38-.08.94.29,1.18.9.33,1.16-2.52,1.26-3.25a28.44,28.44,0,0,0-.5-8.13,91.79,91.79,0,0,0-2.79-10.6c-1.24-3.9-3.21-7.6-3.93-11.65a8.09,8.09,0,0,1-.07-1,6.49,6.49,0,0,1,.49-1.36c1-2,3.44-3.25,5.5-2a9.21,9.21,0,0,1,1.23.79l.69.79c.88,1.56,1.92,3,2.91,4.51a79.74,79.74,0,0,1,5.36,9.32A105.7,105.7,0,0,1,435,297.52a.48.48,0,0,0,.57.45.46.46,0,0,0,.31-.57c-.1-1-.25-2-.44-3-1.53-8.36-5.5-16-10.08-23.11l-.68-1.16c-.25-.6-.48-1.21-.68-1.83-.76-2-.92-4.72.36-6.57a3.35,3.35,0,0,1,2.42-.77c2.42.36,4.29,2.17,6.1,3.68a55.74,55.74,0,0,1,8.6,10.05,69.78,69.78,0,0,1,7.15,15,22,22,0,0,1,.72,10.54,23,23,0,0,1-2,5.3c-1.65,3.3-4.1,6.09-6.08,9.18a23.16,23.16,0,0,0-2.65,6.28c0,.1-.07.19-.1.29a28,28,0,0,0-1.23,6.28C437.23,327.56,437.21,327.62,437.2,327.68Z" transform="translate(-29.32 -31.67)"/><path d="M319.35,295.71c4.9.32,8.91-2.68,12.21-6a60.8,60.8,0,0,0,5.36-6.09,30,30,0,0,0,4.22-7,11.21,11.21,0,0,0,1.36-4.76c.15-3.05-1.59-6.47-4.74-7.2-4.82-1-9.32,2.21-11.89,6.06a3.91,3.91,0,0,0-.89,1.71,1.7,1.7,0,0,0,.19.69c.76,1.76,1.62,3.46,2.44,5.2a39.73,39.73,0,0,0-4.47-1.38c-1.13-.27-2.33-.75-3.31.16-2.6,2-6.46,6.55-7.08,9.82A7.08,7.08,0,0,0,319.35,295.71Z" transform="translate(-29.32 -31.67)"/><path d="M361.41,281.44c-2.67-.86-5.4.52-7.52,2.08a24,24,0,0,0-5.14,5.06,1.33,1.33,0,0,0-.16,1.58c.25.54.53,1.07.83,1.59.91,1.61,2.11,3,3,4.68-2.56-.21-5-1.27-7.49-1.66a2.26,2.26,0,0,0-1.94.45,15,15,0,0,0-5,8.47,7.28,7.28,0,0,0,6.52,8.51c4.65.61,8.8-2.42,12.12-5.33,3.81-3.36,7.2-7.38,8.79-12.27a13.38,13.38,0,0,0,1.09-7.5A7.81,7.81,0,0,0,361.41,281.44Z" transform="translate(-29.32 -31.67)"/><path d="M346.86,316.57c-3-3.51-7.95-4-12.26-4.67-8-1.28-11.23-5.57-17.46-9.79a11.15,11.15,0,0,0-11.53-.68c-5.36,2.68-7.36,8.43-5.89,14.08a20.41,20.41,0,0,0,5.84,10.58c1.22,1.07,2.53,2,3.85,3a16.74,16.74,0,0,0,3,1.78,3.4,3.4,0,0,0,.51.16,11.25,11.25,0,0,1-1.9,3.1c-2.33,3-5.58,5.57-6.55,9.38a10.37,10.37,0,0,0,4,9.92,10.87,10.87,0,0,0,6.34,2,17.46,17.46,0,0,0,9.94-3.68,25.21,25.21,0,0,0,6.48-7.88,27.5,27.5,0,0,0,2.8-7.1v0c.58-.06,1.17-.11,1.75-.19a19.22,19.22,0,0,0,6.9-2.57c2.78-1.54,5.43-3.85,6.2-7a17.45,17.45,0,0,0,.33-4.84A10.54,10.54,0,0,0,346.86,316.57Zm-16.31,24.81a24.67,24.67,0,0,1-7.1,9.05c-2.9,2-6.44,3.46-10,2.92a8.73,8.73,0,0,1-4.51-2.31c-2.33-2.4-3.47-6.37-1.38-9.26,2.14-3.3,5.53-5.72,7.16-9.37a10.51,10.51,0,0,0,0-7.74,15.75,15.75,0,0,0-2.92-4.23A1.15,1.15,0,0,0,311,320a1.13,1.13,0,0,0-.89,1.85c.64.73,1.25,1.49,1.83,2.27a7.93,7.93,0,0,1,1.29,5.86c-1.06-.94-2.18-1.82-3.24-2.77a24.38,24.38,0,0,1-5.92-7c-.28-.54-.53-1.09-.77-1.66.85-.42,1.67-.88,2.56-1.22a13.18,13.18,0,0,1,14.13,3.44,7.64,7.64,0,0,1,1.44,2.12,21.35,21.35,0,0,1-.53,11.07c-.34,1.2-.76,2.37-1.15,3.55-.24.6-.46,1.56.44,1.66s1.27-1.44,1.67-2a32.37,32.37,0,0,0,3.86-11.76,7.1,7.1,0,0,1,2.62,1,10.23,10.23,0,0,1,4.09,6.11,7.58,7.58,0,0,1,.19,2.06c-.09.77-.22,1.53-.34,2.3V337s0,0,0,0A31,31,0,0,1,330.55,341.38Z" transform="translate(-29.32 -31.67)"/><path d="M318.42,340.33a1.17,1.17,0,1,0-.11,2.33C319.79,342.56,320.13,340.29,318.42,340.33Z" transform="translate(-29.32 -31.67)"/><path d="M340.33,217.85a51.29,51.29,0,0,1,1.27-7.38A42.49,42.49,0,0,1,346.45,200a.46.46,0,1,0-.47-.78,4.28,4.28,0,0,0-1,1.15c-.79,1.11-1.53,2.25-2.21,3.42a31.65,31.65,0,0,0-1.87,3.67,25.05,25.05,0,0,0-2,10.26A.71.71,0,0,0,340.33,217.85Z" transform="translate(-29.32 -31.67)"/><path d="M342.84,215.81c-.24,1.34-.47,2.69-.66,4a1,1,0,0,0,1.92.25c.35-2.41.76-4.8,1.16-7.19a40.65,40.65,0,0,1,4-10,13,13,0,0,0,.61-1.37.47.47,0,0,0,0-.31c-.16-.37-.6-.16-.77.09a34.44,34.44,0,0,0-3.79,6.44A27.41,27.41,0,0,0,342.84,215.81Z" transform="translate(-29.32 -31.67)"/><path d="M261.18,326.81a15.42,15.42,0,0,0,2.43-.41,24.56,24.56,0,0,0,3.24-1,31.21,31.21,0,0,0,6.17-2.81.69.69,0,0,0-.68-1.19,16.33,16.33,0,0,1-1.69.81,64.42,64.42,0,0,1-8.26,3.26c-.54.17-1.08.32-1.61.5-.31.07-.59.41-.29.66A1.1,1.1,0,0,0,261.18,326.81Z" transform="translate(-29.32 -31.67)"/><path d="M277,320.71a1.33,1.33,0,1,0-1.33-1.32A1.34,1.34,0,0,0,277,320.71Z" transform="translate(-29.32 -31.67)"/><path d="M395.85,439.13a6.36,6.36,0,0,1-.66.5c-.89.58-1.83,1.31-2.83,2a15.79,15.79,0,0,1-7.33,2.57,21.79,21.79,0,0,1-2.68,0c-.55,0-1.67-.38-2,.19-.52,1.15,1.95,1.48,2.69,1.66A14.89,14.89,0,0,0,394.77,443a10.16,10.16,0,0,0,2-1.9c.56-.5,1-1.19.4-1.85A1,1,0,0,0,395.85,439.13Z" transform="translate(-29.32 -31.67)"/><path d="M380.88,440.13a11,11,0,0,0,2.39.47,13.23,13.23,0,0,0,9.43-2.93,1.08,1.08,0,0,0-1.18-1.8,17.57,17.57,0,0,1-9.73,3c-.56.05-2,0-1.53.94A1.15,1.15,0,0,0,380.88,440.13Z" transform="translate(-29.32 -31.67)"/></svg>