<svg id="OBJECTS" xmlns="http://www.w3.org/2000/svg" xmlns:xlink="http://www.w3.org/1999/xlink" viewBox="0 0 333.68 490.17"><defs><style>.cls-1{fill:none;}.cls-2{clip-path:url(#clip-path);}.cls-3{fill:#fff;}</style><clipPath id="clip-path" transform="translate(10.11 -6.59)"><rect class="cls-1" x="-74.9" y="-29.4" width="500" height="500"/></clipPath></defs><g class="cls-2"><path d="M18.11,238.66c-.26-1.94-.55-4.08-.82-6.15q-.9-6.85-1.74-13.72c-.57-4.7-1.13-9.4-1.58-14.12-.16-1.64-.31-3.28-.39-4.93a10.09,10.09,0,0,1,.59-4.49c.62-1.48,2-3.47,3.77-3.46,2.47,0,3.46,3.72,3.92,5.55,1.15,4.59,1.85,9.32,2.62,14,.88,5.36,1.71,10.74,2.77,16.08.4,2,.83,4.09,1.41,6.09a8.37,8.37,0,0,0,1.47,3.37c1.68,1.83,3.27-2.5,3.69-3.49a123.72,123.72,0,0,0,4.34-12.72c1.48-4.89,2.86-9.82,4.22-14.75.53-1.95,1.07-3.9,1.6-5.86a20.65,20.65,0,0,1,1.62-4.83,5.86,5.86,0,0,1,5.06-3.14c2.15.12,3.12,2.09,3.11,4a24.89,24.89,0,0,1-.81,5c-.42,2-.87,4.07-1.31,6.1-1.14,5.18-2.28,10.36-3.34,15.56-1,5-2,9.94-2.65,15a48.23,48.23,0,0,0-.48,5.49,14.94,14.94,0,0,0,.08,1.89,9.94,9.94,0,0,0,.67,2.24c1.36,3.66,2.69,7.33,3.74,11.09.59,2.09,1.09,4.2,1.47,6.34a20.74,20.74,0,0,1,.4,4.51A40.82,40.82,0,0,1,50,278.11c-.75,2.83-1.65,5.61-2.61,8.36-.6,1.7-1.31,3.39-1.79,5.13a8.68,8.68,0,0,0-.14,3.09,37.94,37.94,0,0,0,.57,4c.31,1.6.66,3.19,1.09,4.77a.5.5,0,0,0,1-.27q-.68-2.54-1.15-5.12c-.38-2.06-.92-4.49-.26-6.54s1.37-3.83,2-5.75c1-2.88,1.9-5.79,2.62-8.74a35.13,35.13,0,0,0,1.23-8.64,26.56,26.56,0,0,0-.66-5c-.43-2.12-1-4.21-1.57-6.28-1.1-3.73-2.46-7.36-3.8-11a9.08,9.08,0,0,1-.32-3.54A95.77,95.77,0,0,1,48,229.35c1-5.42,2.16-10.81,3.33-16.19,1-4.34,1.94-8.68,2.82-13a13.43,13.43,0,0,0,.42-5.63,4.25,4.25,0,0,0-4-3.41,6.69,6.69,0,0,0-5.4,3,15.23,15.23,0,0,0-2,5.06c-1.19,4.28-2.35,8.57-3.55,12.84-1.41,5-2.86,10-4.5,14.91-.65,1.95-1.33,3.9-2.11,5.8-.29.69-.59,1.38-.93,2a8.63,8.63,0,0,1-.78,1.28,1.54,1.54,0,0,1-.17.19l-.09.08c-.06.06.08-.05,0,0s-.08.07-.07,0,.07-.05.06,0,0,0-.07,0,0,0-.11-.1a2.25,2.25,0,0,1-.29-.42,16.59,16.59,0,0,1-1.38-4.13c-1.22-4.91-2-9.93-2.83-14.92-.87-5.29-1.68-10.59-2.71-15.85a29.06,29.06,0,0,0-1.95-7c-.87-1.79-2.52-3.57-4.7-3-1.89.54-3.16,2.43-3.84,4.17a11,11,0,0,0-.59,4.65c.2,3.9.67,7.8,1.1,11.69q.86,7.48,1.82,15,.69,5.42,1.41,10.83c.08.57.16,1.14.23,1.7s1.05.37,1-.26Z" transform="translate(10.11 -6.59)"/><path d="M20,294.8a18.36,18.36,0,0,1-8.58-1.93A17.66,17.66,0,0,1,4.68,287a22.75,22.75,0,0,1-3.43-8.19C.59,276,0,273.13-.6,270.24c-1.07-5.76-1.95-11.65-1.41-17.6a18.71,18.71,0,0,1,2.67-8.56,6.73,6.73,0,0,1,3.74-2.76,7.35,7.35,0,0,1,4.65.31l-.62.18A13.52,13.52,0,0,1,11,239a6.76,6.76,0,0,1,3.52-1.57,5,5,0,0,1,3.7,1.26,9.17,9.17,0,0,1,1.32,1.4c.09.13.19.24.28.38a4.49,4.49,0,0,1,.26.47,7.24,7.24,0,0,1,.35.9,52.06,52.06,0,0,1,1.49,7.18,54.06,54.06,0,0,1,.62,7.3.5.5,0,0,1-.49.5.49.49,0,0,1-.51-.49,51.86,51.86,0,0,0-.61-7.15,51.66,51.66,0,0,0-1.45-7,7.24,7.24,0,0,0-.3-.79,3.27,3.27,0,0,0-.18-.33,3.85,3.85,0,0,0-.26-.34,7.61,7.61,0,0,0-1.16-1.24,4,4,0,0,0-3-1,5.84,5.84,0,0,0-3,1.37,12,12,0,0,0-2.35,2.53.53.53,0,0,1-.61.19h0a6.43,6.43,0,0,0-4-.25,5.7,5.7,0,0,0-3.16,2.37A18.48,18.48,0,0,0-1,252.74c-.57,5.76.25,11.6,1.27,17.33.53,2.88,1.14,5.73,1.78,8.59a22.13,22.13,0,0,0,3.24,7.94,18.12,18.12,0,0,0,6.35,5.7A21.84,21.84,0,0,0,20,294.8Z" transform="translate(10.11 -6.59)"/><path d="M17.88,343.56q-.28-8.52-.58-17-.23-6.67-.48-13.35c-.17-4.63-.4-9.26-1-13.86a34.47,34.47,0,0,0-1-5.42c-.18-.62-1.15-.35-1,.26a30.82,30.82,0,0,1,.83,4.26,122,122,0,0,1,1.1,13.51q.48,12.68.89,25.35l.21,6.29c0,.64,1,.65,1,0Z" transform="translate(10.11 -6.59)"/><path d="M2.29,248c-1,1.81-.71,3.86-.44,5.82a53.09,53.09,0,0,0,1.35,6.73,41.59,41.59,0,0,0,2.12,6.17,8.14,8.14,0,0,0,3.42,4.13c1.4.71,3.8,1,4.81-.52a.39.39,0,0,0-.53-.54,3.61,3.61,0,0,1-2.61.71,4.65,4.65,0,0,1-2.63-1.44c-1.6-1.66-2.38-4.07-3.1-6.21a53.12,53.12,0,0,1-1.87-7.35c-.43-2.36-1-5-.17-7.35.08-.21-.25-.34-.35-.15Z" transform="translate(10.11 -6.59)"/><path d="M8.91,241.28a23.77,23.77,0,0,0-.43,9.54,72,72,0,0,0,1.9,9.66c.41,1.6.85,3.19,1.29,4.78a15.57,15.57,0,0,0,1.47,3.92,6.46,6.46,0,0,0,6.19,3.18,5.52,5.52,0,0,0,4.56-4.92c0-.64-.95-.63-1,0a4.55,4.55,0,0,1-3.75,4c-2.49.39-4.73-1.49-5.69-3.63A25.31,25.31,0,0,1,12.24,264c-.4-1.43-.8-2.87-1.17-4.31a70.58,70.58,0,0,1-1.74-8.73A72.19,72.19,0,0,1,9,241.3a0,0,0,0,0-.09,0Z" transform="translate(10.11 -6.59)"/><path d="M45.34,255.57a12.71,12.71,0,0,0-9.68-3.86,24.91,24.91,0,0,0-6.19,1.46c-2,.65-4.1,1.32-6.08,2.15-2.94,1.23-7.27,3.09-6.62,7s4.63,5.38,8,5.85a37,37,0,0,0,14.44-.9.5.5,0,0,0-.26-1,36.39,36.39,0,0,1-11.76,1.11c-3.28-.22-7.52-.75-9.11-4.11a3.66,3.66,0,0,1,.75-4.34,14.29,14.29,0,0,1,4.27-2.49c1.79-.79,3.65-1.42,5.5-2a43.3,43.3,0,0,1,5.57-1.63,13,13,0,0,1,10.87,3c.19.16.45-.09.27-.27Z" transform="translate(10.11 -6.59)"/><path d="M19.26,272a21.91,21.91,0,0,1,0,5,24.88,24.88,0,0,1-1.18,4.87c-.11.34.44.59.6.25A16.48,16.48,0,0,0,19.78,272c-.06-.29-.56-.23-.52.07Z" transform="translate(10.11 -6.59)"/><path d="M34.51,267.8A27.58,27.58,0,0,0,27,276.22c-1.73,3.21-2.79,7.45-1.52,11,.08.22.48.21.44-.06a19,19,0,0,1,0-5.54,16.71,16.71,0,0,1,1.9-5.31,29.69,29.69,0,0,1,7.11-8.16c.25-.21-.1-.54-.35-.35Z" transform="translate(10.11 -6.59)"/><path d="M17.32,209.06A19.28,19.28,0,0,1,21,208a.3.3,0,0,0-.08-.58,7.44,7.44,0,0,0-3.77,1.15c-.24.15-.08.6.2.48Z" transform="translate(10.11 -6.59)"/><path d="M19.08,223.56a8.62,8.62,0,0,1,3.51-.69.33.33,0,0,0,.32-.28c0-.15-.07-.34-.23-.36a5.1,5.1,0,0,0-1-.07,9.09,9.09,0,0,0-1,.14,8,8,0,0,0-1.9.64.36.36,0,1,0,.36.62Z" transform="translate(10.11 -6.59)"/><path d="M40,225c.06,0,.2.16.28.19a2,2,0,0,0,.22.08l.55.11,1.07.2c.36.07.71.16,1.06.24a1.56,1.56,0,0,0,1.1.08.26.26,0,0,0,.09-.35,1.38,1.38,0,0,0-1-.41l-1.16-.19L41,224.81a5.25,5.25,0,0,0-.56,0,.69.69,0,0,0-.25,0c-.09,0-.19.12-.27.12s-.05,0,0,.06Z" transform="translate(10.11 -6.59)"/><path d="M44.27,208.15c.63.16,1.27.3,1.91.42a6.91,6.91,0,0,0,2,.26.33.33,0,0,0,.29-.23.31.31,0,0,0-.14-.34,6.72,6.72,0,0,0-1.95-.42c-.66-.1-1.33-.18-2-.25-.33,0-.39.49-.08.56Z" transform="translate(10.11 -6.59)"/><path d="M161.66,225.4c0,.1,0,.2,0,.31s0-.09,0,.07a1.36,1.36,0,0,1,0,.2c0,.18.05.35.07.53.11,1.05.19,2.11.25,3.17a46,46,0,0,1-.47,9.6,23,23,0,0,1-3.9,10.17c-.25.34-.52.66-.8,1s-.79.65-.89,1a.87.87,0,0,0,0,.36c0,.28.11.56.16.84a48.93,48.93,0,0,0,3.26,9.86A46.63,46.63,0,0,0,169,276.67a40.62,40.62,0,0,0,18.75,10.56,65,65,0,0,0,14.69,1.91,44.7,44.7,0,0,0,12.14-1.33c5.92-1.55,11.55-4.79,14.91-10a19.1,19.1,0,0,0,2.8-7.34c.41-2.59.69-5.72-1.11-7.85a43.93,43.93,0,0,0-3.52-3.15,8.89,8.89,0,0,1-2.68-4.59,40.29,40.29,0,0,1-.57-8c-.09-6,.13-11.92.44-17.87l.06-1.14c0-.64-1-.64-1,0-.2,3.43-.33,6.87-.42,10.31-.08,2.85-.12,5.71-.08,8.56a59.25,59.25,0,0,0,.4,7.18,11.24,11.24,0,0,0,.88,3.22,10.69,10.69,0,0,0,2.72,3.44,35.28,35.28,0,0,1,2.91,2.56,4.77,4.77,0,0,1,1.21,3.16,18.81,18.81,0,0,1-3.68,12.12,23.87,23.87,0,0,1-12.54,8.17c-7,2.06-14.51,1.89-21.65.8a43.75,43.75,0,0,1-18.66-7,41.07,41.07,0,0,1-10.87-11.31,49.68,49.68,0,0,1-5.39-11,41.78,41.78,0,0,1-1.73-6.31c0-.1,0-.2-.05-.3,0,.16-.08.33-.13.49,3.44-3.32,5.06-8.05,5.77-12.67a48.41,48.41,0,0,0,.31-11.66c-.07-.83-.15-1.65-.28-2.47-.1-.63-1.07-.36-1,.27Z" transform="translate(10.11 -6.59)"/><path d="M61,293.73a18.48,18.48,0,0,1,2.12-6.81,21.62,21.62,0,0,1,4.28-5.74A24.49,24.49,0,0,1,70.18,279a28.4,28.4,0,0,0,2.58-2.21,44.13,44.13,0,0,0,4.52-5.12c1.39-1.83,2.68-3.73,3.94-5.67L83.13,263c.34-.49.68-1,1.08-1.46l.33-.37.38-.34c.24-.2.49-.38.73-.56a21.66,21.66,0,0,1,6.54-3,23.08,23.08,0,0,1,3.52-.7,13.84,13.84,0,0,1,1.83-.1,6.33,6.33,0,0,1,1.95.31.7.7,0,0,1,.42.9.69.69,0,0,1-.88.42h0a7.62,7.62,0,0,0-3.11-.1,22.3,22.3,0,0,0-9.36,3.46c-.22.16-.44.33-.64.5s-.2.17-.28.24l-.25.27c-.33.41-.66.87-1,1.34l-1.91,2.89c-1.28,2-2.59,3.88-4,5.74a46,46,0,0,1-4.69,5.29A29.9,29.9,0,0,1,71,280.1a22.78,22.78,0,0,0-2.65,2.12c-3.3,3.06-5.26,7.33-6.46,11.64v0a.46.46,0,0,1-.91-.16Z" transform="translate(10.11 -6.59)"/><path d="M50.15,280.69A5.76,5.76,0,0,1,53.58,283a10.14,10.14,0,0,1,1.05,1.75,10.73,10.73,0,0,1,.7,1.89,19.85,19.85,0,0,1,.35,7.78,39.3,39.3,0,0,1-1.8,7.45,59.15,59.15,0,0,1-2.92,7c.36-1.22.72-2.43,1.1-3.63s.64-2.44,1-3.64.56-2.45.81-3.67.37-2.46.56-3.68A22,22,0,0,0,54,287a8.46,8.46,0,0,0-.62-1.66,8.94,8.94,0,0,0-.88-1.5,9.1,9.1,0,0,0-2.55-2.22l-.08,0a.47.47,0,0,1-.18-.63A.48.48,0,0,1,50.15,280.69Z" transform="translate(10.11 -6.59)"/><path d="M128.94,478.91c1.84.6,3.72,1.12,5.59,1.62,4.91,1.34,9.87,2.49,14.86,3.5,7.09,1.43,14.24,2.56,21.43,3.34A192.42,192.42,0,0,0,196,488.56a135.67,135.67,0,0,0,26.26-3c1.06-.24,2.12-.49,3.18-.76a.5.5,0,0,0-.27-1A128,128,0,0,1,199,487.46a184.66,184.66,0,0,1-25.33-.79c-7.35-.71-14.66-1.79-21.91-3.19q-7.91-1.51-15.68-3.56c-1.57-.42-3.13-.85-4.68-1.3-.71-.21-1.41-.48-2.13-.64l-.09,0c-.61-.2-.87.76-.26,1Z" transform="translate(10.11 -6.59)"/><path d="M156.35,271.66c5.52,9.82,14.64,17.7,24.67,22.64a58.7,58.7,0,0,0,15.84,5.22,44.51,44.51,0,0,0,18.14-.15,26.75,26.75,0,0,0,9.07-4.21c2.47-1.77,4.88-4,6-6.92.2-.49-.62-.84-.85-.36a16.9,16.9,0,0,1-5.33,6.18,25.69,25.69,0,0,1-7.63,3.92c-5.73,1.77-12,1.67-17.92.78A60,60,0,0,1,169,285.25a63.67,63.67,0,0,1-12.17-13.87c-.2-.29-.66,0-.48.28Z" transform="translate(10.11 -6.59)"/><path d="M12.35,293.39c-1.32,1.37-2.56,2.82-3.79,4.27A113.22,113.22,0,0,0,.77,308,50.86,50.86,0,0,0-5.6,320.42a19.35,19.35,0,0,0-1,5.93,11,11,0,0,0,1.39,5.35c2.79,5.14,6.87,10.34,12.45,12.57a13.12,13.12,0,0,0,8.91.31,20.34,20.34,0,0,0,4.14-1.95,51.66,51.66,0,0,0,9.32-7.35,70.31,70.31,0,0,0,9.74-11.75A64.22,64.22,0,0,0,46.87,308a55.1,55.1,0,0,0,2.69-18.73c-.05-1.66-.19-3.32-.39-5-.08-.63-1.08-.64-1,0a53.81,53.81,0,0,1-1,19,60.08,60.08,0,0,1-6.38,16,68.85,68.85,0,0,1-9.23,12.56,59.67,59.67,0,0,1-9.38,8.37c-3.07,2.16-6.5,4.12-10.38,4-6.07-.15-10.91-5-14.12-9.68a17.89,17.89,0,0,1-3.1-6.12,13.28,13.28,0,0,1,.18-5.4A39.14,39.14,0,0,1,.06,310.93a101,101,0,0,1,7.72-10.77c1.61-2,3.28-3.92,5-5.79l.25-.27c.45-.47-.26-1.18-.7-.71Z" transform="translate(10.11 -6.59)"/><path d="M260.13,434.05c-.07-.05,0-.08,0,.05s0-.12,0,0,.05.13.07.19c.12.34.23.7.33,1.05.35,1.19.67,2.39,1,3.59,1,3.71,1.86,7.44,2.73,11.18,1,4.17,1.91,8.35,2.76,12.55.63,3.08,1.29,6.18,1.64,9.31,0,.43.09.87.1,1.3a3.39,3.39,0,0,1,0,.45.74.74,0,0,1,0,.12s.11-.12,0,0a2.79,2.79,0,0,1-.43.34,7.28,7.28,0,0,1-1.37.68,16.51,16.51,0,0,1-3.6,1,6.57,6.57,0,0,1-3,0,1,1,0,0,1-.4-.22,1.34,1.34,0,0,1-.06-.12l0-.08a27.61,27.61,0,0,1-.79-2.73c-.89-3.5-1.65-7-2.4-10.58q-1.35-6.5-2.56-13c-.6-3.26-1.22-6.53-1.57-9.82-.05-.45-.1-.9-.11-1.35a3.08,3.08,0,0,1,0-.43c0-.19-.06,0,0-.17a3.61,3.61,0,0,1,.69-.8,7.92,7.92,0,0,1,1.36-.92,14.74,14.74,0,0,1,3.36-1.4c.67-.18,1.78-.52,2.41-.1s1-.5.51-.86a3.51,3.51,0,0,0-2.61-.14,14.55,14.55,0,0,0-3.55,1.3c-1.19.6-3.12,1.59-3.19,3.13a15.85,15.85,0,0,0,.25,2.92c.22,1.69.5,3.36.78,5,.75,4.38,1.59,8.75,2.47,13.1.83,4.1,1.69,8.19,2.66,12.25.31,1.31.62,2.61,1,3.9.24.79.41,1.62,1.24,2a6,6,0,0,0,2.95.19,17.53,17.53,0,0,0,3.78-.85c1.11-.37,3.11-.95,3.22-2.35a12.69,12.69,0,0,0-.22-2.81c-.21-1.55-.48-3.09-.77-4.62-.79-4.22-1.7-8.41-2.64-12.59s-1.93-8.35-3-12.5a69.34,69.34,0,0,0-2-7.25,1.43,1.43,0,0,0-.31-.6C260.35,432.94,259.63,433.64,260.13,434.05Z" transform="translate(10.11 -6.59)"/><path d="M266.25,475.63a16.89,16.89,0,0,1-1.95.53c-1.31-6.64-7.44-31.7-9.76-41.15a16.62,16.62,0,0,1,1.87-.84Z" transform="translate(10.11 -6.59)"/><path d="M237.62,344.77q0,3.08,0,6.17,0,6.84.11,13.68c.1,4.64.23,9.29.62,13.92a45.17,45.17,0,0,0,.62,4.93,4.55,4.55,0,0,0,1,2.55,29.76,29.76,0,0,0,5.19,3.58q3.79,2.28,7.77,4.21a36.26,36.26,0,0,0,6.66,2.69c2.16.56,4.41,0,6.51-.57a72,72,0,0,0,8.34-3c1-.42,2-.86,3-1.3a2.82,2.82,0,0,0,1.26-.79,9.29,9.29,0,0,0,1.11-3.21c.47-2,.8-4,1.1-6,.8-5.34,1.34-10.73,1.71-16.11a100.7,100.7,0,0,0,.23-14.53,23.61,23.61,0,0,0-.3-2.37.5.5,0,0,0-.35-.35c-3.36-.86-6.78-1.54-10.19-2.17a144.31,144.31,0,0,0-21.63-2.49,64.3,64.3,0,0,0-12.4.7c-.63.1-.36,1.06.27,1,7.33-1.22,14.94-.74,22.29.11a175.61,175.61,0,0,1,17.95,3.05c1.15.25,2.31.51,3.45.81l-.35-.35a32.88,32.88,0,0,1,.4,5.25c0,2.42,0,4.85-.14,7.26q-.37,8.12-1.39,16.18c-.29,2.31-.61,4.62-1,6.91a36.66,36.66,0,0,1-1.09,4.72,3.41,3.41,0,0,1-.49,1.12c-.06.08.06,0-.06.07s.09-.05-.07,0l-1,.43c-2.3,1-4.65,2-7,2.86a29.45,29.45,0,0,1-7.79,2,12.51,12.51,0,0,1-5.56-1.43c-2.59-1.11-5.11-2.39-7.57-3.75a70,70,0,0,1-6.58-4,10.17,10.17,0,0,1-1.74-1.4s0,.06,0-.07a1.51,1.51,0,0,1-.11-.22,3.61,3.61,0,0,1-.18-.5,22.37,22.37,0,0,1-.68-3.91c-.47-4.28-.61-8.61-.73-12.92-.13-4.68-.17-9.36-.18-14q0-4.14,0-8.3v-.41A.5.5,0,0,0,237.62,344.77Z" transform="translate(10.11 -6.59)"/><path d="M238.9,348.68c2.94,0,5.88-.11,8.82-.05,2.73,0,5.45.14,8.17.33,5.47.39,10.9,1.12,16.31,2,3.27.52,6.54,1.08,9.8,1.65.54.09.77-.74.23-.83-11.05-1.91-22.14-3.75-33.38-3.94a71.87,71.87,0,0,0-9.95.38c-.3,0-.32.49,0,.49Z" transform="translate(10.11 -6.59)"/><path d="M96.41,422.79c-.53.17-.92.94-1.22,1.36-.74,1-1.44,2.08-2.14,3.14-2.19,3.31-4.31,6.67-6.4,10-2.31,3.71-4.57,7.44-6.75,11.22a64.37,64.37,0,0,0-4.15,7.88,2,2,0,0,0,.14,2.23,15.57,15.57,0,0,0,5.52,4.43c1,.52,2.67,1.33,3.6.27A22.38,22.38,0,0,0,86.72,461c2.06-3.15,4-6.4,5.9-9.64q3.43-5.82,6.7-11.72a86,86,0,0,0,4.28-8.39,2.67,2.67,0,0,0,0-2.64,14.17,14.17,0,0,0-4.86-5.08,3.21,3.21,0,0,0-2.28-.69c-.63.13-.36,1.09.27,1s1.59.63,2.07,1a15.92,15.92,0,0,1,2.58,2.41,6.94,6.94,0,0,1,1.6,2.51,2.33,2.33,0,0,1,0,.28c0,.13,0-.11,0,0s-.07.24-.11.36a20.31,20.31,0,0,1-1.22,2.72c-.72,1.46-1.49,2.9-2.27,4.33-2,3.7-4.08,7.36-6.19,11-2,3.42-4,6.82-6.11,10.17-.69,1.09-1.38,2.18-2.12,3.24a10.48,10.48,0,0,1-.63.85,2.39,2.39,0,0,1-.22.23s.12,0,0,0a1.28,1.28,0,0,1-.3,0,6,6,0,0,1-2.6-1,19.7,19.7,0,0,1-2.94-2.11,7.09,7.09,0,0,1-1.86-2.15c0,.09,0,0,0,0s.06-.24.09-.33a16.45,16.45,0,0,1,1.14-2.56c.7-1.38,1.45-2.73,2.21-4.08,2-3.54,4.1-7,6.23-10.5s4.25-6.84,6.43-10.21q1.23-1.9,2.5-3.77c.3-.45.61-.91.93-1.35l.36-.5.23-.3.21-.24c.13-.15,0,0-.08,0C97.29,423.56,97,422.59,96.41,422.79Z" transform="translate(10.11 -6.59)"/><path d="M78.19,460.31a19,19,0,0,0,1.66,1.26c3.28-5.71,16.77-26.79,21.86-34.73a16.51,16.51,0,0,0-1.49-1.53Z" transform="translate(10.11 -6.59)"/><path d="M146.74,338.22q-.81,2.94-1.67,5.86c-1.26,4.33-2.55,8.65-3.91,12.94s-2.8,8.75-4.47,13a39.43,39.43,0,0,1-1.89,4.26,8.58,8.58,0,0,1-.74,1.19,1.4,1.4,0,0,1-.85.51,34.2,34.2,0,0,1-6.25,1.3c-2.84.42-5.7.71-8.57.9a43.28,43.28,0,0,1-7.11.05,11.83,11.83,0,0,1-5.53-2.57A72.1,72.1,0,0,1,99,370.14c-.85-.76-1.69-1.53-2.51-2.32l-.85-.81c-.08-.08-.16-.15-.23-.23.11.11,0,0,0-.07,0,.16,0-.07,0-.12s0-.19-.06-.29,0-.44-.06-.65a20.62,20.62,0,0,1,0-2.08c.11-2,.34-4,.61-5.92.71-5.3,1.69-10.58,2.83-15.8a99.61,99.61,0,0,1,3.78-13.78,21.44,21.44,0,0,1,.88-2l-.43.25.21,0a3.54,3.54,0,0,0,.47.07l2.23.32c2.56.39,5.1.83,7.64,1.32a156.6,156.6,0,0,1,21.84,5.63A67.34,67.34,0,0,1,147,338.78a.5.5,0,0,0,.51-.86c-6.73-3.88-14.33-6.26-21.81-8.2-6.24-1.62-12.57-2.89-18.94-3.88-1.27-.2-2.54-.39-3.81-.55a.47.47,0,0,0-.43.24,33.09,33.09,0,0,0-1.95,5.1c-.73,2.36-1.36,4.75-1.94,7.16q-2,8.13-3.24,16.41c-.37,2.32-.69,4.65-.92,7a27.59,27.59,0,0,0-.2,4.72,3.25,3.25,0,0,0,.28,1.34,5.47,5.47,0,0,0,1.2,1.25c1.93,1.84,3.91,3.62,6,5.31a33.53,33.53,0,0,0,6.78,4.7,12.65,12.65,0,0,0,5.62.87,87.27,87.27,0,0,0,16.53-1.67,23.85,23.85,0,0,0,2.77-.69,3.11,3.11,0,0,0,1.28-.68,10.7,10.7,0,0,0,1.73-3,120.85,120.85,0,0,0,4.42-12c1.52-4.62,2.94-9.28,4.32-13.95q1.26-4.26,2.46-8.53l.12-.42A.5.5,0,0,0,146.74,338.22Z" transform="translate(10.11 -6.59)"/><path d="M145.59,341.33a78.45,78.45,0,0,0-8.33-3.57c-2.75-1.05-5.56-2-8.38-2.82-5.52-1.67-11.12-3-16.76-4.25-3.35-.73-6.71-1.41-10.07-2.08-.54-.11-.77.72-.23.83,11.47,2.28,22.93,4.71,34,8.66,3.24,1.15,6.41,2.47,9.62,3.68.26.1.44-.32.19-.45Z" transform="translate(10.11 -6.59)"/><path d="M281,348.61c0-3.17,0-6.33-.14-9.49l-.45-9.52a59.11,59.11,0,0,1,.4-9.59,72,72,0,0,1,1.92-9.37c-.41,3.15-.84,6.3-1,9.45a71.1,71.1,0,0,0,0,9.46c.16,3.15.46,6.33.51,9.53s0,6.38-.18,9.57a.5.5,0,0,1-.54.46A.49.49,0,0,1,281,348.61Z" transform="translate(10.11 -6.59)"/><path d="M276.82,495.15a91.77,91.77,0,0,0,3.66-19.36,150.28,150.28,0,0,0,.17-19.45c-.66-13.47-2.41-26.86-2.88-40.34a174.6,174.6,0,0,1,.76-24.52c.07-.68-1-.68-1.07,0-1.47,14.16-.71,28.37.48,42.52,1.1,13,2.46,26.06,1.78,39.13a104.51,104.51,0,0,1-3.35,21.9.23.23,0,0,0,.45.12Z" transform="translate(10.11 -6.59)"/><path d="M296,299a36.92,36.92,0,0,0-1.09,4.07c-.36,1.35-.79,2.68-1.24,4-.88,2.62-1.93,5.19-3,7.72-2.22,5.06-4.72,10-6.79,15.14-.61,1.5-1.2,3-1.68,4.57a12.81,12.81,0,0,0-.76,4.94.44.44,0,0,0,.88,0,18.13,18.13,0,0,1,.76-4.57c.42-1.35.92-2.67,1.44-4,1-2.61,2.18-5.18,3.36-7.74A147.63,147.63,0,0,0,294.19,308c.48-1.47.89-2.95,1.23-4.46a15.6,15.6,0,0,0,.63-4.54c0-.06-.08-.06-.09,0Z" transform="translate(10.11 -6.59)"/><path d="M292.13,321.88c-1.11,2-2.34,3.9-3.41,5.91s-2.07,4.06-3,6.13-1.82,4.09-2.67,6.17c-.42,1-.82,2-1.22,3.07a6.63,6.63,0,0,0-.77,3.08.4.4,0,0,0,.73.1,11.38,11.38,0,0,0,.41-1.41c.16-.52.35-1,.54-1.52.39-1,.79-2.05,1.2-3.08.85-2.11,1.76-4.21,2.68-6.3s1.84-4,2.78-6,1.83-4.11,2.9-6.07c.05-.1-.1-.19-.15-.09Z" transform="translate(10.11 -6.59)"/><path d="M290.78,342.59a29.38,29.38,0,0,0-3.21,5.43c-.92,1.87-1.72,3.81-2.47,5.76-1.22,3.2-2.28,6.45-3.35,9.71l.78.21c.19-.57.37-1.14.56-1.71l-.78-.21c-.09.28-.19.56-.26.86s.52.71.7.29.24-.62.34-.94c.17-.5-.62-.71-.78-.21s-.37,1.14-.56,1.71.62.7.78.21c1-3.14,2.05-6.29,3.21-9.39q1.13-3,2.47-5.92c.88-1.9,1.94-3.69,2.87-5.56.09-.18-.16-.42-.3-.24Z" transform="translate(10.11 -6.59)"/><path d="M302.79,460.52a27.19,27.19,0,0,0,7.62-5.54,29.63,29.63,0,0,0,5.59-7.66.41.41,0,0,0-.71-.42,41.42,41.42,0,0,1-5.48,7.48,46.77,46.77,0,0,1-7.09,6,.07.07,0,0,0,.07.13Z" transform="translate(10.11 -6.59)"/><path d="M305,477.46a14.39,14.39,0,0,0,1.73-.52,8.28,8.28,0,0,0,1.48-.91,23,23,0,0,0,2.71-2.41,13.31,13.31,0,0,0,2.49-3.15,13.14,13.14,0,0,0,.71-1.69,3.17,3.17,0,0,0,.38-1.84.32.32,0,0,0-.53-.14c-.41.33-.5,1-.67,1.48a15.82,15.82,0,0,1-.69,1.72,12,12,0,0,1-2.3,3c-.76.79-1.51,1.59-2.33,2.31a16,16,0,0,1-1.38,1.08,7,7,0,0,1-1.62,1c-.06,0,0,.11,0,.09Z" transform="translate(10.11 -6.59)"/><path d="M312.18,434c-1.62,1.84-3.06,3.83-4.8,5.57a40.4,40.4,0,0,1-6,4.84,49.72,49.72,0,0,1-13,6.71,27.47,27.47,0,0,1-3.79.9c-1.42.23-2.84.25-4.27.34a.41.41,0,0,0,0,.82,20.44,20.44,0,0,0,7.4-.91,36.07,36.07,0,0,0,6.78-2.71,66.82,66.82,0,0,0,6.66-4,44.25,44.25,0,0,0,6.16-4.85,20,20,0,0,0,4.91-6.71,0,0,0,0,0-.05,0Z" transform="translate(10.11 -6.59)"/><path d="M9.35,291.74a37.4,37.4,0,0,0-3.51,3.5c-1.78,1.95-3.46,4-5.06,6.1a60.9,60.9,0,0,0-9.32,16.43,25.19,25.19,0,0,0-1.57,8.58,16,16,0,0,0,.57,4,26.58,26.58,0,0,0,2.28,5.08,82.68,82.68,0,0,0,10,14.38A31.23,31.23,0,0,0,23.31,360.3a33.82,33.82,0,0,0,11.33-1,27.85,27.85,0,0,0,8.74-3.77C48.62,352,52.13,346.69,55,341.2a85.8,85.8,0,0,0,4.13-8.79,77.06,77.06,0,0,0,2.88-9,63.52,63.52,0,0,0,2.28-19.19c-.26-4.56-1.3-10.16-5.44-12.85A8.7,8.7,0,0,0,56,290.18c-.63-.14-.9.83-.27,1,4.61,1,6.51,5.57,7.22,9.79,1,5.95.23,12.21-.95,18.07a73.3,73.3,0,0,1-5.64,17.28C53.64,342,50.65,347.85,46,352.22s-11.07,6.52-17.51,7.11a30.45,30.45,0,0,1-21.59-6.8,37.69,37.69,0,0,1-5-5.27A74.82,74.82,0,0,1-3.4,340c-1.17-1.81-2.26-3.66-3.25-5.57a21.59,21.59,0,0,1-2-4.72,17.51,17.51,0,0,1,.07-8.08c1.29-6,4.42-11.49,7.85-16.49A76.79,76.79,0,0,1,8.7,293.71c.44-.44.88-.86,1.36-1.26s-.22-1.12-.71-.71Z" transform="translate(10.11 -6.59)"/><path d="M161.15,239q-10.89-.5-21.78-.81c-5.37-.16-10.73-.3-16.1-.32-2,0-4,0-6,.07a16.1,16.1,0,0,0-4.48.56c-5.05,1.67-9.49,6.21-12.21,10.65a12.53,12.53,0,0,0-2.2,6.64,5.5,5.5,0,0,0,2.45,4.36c3.92,3,8.8,4.86,13.27,6.81,6,2.61,12,5.06,18,7.71,8.1,3.6,16.11,7.74,21.71,14.85,7.86,10,8.77,23.42,7.55,35.6-.86,8.7-2.67,17.35-4.35,25.92-2.08,10.63-4.3,21.24-6.58,31.83q-3.75,17.52-7.7,35-3.6,16-7.34,32.06c-1.79,7.68-3.6,15.36-5.5,23-.52,2.08-1,4.16-1.6,6.22-.38,1.36-.43,1.85-1.83,2.39-3.12,1.19-6.73,1.4-10,1.68-5.16.42-10.34.54-15.5.51-5.58,0-11.17-.26-16.73-.74a92.6,92.6,0,0,1-14.25-2.11c-1.85-.45-4.55-1-6-2.28a7.49,7.49,0,0,1-1.16-2c-2-4.7-1.8-10.34-1.32-15.32,1.23-12.72,5.53-25.16,10.21-37,2.84-7.16,6.13-14.07,8.35-21.46,2.16-7.21,3.76-14.58,5.19-22,3.18-16.42,5.48-33,8.76-49.41,1.59-7.89,3.66-15.62,5.6-23.43a167.23,167.23,0,0,0,4.06-23.51,104.67,104.67,0,0,0,.29-22.45c-.07-.63-1.07-.64-1,0a106.84,106.84,0,0,1-.39,23.44,164.52,164.52,0,0,1-4.29,23.72c-2.08,7.94-4,15.87-5.62,23.93-1.63,8.32-3,16.68-4.43,25-2.6,15.49-5,31.23-9.71,46.24-2.4,7.57-5.91,14.72-8.76,22.13a181.29,181.29,0,0,0-6.79,21c-1.94,7.79-3.53,16.19-2.41,24.24.33,2.39.91,5.7,2.71,7.52,1.34,1.35,3.93,1.9,5.7,2.37a84.6,84.6,0,0,0,13.7,2.18,193.73,193.73,0,0,0,32.67.45A49.08,49.08,0,0,0,126,482.74c1.52-.46,2.56-1,3-2.54,1.42-4.79,2.5-9.69,3.66-14.54q3.3-13.68,6.43-27.4,3.92-17,7.69-34.09,3.83-17.28,7.46-34.6c2-9.62,4-19.25,5.72-28.92,2-11,3.83-22.19,2.15-33.35-1.47-9.7-6-18.35-13.65-24.5-8.26-6.59-18.57-10.2-28.19-14.29a160.82,160.82,0,0,1-16-7.35c-1.47-.82-3.38-1.77-4.31-3.25-1.28-2-.38-4.73.58-6.68a25.61,25.61,0,0,1,5.28-7,20.23,20.23,0,0,1,7-4.7,15,15,0,0,1,4.57-.61c2.06-.07,4.13-.07,6.19-.06,10.39,0,20.79.45,31.18.86,2.12.09,4.24.17,6.36.27.64,0,.64-1,0-1Z" transform="translate(10.11 -6.59)"/><path d="M305.33,496.76c-19.78,0-76.44-2.37-79.67-8.5-3.62-6.86-8.31-126-8.37-144.33-.06-18.7,19.09-38.9,31.17-47.23,7.34-5.07,19.2-7,27.85-8.41,5.07-.83,10.82-1.76,11.13-2.9.65-2.4-4.59-8.34-8.05-11.52a.7.7,0,0,1-.22-.64c1.25-7-4.13-9.61-13.05-13.89l-.5-.23c-4.33-2.08-8.91-4-12.94-5.64A120.11,120.11,0,0,1,240.63,248c-5.21-3-16.09-2.59-16.2-2.59a.7.7,0,0,1-.06-1.4c.46,0,11.4-.38,16.95,2.77a119.5,119.5,0,0,0,11.89,5.36c4.06,1.67,8.65,3.57,13,5.66l.49.24c9,4.34,15.08,7.23,13.89,15,1.77,1.65,9.2,8.91,8.18,12.66-.38,1.38-2.47,2.13-6.57,2.93,23.41,8.71,24.68,34.95,25.45,50.84.08,1.8.16,3.46.27,4.94.64,8.89.37,20.83.18,29.54-.13,5.88-.23,10.52,0,12.09.55,4.24,8.52,40.17,10.84,46.48s-3.21,15.61-4.43,17.54c3.28,6.81.55,16.58,0,18.39,7.36,14.88,6.63,24.06,5.2,26.85-.26.53-.67,1.31-13,1.39Zm-26-207.56-2.82.47c-8.52,1.39-20.19,3.29-27.27,8.18-11.85,8.17-30.63,27.91-30.57,46.07.06,18,4.78,137.18,8.21,143.69.15.28.89,1.05,4.51,2,19.87,5.26,83.58,6.7,87.11,5,1.48-3.13,1.25-12.43-5.39-25.74a.69.69,0,0,1,0-.53c0-.11,3.57-11.11,0-18a.69.69,0,0,1,0-.71c.07-.11,6.8-10.39,4.5-16.63-2.43-6.61-10.34-42.39-10.91-46.77-.22-1.68-.12-6.37,0-12.31.19-8.69.46-20.58-.18-29.41-.1-1.49-.18-3.16-.27-5C305.49,323.54,304.2,296.67,279.35,289.2Zm39.23,205.38Z" transform="translate(10.11 -6.59)"/><path d="M132.18,479.18c3.26-8.66,5.19-17.74,7-26.78,2.29-11.14,4.23-22.34,6.29-33.52,1.94-10.48,3.89-21,6.44-31.32,2.77-11.21,7-22,9.91-33.16a153.32,153.32,0,0,0,5-32.69,80.68,80.68,0,0,0-2-22.18,47.81,47.81,0,0,0-5.35-13.29,33.54,33.54,0,0,0-4.82-6.24c-5.23-5.29-11.78-9.09-18-13.07A109.29,109.29,0,0,1,124,258a20.63,20.63,0,0,1-4.06-4.34,13.54,13.54,0,0,1-1.92-7.63,9.81,9.81,0,0,1,3.74-7.43c.34-.26-.1-.81-.45-.59-4.87,3.09-5.08,9.59-3.09,14.49,1.44,3.54,4.81,6.13,7.78,8.37,4.3,3.24,8.91,6.06,13.45,8.95a96.48,96.48,0,0,1,12.49,8.84,35,35,0,0,1,4.9,5.27,40.8,40.8,0,0,1,5.6,10.73,67.07,67.07,0,0,1,3.5,19.45,125.72,125.72,0,0,1-2.74,30.15c-1.32,6.59-3,13.11-5,19.55-1.7,5.64-3.8,11.15-5.44,16.81-2.79,9.67-4.72,19.59-6.61,29.47-2.16,11.31-4.13,22.65-6.29,34-1.89,9.88-3.78,19.81-6.51,29.5-.52,1.83-1,3.68-1.57,5.5-.08.25.31.35.4.11Z" transform="translate(10.11 -6.59)"/><path d="M164.46,299.6c-.2-1.18-.27-2.37-.46-3.54s-.41-2.34-.64-3.51c-.47-2.33-1-4.64-1.6-6.94a138.71,138.71,0,0,0-4.27-13.48c-1.62-4.35-3.62-8.58-4.94-13-.92-3.1-1.89-6.88-.6-10,1.37-3.33,5-4.4,8.28-4.76.61-.07.63-1,0-1-3.11.23-6.46,1.22-8.36,3.85s-1.67,5.71-1.15,8.6c.85,4.75,2.89,9.17,4.65,13.62,1.83,4.61,3.42,9.31,4.85,14.06.8,2.65,1.51,5.33,2.18,8,.33,1.34.65,2.69,1,4s.74,2.75,1,4.14c0,.07.13,0,.12,0Z" transform="translate(10.11 -6.59)"/><path d="M222.16,485.37c-.52-5.73-1.25-11.45-1.88-17.18-.92-8.37-1.78-16.75-2.53-25.14q-1.33-14.85-2.26-29.71c-.61-10.16-1.07-20.32-1.26-30.49-.17-9.16-.13-18.33.42-27.47a111,111,0,0,1,2.93-21.48,73.7,73.7,0,0,1,15.8-30.3,74.85,74.85,0,0,1,26.07-18.73,22.34,22.34,0,0,1,5.23-1.69,17.34,17.34,0,0,0,4.9-1.47c3.29-1.73,3.69-5.24,2.13-8.35-2-3.9-5.38-7.15-8.52-10.08a150.74,150.74,0,0,0-12.61-10.38c-1.86-1.39-3.75-2.72-5.67-4-.52-.35-1,.49-.49.84,4.25,2.9,8.38,6,12.35,9.29A83.43,83.43,0,0,1,268,269.74c2,2.45,5.45,6.91,2.59,10-2.3,2.48-6.06,2-9,3.15A76.19,76.19,0,0,0,235.41,300a73,73,0,0,0-17,27.8,95,95,0,0,0-4.4,22.91c-.72,8.71-.88,17.46-.82,26.2.12,19.95,1.38,39.9,3.09,59.78q1.14,13.25,2.61,26.46c.72,6.39,1.42,12.82,2.52,19.16.18,1.05.41,2.08.64,3.12a.07.07,0,0,0,.14,0Z" transform="translate(10.11 -6.59)"/><path d="M276.44,280a13.31,13.31,0,0,0,2.86-4.4,14.32,14.32,0,0,0,.76-2.57,6.83,6.83,0,0,0,.15-2.66.34.34,0,0,0-.65,0c-.2.79-.2,1.62-.34,2.43a14.57,14.57,0,0,1-.67,2.43,14.92,14.92,0,0,1-2.51,4.36c-.23.28.14.67.4.41Z" transform="translate(10.11 -6.59)"/><path d="M214.66,348.48c.31-3.69.83-7.38,1.28-11.05s1-7.42,1.65-11.1a144.2,144.2,0,0,1,5.28-21.21,105.25,105.25,0,0,1,4-10.15c1.46-3.21,3.08-6.34,4.6-9.52a76.33,76.33,0,0,0,4-9.63,30.41,30.41,0,0,0,1.8-10.16,10.54,10.54,0,0,0-1.33-5.1,11.89,11.89,0,0,0-3.05-3.31,36,36,0,0,0-8.35-4.44c-.5-.2-.87.67-.37.88a42.77,42.77,0,0,1,7.4,3.81,9.92,9.92,0,0,1,4.65,7.16c.37,3.43-.5,7-1.5,10.28a71,71,0,0,1-3.9,9.62c-1.48,3.12-3.06,6.19-4.5,9.33a104.77,104.77,0,0,0-3.92,9.8,135.89,135.89,0,0,0-5.23,20.73q-1,5.91-1.7,11.86c-.45,4.06-.66,8.12-1,12.2,0,.11.17.1.17,0Z" transform="translate(10.11 -6.59)"/><path d="M138.93,277.59a72.75,72.75,0,0,1,10.56,21.3,88.24,88.24,0,0,1,3.68,23.5,128.73,128.73,0,0,1-2.5,27.06c-1.46,7.65-3.51,15.14-5.51,22.65-3.1,11.7-6,23.46-9,35.18-3.45,13.28-7,26.54-11.19,39.63-3.6,11.34-7.49,22.74-12.93,33.35-.55,1.08-1.12,2.14-1.72,3.2a.5.5,0,0,0,.87.5c5.69-10.1,9.64-21.21,13.26-32.19,4.31-13.1,8-26.4,11.5-39.73,3.22-12.24,6.24-24.53,9.44-36.77,1.81-6.89,3.76-13.74,5.28-20.7a142.53,142.53,0,0,0,3.46-26.81c.38-15.92-2.88-32.29-11.61-45.81a54.45,54.45,0,0,0-3.3-4.56c-.12-.14-.37.05-.26.2Z" transform="translate(10.11 -6.59)"/><path d="M248.41,296.8c-7.57,14.11-14.84,28.6-17.39,44.57-2.36,14.76-1.21,29.65-.12,44.46.82,11.06,1.58,22.13,2.44,33.18,1,12.52,2,25,3.43,37.51a321.09,321.09,0,0,0,4.77,31.94c.22,1,.45,2.05.7,3.06.14.6,1,.35.91-.25a265.27,265.27,0,0,1-4.94-30.45c-1.46-12.33-2.57-24.71-3.58-37.08-.92-11.36-1.73-22.73-2.57-34.1-1-13.84-2.37-27.72-1.07-41.6a97.35,97.35,0,0,1,5.28-23.77,213.11,213.11,0,0,1,9.78-22l2.62-5.29c.09-.18-.17-.33-.26-.16Z" transform="translate(10.11 -6.59)"/><path d="M177.24,158.21s-.1-13.26-11.16-17.46c-13-4.92-24.26,5.94-24.26,5.94l2.38.65a18.73,18.73,0,0,0-5.95,7.55s2.1-.47,3.37-.62a9.93,9.93,0,0,0,3.32,6.81s-2.55-6,4.59-12.1C155.75,143.65,169.72,140.47,177.24,158.21Z" transform="translate(10.11 -6.59)"/><path d="M173.29,155.08c.1,4.6-3.31,8.25-7.57,9.5a13.42,13.42,0,0,1-13.19-3.3,9.32,9.32,0,0,1-1.4-11.73c2.63-4,7.83-5.45,12.34-4.6,5,.93,9.61,4.81,9.82,10.13,0,.64,1,.65,1,0-.2-5.07-4.07-9.09-8.74-10.63-4.84-1.6-10.72-.59-14.25,3.26a10.18,10.18,0,0,0-.71,12.81,14.22,14.22,0,0,0,13.68,5.41c5.39-.84,10.14-5.14,10-10.85C174.27,154.44,173.27,154.44,173.29,155.08Z" transform="translate(10.11 -6.59)"/><ellipse cx="161.91" cy="153.31" rx="7.79" ry="8.14" transform="translate(-50.75 137.09) rotate(-40.96)"/><path class="cls-3" d="M167.13,148.46c0,1.11-1.81,2-4.11,2s-4.19-1-4.22-2.07,1.8-2,4.1-2S167.1,147.35,167.13,148.46Z" transform="translate(10.11 -6.59)"/><path d="M147.48,165.12a20.75,20.75,0,0,0,4.94,2.94,18,18,0,0,0,5.8,1.23,31,31,0,0,0,10.72-1.18,19.39,19.39,0,0,0,6.42-3.14,6.94,6.94,0,0,0,1.53-1.53,4.31,4.31,0,0,0,.54-2.31,20,20,0,0,0-.72-5.33c-.28-1.09-.6-2.16-1-3.21a16.46,16.46,0,0,0-1.41-3.21c-.17-.26-.62-.1-.51.21.61,1.82,1.44,3.55,2,5.41a24.53,24.53,0,0,1,.92,4.89,6.05,6.05,0,0,1-.24,2.93,4.34,4.34,0,0,1-1.16,1.33,17,17,0,0,1-5.64,3,29.29,29.29,0,0,1-9.69,1.53,23.14,23.14,0,0,1-6.42-.77,21.1,21.1,0,0,1-6-2.87s0,0,0,0Z" transform="translate(10.11 -6.59)"/><path d="M149.6,138.82a66.24,66.24,0,0,1,10.82-.44,18.4,18.4,0,0,1,7.63,1.31,18.84,18.84,0,0,1,8.47,8.23c.77,1.38,1.34,2.84,2,4.26.15.29.56.08.5-.21a15,15,0,0,0-1.6-4,23,23,0,0,0-3.33-4.74,16.68,16.68,0,0,0-12.29-5.58,45.67,45.67,0,0,0-12.23,1.15Z" transform="translate(10.11 -6.59)"/><path d="M146.9,173c-.75,0-.72,1.16,0,1.17S147.66,173,146.9,173Z" transform="translate(10.11 -6.59)"/><path d="M140.26,177.67c-.76,0-.72,1.16,0,1.17S141,177.68,140.26,177.67Z" transform="translate(10.11 -6.59)"/><path d="M151.59,178.41c-.75,0-.72,1.16,0,1.17S152.34,178.42,151.59,178.41Z" transform="translate(10.11 -6.59)"/><path d="M150.4,183.21l0,0c-1.1-.58-1.68,1.23-.57,1.45h0C150.67,184.82,151.27,183.65,150.4,183.21Z" transform="translate(10.11 -6.59)"/><path d="M159,179.11c-.75,0-.72,1.16,0,1.17S159.75,179.12,159,179.11Z" transform="translate(10.11 -6.59)"/><path d="M154.41,173.22c-.75,0-.72,1.16,0,1.17S155.17,173.23,154.41,173.22Z" transform="translate(10.11 -6.59)"/><path d="M145.54,179.17c-.75,0-.72,1.16,0,1.17S146.29,179.18,145.54,179.17Z" transform="translate(10.11 -6.59)"/><path d="M142.07,182.54c-.64,0-.61,1,0,1S142.71,182.55,142.07,182.54Z" transform="translate(10.11 -6.59)"/><path d="M239.48,185.85c.76,0,.72-1.16,0-1.17S238.73,185.84,239.48,185.85Z" transform="translate(10.11 -6.59)"/><path d="M246.23,184.5c.75,0,.72-1.16,0-1.17S245.48,184.49,246.23,184.5Z" transform="translate(10.11 -6.59)"/><path d="M228,181.19c.75,0,.72-1.16,0-1.17S227.21,181.18,228,181.19Z" transform="translate(10.11 -6.59)"/><path d="M234.84,181.86c.75,0,.72-1.16,0-1.17S234.09,181.85,234.84,181.86Z" transform="translate(10.11 -6.59)"/><path d="M231.84,176l0,0c1.11.57,1.68-1.23.57-1.45h0A.78.78,0,0,0,231.84,176Z" transform="translate(10.11 -6.59)"/><path d="M239.74,175.4c.75,0,.72-1.16,0-1.17S239,175.39,239.74,175.4Z" transform="translate(10.11 -6.59)"/><path d="M232,185.63c.75,0,.72-1.16,0-1.17S231.22,185.62,232,185.63Z" transform="translate(10.11 -6.59)"/><path d="M241.41,181.36c.75,0,.72-1.16,0-1.17S240.66,181.35,241.41,181.36Z" transform="translate(10.11 -6.59)"/><path d="M245.47,178.05c.64,0,.62-1,0-1S244.83,178,245.47,178.05Z" transform="translate(10.11 -6.59)"/><path d="M136.22,133.85A52,52,0,0,0,128,150.4a8.87,8.87,0,0,0-.6,2.77c0,.41.12.83.18,1.24q1.56,10.54,3.59,21c.92,4.74,1.91,9.46,3.07,14.14a99.93,99.93,0,0,0,3.58,12,28.5,28.5,0,0,0,1.89,4.13,33.9,33.9,0,0,0,4.25,5.66,70.09,70.09,0,0,0,13.26,11.22,95.66,95.66,0,0,0,16.55,8.92,64.42,64.42,0,0,0,16.35,4.7,36.8,36.8,0,0,0,12.68-.69,86,86,0,0,0,14.6-4.63c9.88-4,19.61-9.28,27.7-16.3a32.92,32.92,0,0,0,8-9.46,26,26,0,0,0,1.72-4.68c.58-2,1.06-4,1.51-6,2.1-9.4,3.55-19,4.9-28.47.39-2.75.76-5.49,1.11-8.24a15.88,15.88,0,0,0,0-2.39q-.12-3.56-.22-7.13c0-1.31-.08-2.62-.11-3.93a.5.5,0,0,0-1,0c.11,3.71.21,7.42.33,11.13a15,15,0,0,1,0,2.32c-.13,1-.26,2-.4,3.05-1.16,8.72-2.46,17.42-4.08,26.07-.82,4.35-1.7,8.7-2.9,13a27.53,27.53,0,0,1-1.67,4.69,24,24,0,0,1-3.19,4.67,56.09,56.09,0,0,1-10.51,9.18,106.23,106.23,0,0,1-14.06,8.22,109.09,109.09,0,0,1-14.84,6,57.12,57.12,0,0,1-13.3,2.82,40.74,40.74,0,0,1-14.19-2,85.75,85.75,0,0,1-16.63-7,87.39,87.39,0,0,1-15.28-10.36c-3.71-3.17-7.45-6.83-9.85-11.13a46.5,46.5,0,0,1-3.67-9.76c-1.27-4.38-2.31-8.83-3.27-13.28-1.74-8.12-3.18-16.3-4.47-24.5,0-.23-.62-4.51-.68-4.5.16,0-.07.41,0,.14a4.1,4.1,0,0,0,.1-.48q.22-1,.51-2a46,46,0,0,1,2.68-7.1,54.73,54.73,0,0,1,5.42-9.11c.39-.52-.48-1-.86-.5Z" transform="translate(10.11 -6.59)"/><path d="M147.58,129.2c3.38-.32,6.76-.59,10.16-.77s6.78-.29,10.21-.14c.43,0,.86.06,1.3.11.22,0,.44,0,.66.08l.34.07.17,0h0c-.1,0-.1.08,0,0a1.46,1.46,0,0,0,.12-.44,4.61,4.61,0,0,0,0-1.11,4.37,4.37,0,0,0-.85-2.06,2.29,2.29,0,0,0-.83-.66c-.34-.18-.72-.35-1.09-.51a23.93,23.93,0,0,0-4.77-1.39,10.73,10.73,0,0,0-4.88,0h0a.27.27,0,0,1-.33-.18.28.28,0,0,1,.16-.33,7.73,7.73,0,0,1,2.59-.46,15.06,15.06,0,0,1,2.6.14,24.32,24.32,0,0,1,5,1.27,11.78,11.78,0,0,1,1.21.54,3.54,3.54,0,0,1,1.16.9,5.45,5.45,0,0,1,1.11,2.57,5.16,5.16,0,0,1,.05,1.42,2.48,2.48,0,0,1-.2.79,1.32,1.32,0,0,1-.32.44,1,1,0,0,1-.66.26,1.21,1.21,0,0,1-.3,0l-.14,0a2.3,2.3,0,0,0-.28-.06c-.2,0-.4-.07-.6-.09-.4,0-.82-.08-1.23-.1-3.34-.18-6.73,0-10.11,0s-6.77.24-10.14.41a.34.34,0,0,1-.06-.67Z" transform="translate(10.11 -6.59)"/><path d="M210.3,158.49s-.69-13.16,10-17c12.56-4.55,24.43,6.54,24.43,6.54l-2.32.58a21,21,0,0,1,6.35,7.65s-2.11-.52-3.38-.7a9.06,9.06,0,0,1-2.9,6.67s2.19-5.86-5.27-12.13C230.76,144.6,216.71,141.07,210.3,158.49Z" transform="translate(10.11 -6.59)"/><path d="M213,155.48c.19,5,4,9,8.63,10.54,4.79,1.6,10.61.62,14.12-3.18a10.07,10.07,0,0,0,.72-12.8A14.08,14.08,0,0,0,223,144.71c-5.34.85-10,5.11-9.91,10.77a.5.5,0,0,0,1,0c-.1-4.54,3.25-8.16,7.46-9.42a13.35,13.35,0,0,1,13.07,3.22A9.28,9.28,0,0,1,236,161c-2.62,3.89-7.77,5.35-12.23,4.51-4.92-.94-9.51-4.78-9.71-10.05C214,154.84,213,154.84,213,155.48Z" transform="translate(10.11 -6.59)"/><ellipse cx="225.22" cy="154.03" rx="7.73" ry="8.08" transform="translate(-35.95 176.72) rotate(-40.53)"/><path class="cls-3" d="M219.75,149.08c0,1.1,1.91,2,4.2,2s4.1-.84,4.07-1.94-1.91-2-4.19-2.06S219.72,148,219.75,149.08Z" transform="translate(10.11 -6.59)"/><path d="M240.22,166.1a18.93,18.93,0,0,1-10.75,3.3,31.93,31.93,0,0,1-9.95-1.4,21.51,21.51,0,0,1-6.35-3.09,8.16,8.16,0,0,1-1.58-1.47,3.78,3.78,0,0,1-.63-2.05,19.73,19.73,0,0,1,.4-5.14,30.32,30.32,0,0,1,.77-3.09c.31-1.06.76-2.08,1.06-3.14a.28.28,0,0,0-.51-.22,20.4,20.4,0,0,0-1.86,5.67,23.6,23.6,0,0,0-.59,5,6.22,6.22,0,0,0,.53,2.93,5.72,5.72,0,0,0,1.36,1.5,19.61,19.61,0,0,0,6,3.29,30.84,30.84,0,0,0,10,1.79,19.46,19.46,0,0,0,6.53-.8,18.14,18.14,0,0,0,5.54-3.07s0,0,0,0Z" transform="translate(10.11 -6.59)"/><path d="M236.59,140a28.69,28.69,0,0,0-5.25-1.11c-1.84-.18-3.69-.27-5.54-.32a18,18,0,0,0-7.71,1.1,17.1,17.1,0,0,0-8.29,8.11,14.74,14.74,0,0,0-1.66,4.52.27.27,0,0,0,.53.14c.51-1.22.93-2.47,1.51-3.67a20.13,20.13,0,0,1,2.8-4.38,14.55,14.55,0,0,1,11.61-5.13c1.93,0,3.86.06,5.79.16a46.12,46.12,0,0,1,6.21.59Z" transform="translate(10.11 -6.59)"/><path d="M231.24,130.85c-3.16-.43-6.34-.75-9.51-1.07a65.84,65.84,0,0,0-9.49-.38,3.34,3.34,0,0,1-.72,0,1.16,1.16,0,0,1-.78-.49,2.55,2.55,0,0,1-.44-1.39,5.74,5.74,0,0,1,.5-2.56,4,4,0,0,1,1.78-2,8.42,8.42,0,0,1,2.48-.59,26.35,26.35,0,0,1,4.86-.13,21,21,0,0,1,4.79.78.22.22,0,0,1,.14.26.23.23,0,0,1-.24.15,33.41,33.41,0,0,0-9.42-.11,8.87,8.87,0,0,0-2.16.53,3,3,0,0,0-1.33,1.52,4.67,4.67,0,0,0-.44,2.1,1.88,1.88,0,0,0,.23.87c.16.16.14.15.67.12a57.32,57.32,0,0,1,9.65.55c3.18.36,6.34.87,9.5,1.42a.22.22,0,0,1,.17.25A.21.21,0,0,1,231.24,130.85Z" transform="translate(10.11 -6.59)"/><path d="M135.24,192.1a10.51,10.51,0,0,1-6.57-2.77,13.11,13.11,0,0,1-1.64-2.2c-.5-.74-1-1.45-1.61-2.15-1.24-1.56-2.55-3.07-3.72-4.69a24.06,24.06,0,0,1-3.18-5.77,25.69,25.69,0,0,1-1.44-6.61,28.61,28.61,0,0,1,.13-6.54,13.5,13.5,0,0,1,1.61-5,5.35,5.35,0,0,1,4.54-2.72c2.31.14,3.81,2.43,4.72,4.31.28.58,1.14.07.86-.51-.92-1.89-2.26-3.83-4.34-4.56a5.32,5.32,0,0,0-5,1.15c-3.09,2.44-3.59,7.19-3.62,10.85a26.24,26.24,0,0,0,3.51,13.89,46.7,46.7,0,0,0,4,5.35c.64.78,1.29,1.55,1.9,2.35s1.08,1.64,1.66,2.43a11,11,0,0,0,8.26,4.22c.65,0,.64-1,0-1Z" transform="translate(10.11 -6.59)"/><path d="M124.19,179.18a19.74,19.74,0,0,1-3-5.75,18.65,18.65,0,0,1-1-6c0-2,.16-4.66,1.68-6.13,1.88-1.84,4.22.92,5.28,2.38a14,14,0,0,1,1.74,3.15,14.21,14.21,0,0,1,.51,1.56,5.61,5.61,0,0,0,.48,1.62.26.26,0,0,0,.46-.06c.26-1-.33-2.38-.7-3.32a15,15,0,0,0-1.65-3.09c-1.11-1.59-3.1-4.1-5.35-3.54s-2.84,3.47-3,5.39a19,19,0,0,0,2.19,10.68,21.14,21.14,0,0,0,2.31,3.18s.08,0,0-.06Z" transform="translate(10.11 -6.59)"/><path d="M129.52,180.56a12.4,12.4,0,0,1-2.88-4,8.37,8.37,0,0,1-.12-5.19c.43-1.63,1.33-3.1,1.7-4.74.21-.94.4-3.12-.76-3.55a.22.22,0,0,0-.28.16,1.81,1.81,0,0,0,.16.88,4.28,4.28,0,0,1,.18,1.24,7.24,7.24,0,0,1-.58,2.5,20.32,20.32,0,0,0-1.49,4.81,7.61,7.61,0,0,0,.81,4.71,10.39,10.39,0,0,0,3.19,3.31c.05,0,.11,0,.07-.09Z" transform="translate(10.11 -6.59)"/><path d="M256.23,194.7a14,14,0,0,0,7.53-2.16,7.31,7.31,0,0,0,2-1.95c.53-.81,1-1.65,1.56-2.43,1.26-1.76,2.67-3.4,3.9-5.19a23.09,23.09,0,0,0,3.17-6.48,26.41,26.41,0,0,0,1-7.29,27.7,27.7,0,0,0-.83-7.08,12.48,12.48,0,0,0-2.43-5.13,6.92,6.92,0,0,0-5.74-2.53c-2.44.29-4.07,2.31-5,4.44-.26.58.6,1.09.86.5.77-1.78,2.06-3.63,4.13-3.94a5.88,5.88,0,0,1,4.87,2,11,11,0,0,1,2.3,4.71,26,26,0,0,1,.83,6.51,26.73,26.73,0,0,1-.74,6.79,21,21,0,0,1-2.88,6.36c-1.1,1.69-2.37,3.24-3.59,4.84a25.08,25.08,0,0,0-1.58,2.24,10,10,0,0,1-1.51,2.09c-2,1.86-5.13,2.61-7.8,2.65a.5.5,0,0,0,0,1Z" transform="translate(10.11 -6.59)"/><path d="M267.93,181.14a14.85,14.85,0,0,0,2.32-3.83,20.28,20.28,0,0,0,1.14-4.54,31.25,31.25,0,0,0,.28-4.64,9.85,9.85,0,0,0-.59-3.65,3.44,3.44,0,0,0-3.25-2.3,4.88,4.88,0,0,0-3,1,11.21,11.21,0,0,0-2.58,3.66,13.68,13.68,0,0,0-.84,2.29,4.79,4.79,0,0,0-.27,2.5.26.26,0,0,0,.46.06,7.24,7.24,0,0,0,.44-1.85,12.42,12.42,0,0,1,3-5.73,3.92,3.92,0,0,1,2.41-1.2,2.71,2.71,0,0,1,2.93,1.58,8,8,0,0,1,.63,3.17,35.38,35.38,0,0,1-.09,4.37,18.1,18.1,0,0,1-3,9s0,.08.06,0Z" transform="translate(10.11 -6.59)"/><path d="M262.7,182.42a9.46,9.46,0,0,0,3-3.24,7.42,7.42,0,0,0,.58-4.48,18,18,0,0,0-1.67-4.76,8.62,8.62,0,0,1-.87-2.7,3.84,3.84,0,0,1,.06-1.22,2.55,2.55,0,0,0,.14-1c0-.16-.21-.19-.33-.13-.58.26-.68,1.08-.72,1.64a5.87,5.87,0,0,0,.34,2.31c.54,1.58,1.44,3,1.93,4.61a8.22,8.22,0,0,1,.13,4.93,11,11,0,0,1-2.65,4c0,.05,0,.14.07.1Z" transform="translate(10.11 -6.59)"/><path d="M191.08,181.79a14.53,14.53,0,0,1,3.4,1.62,24.19,24.19,0,0,1,2.8,2.25c.28.24.77-.07.54-.41a9.14,9.14,0,0,0-2.92-2.46,14,14,0,0,0-3.69-1.46.24.24,0,0,0-.13.46Z" transform="translate(10.11 -6.59)"/><path d="M190.9,185.9a40.41,40.41,0,0,1-9.32-4.27,5.47,5.47,0,0,1-2-2.06,1.31,1.31,0,0,1-.07-.62,1.75,1.75,0,0,1,.15-.5,6.15,6.15,0,0,1,.35-.63c.25-.38.49-.73.73-1.08a36.71,36.71,0,0,0,2.65-4.22,39.59,39.59,0,0,0,3.54-9.3,76,76,0,0,0,1.72-9.95,42.19,42.19,0,0,1-.57,10.21,36.21,36.21,0,0,1-1.29,5,34.12,34.12,0,0,1-2.08,4.76,35,35,0,0,1-2.82,4.33c-.25.34-.51.68-.73,1a4.25,4.25,0,0,0-.29.46c-.06.15,0,.1,0,.12a5.47,5.47,0,0,0,1.47,1.55,39.17,39.17,0,0,0,4.19,2.73C187.91,184.29,189.41,185.08,190.9,185.9Z" transform="translate(10.11 -6.59)"/><path d="M167.4,197.86a79.36,79.36,0,0,0,47,2.33c2.12-.55,4.2-1.19,6.26-1.92,1-.37,2.08-.76,3.1-1.18a16.48,16.48,0,0,0,3-1.49.59.59,0,0,0-.45-1.08c-1.84.49-3.59,1.4-5.38,2.06s-3.65,1.27-5.5,1.8a76.59,76.59,0,0,1-11.42,2.34,83.08,83.08,0,0,1-23.46-.48,75.37,75.37,0,0,1-13-3.28c-.57-.2-.81.7-.25.9Z" transform="translate(10.11 -6.59)"/><path d="M184.24,211.12a16.22,16.22,0,0,0,8.61,3.07,17.47,17.47,0,0,0,4.62-.28,12.7,12.7,0,0,0,2.19-.61,4.94,4.94,0,0,0,1.87-1,.31.31,0,0,0-.3-.51,12.38,12.38,0,0,0-1.86.77,15.93,15.93,0,0,1-2,.56,16.59,16.59,0,0,1-4.5.29,15.88,15.88,0,0,1-8.32-2.81c-.3-.22-.59.28-.29.5Z" transform="translate(10.11 -6.59)"/><path d="M160.8,119.18a26.66,26.66,0,0,0,8.07-4.53,31.82,31.82,0,0,0,6.18-6.87.5.5,0,0,1,.69-.14.52.52,0,0,1,.22.41v0h0l-.16,3.38c0,1.13,0,2.26,0,3.38a58.33,58.33,0,0,0,.56,6.74,46.23,46.23,0,0,0,1.44,6.58,27.93,27.93,0,0,0,2.59,6.12l-.91.28h0a5.57,5.57,0,0,1,1.21-3.4,11.34,11.34,0,0,1,2.59-2.36,33.61,33.61,0,0,1,6-3.06,20.55,20.55,0,0,0,9.2-8.78,32.49,32.49,0,0,0,3.81-12.44,56.78,56.78,0,0,0-.11-13.22,33.43,33.43,0,0,1,1.22,6.59,35.3,35.3,0,0,1,0,6.74,33.44,33.44,0,0,1-3.82,12.94,21.14,21.14,0,0,1-9.79,9.31,37.84,37.84,0,0,0-5.89,2.88c-1.77,1.14-3.42,2.77-3.44,4.8h0v0a.48.48,0,0,1-.51.46.52.52,0,0,1-.4-.23,28.57,28.57,0,0,1-2.72-6.39,47.25,47.25,0,0,1-1.47-6.73,58.22,58.22,0,0,1-.57-6.85c-.05-1.14,0-2.29,0-3.43L175,108h0l.91.32a32.35,32.35,0,0,1-6.56,6.86,27.27,27.27,0,0,1-8.38,4.37.2.2,0,0,1-.26-.14A.2.2,0,0,1,160.8,119.18Z" transform="translate(10.11 -6.59)"/><path d="M209.77,99.28a71.83,71.83,0,0,1-2,10.78,42.83,42.83,0,0,1-3.89,9.9,19.64,19.64,0,0,1-6.92,7.36,19,19,0,0,1-8.41,2.15c-2.72.21-5.8.45-7.91,2.4a.36.36,0,0,0,.44.57,11.78,11.78,0,0,1,3.74-1.68,28.28,28.28,0,0,1,3.9-.49,19.94,19.94,0,0,0,8.28-2c6.14-3.36,9.24-10.24,11.11-16.65a47.54,47.54,0,0,0,1.36-6,37.39,37.39,0,0,0,.37-6.26,0,0,0,0,0,0,0Z" transform="translate(10.11 -6.59)"/><path d="M188.23,129.7a40.93,40.93,0,0,0,7.19-.47,16.68,16.68,0,0,0,6.54-2.58,25.82,25.82,0,0,0,8.73-11.05,29.87,29.87,0,0,0,2.09-6.82,27.57,27.57,0,0,0,.22-7.15q-.56-7.25-1.5-14.5a139.81,139.81,0,0,1,2.38,14.42,28.58,28.58,0,0,1-.06,7.39,27.09,27.09,0,0,1-2.11,7.11c-2,4.48-4.92,8.76-9.16,11.49a17.36,17.36,0,0,1-7,2.6,37.81,37.81,0,0,1-7.36.19.32.32,0,0,1,0-.63Z" transform="translate(10.11 -6.59)"/><path d="M249.64,137.55a17.18,17.18,0,0,1-2.86-.34c-.9-.14-1.8-.3-2.68-.52a27.4,27.4,0,0,1-5.27-1.9,35.89,35.89,0,0,1-9.19-6.39c-5.29-5-8.79-11.63-11.79-18.2q-1.32-2.9-2.46-5.85c-.69-1.77-1.28-3.57-2-5.33-.11-.28-.54-.18-.46.12a67.19,67.19,0,0,0,3.66,10.15,86.09,86.09,0,0,0,5.18,10.4,45.88,45.88,0,0,0,6.38,8.6,34.39,34.39,0,0,0,9.32,6.82,27,27,0,0,0,5.85,2.08,21.32,21.32,0,0,0,3.07.49,31.46,31.46,0,0,0,3.22-.07,0,0,0,1,0,0-.06Z" transform="translate(10.11 -6.59)"/><path d="M227.8,107.16a29.43,29.43,0,0,0,.6,4.37,33.4,33.4,0,0,0,1.49,4.57,52.49,52.49,0,0,0,4.67,8.91,39.61,39.61,0,0,0,5.54,6.91,52.19,52.19,0,0,0,8.46,6.32,92.38,92.38,0,0,0,11.86,6.43c.55.24,1-.55.48-.82-3.45-1.73-6.89-3.45-10.19-5.45a62.62,62.62,0,0,1-9.07-6.41,35.8,35.8,0,0,1-5.45-6.33,53.47,53.47,0,0,1-4.9-8.49,46.36,46.36,0,0,1-2-5c-.26-.79-.48-1.59-.69-2.39a19.18,19.18,0,0,1-.61-2.57c0-.14-.22-.14-.21,0Z" transform="translate(10.11 -6.59)"/><path d="M270.15,128a11.85,11.85,0,0,1,1.79,5.13,10.34,10.34,0,0,1-.77,5.48c-.74,1.71-1.68,3.22-2.46,4.84s-1.74,3.16-1.49,4.76a.5.5,0,0,1-.8.47c-1.72-1.32-3.37-2.73-5-4.21s-3.07-3.07-4.48-4.72A61.94,61.94,0,0,1,244.61,117l-.92-3.11c-.27-1-.47-2.11-.71-3.16-.47-2.1-.95-4.2-1.47-6.29.79,2,1.48,4.06,2.16,6.1.33,1,.69,2,1,3.07s.58,2.07.89,3.09a60.53,60.53,0,0,0,12.17,22.34c1.39,1.62,2.87,3.16,4.41,4.64s3.19,2.84,4.88,4.15l-.8.47a5.74,5.74,0,0,1,.39-2.89,23.76,23.76,0,0,1,1.2-2.48c.78-1.62,1.75-3.18,2.43-4.77a20.66,20.66,0,0,0,.79-2.46,11.91,11.91,0,0,0,.29-2.6A12.66,12.66,0,0,0,270.15,128Z" transform="translate(10.11 -6.59)"/><path d="M275.31,125.33a73.35,73.35,0,0,1,3,12,33.28,33.28,0,0,1,.3,6.15,29.23,29.23,0,0,1-1,6,47.32,47.32,0,0,0-1.49,6.65l.74-.2a16.21,16.21,0,0,0-1.34-2.13c-.39-.51-.88-.94-1.3-1.43a18.85,18.85,0,0,1-1.49-2,19.75,19.75,0,0,1-3.19-8.63c-.05-.5-.84-.51-.79,0a20.7,20.7,0,0,0,3.07,8.69,24.51,24.51,0,0,0,2.86,3.56,11.68,11.68,0,0,1,1.49,2.31c.21.38.7.16.74-.2a43.76,43.76,0,0,1,1.38-6.1,31.29,31.29,0,0,0,1.05-6,36.71,36.71,0,0,0-1.46-12,60.84,60.84,0,0,0-2.35-6.81c-.05-.1-.21-.07-.18,0Z" transform="translate(10.11 -6.59)"/><path d="M172,99.19a30.36,30.36,0,0,1-2.67,7.46,46.6,46.6,0,0,1-4,6.88,68.55,68.55,0,0,1-4.83,6.32,38.32,38.32,0,0,1-5.77,5.54,71.3,71.3,0,0,1-14,7.56,76.63,76.63,0,0,1-15.18,4.74.49.49,0,0,1-.57-.39v0a50.13,50.13,0,0,1-.25-9.4,51.08,51.08,0,0,1,1.46-9.28,32.31,32.31,0,0,1,3.47-8.73l1.23-2c.45-.64.94-1.26,1.4-1.88l.71-.94.8-.85,1.61-1.69L134,104.33l-.72.9-.62,1c-.42.65-.85,1.29-1.24,2l-1.05,2.06a17.87,17.87,0,0,0-.93,2.1c-.26.72-.61,1.41-.85,2.14l-.77,2.16c-.22.74-.42,1.48-.62,2.22a49.73,49.73,0,0,0-1.43,9.09,48.61,48.61,0,0,0,.24,9.19l-.58-.42A75.76,75.76,0,0,0,140.42,132a70.1,70.1,0,0,0,13.78-7.43,37.1,37.1,0,0,0,5.6-5.4,65.7,65.7,0,0,0,4.76-6.23C167.39,108.59,170.51,104.26,172,99.19Z" transform="translate(10.11 -6.59)"/><path d="M218.54,100.5c3,12.45,9.46,24.46,19.88,32.2a33.78,33.78,0,0,0,9,5c.41.14.69-.51.3-.7-1.37-.64-2.76-1.23-4.09-2a39.56,39.56,0,0,1-3.77-2.35,45.65,45.65,0,0,1-6.91-6,55.62,55.62,0,0,1-10.38-15.83,86.23,86.23,0,0,1-3.86-10.46.07.07,0,0,0-.13,0Z" transform="translate(10.11 -6.59)"/><path d="M111.77,148.73c2.3-3.06,2.84-7.06,3.32-10.76.55-4.19.77-8.4,1.13-12.61a66.19,66.19,0,0,1,1.55-10.49,56.63,56.63,0,0,1,3.24-9.39,41.08,41.08,0,0,1,2.56-4.87c.89-1.46,2-2.76,2.94-4.18.22-.31-.23-.58-.49-.38a14.54,14.54,0,0,0-2.77,3.42,41.25,41.25,0,0,0-2.39,4.25,56.37,56.37,0,0,0-3.49,9.22c-2.07,7.28-2.13,14.88-2.85,22.37-.42,4.47-.91,9.24-3,13.3a.12.12,0,0,0,.21.12Z" transform="translate(10.11 -6.59)"/><path d="M120.49,122.81a22.19,22.19,0,0,0-1.08,2.62,15.29,15.29,0,0,0-.5,2.86,24.64,24.64,0,0,0,.28,5.69c.63,4,2,7.84,2.67,11.81a29,29,0,0,1,.42,3.59c.06,1.17-.06,2.34-.06,3.51a.34.34,0,0,0,.66.09,15.66,15.66,0,0,0,0-5.91,50.25,50.25,0,0,0-1.21-5.83c-1-3.82-2.06-7.64-2.08-11.61a19.1,19.1,0,0,1,.26-3.38,14.86,14.86,0,0,1,.82-3.36c0-.1-.13-.17-.18-.08Z" transform="translate(10.11 -6.59)"/><path d="M280.57,270.27a.7.7,0,0,1-.14-1.39c.36-.08,36.17-8.17,41.09-37.28,2.72-16.08-3.08-29.5-17.24-39.87-10.94-8-15-19.5-13.51-38.38,1.27-16.18-13.53-42.63-31-55.49-16.44-12.07-28.15-17.67-58.09-21.12-31.24-3.59-55-.19-84,27.82-12.12,11.73-17.2,27.47-14.3,44.34,1.14,6.58.7,11.53-1.34,15.14-.08.14-7.48,13-11.7,22.61-5.16,11.71-12.19,34-1.24,51.53,7.24,11.58,10.32,12.58,10.35,12.59a.71.71,0,0,1,.5.84.69.69,0,0,1-.8.53c-.34-.07-3.6-1-11.24-13.22C76.6,220.83,83.76,198.05,89,186.08c4.25-9.63,11.69-22.6,11.76-22.73,1.87-3.31,2.26-8,1.18-14.21-3-17.34,2.24-33.53,14.71-45.59,29.37-28.39,53.44-31.84,85.1-28.2,30.26,3.48,42.11,9.15,58.76,21.38,17.84,13.1,32.91,40.14,31.62,56.73-1.44,18.34,2.43,29.44,12.94,37.14,14.62,10.71,20.6,24.58,17.79,41.24-5.08,30-41.81,38.33-42.18,38.41Z" transform="translate(10.11 -6.59)"/><path d="M96.94,207.66a36.34,36.34,0,0,1-1.57-17.55A58.52,58.52,0,0,1,101,173.32c1.43-2.92,3.15-5.78,3.83-9,.13-.63-.84-.89-1-.26-.63,3-2.18,5.65-3.53,8.36a77.56,77.56,0,0,0-3.52,8.24,42.72,42.72,0,0,0-2.64,17.62,27.16,27.16,0,0,0,2.49,9.49c.06.13.29,0,.24-.1Z" transform="translate(10.11 -6.59)"/><path d="M139.57,237.9a44.81,44.81,0,0,0-5.95-19.74c-1.76-3.19-3.46-6.41-5.22-9.6a92,92,0,0,1-6.58-13.73c-1.85-5.24-2.84-10.93-1.75-16.44.12-.62-.83-.89-.95-.27-2,10,2.36,19.69,7,28.26,2,3.67,4,7.36,6,11a61.16,61.16,0,0,1,3.71,7.31c1.72,4.28,2.49,8.79,3.51,13.26a.12.12,0,0,0,.23,0Z" transform="translate(10.11 -6.59)"/><path d="M111.89,166.13c-.59,1.22-1.24,2.41-1.75,3.67s-1,2.59-1.36,3.92a47,47,0,0,0-1.61,8.15,49.54,49.54,0,0,0,1,16.64,52.75,52.75,0,0,0,15.45,26.32c2.24,2.08,4.75,3.88,6.82,6.14a19.46,19.46,0,0,1,2.65,3.54,6.3,6.3,0,0,1,.72,4c-.07.53.7.78.83.23.57-2.39-.33-4.45-1.76-6.34a35.82,35.82,0,0,0-5.77-5.84A56.54,56.54,0,0,1,116.5,215a50.88,50.88,0,0,1-8.71-30.26,50.17,50.17,0,0,1,1.27-9.46c.34-1.49.75-3,1.22-4.42a39,39,0,0,1,1.71-4.67c0-.06-.07-.11-.1-.05Z" transform="translate(10.11 -6.59)"/><path d="M103.74,191.59a40.17,40.17,0,0,0,4.76,20.85c3.59,6.68,9.2,11.75,14.32,17.22,1.34,1.43,2.65,2.89,4,4.34a6.87,6.87,0,0,1,2,4.36c0,.59,1,.59.93,0a7.21,7.21,0,0,0-1.35-3.89c-.89-1.2-2-2.22-3-3.33-2.55-2.88-5.31-5.54-8-8.32a55.19,55.19,0,0,1-7.12-8.86,42.72,42.72,0,0,1-4.56-10.07,41.77,41.77,0,0,1-1.85-12.3.09.09,0,1,0-.18,0Z" transform="translate(10.11 -6.59)"/><path d="M148.77,215.36c.66,3.95,2.41,7.56,3.91,11.24a34.19,34.19,0,0,1,1.83,5.68,14.94,14.94,0,0,1,.34,3.27,24.55,24.55,0,0,1-.46,3.32c-.06.38.5.72.69.29a11.35,11.35,0,0,0,.41-6.3,29.12,29.12,0,0,0-1.8-6c-1.54-3.86-3.54-7.58-4.44-11.66-.07-.31-.53-.18-.48.13Z" transform="translate(10.11 -6.59)"/><path d="M235.71,220.26c-2.78,2.46-3.66,6.28-4,9.85a15.32,15.32,0,0,0,.49,6.06,8.76,8.76,0,0,0,2.71,4.41c.31.22.77-.23.54-.54a20.91,20.91,0,0,1-1.47-1.9,10.14,10.14,0,0,1-1-2.29,14.83,14.83,0,0,1-.45-5.74c.29-3.32,1.13-7.06,3.49-9.56a.21.21,0,0,0-.29-.29Z" transform="translate(10.11 -6.59)"/><path d="M262.45,192.62c-2.28,4.74-4.62,9.52-6.45,14.46a43.75,43.75,0,0,0-2.72,14.85,39.14,39.14,0,0,0,2.41,13.89,38.53,38.53,0,0,0,6.72,11.28,28.31,28.31,0,0,0,5,4.68,16.78,16.78,0,0,0,6.15,3c.34.07.61-.43.25-.59a33.43,33.43,0,0,1-5.34-2.7,25.62,25.62,0,0,1-4.53-3.91,37.6,37.6,0,0,1-6.92-10.63c-3.79-8.83-3.77-19.1-.77-28.16,1.8-5.45,4.4-10.64,6.6-15.94.1-.25-.32-.44-.44-.19Z" transform="translate(10.11 -6.59)"/><path d="M302.93,243.87a27,27,0,0,1-10.66,5.22,26.09,26.09,0,0,1-11.63-.05,24.73,24.73,0,0,1-10.56-5.3,22.41,22.41,0,0,1-6.52-10.05c-2.21-6.79-1.35-13.9,0-20.77a196.88,196.88,0,0,1,5.1-19.69c1.39-4.56,2.95-9.06,4.5-13.57l.27-.8c.21-.54-.66-.78-.86-.24-1.53,4.12-3,8.45-4.29,12.7a208.88,208.88,0,0,0-5.37,20.29c-1.4,6.88-2.45,14.06-.6,21a23.88,23.88,0,0,0,5.84,10.58,24.69,24.69,0,0,0,10.16,6.16c7.49,2.42,16.43,1.52,22.88-3.2a14.49,14.49,0,0,0,2.13-1.86c.24-.26-.12-.59-.39-.38Z" transform="translate(10.11 -6.59)"/><path d="M278.17,116.67a73.61,73.61,0,0,1,4.67,12.1,92.48,92.48,0,0,1,2.93,12.92,96.2,96.2,0,0,1,0,27.48,178.78,178.78,0,0,1-7,28.86c-2.77,8.84-5.35,18.2-3.15,27.47a25,25,0,0,0,5.86,11.15c2.53,2.77,6,5.38,9.89,5.61A8.76,8.76,0,0,0,294,242c.35-.09.2-.59-.14-.53-4,.78-7.83-1.44-10.6-4.19a24.92,24.92,0,0,1-6.4-10.89c-2.59-9.17-.08-18.59,2.67-27.39a187.24,187.24,0,0,0,7-28.37,96.32,96.32,0,0,0,.45-27c-1.13-8.42-3.24-16.9-7.26-24.44-.47-.88-1-1.75-1.47-2.62-.05-.08-.17,0-.13.08Z" transform="translate(10.11 -6.59)"/><path d="M289,165.12a47.27,47.27,0,0,0,1,13.73,39.45,39.45,0,0,0,4,10,40,40,0,0,0,4,5.9c1.38,1.69,2.82,3.33,4.16,5.05a44.16,44.16,0,0,1,8.08,16.09,50.24,50.24,0,0,1,1.51,12.34,40.66,40.66,0,0,1-2,13.68A31.15,31.15,0,0,1,298,257.51c-.45.29-.89.65-1.36.9-.28.15,0,.59.25.43.5-.26,1-.47,1.49-.78s1-.72,1.56-1.1a30.17,30.17,0,0,0,3.17-2.81,32.07,32.07,0,0,0,5.94-8.63A35.71,35.71,0,0,0,312.3,233a55.55,55.55,0,0,0-.55-13.51,43.65,43.65,0,0,0-7.38-18c-2.54-3.61-5.74-6.73-8.15-10.44a41.41,41.41,0,0,1-4.59-9.29A49.06,49.06,0,0,1,289.34,169q-.12-1.94-.09-3.87c0-.2-.29-.2-.3,0Z" transform="translate(10.11 -6.59)"/><path d="M292.85,174.82a.69.69,0,0,1-.38-1.28c14.66-9.48,23.57-22.95,24.44-37,1.45-23.42-12-43.73-37-55.71-21.37-10.25-42.37-11.57-84.2-14.19-6.63-.42-13.77-.87-21.52-1.39-52.91-3.55-92.44,16.79-98.37,50.63-4.77,27.27,13.23,45.51,23.41,51.35a.7.7,0,1,1-.7,1.22c-11.25-6.46-29-24.84-24.09-52.81,6.06-34.58,46.18-55.39,99.84-51.79,7.75.53,14.89,1,21.52,1.39,42,2.63,63.1,4,84.72,14.33,25.5,12.24,39.27,33,37.78,57.06-.89,14.47-10,28.34-25.07,38.05A.67.67,0,0,1,292.85,174.82Z" transform="translate(10.11 -6.59)"/><path d="M310,158.53a.7.7,0,0,1-.5-.21.7.7,0,0,1,0-1c4.67-4.62,13.76-19.77,10.37-34.75s-10.46-26.32-23-37.06c-12-10.28-28.11-17-48-19.86-10.49-1.53-21.25-2-31.65-2.51-6.75-.32-13.73-.64-20.59-1.24-3.77-.33-7.6-.76-11.3-1.17-9-1-18.36-2-27.52-1.79-19.77.52-40.29,7.11-59.35,19.06C84.3,86.9,75.23,99,72.93,112.17c-1.93,11.09,1,24.44,7.55,34.86a.7.7,0,0,1-1.19.75c-6.76-10.7-9.73-24.43-7.74-35.85,2.37-13.53,11.67-26,26.2-35.11,19.27-12.08,40-18.74,60.05-19.27,9.25-.25,18.64.8,27.72,1.8,3.69.41,7.51.83,11.26,1.16,6.83.6,13.8.93,20.54,1.24,10.43.48,21.22,1,31.79,2.53,20.12,2.94,36.5,9.73,48.67,20.18,12.57,10.8,20,22.82,23.41,37.82,3.56,15.69-5.7,31.06-10.75,36A.67.67,0,0,1,310,158.53Z" transform="translate(10.11 -6.59)"/><path d="M139.68,60.46a188.46,188.46,0,0,1,22.53-6,146,146,0,0,1,23.39-2.66,152.41,152.41,0,0,1,47,5.82A149,149,0,0,1,255.08,66q1.38.64,2.73,1.32c.58.28,1.08-.58.51-.87a152.84,152.84,0,0,0-46-14.22,153.28,153.28,0,0,0-23.74-1.54A149.74,149.74,0,0,0,165,52.9a113.08,113.08,0,0,0-22.8,6.26c-.86.35-1.71.7-2.56,1.07-.13.06,0,.27.09.23Z" transform="translate(10.11 -6.59)"/><path d="M269,69.6a.74.74,0,0,1-.74-.64c-2.62-17.64-10.82-31.59-25.83-43.89a75.28,75.28,0,0,0-48.58-17c-16.58.2-33.18,5.78-48,16.12a61.11,61.11,0,0,0-11.21,9.72c-7.8,8.85-11.87,17.86-14.49,32.14a.77.77,0,0,1-.88.6.76.76,0,0,1-.6-.88C121.33,51.23,125.49,42,133.49,33A63,63,0,0,1,145,23C160,12.48,176.93,6.81,193.81,6.6a76.62,76.62,0,0,1,49.55,17.31c15.31,12.55,23.69,26.79,26.36,44.83a.75.75,0,0,1-.63.85Z" transform="translate(10.11 -6.59)"/><path d="M103,246.19a65.82,65.82,0,0,1-14.94-35.9c-.37-3.73-.28-7.44-.33-11.17,0-.24-.39-.31-.42-.06a45.49,45.49,0,0,0-.24,10.1,65.82,65.82,0,0,0,1.45,10,63.17,63.17,0,0,0,7.38,18.45,59.4,59.4,0,0,0,6.7,9c.25.27.62-.12.4-.39Z" transform="translate(10.11 -6.59)"/><path d="M109.36,240.78a41.34,41.34,0,0,1-7.74-8.06A36.38,36.38,0,0,1,98.76,228c-.43-.86-.85-1.72-1.22-2.61s-.62-1.66-1-2.47c-.14-.3-.55-.07-.5.21a21.14,21.14,0,0,0,2,5.28,36.21,36.21,0,0,0,3,4.91,31.91,31.91,0,0,0,8,7.87c.21.14.48-.2.28-.37Z" transform="translate(10.11 -6.59)"/><path d="M143.46,210.91a29.3,29.3,0,0,1,3.93,12.59,55,55,0,0,1,.18,7.26c0,1.23-.12,2.45-.19,3.67,0,.61-.07,1.22-.11,1.83a10.62,10.62,0,0,0-.09,2,.31.31,0,0,0,.6.08,8.2,8.2,0,0,0,.24-1.78c.07-.66.13-1.31.18-2,.12-1.3.19-2.61.24-3.91a51.77,51.77,0,0,0-.24-7.47A27.62,27.62,0,0,0,144,210.61c-.22-.32-.73,0-.52.3Z" transform="translate(10.11 -6.59)"/><path d="M116.72,104.05a48.93,48.93,0,0,0-12.15,30.33,45.08,45.08,0,0,0,.05,4.65,23.22,23.22,0,0,0,.64,4.7.31.31,0,0,0,.6-.08c0-1.33-.2-2.68-.26-4s-.06-2.69,0-4a49,49,0,0,1,.87-8.19,52.44,52.44,0,0,1,10.71-22.93c.24-.29-.16-.71-.42-.42Z" transform="translate(10.11 -6.59)"/><path d="M125.86,137.61a66.56,66.56,0,0,1,16.38-35.53q1.84-2,3.84-3.94c1.34-1.26,2.77-2.4,4.13-3.64.17-.15-.06-.45-.25-.32a34,34,0,0,0-3.79,3.08q-1.9,1.69-3.66,3.57a66.06,66.06,0,0,0-6.22,7.72,64.48,64.48,0,0,0-8.62,18,61.89,61.89,0,0,0-2.22,11c0,.26.38.25.41,0Z" transform="translate(10.11 -6.59)"/><path d="M125.89,137.2a80.2,80.2,0,0,1,9.57-11.09c3.48-3.37,7.18-6.51,10.82-9.72,7.2-6.34,14.35-13.12,18.57-21.9,2.17-4.53,3.81-9.84,3.33-14.92a.27.27,0,0,0-.53,0,39.25,39.25,0,0,1-.81,6.92,35.17,35.17,0,0,1-2.23,6.63,49,49,0,0,1-7.77,11.81c-6.35,7.33-14.16,13.17-21.12,19.89A59.32,59.32,0,0,0,125.55,137c-.13.22.19.4.34.2Z" transform="translate(10.11 -6.59)"/><path d="M125.76,137.05c11.4-6,23-12.93,31.24-23.07a41.32,41.32,0,0,0,5.48-8.49c.11-.25-.23-.46-.37-.22a62,62,0,0,1-5.07,7.57,63.78,63.78,0,0,1-6.15,6.58,98.59,98.59,0,0,1-15.59,11.5c-3.21,2-6.47,3.9-9.71,5.85a.16.16,0,0,0,.17.28Z" transform="translate(10.11 -6.59)"/><path d="M182.59,75.29a13.89,13.89,0,0,1,7.58,4.11,13.67,13.67,0,0,1,2.45,3.65,19.8,19.8,0,0,1,1.26,4.32c.06.32.55.24.55-.07a12.81,12.81,0,0,0-3.66-8.36,13.86,13.86,0,0,0-8-4.14c-.32,0-.46.43-.14.49Z" transform="translate(10.11 -6.59)"/><path d="M183.78,75.22a17.27,17.27,0,0,1,8.45,2,16,16,0,0,1,3.54,2.56,15.25,15.25,0,0,1,1.4,1.5c.47.57.84,1.22,1.33,1.78.21.24.66,0,.54-.31a10.37,10.37,0,0,0-2.71-3.53,17.12,17.12,0,0,0-3.72-2.65,15.51,15.51,0,0,0-8.83-1.81c-.28,0-.29.46,0,.45Z" transform="translate(10.11 -6.59)"/><path d="M180.32,75.12c1.93,4.9.83,10.14-.86,14.93a.24.24,0,0,0,.43.18c2.28-4.69,3-10.42.79-15.27-.09-.2-.44-.06-.36.16Z" transform="translate(10.11 -6.59)"/><path d="M180.26,133.34a51.54,51.54,0,0,1-1.13-10.28,40.86,40.86,0,0,1,1.41-10.2c1.75-6.44,4.84-12.48,6-19.1.58-3.43.84-7.43-.57-10.7-.15-.35-.62-.08-.57.23a33.68,33.68,0,0,1,.7,5.09,26.26,26.26,0,0,1-.34,4.93,53.78,53.78,0,0,1-2.68,9.61c-1.13,3.14-2.34,6.27-3.23,9.49a39.88,39.88,0,0,0-1.46,9.83,33.55,33.55,0,0,0,1.51,11.22.21.21,0,0,0,.41-.12Z" transform="translate(10.11 -6.59)"/><path d="M180.15,132.85c.78-4.86,3.37-9.18,5.81-13.36a65.24,65.24,0,0,0,3.45-6.44,34.61,34.61,0,0,0,2.42-7.59,24.46,24.46,0,0,0,.39-8.94c-.05-.27-.44-.19-.46.06a70.41,70.41,0,0,1-.65,8.21,33.73,33.73,0,0,1-2.37,7.75c-2,4.43-4.8,8.39-6.81,12.79a23.51,23.51,0,0,0-2.13,7.47c0,.2.31.24.35,0Z" transform="translate(10.11 -6.59)"/><path d="M180.14,132.85c1.28-3.54,4.5-6.13,7.16-8.63,3.54-3.34,6.83-7,9-11.38a27.87,27.87,0,0,0,2.75-10c0-.14-.23-.17-.26,0A40.45,40.45,0,0,1,196,112a31,31,0,0,1-4.21,6.63c-2.73,3.33-6.11,6-9,9.2a14.2,14.2,0,0,0-3,5c-.06.21.26.29.33.09Z" transform="translate(10.11 -6.59)"/><path d="M215.94,78.26a15.16,15.16,0,0,1,4.71,4.62c.61.9,1.15,1.84,1.67,2.8s1,2,1.53,2.95c.11.17.42.06.34-.14a24.44,24.44,0,0,0-1.49-3,29.34,29.34,0,0,0-1.81-3,14.45,14.45,0,0,0-4.77-4.5.17.17,0,0,0-.18.3Z" transform="translate(10.11 -6.59)"/><path d="M220.38,79.43c6,3.46,9.6,9.3,13.16,15a.15.15,0,0,0,.26-.15c-3-6-7.12-12-13.19-15.23a.23.23,0,0,0-.23.4Z" transform="translate(10.11 -6.59)"/><path d="M243.4,87.1A16,16,0,0,1,249,91.59a51,51,0,0,1,4.37,6.24A67.33,67.33,0,0,1,259.87,112c.91,2.76,1.68,5.57,2.35,8.39.06.26.42.14.39-.1A56.75,56.75,0,0,0,257.93,105a59.48,59.48,0,0,0-8.08-13.28,16.57,16.57,0,0,0-6.29-5c-.22-.09-.38.28-.16.38Z" transform="translate(10.11 -6.59)"/><path d="M252.78,93.07a41,41,0,0,1,7.51,8.58c2.12,3.16,3.85,6.54,5.86,9.77.09.16.32,0,.24-.14a73.18,73.18,0,0,0-5.76-10.07,37.72,37.72,0,0,0-7.57-8.42c-.19-.15-.47.11-.28.28Z" transform="translate(10.11 -6.59)"/><path d="M266.92,147.49c-6.15-6.87-11.31-14.75-13.09-23.93-.26-1.32-.44-2.64-.58-4s-.11-2.72-.17-4.08a.17.17,0,0,0-.33,0,24.89,24.89,0,0,0,.3,7.1,38.12,38.12,0,0,0,1.85,7,49.07,49.07,0,0,0,6.71,12.26,60,60,0,0,0,5,5.93c.22.23.55-.11.34-.33Z" transform="translate(10.11 -6.59)"/><path d="M266.72,147.81a49.12,49.12,0,0,1-2.4-11.08c-.51-3.63-1-7.51-3-10.68-.09-.14-.36,0-.29.13a47.81,47.81,0,0,1,2.68,10.94c.53,3.71,1,7.42,2.66,10.84.09.19.43.06.35-.15Z" transform="translate(10.11 -6.59)"/><path d="M263.34,146a8.85,8.85,0,0,0,1,5.75c.84,1.62,2.34,3.51,4.21,3.94.15,0,.29-.16.16-.27-.68-.6-1.42-1.1-2.07-1.74a9.52,9.52,0,0,1-1.66-2.23,10,10,0,0,1-1.12-5.38c0-.27-.44-.34-.49-.07Z" transform="translate(10.11 -6.59)"/><path d="M280.66,136.16a71.41,71.41,0,0,1,1.52,18.27,82.73,82.73,0,0,1-2.67,16.69c-2.78,10.72-6.9,21-9.56,31.8-1.46,5.88-2.67,12-2.48,18.12a.25.25,0,0,0,.5,0c.22-2.78.44-5.56.88-8.32s1-5.4,1.62-8.08c1.32-5.38,3-10.67,4.67-15.95,3.36-10.55,6.83-21.23,7.59-32.35a70.31,70.31,0,0,0-1.61-20.3.24.24,0,0,0-.46.12Z" transform="translate(10.11 -6.59)"/><path d="M243.31,248.59a17.23,17.23,0,0,1-3.88-12.52c.42-5,3-9.35,4.46-14a15.31,15.31,0,0,0,.64-8,.19.19,0,0,0-.38,0,22.15,22.15,0,0,1-.94,7.8c-.75,2.45-1.81,4.79-2.71,7.19a26,26,0,0,0-1.76,7,17.83,17.83,0,0,0,.72,6.49,17.22,17.22,0,0,0,3.5,6.37c.21.24.54-.1.35-.34Z" transform="translate(10.11 -6.59)"/><path d="M255.52,253.66a27.87,27.87,0,0,1-6.79-19.23c0-1,.13-1.9.25-2.85s.42-1.92.5-2.89a.26.26,0,0,0-.48-.13,10.66,10.66,0,0,0-.63,2.5,22.61,22.61,0,0,0-.32,2.59,28.22,28.22,0,0,0,3.5,15.49,26.13,26.13,0,0,0,3.6,4.89c.23.25.59-.12.37-.37Z" transform="translate(10.11 -6.59)"/><path d="M229.9,223.81a12.19,12.19,0,0,0-1.92,9.84c.41,1.87,1,3.7,1.24,5.6a11.39,11.39,0,0,1,.09,2.61c-.08,1-.43,1.92-.6,2.89a.25.25,0,0,0,.46.2,7.85,7.85,0,0,0,.91-4.92,32.51,32.51,0,0,0-1.08-5.35,14.59,14.59,0,0,1-.52-5.5,13.47,13.47,0,0,1,1.84-5.12c.16-.28-.24-.49-.42-.25Z" transform="translate(10.11 -6.59)"/><path d="M279.88,263.9a35.27,35.27,0,0,0,9.93,1,36,36,0,0,0,4.86-.6,16,16,0,0,0,4.75-1.43c.23-.13.06-.42-.16-.39-1.57.22-3.12.78-4.68,1.08a36.31,36.31,0,0,1-4.89.62,37.65,37.65,0,0,1-9.71-.61c-.24,0-.35.31-.1.37Z" transform="translate(10.11 -6.59)"/><path d="M282,225.2a16.58,16.58,0,0,0,3.83,7.64,10.83,10.83,0,0,0,3.31,2.42,7.61,7.61,0,0,0,4,.87c.21,0,.32-.39.05-.43a13.15,13.15,0,0,1-3.85-.89,11.32,11.32,0,0,1-3.27-2.3,15.84,15.84,0,0,1-3.89-7.35c0-.09-.16,0-.14,0Z" transform="translate(10.11 -6.59)"/><path d="M317.38,244.65c3.37-8.12,5.16-17.19,2.83-25.84a23.52,23.52,0,0,0-2.77-6.48c-.13-.22-.45,0-.34.2a33,33,0,0,1,3.33,12,40.47,40.47,0,0,1-1.21,12.87,59.19,59.19,0,0,1-2.26,7.14c-.11.27.31.38.42.12Z" transform="translate(10.11 -6.59)"/><path d="M124.89,107.71A46.16,46.16,0,0,1,145.58,84a60.51,60.51,0,0,1,8.25-3.62.29.29,0,0,0-.15-.57,33.66,33.66,0,0,0-7.6,3,44.12,44.12,0,0,0-6.88,4.44A45.47,45.47,0,0,0,128.39,99.3a43.61,43.61,0,0,0-3.89,8.3c-.09.25.3.35.39.11Z" transform="translate(10.11 -6.59)"/><path d="M160.75,241.67c-4.26-.06-8.53-.14-12.8,0-2.66.1-5.32.27-8,.61a32.08,32.08,0,0,0-6.66,1.4,6.83,6.83,0,0,0-3.78,2.52c-1.22,2.09.73,4,2.3,5.21,1.38,1.06,2.88,1.94,4.35,2.86a54.52,54.52,0,0,1,5.33,3.71,48.73,48.73,0,0,1,12,15.48c.53,1,1,2,1.57,3,.17.3.69.1.57-.24a40.62,40.62,0,0,0-2.79-5.7,53.54,53.54,0,0,0-3-4.7,43.19,43.19,0,0,0-5.81-6.71c-3.08-2.87-6.63-5-10.13-7.23-.67-.44-1.33-.88-1.95-1.38-1-.76-2.25-1.81-2.09-3.17s1.6-2.1,2.69-2.59a24.49,24.49,0,0,1,6.09-1.58c2.54-.4,5.12-.62,7.69-.78,4.44-.26,8.9-.3,13.34-.27h1a.25.25,0,0,0,0-.5Z" transform="translate(10.11 -6.59)"/><path d="M224.1,250.16a107.6,107.6,0,0,1,17.58,7.23q4.09,2.1,8,4.59a35.91,35.91,0,0,1,3.76,2.6,5.37,5.37,0,0,1,2.21,3.28c.19,1.56-.91,2.85-2,3.86a48.84,48.84,0,0,1-3.85,3.18c-2.5,1.9-5.1,3.68-7.49,5.71a56.94,56.94,0,0,0-11.15,13.11,73.28,73.28,0,0,0-4.72,8.72,55.09,55.09,0,0,0-3.35,8.95c-.09.33.39.44.5.14,1.08-2.8,2.11-5.6,3.35-8.32a76.15,76.15,0,0,1,4.25-8,58,58,0,0,1,11.43-13.83c2.52-2.17,5.29-4,7.92-6.08a45.66,45.66,0,0,0,3.71-3.09,6.25,6.25,0,0,0,2.07-3.39c.4-2.68-2.06-4.56-4-5.9a88.58,88.58,0,0,0-8.15-4.92,101.06,101.06,0,0,0-20-8.11c-.2-.06-.28.25-.09.31Z" transform="translate(10.11 -6.59)"/><path d="M5.5,352.41a53.33,53.33,0,0,0,9.13,20.94A43.8,43.8,0,0,0,32.3,387.81a38.54,38.54,0,0,0,22.81,2.73c7.35-1.47,13.89-5.49,19.23-10.65a76.58,76.58,0,0,0,13.43-18.28c.45-.82.84-1.68,1.24-2.52a.38.38,0,0,0-.66-.39c-4,6.24-7.79,12.56-12.84,18-4.9,5.29-10.88,9.71-17.86,11.78a36.33,36.33,0,0,1-22.23-.85,42.24,42.24,0,0,1-18.26-12.89A56.46,56.46,0,0,1,6.83,354.91c-.27-.88-.51-1.77-.74-2.66-.1-.38-.66-.22-.59.16Z" transform="translate(10.11 -6.59)"/><path d="M1.38,339.66C0,334.3,1.08,328.52,2.5,323.27a58.33,58.33,0,0,1,6.17-14.55c.76-1.27,1.54-2.53,2.39-3.74s1.81-2.36,2.57-3.62c.19-.32-.24-.62-.51-.38a20.07,20.07,0,0,0-2.66,3.15c-.8,1.08-1.57,2.19-2.28,3.33a54.61,54.61,0,0,0-3.84,7.3A57.78,57.78,0,0,0,0,330.34c-.41,3.2-.48,6.54.83,9.55.14.31.63.08.55-.23Z" transform="translate(10.11 -6.59)"/><path d="M15.83,304.08a43.84,43.84,0,0,0-5,10.69,55.26,55.26,0,0,0-2.58,11.44A32.81,32.81,0,0,0,8,333a.36.36,0,0,0,.71,0c.23-1.93.25-3.87.48-5.79s.55-3.89,1-5.81a63.82,63.82,0,0,1,3.38-11c.84-2.07,1.87-4.05,2.81-6.08a.27.27,0,0,0-.47-.27Z" transform="translate(10.11 -6.59)"/><path d="M-.7,344.25A22.67,22.67,0,0,0,12,353.16a26.32,26.32,0,0,0,16.2-.71,34.43,34.43,0,0,0,13.86-9.71,49,49,0,0,0,8-13.81c1.26-3,2.38-6.1,3.43-9.2q.77-2.28,1.48-4.58a42.51,42.51,0,0,0,1.21-4.28c.07-.33-.42-.59-.58-.24C54.54,313,53.83,315.52,53,318c-.92,2.64-1.85,5.28-2.86,7.89-1.88,4.83-3.95,9.76-7.06,13.94-6.55,8.79-17.34,14.8-28.48,13A23,23,0,0,1-.31,344c-.17-.23-.55,0-.39.23Z" transform="translate(10.11 -6.59)"/><path d="M63.13,300.48c9.79,6.9,9.72,20.49,9,31.18a87.38,87.38,0,0,1-7.23,29.71c-1.2,2.69-2.56,5.28-4,7.87s-3.13,5.33-4.67,8c-.18.31.27.7.5.4a80.84,80.84,0,0,0,4.72-7.14,70.89,70.89,0,0,0,3.77-7.1,84.61,84.61,0,0,0,5.34-14.69A90,90,0,0,0,73.16,333c.46-5.95.66-12.1-.47-18s-4-11.75-9.28-15c-.31-.19-.56.27-.28.47Z" transform="translate(10.11 -6.59)"/><path d="M18.31,376.62c6.56,4.69,15.25,3.61,22-.08a27.38,27.38,0,0,0,5.63-3.91.28.28,0,0,0-.34-.44c-1.64,1-3.19,2.18-4.87,3.14a31.91,31.91,0,0,1-5.35,2.45,21,21,0,0,1-11.07.87,16,16,0,0,1-5.76-2.4c-.23-.16-.44.21-.22.37Z" transform="translate(10.11 -6.59)"/><path d="M31.74,385.7c4.75-.1,8.68-3,12.44-5.6,1-.69,2-1.36,3.09-2,.76-.43,2.2-1.24,3-.39s0,2.32-.37,3.13A5.31,5.31,0,0,1,48,383.3c-.13.1,0,.36.12.29,1.53-.59,2.32-2.2,2.81-3.66a2.94,2.94,0,0,0,.06-2.22,1.72,1.72,0,0,0-1.65-.94,4.84,4.84,0,0,0-2.26.77c-1,.55-1.89,1.15-2.8,1.78-1.81,1.23-3.56,2.56-5.46,3.66a15.31,15.31,0,0,1-7,2.26.23.23,0,0,0,0,.46Z" transform="translate(10.11 -6.59)"/><path d="M9.44,364.72a17.64,17.64,0,0,0,5.29,2.33,14.59,14.59,0,0,0,5.65.45c.25,0,.18-.41-.05-.42a25.94,25.94,0,0,1-5.55-.56,19,19,0,0,1-5.15-2.14c-.21-.13-.4.2-.19.34Z" transform="translate(10.11 -6.59)"/><path d="M62.31,318.39a94.49,94.49,0,0,1-4.91,34.43c-1.06,3.09-2.36,6.07-3.54,9.12-.13.32.4.54.56.23a55.42,55.42,0,0,0,3.42-8.05,86.7,86.7,0,0,0,2.55-8.51A90.89,90.89,0,0,0,63,328.41a85.88,85.88,0,0,0-.09-10c0-.35-.56-.36-.55,0Z" transform="translate(10.11 -6.59)"/><path d="M72.75,324a129.36,129.36,0,0,1-3.12,39.9c-.44,1.81-.91,3.61-1.43,5.41S67,373,66.58,374.89c-.07.3.38.53.53.22a45.08,45.08,0,0,0,1.71-4.68c.56-1.61,1-3.27,1.43-4.92q1.29-4.9,2.11-9.92A117.82,117.82,0,0,0,74,335.39a96.52,96.52,0,0,0-.72-11.4c0-.34-.57-.36-.54,0Z" transform="translate(10.11 -6.59)"/><path d="M63.43,375c.06,1.51-.62,3.15,0,4.6s2.6,1.73,4,1.12a4.64,4.64,0,0,0,1.19-.76,5.57,5.57,0,0,0,.51-.46,1.36,1.36,0,0,0,.45-.61.31.31,0,0,0-.38-.38,1.49,1.49,0,0,0-.58.42c-.18.16-.36.32-.55.46a5.23,5.23,0,0,1-1.16.69,2.5,2.5,0,0,1-2.33-.19,2.44,2.44,0,0,1-.77-2.19A24.43,24.43,0,0,0,64,375c0-.36-.58-.36-.56,0Z" transform="translate(10.11 -6.59)"/><path d="M71.61,313.11a74.29,74.29,0,0,1,7.87,30.71c.11,3,.06,6-.13,9,0,.23.32.21.35,0A67,67,0,0,0,75.76,321a69.81,69.81,0,0,0-3.71-8.17c-.15-.29-.59,0-.44.26Z" transform="translate(10.11 -6.59)"/><path d="M92.49,335.12a102.86,102.86,0,0,1-5-44.61c.46-4.29,1.31-8.49,2.06-12.73a.21.21,0,0,0-.4-.11,65,65,0,0,0-2.29,11.14A96,96,0,0,0,86,300.17a99.48,99.48,0,0,0,2.29,22.63A96.19,96.19,0,0,0,92,335.25c.11.31.59.18.48-.13Z" transform="translate(10.11 -6.59)"/><path d="M92.61,302.51q.31-2.65.79-5.29c.3-1.66.76-3.32,1-5,0-.29-.39-.31-.47-.07a30.68,30.68,0,0,0-1.12,5.2c-.29,1.71-.52,3.43-.72,5.15,0,.36.52.35.56,0Z" transform="translate(10.11 -6.59)"/><path d="M67.84,291.68a34.58,34.58,0,0,1,5.54,7.15,39.77,39.77,0,0,1,1.94,3.86A9.55,9.55,0,0,0,77.48,306a.26.26,0,0,0,.43-.12,27.21,27.21,0,0,0,.37-12.53,35.53,35.53,0,0,0-1.8-6.15,26.17,26.17,0,0,0-3-5.78.2.2,0,0,0-.35.2c.9,1.92,1.89,3.79,2.68,5.76a35,35,0,0,1,1.78,5.94,27.32,27.32,0,0,1-.18,12.43l.43-.12a10,10,0,0,1-2.27-3.53,35.26,35.26,0,0,0-2-3.85,33.15,33.15,0,0,0-5.5-6.77c-.15-.14-.37.08-.22.22Z" transform="translate(10.11 -6.59)"/><path d="M83.77,407.83a24.73,24.73,0,0,0,12,.31,58.81,58.81,0,0,0,11-3.38,73.26,73.26,0,0,0,18.66-11.14c1.6-1.32,3.15-2.71,4.63-4.17a34.63,34.63,0,0,0,4.06-4.58c.2-.28-.23-.58-.47-.36-1.28,1.22-2.44,2.57-3.74,3.78s-2.57,2.43-3.92,3.59a72.39,72.39,0,0,1-8.62,6.34,71.4,71.4,0,0,1-19.74,8.7c-4.45,1.19-9.26,1.76-13.76.51a.21.21,0,0,0-.11.4Z" transform="translate(10.11 -6.59)"/><path d="M109.62,418a48.58,48.58,0,0,0,9.83-6.38,45,45,0,0,0,7.91-8.64c.12-.17-.17-.4-.3-.23a56.25,56.25,0,0,1-17.6,15c-.18.1,0,.37.16.27Z" transform="translate(10.11 -6.59)"/><path d="M70.17,453.08a9.37,9.37,0,0,0-1,8.2,8.63,8.63,0,0,0,5.22,5.32.22.22,0,0,0,.17-.41A9.89,9.89,0,0,1,69.83,461a9,9,0,0,1,.85-7.63c.2-.32-.3-.61-.51-.29Z" transform="translate(10.11 -6.59)"/><path d="M120,449.93A29.14,29.14,0,0,1,103.17,462c-.91.24-1.85.44-2.78.59a29.49,29.49,0,0,0-3,.44c-.27.08-.31.54,0,.59a9.09,9.09,0,0,0,2.6-.1c.89-.12,1.78-.3,2.66-.51a29.91,29.91,0,0,0,5.13-1.77,28.83,28.83,0,0,0,8.89-6.24,29.47,29.47,0,0,0,3.77-4.85c.18-.28-.26-.53-.43-.26Z" transform="translate(10.11 -6.59)"/><path d="M103.65,331.67h-.08a.38.38,0,0,1-.29-.45l.3-1.47a.37.37,0,0,1,.44-.29.38.38,0,0,1,.29.44l-.3,1.47A.36.36,0,0,1,103.65,331.67Z" transform="translate(10.11 -6.59)"/><path d="M113.05,375.64a6.32,6.32,0,0,1-1.92-.27,6,6,0,0,1-.66-.26.38.38,0,0,1-.17-.5.37.37,0,0,1,.5-.18,5.48,5.48,0,0,0,.56.23,6.21,6.21,0,0,0,2.13.22.36.36,0,0,1,.39.36.38.38,0,0,1-.36.39Zm3.38-.35a.36.36,0,0,1-.37-.32.37.37,0,0,1,.32-.42l2.9-.43a.36.36,0,0,1,.43.31.38.38,0,0,1-.31.43c-1,.15-2,.3-2.92.43Zm5.81-.91a.38.38,0,0,1-.37-.31.39.39,0,0,1,.3-.44c1-.17,1.93-.35,2.89-.54a.39.39,0,0,1,.44.3.38.38,0,0,1-.29.44l-2.9.54Zm-14-.91a.35.35,0,0,1-.23-.09c-.77-.62-1.52-1.24-2.27-1.88a.38.38,0,0,1,0-.53.37.37,0,0,1,.53,0c.75.63,1.5,1.26,2.26,1.87a.38.38,0,0,1-.24.67Zm19.79-.23a.37.37,0,0,1-.08-.74l1.63-.36a6.7,6.7,0,0,0,1.15-.35.38.38,0,0,1,.3.69,7.53,7.53,0,0,1-1.28.39l-1.64.36Zm4.5-3a.31.31,0,0,1-.13,0,.37.37,0,0,1-.22-.48l1-2.76a.37.37,0,0,1,.48-.22.38.38,0,0,1,.22.48l-1,2.76A.38.38,0,0,1,132.51,370.2Zm-28.77-.54a.38.38,0,0,1-.25-.09c-.74-.66-1.46-1.32-2.18-2a.36.36,0,0,1,0-.53.38.38,0,0,1,.53,0c.71.67,1.44,1.33,2.17,2a.38.38,0,0,1,0,.53A.35.35,0,0,1,103.74,369.66Zm-4.32-4a.4.4,0,0,1-.26-.11l-.83-.81a4,4,0,0,1-1.13-1.58.38.38,0,0,1,.72-.22,3.35,3.35,0,0,0,.94,1.27l.83.8a.38.38,0,0,1-.27.65Zm35.12-1a.32.32,0,0,1-.13,0,.38.38,0,0,1-.22-.48l1-2.76a.37.37,0,0,1,.48-.23.38.38,0,0,1,.23.48l-1,2.77A.37.37,0,0,1,134.54,364.67Zm-36.68-4.15h-.08a.37.37,0,0,1-.29-.44l.58-2.88a.37.37,0,1,1,.73.15l-.58,2.88A.36.36,0,0,1,97.86,360.52Zm38.68-1.38-.12,0a.38.38,0,0,1-.23-.48l1-2.77a.37.37,0,1,1,.7.25l-1,2.77A.35.35,0,0,1,136.54,359.14ZM99,354.75h-.07a.37.37,0,0,1-.29-.44l.58-2.88a.38.38,0,0,1,.44-.3.39.39,0,0,1,.29.45l-.58,2.88A.37.37,0,0,1,99,354.75Zm39.53-1.15a.3.3,0,0,1-.13,0,.37.37,0,0,1-.22-.48l1-2.77a.37.37,0,0,1,.48-.22.37.37,0,0,1,.23.48l-1,2.77A.37.37,0,0,1,138.54,353.6ZM100.17,349h-.07a.39.39,0,0,1-.3-.45l.58-2.88a.38.38,0,0,1,.45-.29.37.37,0,0,1,.29.44l-.58,2.88A.37.37,0,0,1,100.17,349Zm40.37-.92a.3.3,0,0,1-.13,0,.37.37,0,0,1-.22-.48c.33-.93.67-1.85,1-2.76a.39.39,0,0,1,.49-.23.38.38,0,0,1,.22.48l-1,2.77A.37.37,0,0,1,140.54,348.06Zm-39.21-4.85h-.07a.38.38,0,0,1-.3-.45l.58-2.88a.38.38,0,0,1,.44-.29.37.37,0,0,1,.3.44l-.58,2.88A.37.37,0,0,1,101.33,343.21Zm1.16-5.77h-.07a.38.38,0,0,1-.3-.45l.58-2.88a.38.38,0,0,1,.74.15l-.58,2.88A.37.37,0,0,1,102.49,337.44Z" transform="translate(10.11 -6.59)"/><path d="M142.57,342.53a.31.31,0,0,1-.13,0,.36.36,0,0,1-.22-.48l.52-1.4a.36.36,0,0,1,.48-.22.37.37,0,0,1,.22.48l-.52,1.4A.39.39,0,0,1,142.57,342.53Z" transform="translate(10.11 -6.59)"/><path d="M242,350.9a.37.37,0,0,1-.37-.38V349a.38.38,0,0,1,.37-.37h0a.37.37,0,0,1,.37.37v1.5a.38.38,0,0,1-.38.38Z" transform="translate(10.11 -6.59)"/><path d="M260.61,393.33h-.1a4.82,4.82,0,0,1-.86-.08.36.36,0,0,1-.31-.43.38.38,0,0,1,.43-.31,4.54,4.54,0,0,0,.75.07h0a6.59,6.59,0,0,0,2.09-.35.38.38,0,0,1,.22.72A7.25,7.25,0,0,1,260.61,393.33Zm-3.77-1.13a.33.33,0,0,1-.17,0l-.91-.49c-.6-.33-1.19-.67-1.78-1a.37.37,0,0,1-.14-.51.37.37,0,0,1,.51-.14l1.77,1,.89.49a.36.36,0,0,1,.16.5A.35.35,0,0,1,256.84,392.2Zm8.73-.4a.38.38,0,0,1-.35-.22.37.37,0,0,1,.19-.49c.93-.42,1.85-.86,2.75-1.32a.39.39,0,0,1,.51.17.37.37,0,0,1-.17.5c-.91.46-1.84.91-2.78,1.33A.4.4,0,0,1,265.57,391.8Zm-14-2.64a.41.41,0,0,1-.19-.05c-.88-.53-1.76-1.06-2.63-1.6a.39.39,0,0,1-.12-.52.38.38,0,0,1,.52-.12q1.31.81,2.61,1.59a.38.38,0,0,1,.13.52A.36.36,0,0,1,251.52,389.16Zm19.52-.11a.39.39,0,0,1-.33-.19.38.38,0,0,1,.15-.51c.89-.5,1.77-1,2.64-1.54a.37.37,0,0,1,.39.64c-.88.54-1.77,1.06-2.67,1.55A.37.37,0,0,1,271,389.05Zm-24.72-3.13a.33.33,0,0,1-.21-.07l-.75-.49a14.76,14.76,0,0,1-1.79-1.32.38.38,0,0,1,0-.53.37.37,0,0,1,.53,0,13.75,13.75,0,0,0,1.69,1.26l.75.49a.37.37,0,0,1,.11.51A.36.36,0,0,1,246.32,385.92Zm29.62-.43a.45.45,0,0,1-.16,0,.37.37,0,0,1-.18-.5,5.6,5.6,0,0,0,.38-1.75l.12-1.14a.37.37,0,0,1,.41-.33.38.38,0,0,1,.34.41l-.13,1.14a6.29,6.29,0,0,1-.44,2A.38.38,0,0,1,275.94,385.49Zm-33.66-3.94a.37.37,0,0,1-.36-.3,12.28,12.28,0,0,1-.21-2.71v-.42a.38.38,0,1,1,.75,0v.42a11.72,11.72,0,0,0,.19,2.55.38.38,0,0,1-.28.45Zm34.51-2.11h0a.38.38,0,0,1-.33-.41l.3-3a.36.36,0,0,1,.41-.34.37.37,0,0,1,.33.41c-.09,1-.19,2-.3,3.05A.38.38,0,0,1,276.79,379.44Zm-34.72-4a.38.38,0,0,1-.37-.38V372a.37.37,0,0,1,.37-.38h0a.38.38,0,0,1,.38.37v3.07a.39.39,0,0,1-.38.38Zm35.3-2.1h0a.37.37,0,0,1-.34-.4c.09-1,.18-2,.26-3.06a.38.38,0,1,1,.75.07c-.08,1-.17,2-.26,3.05A.37.37,0,0,1,277.37,373.33Zm-35.32-4a.36.36,0,0,1-.37-.37v-3.07a.37.37,0,0,1,.37-.37h0a.37.37,0,0,1,.38.37v3.07a.38.38,0,0,1-.38.37Zm35.84-2.07h0a.38.38,0,0,1-.35-.4c.08-1,.16-2,.23-3.06a.37.37,0,0,1,.4-.34.37.37,0,0,1,.35.4c-.07,1-.15,2-.23,3.06A.37.37,0,0,1,277.89,367.22ZM242,363.16a.38.38,0,0,1-.37-.37v-3.07a.36.36,0,0,1,.37-.37h0a.37.37,0,0,1,.38.37v3.06a.38.38,0,0,1-.38.38Zm36.3-2.05h0a.36.36,0,0,1-.34-.39c.06-1,.13-2,.19-3.06a.36.36,0,0,1,.4-.35.38.38,0,0,1,.35.39c-.06,1-.13,2.05-.2,3.07A.37.37,0,0,1,278.33,361.11ZM242,357a.37.37,0,0,1-.37-.37v-3.07a.37.37,0,0,1,.37-.38h0a.38.38,0,0,1,.38.38v3.06a.38.38,0,0,1-.38.38Z" transform="translate(10.11 -6.59)"/><path d="M278.7,355h0a.38.38,0,0,1-.35-.4l.08-1.49a.38.38,0,1,1,.75,0l-.08,1.5A.37.37,0,0,1,278.7,355Z" transform="translate(10.11 -6.59)"/><path d="M109,271.1c4.36,6,11.74,8.21,18.82,8.9a48.8,48.8,0,0,0,7.05.29.26.26,0,0,0,0-.52c-2.54-.33-5.11-.34-7.65-.62a39,39,0,0,1-7.19-1.39,20.82,20.82,0,0,1-10.66-6.88c-.16-.21-.53,0-.37.22Z" transform="translate(10.11 -6.59)"/><path d="M119.89,289.47a28,28,0,0,0,10.87,1.75,28.41,28.41,0,0,0,5.43-.76,27.52,27.52,0,0,0,2.68-.8,8.94,8.94,0,0,0,2.42-1.14.25.25,0,0,0-.19-.45,23,23,0,0,0-2.53.89q-1.27.45-2.58.78a28.34,28.34,0,0,1-5.34.8A27.66,27.66,0,0,1,120,289.06c-.27-.09-.37.32-.12.41Z" transform="translate(10.11 -6.59)"/><path d="M145.4,303.24c.71,2.44,1.32,4.91,1.81,7.39.25,1.23.46,2.46.65,3.69s.3,2.57.59,3.82c0,.21.36.16.36-.05a23.8,23.8,0,0,0-.39-3.67c-.19-1.27-.42-2.54-.68-3.81-.5-2.52-1.13-5-1.86-7.5a.25.25,0,0,0-.48.13Z" transform="translate(10.11 -6.59)"/><path d="M256.07,301.94c6.68,3.75,14.75,4.07,22.23,3.89a.26.26,0,0,0,0-.51c-7.47-.24-15.22-.11-22-3.81-.28-.15-.53.28-.25.43Z" transform="translate(10.11 -6.59)"/><path d="M250,312.13a16.14,16.14,0,0,0,4,10.29c.16.17.47-.05.33-.26a26.07,26.07,0,0,1-2.6-4.75,18.43,18.43,0,0,1-1.21-5.28c0-.35-.57-.36-.55,0Z" transform="translate(10.11 -6.59)"/><path d="M242.51,399.05a54.38,54.38,0,0,0,14.62,19.18,39.24,39.24,0,0,0,5.51,3.87c.22.12.39-.19.19-.34a73.11,73.11,0,0,1-9.24-7.7,58,58,0,0,1-7.44-9.31,51.61,51.61,0,0,1-3.26-5.92c-.12-.26-.5,0-.38.22Z" transform="translate(10.11 -6.59)"/><path d="M239.91,413.19a38,38,0,0,0,1.81,7.59,24.18,24.18,0,0,0,3.36,6.86c.14.18.39-.06.3-.24-.52-1.14-1.17-2.23-1.71-3.36s-1.07-2.38-1.51-3.61a37.4,37.4,0,0,1-1.78-7.3c0-.26-.5-.2-.47.06Z" transform="translate(10.11 -6.59)"/><path d="M303.26,378c-1,6.59-5.31,11.94-9.51,16.85a84.94,84.94,0,0,0-6.21,7.8c-.65,1-1.77,2.39-1.23,3.64s2,.95,2.92.47a50.9,50.9,0,0,0,4.93-3,35.84,35.84,0,0,0,4.82-3.55c.23-.21-.06-.58-.33-.43-1.42.83-2.74,1.85-4.11,2.76s-2.78,1.8-4.19,2.65a11.16,11.16,0,0,1-1.94,1.08c-.78.28-1.58.05-1.39-.93a5.3,5.3,0,0,1,.9-1.79c.43-.66.87-1.3,1.34-1.94,3.59-4.94,8-9.23,11.16-14.52a24,24,0,0,0,3.26-9c0-.24-.38-.3-.42-.06Z" transform="translate(10.11 -6.59)"/><path d="M304.07,406c-.26,9.28-6.45,17.12-13.5,22.56-1,.78-2.07,1.53-3.12,2.26a37.22,37.22,0,0,0-3.11,2.14c-.28.24.08.58.36.46a19.42,19.42,0,0,0,3.05-1.86c1-.66,2-1.36,2.91-2.08a50.06,50.06,0,0,0,5.2-4.56,31.83,31.83,0,0,0,7.36-11.42,23.68,23.68,0,0,0,1.37-7.5c0-.33-.51-.33-.52,0Z" transform="translate(10.11 -6.59)"/><path d="M280.89,460.06a26.86,26.86,0,0,0,4.38.62c.72,0,1.45.05,2.18,0a9.23,9.23,0,0,0,2.23-.23.24.24,0,0,0-.06-.47c-.72-.05-1.46.06-2.17.08s-1.4,0-2.1,0a29.8,29.8,0,0,1-4.32-.52c-.34-.07-.48.43-.14.51Z" transform="translate(10.11 -6.59)"/><path d="M154.36,246.26a4,4,0,0,1,2.73.16,4.08,4.08,0,0,1,1.15.73,4.45,4.45,0,0,1,.48.49,4.7,4.7,0,0,0,.45.55c.13.1.4.05.38-.16a2.43,2.43,0,0,0-.85-1.29,4.65,4.65,0,0,0-1.36-.83,4.5,4.5,0,0,0-3.11-.12c-.29.1-.17.56.13.47Z" transform="translate(10.11 -6.59)"/><path d="M151.47,250.43a3.94,3.94,0,0,1,2.8-.3,5.71,5.71,0,0,1,2.4,1.5c.09.08.29,0,.23-.14a3.53,3.53,0,0,0-2.5-1.84,4.44,4.44,0,0,0-3.16.39c-.26.14,0,.53.23.39Z" transform="translate(10.11 -6.59)"/><path d="M151.36,255.72c.93-.28,1.87-.53,2.81-.75l1.48-.32a5.8,5.8,0,0,0,1.33-.26c.17-.07.12-.33,0-.38a3.75,3.75,0,0,0-1.33.11c-.52.09-1,.2-1.52.33-1,.24-1.91.52-2.84.84-.27.1-.16.52.12.43Z" transform="translate(10.11 -6.59)"/><path d="M158.08,257.63a7.37,7.37,0,0,0-2.84,1.2,6.52,6.52,0,0,0-1.16,1,3.85,3.85,0,0,0-.88,1.29c-.08.24.23.38.4.23a5,5,0,0,0,.47-.55c.15-.18.32-.36.49-.53a9.2,9.2,0,0,1,1.07-.91,7.67,7.67,0,0,1,2.59-1.21.27.27,0,0,0-.14-.52Z" transform="translate(10.11 -6.59)"/><path d="M160.09,262.69a10.28,10.28,0,0,0-3,2.62,6.93,6.93,0,0,0-1.58,3.57.19.19,0,0,0,.35.1,24.93,24.93,0,0,1,1.81-3.23,10.4,10.4,0,0,1,2.72-2.53.31.31,0,0,0-.31-.53Z" transform="translate(10.11 -6.59)"/><path d="M163,269.31a22.1,22.1,0,0,0-2.51,2.95,10.72,10.72,0,0,0-1.75,3.41.23.23,0,0,0,.42.18c.36-.5.66-1.06,1-1.58s.65-1.06,1-1.57a20.39,20.39,0,0,1,2.37-2.88c.32-.33-.18-.84-.51-.51Z" transform="translate(10.11 -6.59)"/><path d="M167.13,275c-.66.89-1.29,1.81-1.88,2.75-.28.47-.57.94-.83,1.42a5.42,5.42,0,0,0-.69,1.51c0,.27.27.52.48.29a7.11,7.11,0,0,0,.81-1.39c.28-.49.55-1,.84-1.47.57-.95,1.18-1.88,1.83-2.78.25-.34-.31-.65-.56-.33Z" transform="translate(10.11 -6.59)"/><path d="M171.92,279.19c-.58,1.17-1.15,2.35-1.73,3.53l-.81,1.72a6.3,6.3,0,0,0-.68,1.78c0,.21.28.31.41.17a6,6,0,0,0,.9-1.58c.29-.59.57-1.18.85-1.78l1.62-3.51c.18-.38-.38-.72-.56-.33Z" transform="translate(10.11 -6.59)"/><path d="M179.24,283.33c-.6,1.27-1.28,2.5-1.94,3.73a18.46,18.46,0,0,0-1.76,3.77.2.2,0,0,0,.37.16,31.25,31.25,0,0,0,2-3.61c.64-1.23,1.3-2.45,1.88-3.7.18-.4-.4-.74-.59-.35Z" transform="translate(10.11 -6.59)"/><path d="M186.47,286.16q-1,2.1-2.1,4.12c-.38.7-.78,1.39-1.19,2.07a10.78,10.78,0,0,0-1.09,1.89c-.1.3.28.43.48.27a6.13,6.13,0,0,0,1.25-1.72c.42-.69.81-1.41,1.2-2.13q1.08-2,2-4.15c.18-.4-.41-.75-.6-.35Z" transform="translate(10.11 -6.59)"/><path d="M193.87,287.81a69.88,69.88,0,0,1-3.41,9.71c-.12.3.32.43.49.21a18.36,18.36,0,0,0,2.13-4.71,44.42,44.42,0,0,0,1.49-5c.1-.46-.59-.65-.7-.19Z" transform="translate(10.11 -6.59)"/><path d="M199.67,289.18a35.5,35.5,0,0,1-.85,4.91c-.19.78-.41,1.56-.65,2.32a9,9,0,0,0-.69,2.29.3.3,0,0,0,.51.21,6.72,6.72,0,0,0,1-2.28c.26-.79.47-1.6.65-2.41a27.58,27.58,0,0,0,.64-5c0-.39-.54-.37-.58,0Z" transform="translate(10.11 -6.59)"/><path d="M206.61,288.74a20.1,20.1,0,0,1-1.48,11c-.08.19.2.33.33.2,1.33-1.39,1.69-3.57,1.94-5.4a19.06,19.06,0,0,0-.08-6c-.09-.46-.79-.26-.71.19Z" transform="translate(10.11 -6.59)"/><path d="M211.46,288.05a16.41,16.41,0,0,1,.34,5.76,18,18,0,0,1-1.35,5.65.28.28,0,0,0,.48.29,12.34,12.34,0,0,0,1.56-5.78,16.35,16.35,0,0,0-.48-6.07c-.11-.35-.66-.21-.55.15Z" transform="translate(10.11 -6.59)"/><path d="M216.62,286.71c1.17,1.52,1.36,3.81,1.39,5.66a15.21,15.21,0,0,1-.27,3.23,11,11,0,0,1-.34,1.28,8.1,8.1,0,0,0-.49,1.09.28.28,0,0,0,.41.31c.71-.34,1-1.72,1.18-2.4a14.26,14.26,0,0,0,.26-3.51c-.08-2-.37-4.41-1.67-6-.21-.25-.67.09-.47.36Z" transform="translate(10.11 -6.59)"/><path d="M221.67,284.86a9.69,9.69,0,0,1,1.55,4.85,13.7,13.7,0,0,1,0,2.64c0,.43-.09.87-.16,1.29a11.07,11.07,0,0,0-.22,1.12c0,.34.41.38.58.16a5.15,5.15,0,0,0,.66-2.44,14.14,14.14,0,0,0,0-3,9.68,9.68,0,0,0-1.9-5c-.2-.25-.65.09-.45.35Z" transform="translate(10.11 -6.59)"/><path d="M225.25,281.7a8.81,8.81,0,0,1,2.26,3.91,13,13,0,0,1,.49,2.31,10,10,0,0,1,.07,1.1,3.3,3.3,0,0,0,.05,1,.25.25,0,0,0,.45.06,2.09,2.09,0,0,0,.21-1.05,9.78,9.78,0,0,0,0-1.21,11.22,11.22,0,0,0-.53-2.51,9.46,9.46,0,0,0-2.47-4.16c-.34-.31-.84.19-.5.51Z" transform="translate(10.11 -6.59)"/><path d="M228.73,278.4a5.27,5.27,0,0,1,2.36.64,7.29,7.29,0,0,1,1,.69c.16.12.31.25.46.38a1.61,1.61,0,0,0,.62.4.3.3,0,0,0,.37-.36,1.34,1.34,0,0,0-.43-.6c-.17-.16-.35-.31-.53-.45a6.9,6.9,0,0,0-1.17-.76,6,6,0,0,0-2.7-.61.34.34,0,0,0,0,.67Z" transform="translate(10.11 -6.59)"/><path d="M230.8,274.31a8.33,8.33,0,0,1,2.08.79,5.11,5.11,0,0,1,1,.61c.26.21.48.46.73.68s.48.06.45-.19a1.56,1.56,0,0,0-.61-1,6.2,6.2,0,0,0-1.11-.72,8.88,8.88,0,0,0-2.33-.88c-.44-.09-.62.58-.18.67Z" transform="translate(10.11 -6.59)"/><path d="M232.15,270.1a5.46,5.46,0,0,1,2.13-.07,7.81,7.81,0,0,1,1.09.23c.3.08.66.29,1,.2a.15.15,0,0,0,.1-.18c-.09-.37-.56-.51-.87-.61a5.5,5.5,0,0,0-1.21-.23,6.17,6.17,0,0,0-2.34.2.24.24,0,0,0,.13.46Z" transform="translate(10.11 -6.59)"/><path d="M232.59,266.73a5.21,5.21,0,0,1,2.22-.59,2.86,2.86,0,0,1,1.09.11,1.19,1.19,0,0,1,.38.17,4.15,4.15,0,0,1,.27.32.22.22,0,0,0,.36-.15c0-.38-.36-.71-.66-.85a2.82,2.82,0,0,0-1.32-.2,5.79,5.79,0,0,0-2.6.75.26.26,0,0,0,.26.44Z" transform="translate(10.11 -6.59)"/><path d="M231,262.89a6.88,6.88,0,0,1,2.46-.74,7,7,0,0,1,1.29,0l.6.06a2.43,2.43,0,0,0,.66,0,.26.26,0,0,0,.11-.42,2.36,2.36,0,0,0-1.33-.36,6.76,6.76,0,0,0-1.42.06,6.84,6.84,0,0,0-2.63,1,.26.26,0,0,0,.26.45Z" transform="translate(10.11 -6.59)"/><path d="M227.75,260.57c1-.3,1.94-.77,2.91-1.14a7,7,0,0,1,2.91-.64c.17,0,.25-.26.09-.33-.94-.42-2.09,0-3,.38s-2,.91-3,1.24c-.31.1-.18.59.13.49Z" transform="translate(10.11 -6.59)"/><path d="M225.71,257.16a5.09,5.09,0,0,1,1.88-1,3.9,3.9,0,0,1,1-.18,4.1,4.1,0,0,1,.5,0,1.7,1.7,0,0,0,.5,0c.2,0,.21-.28.11-.41a1.51,1.51,0,0,0-1.08-.28,4.53,4.53,0,0,0-1.21.22,5.46,5.46,0,0,0-2.05,1.21c-.23.21.1.53.33.33Z" transform="translate(10.11 -6.59)"/><path d="M213.62,382.86c-1.1,3.74-4.43,6.48-7.56,8.54a90.17,90.17,0,0,1-11,6,177.13,177.13,0,0,1-25.95,9.86c-5,1.47-10,2.76-15,3.93-.34.08-.19.57.14.51a167.17,167.17,0,0,0,27.38-7.77c4.36-1.62,8.67-3.41,12.89-5.38a99.71,99.71,0,0,0,11.37-6c3.45-2.19,7.45-5.22,8.34-9.46a.29.29,0,0,0-.55-.15Z" transform="translate(10.11 -6.59)"/><path d="M169.6,427.83A87.15,87.15,0,0,0,202.32,424a53.42,53.42,0,0,0,8.58-3.32c.3-.16.09-.67-.23-.55-2.57.92-5.08,2-7.68,2.86s-5.24,1.6-7.9,2.21a88.4,88.4,0,0,1-16.27,2.18,85.94,85.94,0,0,1-9.22-.1c-.33,0-.33.49,0,.51Z" transform="translate(10.11 -6.59)"/><path d="M166.37,332.25a73.84,73.84,0,0,0,9.75,7.79q2.58,1.68,5.3,3.11a41.11,41.11,0,0,0,5.76,2.66.26.26,0,0,0,.2-.48c-1.85-1-3.78-1.77-5.63-2.75s-3.53-1.95-5.22-3.05a77,77,0,0,1-9.79-7.66c-.25-.23-.62.14-.37.38Z" transform="translate(10.11 -6.59)"/><path d="M177.08,340.24a.49.49,0,0,1-.5-.49l-.33-16.12-9.86-1.28a.5.5,0,0,1-.43-.56.5.5,0,0,1,.56-.43l10.29,1.34a.49.49,0,0,1,.43.48l.34,16.55a.5.5,0,0,1-.49.51Z" transform="translate(10.11 -6.59)"/><path d="M184.79,372.55h0a.48.48,0,0,1-.48-.41L178.71,342a.5.5,0,1,1,1-.19l5.15,27.8,10.53-46.71a.49.49,0,0,1,.49-.39l15.95-.11h0a.5.5,0,0,1,.5.47l2.16,32a.49.49,0,0,1-.47.53.52.52,0,0,1-.53-.46l-2.13-31.51-15.08.11-11,48.69A.5.5,0,0,1,184.79,372.55Z" transform="translate(10.11 -6.59)"/><path d="M161.65,409.89h-.06a.5.5,0,0,1-.44-.55l4.92-43.83a.49.49,0,0,1,.48-.44.5.5,0,0,1,.51.42l4.85,29.32h20.21l8.62-31.16a.5.5,0,0,1,.55-.37.51.51,0,0,1,.44.49l.74,30.33a.49.49,0,0,1-.49.51.48.48,0,0,1-.51-.48l-.66-27L193,395.44a.5.5,0,0,1-.49.37h-21a.51.51,0,0,1-.5-.42l-4.33-26.18-4.51,40.24A.51.51,0,0,1,161.65,409.89Z" transform="translate(10.11 -6.59)"/><path d="M160.23,435.61h0l-17.59-.45a.5.5,0,0,1-.49-.51.54.54,0,0,1,.51-.49l17.15.44,3.37-25.2a.5.5,0,0,1,.56-.43.51.51,0,0,1,.43.56l-3.43,25.64A.51.51,0,0,1,160.23,435.61Z" transform="translate(10.11 -6.59)"/><path d="M205,433.67a.47.47,0,0,1-.32-.12.49.49,0,0,1-.18-.37l-.59-39.8a.49.49,0,0,1,.49-.51h0a.51.51,0,0,1,.5.49l.58,39.24,10.48-1.42a.5.5,0,0,1,.13,1l-11,1.49Z" transform="translate(10.11 -6.59)"/><path d="M288.19,181.8c-.94,12.08,8.93,21.1,13.75,31.23a31.17,31.17,0,0,1,2.68,9.15c0,.32.56.24.56-.07-.14-5.55-3.11-10.84-6-15.41-3.14-5-6.74-9.72-8.88-15.24a22.36,22.36,0,0,1-1.63-9.66c0-.31-.46-.31-.48,0Z" transform="translate(10.11 -6.59)"/></g></svg>